<?xml version="1.0" encoding="UTF-8"?>
<!DOCTYPE svg PUBLIC "-//W3C//DTD SVG 1.1//EN" "http://www.w3.org/Graphics/SVG/1.1/DTD/svg11.dtd">
<!-- Creator: CorelDRAW 2018 (64-Bit) -->
<svg xmlns="http://www.w3.org/2000/svg" xml:space="preserve" width="81.944mm" height="49.96mm" version="1.1" style="shape-rendering:geometricPrecision; text-rendering:geometricPrecision; image-rendering:optimizeQuality; fill-rule:evenodd; clip-rule:evenodd"
viewBox="0 0 9071.41 5530.7"
 xmlns:xlink="http://www.w3.org/1999/xlink">
 <defs>
  <style type="text/css">
   <![CDATA[
    .fil0 {fill:#727271}
    .fil1 {fill:#2E2650}
    .fil2 {fill:#727271;fill-rule:nonzero}
   ]]>
  </style>
 </defs>
 <g id="Layer_x0020_1">
  <metadata id="CorelCorpID_0Corel-Layer"/>
  <path class="fil0" d="M4050.76 1665.62l0 -291.91 313.6 -4.3c0,150.25 -68.3,296.21 -313.6,296.21zm-1515.19 150.25l369.48 0 -6.21 -1028.13c0,-124.48 142.83,-227.52 263.91,-227.52l0 817.77 555.78 0 0 620.31 487.47 0c180.09,-25.75 326.02,-105.17 422.26,-246.83 65.2,-92.29 105.58,-257.57 105.58,-373.48l0 -362.74c-403.64,0 -807.28,0 -1210.92,0 0,-279.03 -9.31,-549.47 -9.31,-828.51l-350.86 0c-490.58,0 -633.4,371.33 -633.4,646.07 0,328.4 6.21,654.65 6.21,983.05z"/>
  <path class="fil0" d="M4876.67 1901.71c161.46,42.93 593.04,-38.64 726.55,-103.02l0 109.46c226.66,0 400.53,-6.44 605.45,-77.27 518.52,-182.45 630.3,-658.95 630.3,-1025.98l0 -804.9 -363.27 0 0 772.7c0,294.06 -31.05,497.96 -242.18,637.48 -86.93,55.81 -186.29,94.44 -288.76,118.05 96.26,-109.47 183.19,-330.55 183.19,-472.21 -114.88,0 -220.45,0 -332.23,0 -83.82,208.2 -176.98,401.37 -546.46,478.64l-3.1 -1534.67 -366.38 0c0,633.19 -3.11,1268.52 -3.11,1901.7z"/>
  <path class="fil0" d="M7857.39 1472.44c58.99,-107.33 142.82,-302.65 142.82,-416.41l-341.54 0c-18.62,160.98 -136.61,306.93 -319.8,405.67l-9.32 -1461.69 -357.06 0c0,637.48 3.1,1279.26 -9.32,1914.59 248.39,12.87 518.52,-113.76 686.19,-229.66l0 212.49c164.56,0 422.26,-139.52 543.36,-223.23l0 223.23c49.67,0 198.71,-47.23 251.49,-66.54 385.01,-135.22 627.2,-485.09 627.2,-774.85 -114.89,0 -220.45,0 -338.44,0 -12.42,45.08 -24.84,107.33 -90.05,206.06 -77.61,113.76 -149.03,154.53 -260.8,212.48 62.09,-81.55 145.93,-266.15 145.93,-414.25 -114.89,0 -223.55,4.3 -341.54,4.3 -12.42,111.61 -176.98,397.08 -329.12,407.82z"/>
  <circle class="fil1" cx="5723.05" cy="592.46" r="298.55"/>
  <path class="fil0" d="M6337.58 2013.29c96.49,248.43 210.91,349.85 364.85,347.48 0,0 358.27,0.22 1074.79,0.68 -119.91,-255.96 -172.86,-327.57 -445.93,-344.77 0,0 -331.24,-1.13 -993.71,-3.39z"/>
  <path class="fil0" d="M6899.96 4043.85c-8.45,-1050.36 -12.66,-1575.53 -12.66,-1575.53 165.21,1.51 270.2,1.73 352.05,0.73 9.16,827.4 13.73,1241.11 13.73,1241.11 4.66,178 -103.65,289.51 -353.11,333.69z"/>
  <path class="fil0" d="M5520.99 2024.87c243.24,7.72 364.85,11.58 364.85,11.58 3.86,1030.86 5.79,1546.3 5.79,1546.3 305.77,-74.03 487.24,-234.26 544.39,-480.68 231.66,-3.86 347.48,-5.8 347.48,-5.8 -97.95,612.99 -520.72,900.63 -1268.31,862.92 3.85,-1289.54 5.79,-1934.32 5.79,-1934.32z"/>
  <path class="fil0" d="M4814.43 2945.71c-294.31,3.52 -434.84,5.28 -434.84,5.28l0.5 336.4c239.39,0 359.06,0 359.06,0 170.07,2.28 264.68,102.67 283.76,301.14 -420.82,-3.86 -631.25,-5.78 -631.25,-5.78l-0.19 370.59c671.82,-7.07 1002.11,-10.56 1002.11,-10.56 0,-255.48 0,-383.19 0,-383.19 -27.3,-370.73 -220.34,-575.35 -579.16,-613.89z"/>
  <path class="fil0" d="M3898.09 4043.85c-8.44,-1050.36 -12.65,-1575.53 -12.65,-1575.53 165.21,1.51 270.19,1.73 352.05,0.73 9.14,827.4 13.73,1241.11 13.73,1241.11 4.65,178 -103.66,289.51 -353.12,333.69z"/>
  <path class="fil0" d="M2528.78 2024.87c243.24,7.72 364.85,11.58 364.85,11.58 3.86,1030.86 5.8,1546.3 5.8,1546.3 305.76,-74.03 487.22,-234.26 544.38,-480.68 231.66,-3.86 347.48,-5.8 347.48,-5.8 -97.95,612.99 -520.71,900.63 -1268.31,862.92 3.86,-1289.54 5.79,-1934.32 5.79,-1934.32z"/>
  <path class="fil1" d="M6335.85 4016.81c144.71,0 262.02,117.31 262.02,262.02 0,144.71 -117.31,262.02 -262.02,262.02 -144.71,0 -262.02,-117.31 -262.02,-262.02 0,-144.71 117.31,-262.02 262.02,-262.02z"/>
  <path class="fil1" d="M5797.1 4016.81c144.71,0 262.02,117.31 262.02,262.02 0,144.71 -117.31,262.02 -262.02,262.02 -144.71,0 -262.02,-117.31 -262.02,-262.02 0,-144.71 117.31,-262.02 262.02,-262.02z"/>
  <path class="fil1" d="M6086.07 4521.26c144.71,0 262.02,117.31 262.02,262.02 0,144.72 -117.31,262.03 -262.02,262.03 -144.72,0 -262.02,-117.31 -262.02,-262.03 0,-144.71 117.3,-262.02 262.02,-262.02z"/>
  <path class="fil1" d="M3380.12 2312.43c173.12,0 313.44,140.33 313.44,313.44 0,173.12 -140.33,313.45 -313.44,313.45 -173.12,0 -313.45,-140.34 -313.45,-313.45 0,-173.12 140.34,-313.44 313.45,-313.44z"/>
  <path class="fil2" d="M2235.29 4197.67c15.89,9.78 27.19,25.66 33.92,47.67 6.72,22.01 9.17,47.98 7.33,77.93 -1.83,29.95 -7.94,62.96 -18.33,99.01 -10.39,36.07 -25.36,72.43 -44.92,109.11 -28.12,53.78 -60.82,102.07 -98.1,144.85 -37.28,42.79 -74.26,75.79 -110.93,99.01 66.01,-18.33 126.52,-49.82 181.53,-94.43 55.01,-44.62 96.58,-98.1 124.7,-160.44l42.17 44c-22,46.45 -50.42,88.63 -85.26,126.52 -34.84,37.89 -73.34,70.29 -115.52,97.19 -42.18,26.89 -85.87,47.06 -131.1,60.51 -45.23,13.44 -88.63,18.33 -130.19,14.67 -12.23,1.22 -23.23,0.61 -33.01,-1.84 -9.78,-2.44 -19.56,-5.5 -29.34,-9.17 -9.78,-3.66 -17.72,-9.78 -23.83,-18.33 -3.68,-4.89 -6.72,-9.18 -9.17,-12.84l45.84 -58.67 7.33 7.33c2.45,2.45 4.58,4.58 6.42,6.42 1.84,1.84 3.97,3.37 6.42,4.58 9.78,6.11 22.62,2.76 38.5,-10.08 15.89,-12.83 33.01,-30.86 51.34,-54.09 18.33,-23.23 36.68,-50.42 55.01,-81.6 18.33,-31.17 34.84,-62.65 49.51,-94.43 13.45,-28.12 26.28,-57.16 38.5,-87.1 12.23,-29.95 22.32,-57.45 30.27,-82.52 7.94,-25.05 12.52,-46.45 13.75,-64.17 1.22,-17.72 -2.45,-29.04 -11,-33.92 -8.56,-3.66 -21.7,2.14 -39.42,17.41 -17.72,15.28 -37.28,36.68 -58.68,64.19 -21.39,27.5 -42.48,58.06 -63.26,91.68 -20.78,33.61 -38.5,66.92 -53.17,99.93l-5.51 7.33 -267.71 566.6 -150.36 0 432.75 -911.33 148.52 0 -12.83 25.67c31.78,-24.44 62.96,-40.64 93.51,-48.59 30.56,-7.95 58.68,-3.97 84.36,11.92zm679.91 10.99l-185.19 397.91 -3.66 7.33c-20.79,42.79 -33.62,74.88 -38.51,96.27 -4.88,21.4 0.61,32.09 16.51,32.09 24.44,0 50.73,-19.87 78.84,-59.6 28.12,-39.72 58.07,-93.81 89.85,-162.27l42.18 44c-44,94.13 -89.24,167.17 -135.69,219.12 -46.45,51.95 -97.79,77.92 -154.02,77.92 -57.45,0 -89.24,-28.12 -95.36,-84.34 -36.66,35.45 -73.65,60.82 -110.93,76.1 -37.28,15.28 -71.81,13.14 -103.6,-6.42 -31.78,-20.78 -46.45,-61.12 -44,-121.02 2.44,-59.9 22.62,-127.74 60.5,-203.54 35.46,-72.12 71.51,-131.71 108.19,-178.77 36.68,-47.07 72.12,-83.44 106.35,-109.11 34.23,-25.67 66.62,-41.56 97.19,-47.67 30.55,-6.11 56.83,-4.28 78.84,5.5 17.11,8.56 28.73,20.17 34.84,34.84l9.18 -18.34 148.52 0zm-275.04 291.56c13.44,-30.56 25.97,-59.29 37.58,-86.18 11.61,-26.9 20.17,-51.04 25.67,-72.43 5.5,-21.39 7.95,-39.11 7.34,-53.17 -0.62,-14.06 -6.42,-24.14 -17.42,-30.25 -9.78,-6.12 -22.92,-3.37 -39.42,8.25 -16.51,11.61 -34.23,28.42 -53.18,50.42 -18.94,22.01 -38.19,48.29 -57.75,78.84 -19.56,30.56 -36.68,61.74 -51.34,93.52 -13.45,28.12 -25.06,55.93 -34.84,83.43 -9.79,27.51 -17.11,52.87 -22.01,76.1 -4.89,23.23 -7.03,42.79 -6.41,58.68 0.61,15.89 5.8,25.67 15.59,29.34 8.55,4.89 20.78,1.22 36.66,-11 15.9,-12.22 33.01,-29.65 51.34,-52.25 18.34,-22.62 37.28,-49.21 56.85,-79.77 19.55,-30.55 36.68,-61.73 51.34,-93.51zm254.51 22c36.68,-72.12 73.35,-131.71 110.02,-178.77 36.68,-47.07 72.13,-83.44 106.35,-109.11 34.23,-25.67 66.32,-41.56 96.27,-47.67 29.96,-6.11 56.54,-4.28 79.77,5.5 17.11,8.56 28.73,20.17 34.84,34.84 55.01,-110.02 107.26,-208.12 156.78,-294.3 49.51,-86.18 95.66,-157.09 138.43,-212.7 42.79,-55.62 82.21,-94.74 118.27,-117.36 36.06,-22.61 68.15,-25.36 96.27,-8.25 25.67,15.89 35.14,48.9 28.42,99.01 -6.72,50.13 -29.95,113.08 -69.68,188.87 -39.73,75.79 -95.35,162.89 -166.86,261.29 -71.51,98.4 -159.22,203.85 -263.13,316.31 -20.78,50.12 -36.97,92.29 -48.59,126.52 -11.61,34.23 -19.26,62.34 -22.93,84.34 -3.66,22.01 -4.27,38.81 -1.83,50.42 2.45,11.61 6.72,18.64 12.83,21.09 7.33,4.88 19.56,2.45 36.68,-7.34 17.11,-9.78 36.06,-24.75 56.83,-44.92 20.79,-20.17 41.57,-44.92 62.35,-74.26 20.78,-29.34 39.12,-61.13 55.01,-95.35l42.18 44c-55.01,116.13 -112.46,196.2 -172.36,240.2 -59.9,44.02 -113.07,58.68 -159.52,44.02 -20.79,-6.11 -37.89,-19.56 -51.34,-40.34 -13.45,-20.78 -18.95,-52.57 -16.51,-95.35 -22.01,28.11 -44.92,53.17 -68.76,75.18 -23.85,22 -47.68,39.42 -71.51,52.25 -23.83,12.84 -47.37,20.17 -70.59,22.01 -23.23,1.84 -44.62,-3.35 -64.17,-15.59 -31.79,-20.78 -46.46,-61.12 -44.02,-121.02 2.45,-59.9 22.62,-127.74 60.51,-203.54zm363.06 -264.04c-10.99,-6.12 -24.75,-3.37 -41.25,8.25 -16.51,11.61 -34.23,28.42 -53.18,50.42 -18.95,22.01 -38.2,48.29 -57.75,78.84 -19.56,30.56 -36.68,61.74 -51.34,93.52 -13.45,28.12 -25.06,55.93 -34.84,83.43 -9.79,27.51 -17.11,52.87 -22.01,76.1 -4.89,23.23 -6.72,42.79 -5.5,58.68 1.22,15.89 6.11,25.67 14.67,29.34 8.56,4.89 20.78,1.22 36.68,-11 15.89,-12.22 33,-29.34 51.34,-51.34 18.33,-22 36.97,-48.29 55.92,-78.84 18.95,-30.56 35.76,-61.74 50.44,-93.52 17.11,-48.9 39.11,-101.46 66.01,-157.68 6.11,-22.01 8.56,-40.34 7.33,-55.01 -1.22,-14.68 -6.72,-25.06 -16.51,-31.17zm520.76 -520.77c-6.11,-3.66 -18.33,5.81 -36.66,28.43 -18.34,22.62 -41.57,56.85 -69.69,102.69 -28.11,45.83 -60.81,102.68 -98.09,170.53 -37.28,67.84 -77.93,145.16 -121.94,231.95 48.9,-63.57 94.74,-125.91 137.53,-187.03 42.78,-61.12 79.15,-116.44 109.1,-165.94 29.96,-49.51 52.56,-90.46 67.85,-122.86 15.28,-32.39 19.25,-51.64 11.91,-57.76zm337.03 471.25l-185.21 397.91 -3.66 7.33c-20.78,42.79 -33.61,74.88 -38.5,96.27 -4.89,21.4 0.61,32.09 16.51,32.09 24.44,0 50.72,-19.87 78.84,-59.6 28.12,-39.72 58.06,-93.81 89.85,-162.27l42.18 44c-44.02,94.13 -89.24,167.17 -135.69,219.12 -46.45,51.95 -97.79,77.92 -154.03,77.92 -57.45,0 -89.24,-28.12 -95.35,-84.34 -36.68,35.45 -73.65,60.82 -110.93,76.1 -37.28,15.28 -71.82,13.14 -103.6,-6.42 -31.79,-20.78 -46.46,-61.12 -44.02,-121.02 2.45,-59.9 22.62,-127.74 60.51,-203.54 35.45,-72.12 71.51,-131.71 108.19,-178.77 36.68,-47.07 72.12,-83.44 106.35,-109.11 34.23,-25.67 66.62,-41.56 97.17,-47.67 30.56,-6.11 56.85,-4.28 78.85,5.5 17.11,8.56 28.73,20.17 34.84,34.84l9.17 -18.34 148.53 0zm-275.05 291.56c13.45,-30.56 25.98,-59.29 37.59,-86.18 11.61,-26.9 20.17,-51.04 25.67,-72.43 5.5,-21.39 7.94,-39.11 7.33,-53.17 -0.61,-14.06 -6.41,-24.14 -17.41,-30.25 -9.79,-6.12 -22.93,-3.37 -39.43,8.25 -16.49,11.61 -34.22,28.42 -53.17,50.42 -18.95,22.01 -38.2,48.29 -57.75,78.84 -19.56,30.56 -36.68,61.74 -51.34,93.52 -13.45,28.12 -25.06,55.93 -34.84,83.43 -9.79,27.51 -17.13,52.87 -22.01,76.1 -4.89,23.23 -7.03,42.79 -6.42,58.68 0.61,15.89 5.81,25.67 15.59,29.34 8.56,4.89 20.78,1.22 36.68,-11 15.89,-12.22 33,-29.65 51.34,-52.25 18.33,-22.62 37.28,-49.21 56.83,-79.77 19.56,-30.55 36.68,-61.73 51.34,-93.51zm767.93 20.17l42.18 44c-44.02,94.13 -89.24,167.17 -135.69,219.12 -46.45,51.95 -97.79,77.92 -154.03,77.92 -28.12,0 -50.42,-6.72 -66.93,-20.17 -16.49,-13.44 -24.44,-36.06 -23.83,-67.84 0.62,-31.78 12.22,-73.65 34.84,-125.61 22.62,-51.94 58.98,-115.82 109.11,-191.61 26.89,-39.11 46.14,-71.81 57.75,-98.09 11.61,-26.28 10.7,-39.42 -2.75,-39.42 -11,0 -29.04,11.91 -54.1,35.76 -25.05,23.83 -53.17,55.62 -84.34,95.35 -31.17,39.73 -63.88,85.87 -98.09,138.43 -34.23,52.56 -66.01,106.97 -95.36,163.2l-49.51 104.51 -152.19 0 308.05 -645.44 148.53 0 -78.84 165.04c46.45,-53.79 90.46,-94.75 132.02,-122.86 41.56,-28.12 78.84,-42.18 111.84,-42.18 15.9,0 29.65,4.27 41.26,12.83 11.61,8.57 19.87,20.48 24.75,35.46 4.89,15.28 5.81,33.31 2.76,54.09 -3.06,20.78 -11.31,42.48 -24.75,65.7 -44.02,77.93 -79.46,141.19 -106.35,189.18 -26.9,47.98 -46.76,85.57 -59.6,112.46 -12.83,26.59 -19.55,44.61 -20.17,53.78 -0.61,9.18 2.76,13.76 10.1,13.76 24.44,0 53.17,-20.79 86.18,-62.35 33,-41.56 65.39,-96.57 97.17,-165.02zm604.73 -311.73l-185.19 397.91 -3.66 7.33c-20.78,42.79 -33.62,74.88 -38.51,96.27 -4.88,21.4 0.62,32.09 16.51,32.09 24.45,0 50.73,-19.87 78.85,-59.6 28.12,-39.72 58.06,-93.81 89.85,-162.27l42.17 44c-44,94.13 -89.23,167.17 -135.69,219.12 -46.45,51.95 -97.79,77.92 -154.02,77.92 -57.45,0 -89.24,-28.12 -95.35,-84.34 -36.68,35.45 -73.65,60.82 -110.93,76.1 -37.28,15.28 -71.82,13.14 -103.61,-6.42 -31.78,-20.78 -46.45,-61.12 -44,-121.02 2.45,-59.9 22.62,-127.74 60.51,-203.54 35.45,-72.12 71.51,-131.71 108.19,-178.77 36.66,-47.07 72.12,-83.44 106.34,-109.11 34.23,-25.67 66.63,-41.56 97.19,-47.67 30.56,-6.11 56.85,-4.28 78.85,5.5 17.11,8.56 28.73,20.17 34.84,34.84l9.17 -18.34 148.52 0zm-275.04 291.56c13.45,-30.56 25.97,-59.29 37.59,-86.18 11.61,-26.9 20.17,-51.04 25.66,-72.43 5.5,-21.39 7.95,-39.11 7.34,-53.17 -0.61,-14.06 -6.42,-24.14 -17.42,-30.25 -9.78,-6.12 -22.92,-3.37 -39.42,8.25 -16.51,11.61 -34.23,28.42 -53.17,50.42 -18.95,22.01 -38.2,48.29 -57.76,78.84 -19.56,30.56 -36.66,61.74 -51.34,93.52 -13.44,28.12 -25.05,55.93 -34.84,83.43 -9.78,27.51 -17.11,52.87 -22,76.1 -4.89,23.23 -7.03,42.79 -6.42,58.68 0.61,15.89 5.8,25.67 15.59,29.34 8.56,4.89 20.78,1.22 36.66,-11 15.9,-12.22 33.01,-29.65 51.34,-52.25 18.34,-22.62 37.28,-49.21 56.85,-79.77 19.56,-30.55 36.68,-61.73 51.34,-93.51z"/>
  <path class="fil2" d="M1407.45 3494.26c-41.16,-65.86 -98.77,-114.46 -172.91,-145.76 -44.47,-18.13 -89.79,-26.78 -135.87,-25.94 -46.15,0.83 -90.22,9.08 -132.15,24.73 -42.06,15.65 -79.94,37.85 -113.69,66.67 -33.78,28.84 -60.55,62.21 -80.34,100.06 -14.73,28.04 -26.71,61.33 -35.86,100.04 -9.01,38.79 -12.32,76.61 -9.82,113.69 2.45,37.02 11.92,70.83 28.44,101.28 16.43,30.48 41.97,53.1 76.61,67.98 34.58,14.79 68.74,16.83 102.51,6.14 33.72,-10.68 60.52,-29.27 80.31,-55.61 13.15,-18.09 22.23,-39.12 27.14,-62.99 4.94,-23.9 6.58,-47.36 4.94,-70.4 39.55,-13.18 73.27,-10.68 101.3,7.41 28.01,18.1 41.99,48.6 41.99,91.36 0,51.11 -13.98,94.76 -41.99,130.95 -28.03,36.26 -63.05,63.45 -105.01,81.55 -41.99,18.09 -86.46,26.37 -133.42,24.7 -46.93,-1.64 -89.36,-14.82 -127.24,-39.49 -36.22,-23.1 -64.66,-51.94 -85.25,-86.53 -20.54,-34.58 -35.38,-72.47 -44.44,-113.66 -9.04,-41.18 -12.75,-82.72 -11.15,-124.67 1.7,-42.06 6.61,-82.01 14.86,-119.87 16.49,-69.13 45.3,-130.57 86.43,-184.05 41.19,-53.55 90.22,-97.21 147.04,-130.98 56.81,-33.74 119.01,-56.41 186.52,-67.96 67.53,-11.48 135.9,-9.85 205.09,4.97 55.95,13.15 107.05,32.11 153.15,56.85 46.13,24.7 90.57,55.98 133.4,93.86 41.21,-16.48 86.91,-33.38 137.15,-50.67 50.27,-17.29 99.64,-33.34 148.27,-48.17 48.53,-14.79 94.23,-27.97 137.13,-39.55 42.79,-11.48 78.2,-19.69 106.17,-24.66l17.29 81.51c-62.58,34.55 -118.2,85.68 -166.76,153.18 -48.6,67.56 -91.79,141.27 -129.68,221.14 -37.95,79.91 -71.27,160.56 -100.08,242.07 -28.84,81.58 -55.61,153.64 -80.31,216.2 -13.15,32.98 -27.97,70.03 -44.46,111.19 -16.43,41.19 -33.75,85.68 -51.88,133.42 62.56,18.12 120.67,29.2 174.15,33.34 53.57,4.14 97.57,-5.34 132.18,-28.41l39.55 74.1c-62.58,29.65 -126,45.33 -190.2,46.96 -64.28,1.64 -129.31,-4.1 -195.2,-17.31 -334.21,1094.77 546.33,983.24 895.12,859.55 462.01,-138.27 1445.19,-569.4 2622.03,-349.59 25.9,-84.02 82.13,-120.73 177.26,-97.02 64.44,16 122.18,38.91 193.85,60.49 39.37,11.89 34.77,5.5 60.64,35.36 61.66,71.88 122.77,132.83 183.28,178.77 -97.08,-22.78 -170.44,-62.8 -240.71,-105.88 -59.31,-32.2 -95.57,-9.17 -106.65,23.75 -7.01,33.96 12.7,72.19 80.16,74.23 82.37,-1.79 165.9,0.68 261.28,29.98 -75.43,9.08 -158.96,30.94 -248.44,61.94 -37.4,12.7 -30.17,9.54 -70.24,-0.06 -72.69,-17.51 -134.16,-26.83 -197.86,-45.49 -94.02,-27.44 -124.1,-87.47 -104.27,-172.84l-0.03 0.06c-953.85,-109.86 -1582.32,71.79 -2324.29,311.17 -355.42,114.68 -693.03,305.44 -1075.48,184.71 -310.21,-98 -485.16,-555.01 -315.65,-1100.97l-81.58 -22.26c-41.16,65.92 -89.36,137.56 -144.51,214.93 -55.21,77.41 -115.29,151.57 -180.35,222.38 -65.09,70.83 -132.99,134.25 -203.83,190.26 -70.83,55.97 -142.06,94.64 -213.72,116.13 -71.64,21.4 -141.63,20.97 -209.99,-1.27 -68.39,-22.26 -132.19,-74.56 -191.47,-156.88 -29.61,-42.83 -49,-89.79 -58.05,-140.84 -9.08,-51.07 -10.31,-101.24 -3.73,-150.68 9.91,-103.77 47.39,-197.36 111.16,-281.63 210.27,-277.9 647.37,-301.54 961.1,-207.59 57.69,-84.01 116.57,-167.19 176.65,-249.55 60.16,-82.34 122.3,-163.9 186.5,-244.61 36.28,-44.42 78.68,-95.96 127.27,-154.37 48.6,-58.48 96.8,-111.57 144.57,-159.39l-303.96 128.5zm-1274.81 1208.12c-11.56,36.22 -16.46,72.53 -14.82,108.72 1.69,36.22 11.51,69.17 29.67,98.8 18.07,29.68 42.76,53.15 74.1,70.41 31.28,17.38 63.39,27.63 96.33,30.91 47.83,6.61 93.5,-0.41 137.09,-21 43.73,-20.57 86.12,-49.43 127.24,-86.51 41.19,-37.02 80.31,-79.82 117.4,-128.45 36.99,-48.54 72.03,-99.21 105.01,-151.92 32.91,-52.71 64.25,-104.95 93.86,-156.91 29.65,-51.84 56.81,-98.38 81.51,-139.57 -292.43,-17.19 -752.04,41.72 -847.41,375.53zm1356.35 -765.83c52.71,-102.15 113.69,-209.63 182.86,-322.49 69.17,-112.78 148.24,-212.86 237.14,-300.18 -75.74,44.52 -144.13,105.44 -205.05,182.91 -60.92,77.38 -116.94,160.56 -167.97,249.46 -51.04,88.95 -97.17,177.45 -138.37,265.6 -41.18,88.15 -79.84,165.97 -116.09,233.49 16.49,4.92 34.55,11.49 54.34,19.76 23.07,-59.28 47.73,-116.56 74.1,-171.73 26.37,-55.19 52.67,-107.48 79.04,-156.82z"/>
 </g>
</svg>
