<?xml version="1.0" encoding="UTF-8"?>
<!DOCTYPE svg PUBLIC "-//W3C//DTD SVG 1.1//EN" "http://www.w3.org/Graphics/SVG/1.1/DTD/svg11.dtd">
<!-- Creator: CorelDRAW 2018 (64-Bit) -->
<svg xmlns="http://www.w3.org/2000/svg" xml:space="preserve" width="81.944mm" height="49.96mm" version="1.1" style="shape-rendering:geometricPrecision; text-rendering:geometricPrecision; image-rendering:optimizeQuality; fill-rule:evenodd; clip-rule:evenodd"
viewBox="0 0 5616.32 3424.19"
 xmlns:xlink="http://www.w3.org/1999/xlink">
 <defs>
  <style type="text/css">
   <![CDATA[
    .fil1 {fill:#E31E24}
    .fil0 {fill:#1C1B17}
    .fil2 {fill:#1C1B17;fill-rule:nonzero}
   ]]>
  </style>
 </defs>
 <g id="Layer_x0020_1">
  <metadata id="CorelCorpID_0Corel-Layer"/>
  <path class="fil0" d="M2507.92 1031.22l0 -180.73 194.16 -2.66c0,93.02 -42.29,183.39 -194.16,183.39zm-938.09 93.02l228.75 0 -3.85 -636.54c0,-77.07 88.43,-140.86 163.4,-140.86l0 506.3 344.1 0 0 384.05 301.8 0c111.5,-15.94 201.85,-65.11 261.43,-152.82 40.37,-57.14 65.37,-159.47 65.37,-231.23l0 -224.58c-249.91,0 -499.8,0 -749.71,0 0,-172.75 -5.76,-340.19 -5.76,-512.95l-217.23 0c-303.73,0 -392.15,229.9 -392.15,400 0,203.32 3.85,405.31 3.85,608.63z"/>
  <path class="fil0" d="M3019.26 1177.4c99.96,26.58 367.17,-23.92 449.83,-63.78l0 67.77c140.33,0 247.98,-3.99 374.85,-47.84 321.03,-112.96 390.23,-407.97 390.23,-635.21l0 -498.33 -224.91 0 0 478.4c0,182.06 -19.23,308.3 -149.94,394.68 -53.82,34.55 -115.34,58.47 -178.78,73.09 59.59,-67.78 113.42,-204.65 113.42,-292.36 -71.12,0 -136.49,0 -205.69,0 -51.9,128.9 -109.57,248.5 -338.33,296.34l-1.92 -950.15 -226.84 0c0,392.02 -1.93,785.37 -1.93,1177.39z"/>
  <path class="fil0" d="M4864.69 911.62c36.52,-66.45 88.42,-187.38 88.42,-257.81l-211.46 0c-11.53,99.67 -84.58,190.03 -197.99,251.16l-5.77 -904.97 -221.06 0c0,394.68 1.92,792.02 -5.77,1185.37 153.79,7.97 321.03,-70.43 424.84,-142.19l0 131.56c101.88,0 261.43,-86.38 336.41,-138.21l0 138.21c30.75,0 123.03,-29.24 155.71,-41.2 238.37,-83.72 388.31,-300.33 388.31,-479.73 -71.13,0 -136.49,0 -209.54,0 -7.69,27.91 -15.38,66.45 -55.75,127.58 -48.05,70.43 -92.27,95.67 -161.47,131.55 38.44,-50.49 90.35,-164.78 90.35,-256.47 -71.13,0 -138.41,2.66 -211.46,2.66 -7.69,69.1 -109.57,245.84 -203.77,252.49z"/>
  <circle class="fil1" cx="3543.27" cy="366.8" r="184.84"/>
  <path class="fil0" d="M3923.74 1246.48c59.74,153.81 130.58,216.6 225.89,215.14 0,0 221.81,0.14 665.43,0.42 -74.24,-158.47 -107.02,-202.81 -276.09,-213.46 0,0 -205.08,-0.7 -615.23,-2.1z"/>
  <path class="fil0" d="M4271.93 2503.64c-5.23,-650.3 -7.84,-975.45 -7.84,-975.45 102.29,0.93 167.29,1.07 217.96,0.45 5.67,512.26 8.5,768.4 8.5,768.4 2.89,110.2 -64.17,179.24 -218.62,206.6z"/>
  <path class="fil0" d="M3418.17 1253.65c150.59,4.78 225.89,7.17 225.89,7.17 2.39,638.23 3.58,957.35 3.58,957.35 189.31,-45.83 301.66,-145.03 337.05,-297.6 143.42,-2.39 215.14,-3.59 215.14,-3.59 -60.64,379.52 -322.39,557.6 -785.24,534.25 2.39,-798.38 3.58,-1197.58 3.58,-1197.58z"/>
  <path class="fil0" d="M2980.73 1823.76c-182.22,2.18 -269.22,3.27 -269.22,3.27l0.31 208.27c148.21,0 222.3,0 222.3,0 105.3,1.41 163.87,63.56 175.68,186.45 -260.54,-2.39 -390.82,-3.58 -390.82,-3.58l-0.12 229.44c415.94,-4.38 620.43,-6.54 620.43,-6.54 0,-158.17 0,-237.24 0,-237.24 -16.9,-229.53 -136.42,-356.22 -358.57,-380.07z"/>
  <path class="fil0" d="M2413.4 2503.64c-5.22,-650.3 -7.83,-975.45 -7.83,-975.45 102.29,0.93 167.28,1.07 217.96,0.45 5.66,512.26 8.5,768.4 8.5,768.4 2.88,110.2 -64.18,179.24 -218.62,206.6z"/>
  <path class="fil0" d="M1565.63 1253.65c150.59,4.78 225.89,7.17 225.89,7.17 2.39,638.23 3.59,957.35 3.59,957.35 189.3,-45.83 301.65,-145.03 337.04,-297.6 143.42,-2.39 215.14,-3.59 215.14,-3.59 -60.64,379.52 -322.38,557.6 -785.24,534.25 2.39,-798.38 3.58,-1197.58 3.58,-1197.58z"/>
  <path class="fil1" d="M3922.67 2486.9c89.59,0 162.22,72.63 162.22,162.22 0,89.59 -72.63,162.22 -162.22,162.22 -89.59,0 -162.22,-72.63 -162.22,-162.22 0,-89.59 72.63,-162.22 162.22,-162.22z"/>
  <path class="fil1" d="M3589.12 2486.9c89.59,0 162.22,72.63 162.22,162.22 0,89.59 -72.63,162.22 -162.22,162.22 -89.59,0 -162.22,-72.63 -162.22,-162.22 0,-89.59 72.63,-162.22 162.22,-162.22z"/>
  <path class="fil1" d="M3768.03 2799.22c89.59,0 162.22,72.63 162.22,162.22 0,89.6 -72.63,162.23 -162.22,162.23 -89.6,0 -162.22,-72.63 -162.22,-162.23 0,-89.59 72.62,-162.22 162.22,-162.22z"/>
  <path class="fil1" d="M2092.71 1431.68c107.18,0 194.06,86.88 194.06,194.06 0,107.18 -86.88,194.07 -194.06,194.07 -107.18,0 -194.07,-86.89 -194.07,-194.07 0,-107.18 86.89,-194.06 194.07,-194.06z"/>
  <path class="fil2" d="M1383.92 2598.88c9.84,6.05 16.83,15.89 21,29.51 4.16,13.63 5.67,29.7 4.54,48.25 -1.13,18.54 -4.91,38.98 -11.35,61.3 -6.44,22.33 -15.7,44.84 -27.81,67.55 -17.41,33.3 -37.66,63.19 -60.74,89.68 -23.08,26.49 -45.98,46.92 -68.68,61.3 40.87,-11.35 78.33,-30.84 112.39,-58.46 34.06,-27.63 59.79,-60.74 77.2,-99.33l26.11 27.24c-13.62,28.76 -31.22,54.87 -52.79,78.33 -21.57,23.46 -45.41,43.52 -71.52,60.17 -26.11,16.65 -53.17,29.14 -81.17,37.46 -28,8.32 -54.87,11.35 -80.6,9.08 -7.57,0.75 -14.38,0.38 -20.44,-1.14 -6.05,-1.51 -12.11,-3.41 -18.16,-5.67 -6.05,-2.27 -10.97,-6.05 -14.76,-11.35 -2.28,-3.03 -4.16,-5.68 -5.67,-7.95l28.38 -36.33 4.54 4.54c1.51,1.51 2.84,2.84 3.98,3.98 1.14,1.14 2.46,2.08 3.98,2.84 6.05,3.78 14,1.71 23.84,-6.24 9.84,-7.94 20.44,-19.11 31.79,-33.49 11.35,-14.38 22.71,-31.22 34.06,-50.52 11.35,-19.3 21.57,-38.79 30.65,-58.46 8.33,-17.41 16.27,-35.39 23.84,-53.93 7.57,-18.54 13.82,-35.57 18.74,-51.09 4.91,-15.51 7.75,-28.76 8.51,-39.73 0.75,-10.97 -1.51,-17.98 -6.81,-21 -5.3,-2.27 -13.43,1.32 -24.41,10.78 -10.97,9.46 -23.08,22.71 -36.33,39.74 -13.24,17.02 -26.3,35.95 -39.16,56.76 -12.86,20.81 -23.84,41.43 -32.92,61.87l-3.41 4.54 -165.75 350.79 -93.09 0 267.92 -564.22 91.95 0 -7.94 15.89c19.68,-15.13 38.98,-25.16 57.89,-30.08 18.92,-4.92 36.33,-2.46 52.23,7.38zm420.95 6.81l-114.66 246.35 -2.27 4.54c-12.87,26.49 -20.82,46.36 -23.84,59.6 -3.02,13.25 0.38,19.87 10.22,19.87 15.13,0 31.41,-12.3 48.81,-36.9 17.41,-24.59 35.96,-58.08 55.63,-100.46l26.11 27.24c-27.24,58.28 -55.25,103.5 -84.01,135.67 -28.76,32.17 -60.55,48.24 -95.36,48.24 -35.57,0 -55.25,-17.41 -59.04,-52.22 -22.7,21.95 -45.6,37.66 -68.68,47.11 -23.08,9.46 -44.46,8.14 -64.14,-3.98 -19.68,-12.86 -28.76,-37.84 -27.24,-74.93 1.51,-37.09 14,-79.09 37.46,-126.01 21.95,-44.65 44.28,-81.55 66.98,-110.68 22.71,-29.14 44.65,-51.66 65.84,-67.55 21.19,-15.89 41.25,-25.73 60.17,-29.51 18.92,-3.78 35.19,-2.65 48.81,3.41 10.6,5.3 17.79,12.49 21.57,21.57l5.68 -11.36 91.95 0zm-170.28 180.51c8.32,-18.92 16.08,-36.71 23.27,-53.36 7.19,-16.65 12.49,-31.6 15.89,-44.84 3.41,-13.24 4.92,-24.21 4.54,-32.92 -0.38,-8.7 -3.98,-14.95 -10.79,-18.73 -6.05,-3.79 -14.19,-2.08 -24.41,5.11 -10.22,7.19 -21.19,17.59 -32.93,31.22 -11.73,13.63 -23.65,29.9 -35.76,48.81 -12.11,18.92 -22.71,38.22 -31.79,57.9 -8.33,17.41 -15.52,34.63 -21.57,51.65 -6.06,17.03 -10.6,32.73 -13.63,47.11 -3.03,14.38 -4.35,26.49 -3.97,36.33 0.38,9.84 3.59,15.89 9.65,18.16 5.29,3.03 12.86,0.75 22.7,-6.81 9.84,-7.57 20.44,-18.35 31.79,-32.35 11.36,-14 23.08,-30.47 35.19,-49.39 12.1,-18.92 22.71,-38.22 31.79,-57.89zm157.57 13.62c22.71,-44.65 45.41,-81.55 68.11,-110.68 22.71,-29.14 44.66,-51.66 65.84,-67.55 21.19,-15.89 41.06,-25.73 59.6,-29.51 18.55,-3.78 35,-2.65 49.39,3.41 10.6,5.3 17.79,12.49 21.57,21.57 34.06,-68.11 66.41,-128.85 97.06,-182.21 30.65,-53.36 59.22,-97.26 85.71,-131.69 26.49,-34.43 50.9,-58.66 73.23,-72.66 22.32,-14 42.19,-15.7 59.6,-5.11 15.89,9.84 21.75,30.27 17.59,61.3 -4.16,31.03 -18.54,70.01 -43.14,116.93 -24.6,46.92 -59.03,100.85 -103.31,161.77 -44.28,60.92 -98.58,126.21 -162.91,195.84 -12.86,31.03 -22.89,57.14 -30.08,78.33 -7.19,21.19 -11.93,38.59 -14.19,52.22 -2.27,13.63 -2.65,24.03 -1.13,31.22 1.51,7.19 4.16,11.54 7.94,13.06 4.54,3.02 12.11,1.51 22.71,-4.54 10.6,-6.05 22.32,-15.33 35.19,-27.81 12.87,-12.49 25.74,-27.81 38.6,-45.98 12.86,-18.16 24.22,-37.85 34.06,-59.03l26.11 27.24c-34.06,71.9 -69.63,121.47 -106.71,148.71 -37.09,27.25 -70.01,36.33 -98.76,27.25 -12.87,-3.78 -23.46,-12.11 -31.79,-24.98 -8.33,-12.86 -11.73,-32.55 -10.22,-59.03 -13.63,17.4 -27.81,32.92 -42.57,46.54 -14.76,13.62 -29.52,24.41 -44.28,32.35 -14.76,7.95 -29.33,12.49 -43.71,13.63 -14.38,1.14 -27.63,-2.08 -39.73,-9.65 -19.68,-12.86 -28.77,-37.84 -27.25,-74.93 1.51,-37.09 14,-79.09 37.46,-126.01zm224.78 -163.47c-6.81,-3.79 -15.33,-2.08 -25.54,5.11 -10.22,7.19 -21.19,17.59 -32.93,31.22 -11.73,13.63 -23.65,29.9 -35.76,48.81 -12.11,18.92 -22.71,38.22 -31.79,57.9 -8.33,17.41 -15.52,34.63 -21.57,51.65 -6.06,17.03 -10.6,32.73 -13.63,47.11 -3.03,14.38 -4.16,26.49 -3.41,36.33 0.75,9.84 3.78,15.89 9.08,18.16 5.3,3.03 12.86,0.75 22.71,-6.81 9.84,-7.57 20.43,-18.16 31.79,-31.79 11.35,-13.62 22.89,-29.9 34.62,-48.81 11.73,-18.92 22.14,-38.22 31.23,-57.9 10.6,-30.27 24.21,-62.82 40.87,-97.63 3.78,-13.63 5.3,-24.98 4.54,-34.06 -0.75,-9.09 -4.16,-15.52 -10.22,-19.3zm322.41 -322.42c-3.78,-2.27 -11.35,3.6 -22.7,17.6 -11.36,14 -25.74,35.19 -43.15,63.58 -17.4,28.37 -37.65,63.57 -60.73,105.58 -23.08,42 -48.25,89.87 -75.5,143.61 30.27,-39.35 58.66,-77.96 85.15,-115.8 26.48,-37.84 49.01,-72.09 67.54,-102.74 18.55,-30.65 32.54,-56 42.01,-76.06 9.46,-20.05 11.92,-31.97 7.37,-35.76zm208.67 291.76l-114.66 246.35 -2.27 4.54c-12.86,26.49 -20.81,46.36 -23.84,59.6 -3.03,13.25 0.38,19.87 10.22,19.87 15.13,0 31.4,-12.3 48.81,-36.9 17.41,-24.59 35.95,-58.08 55.63,-100.46l26.11 27.24c-27.25,58.28 -55.25,103.5 -84.01,135.67 -28.76,32.17 -60.55,48.24 -95.36,48.24 -35.57,0 -55.25,-17.41 -59.03,-52.22 -22.71,21.95 -45.6,37.66 -68.68,47.11 -23.08,9.46 -44.47,8.14 -64.14,-3.98 -19.68,-12.86 -28.77,-37.84 -27.25,-74.93 1.51,-37.09 14,-79.09 37.46,-126.01 21.95,-44.65 44.28,-81.55 66.98,-110.68 22.71,-29.14 44.65,-51.66 65.84,-67.55 21.19,-15.89 41.25,-25.73 60.16,-29.51 18.92,-3.78 35.19,-2.65 48.82,3.41 10.6,5.3 17.79,12.49 21.57,21.57l5.67 -11.36 91.96 0zm-170.29 180.51c8.33,-18.92 16.09,-36.71 23.28,-53.36 7.19,-16.65 12.49,-31.6 15.89,-44.84 3.41,-13.24 4.91,-24.21 4.54,-32.92 -0.38,-8.7 -3.97,-14.95 -10.78,-18.73 -6.06,-3.79 -14.19,-2.08 -24.41,5.11 -10.21,7.19 -21.19,17.59 -32.92,31.22 -11.73,13.63 -23.65,29.9 -35.76,48.81 -12.11,18.92 -22.71,38.22 -31.79,57.9 -8.33,17.41 -15.52,34.63 -21.57,51.65 -6.06,17.03 -10.6,32.73 -13.63,47.11 -3.03,14.38 -4.35,26.49 -3.98,36.33 0.38,9.84 3.6,15.89 9.65,18.16 5.3,3.03 12.86,0.75 22.71,-6.81 9.84,-7.57 20.43,-18.35 31.79,-32.35 11.35,-14 23.08,-30.47 35.19,-49.39 12.11,-18.92 22.71,-38.22 31.79,-57.89zm475.45 12.49l26.11 27.24c-27.25,58.28 -55.25,103.5 -84.01,135.67 -28.76,32.17 -60.55,48.24 -95.36,48.24 -17.41,0 -31.22,-4.16 -41.44,-12.49 -10.21,-8.32 -15.13,-22.32 -14.76,-42 0.38,-19.68 7.57,-45.6 21.57,-77.77 14,-32.16 36.52,-71.71 67.55,-118.63 16.65,-24.21 28.57,-44.46 35.76,-60.73 7.19,-16.27 6.63,-24.41 -1.7,-24.41 -6.81,0 -17.98,7.37 -33.49,22.14 -15.51,14.76 -32.92,34.43 -52.22,59.03 -19.3,24.6 -39.55,53.17 -60.73,85.71 -21.19,32.54 -40.87,66.23 -59.04,101.04l-30.65 64.71 -94.23 0 190.72 -399.61 91.96 0 -48.81 102.18c28.76,-33.3 56,-58.66 81.74,-76.06 25.73,-17.41 48.81,-26.11 69.24,-26.11 9.84,0 18.35,2.65 25.54,7.94 7.19,5.3 12.3,12.68 15.33,21.95 3.03,9.46 3.6,20.62 1.71,33.49 -1.89,12.86 -7,26.3 -15.33,40.68 -27.25,48.25 -49.2,87.41 -65.84,117.13 -16.65,29.7 -28.95,52.98 -36.9,69.63 -7.94,16.46 -12.1,27.62 -12.49,33.3 -0.38,5.68 1.71,8.52 6.25,8.52 15.13,0 32.92,-12.87 53.36,-38.6 20.43,-25.73 40.49,-59.79 60.16,-102.17zm374.41 -193l-114.66 246.35 -2.27 4.54c-12.86,26.49 -20.82,46.36 -23.84,59.6 -3.02,13.25 0.38,19.87 10.22,19.87 15.14,0 31.41,-12.3 48.82,-36.9 17.41,-24.59 35.95,-58.08 55.63,-100.46l26.11 27.24c-27.24,58.28 -55.24,103.5 -84.01,135.67 -28.76,32.17 -60.55,48.24 -95.36,48.24 -35.57,0 -55.25,-17.41 -59.03,-52.22 -22.71,21.95 -45.6,37.66 -68.68,47.11 -23.08,9.46 -44.47,8.14 -64.15,-3.98 -19.68,-12.86 -28.76,-37.84 -27.24,-74.93 1.51,-37.09 14,-79.09 37.46,-126.01 21.95,-44.65 44.28,-81.55 66.98,-110.68 22.7,-29.14 44.65,-51.66 65.84,-67.55 21.19,-15.89 41.25,-25.73 60.17,-29.51 18.92,-3.78 35.19,-2.65 48.82,3.41 10.6,5.3 17.79,12.49 21.57,21.57l5.67 -11.36 91.95 0zm-170.28 180.51c8.33,-18.92 16.08,-36.71 23.28,-53.36 7.19,-16.65 12.49,-31.6 15.89,-44.84 3.41,-13.24 4.92,-24.21 4.54,-32.92 -0.38,-8.7 -3.98,-14.95 -10.79,-18.73 -6.05,-3.79 -14.19,-2.08 -24.41,5.11 -10.22,7.19 -21.19,17.59 -32.92,31.22 -11.73,13.63 -23.65,29.9 -35.76,48.81 -12.11,18.92 -22.7,38.22 -31.79,57.9 -8.32,17.41 -15.51,34.63 -21.57,51.65 -6.05,17.03 -10.6,32.73 -13.62,47.11 -3.03,14.38 -4.35,26.49 -3.98,36.33 0.38,9.84 3.59,15.89 9.65,18.16 5.3,3.03 12.86,0.75 22.7,-6.81 9.84,-7.57 20.44,-18.35 31.79,-32.35 11.36,-14 23.08,-30.47 35.19,-49.39 12.11,-18.92 22.71,-38.22 31.79,-57.89z"/>
  <path class="fil2" d="M871.39 2163.38c-25.48,-40.77 -61.15,-70.86 -107.05,-90.24 -27.53,-11.23 -55.59,-16.58 -84.12,-16.06 -28.57,0.51 -55.86,5.62 -81.81,15.31 -26.04,9.69 -49.49,23.43 -70.39,41.27 -20.91,17.85 -37.49,38.52 -49.74,61.95 -9.12,17.36 -16.54,37.97 -22.2,61.94 -5.58,24.02 -7.63,47.43 -6.08,70.39 1.51,22.92 7.38,43.85 17.61,62.71 10.17,18.87 25.98,32.88 47.43,42.09 21.41,9.16 42.56,10.42 63.47,3.8 20.88,-6.61 37.47,-18.12 49.72,-34.43 8.14,-11.2 13.76,-24.22 16.81,-39 3.06,-14.8 4.07,-29.32 3.06,-43.58 24.49,-8.16 45.37,-6.61 62.72,4.59 17.34,11.21 26,30.09 26,56.56 0,31.64 -8.66,58.67 -26,81.07 -17.35,22.45 -39.03,39.29 -65.02,50.49 -26,11.2 -53.53,16.33 -82.6,15.29 -29.05,-1.01 -55.32,-9.18 -78.78,-24.45 -22.43,-14.3 -40.03,-32.16 -52.78,-53.57 -12.71,-21.41 -21.9,-44.87 -27.51,-70.37 -5.6,-25.5 -7.9,-51.21 -6.9,-77.19 1.06,-26.04 4.09,-50.77 9.2,-74.21 10.21,-42.8 28.05,-80.84 53.51,-113.95 25.5,-33.15 55.86,-60.18 91.03,-81.09 35.17,-20.89 73.68,-34.93 115.48,-42.08 41.81,-7.11 84.14,-6.1 126.97,3.08 34.64,8.14 66.28,19.88 94.82,35.19 28.56,15.29 56.07,34.66 82.59,58.11 25.52,-10.21 53.81,-20.66 84.91,-31.37 31.12,-10.71 61.69,-20.64 91.8,-29.82 30.05,-9.16 58.34,-17.32 84.9,-24.49 26.49,-7.11 48.42,-12.19 65.74,-15.27l10.71 50.46c-38.74,21.39 -73.18,53.05 -103.25,94.84 -30.09,41.83 -56.83,87.46 -80.29,136.91 -23.5,49.47 -44.13,99.41 -61.96,149.87 -17.85,50.51 -34.43,95.12 -49.72,133.86 -8.14,20.42 -17.32,43.36 -27.53,68.84 -10.17,25.5 -20.9,53.05 -32.12,82.6 38.73,11.22 74.71,18.08 107.82,20.64 33.17,2.56 60.41,-3.3 81.84,-17.59l24.49 45.88c-38.74,18.35 -78.01,28.07 -117.76,29.07 -39.8,1.01 -80.06,-2.54 -120.85,-10.72 -206.92,677.8 338.24,608.75 554.19,532.17 286.04,-85.6 894.75,-352.53 1623.36,-216.44 16.04,-52.02 50.85,-74.75 109.74,-60.07 39.9,9.9 75.65,24.09 120.02,37.45 24.37,7.36 21.53,3.41 37.55,21.89 38.18,44.5 76.01,82.24 113.47,110.68 -60.1,-14.11 -105.52,-38.88 -149.03,-65.55 -36.72,-19.94 -59.17,-5.67 -66.03,14.7 -4.34,21.03 7.86,44.69 49.63,45.96 51,-1.11 102.71,0.42 161.76,18.56 -46.7,5.62 -98.41,19.16 -153.81,38.35 -23.15,7.86 -18.68,5.91 -43.49,-0.03 -45,-10.84 -83.06,-16.61 -122.5,-28.16 -58.21,-16.99 -76.83,-54.15 -64.56,-107.01l-0.02 0.03c-590.55,-68.02 -979.65,44.45 -1439.02,192.65 -220.05,71 -429.07,189.1 -665.85,114.36 -192.06,-60.68 -300.38,-343.62 -195.42,-681.64l-50.51 -13.78c-25.48,40.81 -55.32,85.17 -89.47,133.07 -34.18,47.93 -71.38,93.84 -111.66,137.68 -40.3,43.85 -82.34,83.12 -126.19,117.8 -43.85,34.65 -87.96,58.59 -132.32,71.9 -44.35,13.25 -87.69,12.98 -130.01,-0.79 -42.34,-13.78 -81.84,-46.16 -118.54,-97.13 -18.33,-26.52 -30.34,-55.59 -35.94,-87.19 -5.62,-31.62 -6.38,-62.68 -2.31,-93.29 6.13,-64.25 29.34,-122.19 68.82,-174.36 130.18,-172.05 400.8,-186.69 595.04,-128.52 35.72,-52.01 72.17,-103.51 109.37,-154.5 37.24,-50.98 75.72,-101.47 115.47,-151.44 22.46,-27.5 48.71,-59.41 78.8,-95.58 30.09,-36.21 59.93,-69.07 89.5,-98.68l-188.19 79.56zm-789.26 747.97c-7.16,22.43 -10.19,44.91 -9.18,67.31 1.05,22.43 7.13,42.82 18.37,61.17 11.19,18.38 26.48,32.91 45.88,43.59 19.37,10.76 39.25,17.11 59.64,19.14 29.62,4.09 57.89,-0.25 84.88,-13 27.07,-12.73 53.32,-30.6 78.78,-53.56 25.5,-22.92 49.72,-49.42 72.69,-79.53 22.9,-30.05 44.6,-61.42 65.02,-94.06 20.38,-32.63 39.78,-64.97 58.11,-97.15 18.35,-32.1 35.17,-60.91 50.46,-86.41 -181.05,-10.64 -465.6,25.83 -524.65,232.5zm839.75 -474.14c32.63,-63.24 70.39,-129.78 113.21,-199.66 42.82,-69.83 91.78,-131.79 146.82,-185.85 -46.89,27.57 -89.24,65.28 -126.95,113.25 -37.72,47.91 -72.4,99.41 -103.99,154.44 -31.6,55.07 -60.16,109.86 -85.67,164.44 -25.5,54.58 -49.43,102.75 -71.88,144.56 10.21,3.04 21.39,7.11 33.65,12.23 14.28,-36.7 29.55,-72.16 45.88,-106.32 16.33,-34.17 32.61,-66.54 48.94,-97.09z"/>
 </g>
</svg>
