<svg xmlns="http://www.w3.org/2000/svg" width="405.3" height="243.6" viewBox="0 0 405.3 243.6">
  <title>آپادانا</title>
  <path d="M122,84h16V39c0-5,6-10,12-10V65h24V92h21a24.5,24.5,0,0,0,18-11,27,27,0,0,0,5-16V49H165V13H150c-21,0-28,16-28,28V84m66-7V65h14c0,6-3,12-13,12Z" transform="translate(-4.7 -5)" fill="#1a1a18"/>
  <path d="M225,88c7,2,26-2,32-4v5c10,0,17,0,26-3,23-8,28-29,28-45V5H294V39c0,13-1,22-11,28l-13,5c4-5,8-14,8-21H265c-4,9-8,18-24,21V5H225V88" transform="translate(-4.7 -5)" fill="#1a1a18"/>
  <path d="M355,69c3-5,6-13,6-18H346c-1,7-6,13-14,18V5H316V89c11,1,23-5,30-10v9c7,0,18-6,24-10V88l11-3c17-6,27-21,27-34H393a26,26,0,0,1-4,9c-3,5-7,7-11,9s6-12,6-18H369c-1,5-8,17-14,18" transform="translate(-4.7 -5)" fill="#1a1a18"/>
  <path d="M262,18a13,13,0,1,1-13,13,13,13,0,0,1,13-13h0" transform="translate(-4.7 -5)" fill="#1a1a18"/>
  <path d="M288,93c4,11,9,15,16,15h47c-5-11-8-14-19-15H288" transform="translate(-4.7 -5)" fill="#1a1a18"/>
  <path d="M313,181V112h15v54q0,12-15,15" transform="translate(-4.7 -5)" fill="#1a1a18"/>
  <path d="M253,93h16v68q20-5,24-21h15q-6,40-55,38V93" transform="translate(-4.7 -5)" fill="#1a1a18"/>
  <path d="M222,133H203v15h16q11,0,12,13H203v16h44V160q-2-24-25-27" transform="translate(-4.7 -5)" fill="#1a1a18"/>
  <path d="M182,181V112h15v54q0,12-15,15" transform="translate(-4.7 -5)" fill="#1a1a18"/>
  <path d="M122,93h16v68q20-5,24-21h15q-6,40-55,38V93" transform="translate(-4.7 -5)" fill="#1a1a18"/>
  <path d="M288,180a11,11,0,1,1-11,11,11,11,0,0,1,11-11h0" transform="translate(-4.7 -5)" fill="#1a1a18"/>
  <path d="M265,180a11,11,0,1,1-11,11,11,11,0,0,1,11-11h0" transform="translate(-4.7 -5)" fill="#1a1a18"/>
  <path d="M277,202a11,11,0,1,1-11,11,11,11,0,0,1,11-11h0" transform="translate(-4.7 -5)" fill="#1a1a18"/>
  <path d="M159,106a14,14,0,1,1-14,14,14,14,0,0,1,14-14" transform="translate(-4.7 -5)" fill="#1a1a18"/>
  <path d="M227,201l2-4v-5h-2l-2,2-3,3-2,4-2,4v6h2l2-2,2-3,2-4m12-13-8,17h0l-2,4a.9.9,0,0,0,1,1l3-3,4-7,2,2a40,40,0,0,1-6,10,9,9,0,0,1-7,3q-4,0-4-4l-5,3h-5q-2-1-2-5a22,22,0,0,1,3-9l5-8,5-5,4-2h3l2,2h7Zm-26,14,2,2a40,40,0,0,1-6,10,9,9,0,0,1-7,3h-3a4,4,0,0,1-1-3,15,15,0,0,1,2-5l5-8,3-4q1-2,0-2l-2,2-4,4-4,6-4,7-2,5h-7l13-28h6l-3,7,6-5,5-2h2v2a5,5,0,0,1,0,2v3l-5,8-3,5v2h0l4-3Zm-34-1,2-4v-5h-2l-2,2-3,3-2,4-2,4v6h2l2-2,2-3Zm12-13-8,17h0l-2,4a.9.9,0,0,0,1,1l3-3,4-7,2,2a40,40,0,0,1-6,10,9,9,0,0,1-7,3q-4,0-4-4l-5,3h-5q-2-1-2-5a22,22,0,0,1,3-9l5-8,5-5,4-2h3l2,2h7Zm-15-21h-2l-3,4-4,7-5,10,6-8,5-7,3-5,2-1Zm-23,23h-2l-2,2-3,3-2,4-2,4v3a9,9,0,0,0,0,3h2l2-2,2-3,2-4,3-7a7,7,0,0,0,0-2Zm-16,12,5-8,5-5,4-2h3l2,2,7-13,6-9,5-5h4q2,1,1,4a26,26,0,0,1-3,8l-7,11-11,14-2,6v4a6,6,0,0,0,0,2h2l2-2,3-3,2-4,2,2q-4,8-8,10a16.1,16.1,0,0,1-7,2l-2-2a7,7,0,0,1-1-4l-3,3-3,2h-6q-2-1-2-5a22,22,0,0,1,4-9Zm-11-1,2-4v-5h-2l-2,2-3,3-2,4-2,4v6h2l2-2,2-3Zm12-13-8,17h0l-2,4a.9.9,0,0,0,1,1l3-3,4-7,2,2a40,40,0,0,1-6,10,9,9,0,0,1-7,3q-4,0-4-4l-5,3h-5q-2-1-2-5a22,22,0,0,1,3-9l5-8,5-5,4-2h3l2,2h7Zm-30,0v2a10,10,0,0,1,0,3v4l-2,5-4,6-5,4,8-4a19,19,0,0,0,5-7l2,2-4,6-5,4-6,3H90l2-3h3l2-2,2-4,2-4,2-4v-6h-2l-3,3-3,4-2,4h0L81,230H74l19-40h6l4-2Z" transform="translate(-4.7 -5)" fill="#1a1a18"/>
  <path d="M77,177l8-14a68,68,0,0,1,10-13,32,32,0,0,0-9,8l-7,11-6,12-5,10h2l3-7,3-7M17,210a14,14,0,0,0-1,5,9,9,0,0,0,1,4l3,3H30l6-4,5-6,5-7,4-7,4-6C42,193,22,195,17,210Zm56-53a16,16,0,0,0-8-6H54l-5,3-4,4-2,4a17,17,0,0,0,0,5,11,11,0,0,0,1,4l3,3h4l4-2v-3a11,11,0,0,0,0-3h4a4,4,0,0,1,2,4,9,9,0,0,1-2,6l-5,4H48l-6-2-4-4-2-5a21,21,0,0,1,0-5,30,30,0,0,1,1-5,21,21,0,0,1,4-8l6-6,8-3h9l7,2,6,4,6-2,6-2,6-2h5v4a22,22,0,0,0-7,7l-6,10-4,11-4,9-2,5-2,6H88l2,3-8,2H73c-15,48,24,43,39,38s63-25,114-15c1-4,4-5,8-4l8,3,3,2,8,8-11-5c-3-1-4,0-5,1s1,3,3,3h11l-11,3h-3l-9-2c-4-1-5-4-5-8h0c-42-5-69,3-101,14-16,5-30,13-47,8s-21-24-14-48H57l-6,9-8,10-9,8-9,5H16q-4-1-8-7a15,15,0,0,1-3-6,21,21,0,0,1,0-7,24,24,0,0,1,5-12c9-12,28-13,42-9l8-11,8-11,6-7,6-7Z" transform="translate(-4.7 -5)" fill="#1a1a18"/>
  <path d="M124,86h16V41c0-5,6-10,12-10V67h24V94h21a24.5,24.5,0,0,0,18-11,27,27,0,0,0,5-16V51H167V15H152c-21,0-28,16-28,28V86m66-7V67h14C204,73,201,79,190,79Z" transform="translate(-4.7 -5)" fill="#f8f0d6"/>
  <path d="M227,90c7,2,26-2,32-4v5c10,0,17,0,26-3,23-8,28-29,28-45V7H296V41c0,13-1,22-11,28l-13,5c4-5,8-14,8-21H267c-4,9-8,18-24,21V7H227V90" transform="translate(-4.7 -5)" fill="#f8f0d6"/>
  <path d="M357,71c3-5,6-13,6-18H348c-1,7-6,13-14,18V7H318V91c11,1,23-5,30-10v9c7,0,18-6,24-10V90l11-3c17-6,27-21,27-34H395a26,26,0,0,1-4,9c-3,5-7,7-11,9s6-12,6-18H371c-1,5-8,17-14,18" transform="translate(-4.7 -5)" fill="#f8f0d6"/>
  <path d="M263,20a13,13,0,1,1-13,13,13,13,0,0,1,13-13h0" transform="translate(-4.7 -5)" fill="#e73e0f"/>
  <path d="M290,95c4,11,9,15,16,15h47c-5-11-8-14-19-15H290" transform="translate(-4.7 -5)" fill="#f8f0d6"/>
  <path d="M315,183V114h15v54q0,12-15,15" transform="translate(-4.7 -5)" fill="#f8f0d6"/>
  <path d="M255,95h16v68q20-5,24-21h15q-6,40-55,38V95" transform="translate(-4.7 -5)" fill="#f8f0d6"/>
  <path d="M224,135H205v15h16q11,0,12,13H205v16h44V162q-2-24-25-27" transform="translate(-4.7 -5)" fill="#f8f0d6"/>
  <path d="M184,183V114h15v54q0,12-15,15" transform="translate(-4.7 -5)" fill="#f8f0d6"/>
  <path d="M124,95h16v68q20-5,24-21h15q-6,40-55,38V95" transform="translate(-4.7 -5)" fill="#f8f0d6"/>
  <path d="M290,182a11,11,0,1,1-11,11,11,11,0,0,1,11-11h0" transform="translate(-4.7 -5)" fill="#e73e0f"/>
  <path d="M267,182a11,11,0,1,1-11,11,11,11,0,0,1,11-11h0" transform="translate(-4.7 -5)" fill="#e73e0f"/>
  <path d="M279,204a11,11,0,1,1-11,11,11,11,0,0,1,11-11h0" transform="translate(-4.7 -5)" fill="#e73e0f"/>
  <path d="M161,108a14,14,0,1,1-14,14,14,14,0,0,1,14-14" transform="translate(-4.7 -5)" fill="#e73e0f"/>
  <path d="M229,203l2-4v-5h-2l-2,2-3,3-2,4-2,4v6h2l2-2,2-3,2-4m12-13-8,17h0l-2,4a.9.9,0,0,0,1,1l3-3,4-7,2,2a40,40,0,0,1-6,10,9,9,0,0,1-7,3q-4,0-4-4l-5,3h-5q-2-1-2-5a22,22,0,0,1,3-9l5-8,5-5,4-2h3l2,2h7Zm-26,14,2,2a40,40,0,0,1-6,10,9,9,0,0,1-7,3h-3a4,4,0,0,1-1-3,15,15,0,0,1,2-5l5-8,3-4q1-2,0-2l-2,2-4,4-4,6-4,7-2,5h-7l13-28h6l-3,7,6-5,5-2h2v2a5,5,0,0,1,0,2v3l-5,8-3,5v2h0l4-3Zm-34-1,2-4v-5h-2l-2,2-3,3-2,4-2,4v6h2l2-2,2-3Zm12-13-8,17h0l-2,4a.9.9,0,0,0,1,1l3-3,4-7,2,2a40,40,0,0,1-6,10,9,9,0,0,1-7,3q-4,0-4-4l-5,3h-5q-2-1-2-5a22,22,0,0,1,3-9l5-8,5-5,4-2h3l2,2h7Zm-15-21h-2l-3,4-4,7-5,10,6-8,5-7,3-5,2-1Zm-23,23h-2l-2,2-3,3-2,4-2,4v3a9,9,0,0,0,0,3h2l2-2,2-3,2-4,3-7a7,7,0,0,0,0-2Zm-16,12,5-8,5-5,4-2h3l2,2,7-13,6-9,5-5h4q2,1,1,4a26,26,0,0,1-3,8l-7,11-11,14-2,6v4a6,6,0,0,0,0,2h2l2-2,3-3,2-4,2,2q-4,8-8,10a16.1,16.1,0,0,1-7,2l-2-2a7,7,0,0,1-1-4l-3,3-3,2h-6q-2-1-2-5a22,22,0,0,1,4-9Zm-11-1,2-4v-5h-2l-2,2-3,3-2,4-2,4v6h2l2-2,2-3Zm12-13-8,17h0l-2,4a.9.9,0,0,0,1,1l3-3,4-7,2,2a40,40,0,0,1-6,10,9,9,0,0,1-7,3q-4,0-4-4l-5,3h-5q-2-1-2-5a22,22,0,0,1,3-9l5-8,5-5,4-2h3l2,2h7Zm-30,0v2a10,10,0,0,1,0,3v4l-2,5-4,6-5,4,8-4a19,19,0,0,0,5-7l2,2-4,6-5,4-6,3H92l2-3h3l2-2,2-4,2-4,2-4v-6h-2l-3,3-3,4-2,4h0L83,232H76l19-40h6l4-2Z" transform="translate(-4.7 -5)" fill="#f8f0d6"/>
  <path d="M79,179l8-14a68,68,0,0,1,10-13,32,32,0,0,0-9,8l-7,11-6,12-5,10h2l3-7,3-7M19,212a14,14,0,0,0-1,5,9,9,0,0,0,1,4l3,3H32l6-4,5-6,5-7,4-7,4-6C44,195,24,197,19,212Zm56-53a16,16,0,0,0-8-6H56l-5,3-4,4-2,4a17,17,0,0,0,0,5,11,11,0,0,0,1,4l3,3h4l4-2v-3a11,11,0,0,0,0-3h4a4,4,0,0,1,2,4,9,9,0,0,1-2,6l-5,4H50l-6-2-4-4-2-5a21,21,0,0,1,0-5,30,30,0,0,1,1-5,21,21,0,0,1,4-8l6-6,8-3h9l7,2,6,4,6-2,6-2,6-2h5v4a22,22,0,0,0-7,7l-6,10-4,11-4,9-2,5-2,6H90l2,3-8,2H75c-15,48,24,43,39,38s63-25,114-15c1-4,4-5,8-4l8,3,3,2,8,8-11-5c-3-1-4,0-5,1s1,3,3,3h11l-11,3h-3l-9-2c-4-1-5-4-5-8h0c-42-5-69,3-101,14-16,5-30,13-47,8s-21-24-14-48H59l-6,9-8,10-9,8-9,5H18q-4-1-8-7a15,15,0,0,1-3-6,21,21,0,0,1,0-7,24,24,0,0,1,5-12c9-12,28-13,42-9l8-11,8-11,6-7,6-7Z" transform="translate(-4.7 -5)" fill="#f8f0d6"/>
</svg>
