<?xml version="1.0" encoding="utf-8"?>
<!-- Generator: Adobe Illustrator 21.0.0, SVG Export Plug-In . SVG Version: 6.00 Build 0)  -->
<svg version="1.1" id="Layer_1" xmlns="http://www.w3.org/2000/svg" xmlns:xlink="http://www.w3.org/1999/xlink" x="0px" y="0px"
	 width="1280px" height="31.458px" viewBox="0 0 1280 31.458" style="enable-background:new 0 0 1280 31.458;" xml:space="preserve"
	>
<style type="text/css">
	.st0{fill:#FFFFFF;}
	.st1{fill:#C4C2C2;}
</style>
<path class="st0" d="M0.333,11.205v20.354h1279.333V11.205H0.333z M72.128,27.266c-2.419,0-4.38-1.961-4.38-4.38
	c0-2.419,1.961-4.38,4.38-4.38c2.419,0,4.38,1.961,4.38,4.38C76.509,25.304,74.548,27.266,72.128,27.266z M96.072,27.266
	c-2.419,0-4.38-1.961-4.38-4.38c0-2.419,1.961-4.38,4.38-4.38c2.419,0,4.38,1.961,4.38,4.38
	C100.452,25.304,98.491,27.266,96.072,27.266z M120.016,27.266c-2.419,0-4.38-1.961-4.38-4.38c0-2.419,1.961-4.38,4.38-4.38
	c2.419,0,4.38,1.961,4.38,4.38C124.396,25.304,122.435,27.266,120.016,27.266z M143.959,27.266c-2.419,0-4.38-1.961-4.38-4.38
	c0-2.419,1.961-4.38,4.38-4.38c2.419,0,4.38,1.961,4.38,4.38C148.34,25.304,146.379,27.266,143.959,27.266z M167.903,27.266
	c-2.419,0-4.38-1.961-4.38-4.38c0-2.419,1.961-4.38,4.38-4.38c2.419,0,4.38,1.961,4.38,4.38
	C172.283,25.304,170.322,27.266,167.903,27.266z M281.87,27.266c-2.419,0-4.38-1.961-4.38-4.38c0-2.419,1.961-4.38,4.38-4.38
	c2.419,0,4.38,1.961,4.38,4.38C286.251,25.304,284.29,27.266,281.87,27.266z M305.814,27.266c-2.419,0-4.38-1.961-4.38-4.38
	c0-2.419,1.961-4.38,4.38-4.38c2.419,0,4.38,1.961,4.38,4.38C310.194,25.304,308.233,27.266,305.814,27.266z M418.785,27.266
	c-2.419,0-4.38-1.961-4.38-4.38c0-2.419,1.961-4.38,4.38-4.38c2.419,0,4.38,1.961,4.38,4.38
	C423.165,25.304,421.204,27.266,418.785,27.266z M442.728,27.266c-2.419,0-4.38-1.961-4.38-4.38c0-2.419,1.961-4.38,4.38-4.38
	c2.419,0,4.38,1.961,4.38,4.38C447.109,25.304,445.147,27.266,442.728,27.266z M466.672,27.266c-2.419,0-4.38-1.961-4.38-4.38
	c0-2.419,1.961-4.38,4.38-4.38c2.419,0,4.38,1.961,4.38,4.38C471.052,25.304,469.091,27.266,466.672,27.266z M490.616,27.266
	c-2.419,0-4.38-1.961-4.38-4.38c0-2.419,1.961-4.38,4.38-4.38c2.419,0,4.38,1.961,4.38,4.38
	C494.996,25.304,493.035,27.266,490.616,27.266z M514.559,27.266c-2.419,0-4.38-1.961-4.38-4.38c0-2.419,1.961-4.38,4.38-4.38
	s4.38,1.961,4.38,4.38C518.94,25.304,516.978,27.266,514.559,27.266z M628.626,27.266c-2.419,0-4.38-1.961-4.38-4.38
	c0-2.419,1.961-4.38,4.38-4.38c2.419,0,4.38,1.961,4.38,4.38C633.006,25.304,631.045,27.266,628.626,27.266z M652.569,27.266
	c-2.419,0-4.38-1.961-4.38-4.38c0-2.419,1.961-4.38,4.38-4.38s4.38,1.961,4.38,4.38C656.95,25.304,654.989,27.266,652.569,27.266z
	 M765.441,27.266c-2.419,0-4.38-1.961-4.38-4.38c0-2.419,1.961-4.38,4.38-4.38s4.38,1.961,4.38,4.38
	C769.821,25.304,767.86,27.266,765.441,27.266z M789.384,27.266c-2.419,0-4.38-1.961-4.38-4.38c0-2.419,1.961-4.38,4.38-4.38
	c2.419,0,4.38,1.961,4.38,4.38C793.765,25.304,791.804,27.266,789.384,27.266z M813.328,27.266c-2.419,0-4.38-1.961-4.38-4.38
	c0-2.419,1.961-4.38,4.38-4.38c2.419,0,4.38,1.961,4.38,4.38C817.708,25.304,815.747,27.266,813.328,27.266z M837.272,27.266
	c-2.419,0-4.38-1.961-4.38-4.38c0-2.419,1.961-4.38,4.38-4.38c2.419,0,4.38,1.961,4.38,4.38
	C841.652,25.304,839.691,27.266,837.272,27.266z M861.215,27.266c-2.419,0-4.38-1.961-4.38-4.38c0-2.419,1.961-4.38,4.38-4.38
	c2.419,0,4.38,1.961,4.38,4.38C865.596,25.304,863.635,27.266,861.215,27.266z M975.714,27.266c-2.419,0-4.38-1.961-4.38-4.38
	c0-2.419,1.961-4.38,4.38-4.38c2.419,0,4.38,1.961,4.38,4.38C980.095,25.304,978.134,27.266,975.714,27.266z M999.658,27.266
	c-2.419,0-4.38-1.961-4.38-4.38c0-2.419,1.961-4.38,4.38-4.38c2.419,0,4.38,1.961,4.38,4.38
	C1004.038,25.304,1002.077,27.266,999.658,27.266z M1112.097,27.266c-2.419,0-4.38-1.961-4.38-4.38c0-2.419,1.961-4.38,4.38-4.38
	s4.38,1.961,4.38,4.38C1116.477,25.304,1114.516,27.266,1112.097,27.266z M1136.041,27.266c-2.419,0-4.38-1.961-4.38-4.38
	c0-2.419,1.961-4.38,4.38-4.38c2.419,0,4.38,1.961,4.38,4.38C1140.421,25.304,1138.46,27.266,1136.041,27.266z M1159.984,27.266
	c-2.419,0-4.38-1.961-4.38-4.38c0-2.419,1.961-4.38,4.38-4.38c2.419,0,4.38,1.961,4.38,4.38
	C1164.365,25.304,1162.404,27.266,1159.984,27.266z M1183.928,27.266c-2.419,0-4.38-1.961-4.38-4.38c0-2.419,1.961-4.38,4.38-4.38
	s4.38,1.961,4.38,4.38C1188.308,25.304,1186.347,27.266,1183.928,27.266z M1207.872,27.266c-2.419,0-4.38-1.961-4.38-4.38
	c0-2.419,1.961-4.38,4.38-4.38c2.419,0,4.38,1.961,4.38,4.38C1212.252,25.304,1210.291,27.266,1207.872,27.266z"/>
<g>
	<path class="st1" d="M71.384,22.882c0,0.742-0.418,1.343-0.934,1.343l0,0c-0.516,0-0.937-0.601-0.937-1.343V1.441
		c0-0.74,0.421-1.34,0.937-1.34l0,0c0.516,0,0.934,0.601,0.934,1.34V22.882z"/>
	<path class="st1" d="M74.814,22.882c0,0.742-0.418,1.343-0.934,1.343l0,0c-0.516,0-0.936-0.601-0.936-1.343V1.441
		c0-0.74,0.419-1.34,0.936-1.34l0,0c0.516,0,0.934,0.601,0.934,1.34V22.882z"/>
</g>
<g>
	<path class="st1" d="M95.343,22.882c0,0.742-0.418,1.343-0.934,1.343l0,0c-0.516,0-0.937-0.601-0.937-1.343V1.441
		c0-0.74,0.421-1.34,0.937-1.34l0,0c0.516,0,0.934,0.601,0.934,1.34V22.882z"/>
	<path class="st1" d="M98.772,22.882c0,0.742-0.418,1.343-0.934,1.343l0,0c-0.516,0-0.936-0.601-0.936-1.343V1.441
		c0-0.74,0.419-1.34,0.936-1.34l0,0c0.516,0,0.934,0.601,0.934,1.34V22.882z"/>
</g>
<g>
	<path class="st1" d="M119.301,22.882c0,0.742-0.418,1.343-0.934,1.343l0,0c-0.516,0-0.937-0.601-0.937-1.343V1.441
		c0-0.74,0.421-1.34,0.937-1.34l0,0c0.516,0,0.934,0.601,0.934,1.34V22.882z"/>
	<path class="st1" d="M122.73,22.882c0,0.742-0.418,1.343-0.934,1.343l0,0c-0.516,0-0.936-0.601-0.936-1.343V1.441
		c0-0.74,0.419-1.34,0.936-1.34l0,0c0.516,0,0.934,0.601,0.934,1.34V22.882z"/>
</g>
<g>
	<path class="st1" d="M143.259,22.882c0,0.742-0.418,1.343-0.934,1.343l0,0c-0.516,0-0.937-0.601-0.937-1.343V1.441
		c0-0.74,0.421-1.34,0.937-1.34l0,0c0.516,0,0.934,0.601,0.934,1.34V22.882z"/>
	<path class="st1" d="M146.689,22.882c0,0.742-0.418,1.343-0.934,1.343l0,0c-0.516,0-0.936-0.601-0.936-1.343V1.441
		c0-0.74,0.419-1.34,0.936-1.34l0,0c0.516,0,0.934,0.601,0.934,1.34V22.882z"/>
</g>
<g>
	<path class="st1" d="M167.218,22.882c0,0.742-0.418,1.343-0.934,1.343l0,0c-0.516,0-0.937-0.601-0.937-1.343V1.441
		c0-0.74,0.421-1.34,0.937-1.34l0,0c0.516,0,0.934,0.601,0.934,1.34V22.882z"/>
	<path class="st1" d="M170.647,22.882c0,0.742-0.418,1.343-0.934,1.343l0,0c-0.516,0-0.936-0.601-0.936-1.343V1.441
		c0-0.74,0.419-1.34,0.936-1.34l0,0c0.516,0,0.934,0.601,0.934,1.34V22.882z"/>
</g>
<g>
	<path class="st1" d="M281.259,22.882c0,0.742-0.418,1.343-0.934,1.343l0,0c-0.516,0-0.937-0.601-0.937-1.343V1.441
		c0-0.74,0.421-1.34,0.937-1.34l0,0c0.516,0,0.934,0.601,0.934,1.34V22.882z"/>
	<path class="st1" d="M284.689,22.882c0,0.742-0.418,1.343-0.934,1.343l0,0c-0.516,0-0.936-0.601-0.936-1.343V1.441
		c0-0.74,0.419-1.34,0.936-1.34l0,0c0.516,0,0.934,0.601,0.934,1.34V22.882z"/>
</g>
<g>
	<path class="st1" d="M305.218,22.882c0,0.742-0.418,1.343-0.934,1.343l0,0c-0.516,0-0.937-0.601-0.937-1.343V1.441
		c0-0.74,0.421-1.34,0.937-1.34l0,0c0.516,0,0.934,0.601,0.934,1.34V22.882z"/>
	<path class="st1" d="M308.647,22.882c0,0.742-0.418,1.343-0.934,1.343l0,0c-0.516,0-0.936-0.601-0.936-1.343V1.441
		c0-0.74,0.419-1.34,0.936-1.34l0,0c0.516,0,0.934,0.601,0.934,1.34V22.882z"/>
</g>
<g>
	<path class="st1" d="M764.981,22.882c0,0.742-0.418,1.343-0.934,1.343l0,0c-0.516,0-0.937-0.601-0.937-1.343V1.441
		c0-0.74,0.421-1.34,0.937-1.34l0,0c0.516,0,0.934,0.601,0.934,1.34V22.882z"/>
	<path class="st1" d="M768.41,22.882c0,0.742-0.418,1.343-0.934,1.343l0,0c-0.516,0-0.936-0.601-0.936-1.343V1.441
		c0-0.74,0.419-1.34,0.936-1.34l0,0c0.516,0,0.934,0.601,0.934,1.34V22.882z"/>
</g>
<g>
	<path class="st1" d="M788.94,22.882c0,0.742-0.418,1.343-0.934,1.343l0,0c-0.516,0-0.937-0.601-0.937-1.343V1.441
		c0-0.74,0.421-1.34,0.937-1.34l0,0c0.516,0,0.934,0.601,0.934,1.34V22.882z"/>
	<path class="st1" d="M792.369,22.882c0,0.742-0.418,1.343-0.934,1.343l0,0c-0.516,0-0.936-0.601-0.936-1.343V1.441
		c0-0.74,0.419-1.34,0.936-1.34l0,0c0.516,0,0.934,0.601,0.934,1.34V22.882z"/>
</g>
<g>
	<path class="st1" d="M812.898,22.882c0,0.742-0.418,1.343-0.934,1.343l0,0c-0.516,0-0.937-0.601-0.937-1.343V1.441
		c0-0.74,0.421-1.34,0.937-1.34l0,0c0.516,0,0.934,0.601,0.934,1.34V22.882z"/>
	<path class="st1" d="M816.327,22.882c0,0.742-0.418,1.343-0.934,1.343l0,0c-0.516,0-0.936-0.601-0.936-1.343V1.441
		c0-0.74,0.419-1.34,0.936-1.34l0,0c0.516,0,0.934,0.601,0.934,1.34V22.882z"/>
</g>
<g>
	<path class="st1" d="M836.856,22.882c0,0.742-0.418,1.343-0.934,1.343l0,0c-0.516,0-0.937-0.601-0.937-1.343V1.441
		c0-0.74,0.421-1.34,0.937-1.34l0,0c0.516,0,0.934,0.601,0.934,1.34V22.882z"/>
	<path class="st1" d="M840.285,22.882c0,0.742-0.418,1.343-0.934,1.343l0,0c-0.516,0-0.936-0.601-0.936-1.343V1.441
		c0-0.74,0.419-1.34,0.936-1.34l0,0c0.516,0,0.934,0.601,0.934,1.34V22.882z"/>
</g>
<g>
	<path class="st1" d="M860.815,22.882c0,0.742-0.418,1.343-0.934,1.343l0,0c-0.516,0-0.937-0.601-0.937-1.343V1.441
		c0-0.74,0.421-1.34,0.937-1.34l0,0c0.516,0,0.934,0.601,0.934,1.34V22.882z"/>
	<path class="st1" d="M864.244,22.882c0,0.742-0.418,1.343-0.934,1.343l0,0c-0.516,0-0.936-0.601-0.936-1.343V1.441
		c0-0.74,0.419-1.34,0.936-1.34l0,0c0.516,0,0.934,0.601,0.934,1.34V22.882z"/>
</g>
<g>
	<path class="st1" d="M1111.648,22.882c0,0.742-0.418,1.343-0.934,1.343l0,0c-0.516,0-0.937-0.601-0.937-1.343V1.441
		c0-0.74,0.421-1.34,0.937-1.34l0,0c0.516,0,0.934,0.601,0.934,1.34V22.882z"/>
	<path class="st1" d="M1115.077,22.882c0,0.742-0.418,1.343-0.934,1.343l0,0c-0.516,0-0.936-0.601-0.936-1.343V1.441
		c0-0.74,0.419-1.34,0.936-1.34l0,0c0.516,0,0.934,0.601,0.934,1.34V22.882z"/>
</g>
<g>
	<path class="st1" d="M1135.606,22.882c0,0.742-0.418,1.343-0.934,1.343l0,0c-0.516,0-0.937-0.601-0.937-1.343V1.441
		c0-0.74,0.421-1.34,0.937-1.34l0,0c0.516,0,0.934,0.601,0.934,1.34V22.882z"/>
	<path class="st1" d="M1139.036,22.882c0,0.742-0.418,1.343-0.934,1.343l0,0c-0.516,0-0.936-0.601-0.936-1.343V1.441
		c0-0.74,0.42-1.34,0.936-1.34l0,0c0.516,0,0.934,0.601,0.934,1.34V22.882z"/>
</g>
<g>
	<path class="st1" d="M1159.564,22.882c0,0.742-0.418,1.343-0.934,1.343l0,0c-0.516,0-0.937-0.601-0.937-1.343V1.441
		c0-0.74,0.421-1.34,0.937-1.34l0,0c0.516,0,0.934,0.601,0.934,1.34V22.882z"/>
	<path class="st1" d="M1162.994,22.882c0,0.742-0.418,1.343-0.934,1.343l0,0c-0.516,0-0.936-0.601-0.936-1.343V1.441
		c0-0.74,0.419-1.34,0.936-1.34l0,0c0.516,0,0.934,0.601,0.934,1.34V22.882z"/>
</g>
<g>
	<path class="st1" d="M1183.523,22.882c0,0.742-0.418,1.343-0.934,1.343l0,0c-0.516,0-0.937-0.601-0.937-1.343V1.441
		c0-0.74,0.421-1.34,0.937-1.34l0,0c0.516,0,0.934,0.601,0.934,1.34V22.882z"/>
	<path class="st1" d="M1186.952,22.882c0,0.742-0.418,1.343-0.934,1.343l0,0c-0.516,0-0.936-0.601-0.936-1.343V1.441
		c0-0.74,0.419-1.34,0.936-1.34l0,0c0.516,0,0.934,0.601,0.934,1.34V22.882z"/>
</g>
<g>
	<path class="st1" d="M1207.481,22.882c0,0.742-0.418,1.343-0.934,1.343l0,0c-0.516,0-0.937-0.601-0.937-1.343V1.441
		c0-0.74,0.421-1.34,0.937-1.34l0,0c0.516,0,0.934,0.601,0.934,1.34V22.882z"/>
	<path class="st1" d="M1210.911,22.882c0,0.742-0.418,1.343-0.934,1.343l0,0c-0.516,0-0.936-0.601-0.936-1.343V1.441
		c0-0.74,0.42-1.34,0.936-1.34l0,0c0.516,0,0.934,0.601,0.934,1.34V22.882z"/>
</g>
<g>
	<path class="st1" d="M974.856,22.882c0,0.742-0.418,1.343-0.934,1.343l0,0c-0.516,0-0.937-0.601-0.937-1.343V1.441
		c0-0.74,0.421-1.34,0.937-1.34l0,0c0.516,0,0.934,0.601,0.934,1.34V22.882z"/>
	<path class="st1" d="M978.285,22.882c0,0.742-0.418,1.343-0.934,1.343l0,0c-0.516,0-0.936-0.601-0.936-1.343V1.441
		c0-0.74,0.419-1.34,0.936-1.34l0,0c0.516,0,0.934,0.601,0.934,1.34V22.882z"/>
</g>
<g>
	<path class="st1" d="M998.815,22.882c0,0.742-0.418,1.343-0.934,1.343l0,0c-0.516,0-0.937-0.601-0.937-1.343V1.441
		c0-0.74,0.421-1.34,0.937-1.34l0,0c0.516,0,0.934,0.601,0.934,1.34V22.882z"/>
	<path class="st1" d="M1002.244,22.882c0,0.742-0.418,1.343-0.934,1.343l0,0c-0.516,0-0.936-0.601-0.936-1.343V1.441
		c0-0.74,0.419-1.34,0.936-1.34l0,0c0.516,0,0.934,0.601,0.934,1.34V22.882z"/>
</g>
<g>
	<path class="st1" d="M418.051,22.882c0,0.742-0.418,1.343-0.934,1.343l0,0c-0.516,0-0.937-0.601-0.937-1.343V1.441
		c0-0.74,0.421-1.34,0.937-1.34l0,0c0.516,0,0.934,0.601,0.934,1.34V22.882z"/>
	<path class="st1" d="M421.48,22.882c0,0.742-0.418,1.343-0.934,1.343l0,0c-0.516,0-0.936-0.601-0.936-1.343V1.441
		c0-0.74,0.419-1.34,0.936-1.34l0,0c0.516,0,0.934,0.601,0.934,1.34V22.882z"/>
</g>
<g>
	<path class="st1" d="M442.009,22.882c0,0.742-0.418,1.343-0.934,1.343l0,0c-0.516,0-0.937-0.601-0.937-1.343V1.441
		c0-0.74,0.421-1.34,0.937-1.34l0,0c0.516,0,0.934,0.601,0.934,1.34V22.882z"/>
	<path class="st1" d="M445.439,22.882c0,0.742-0.418,1.343-0.934,1.343l0,0c-0.516,0-0.936-0.601-0.936-1.343V1.441
		c0-0.74,0.419-1.34,0.936-1.34l0,0c0.516,0,0.934,0.601,0.934,1.34V22.882z"/>
</g>
<g>
	<path class="st1" d="M465.968,22.882c0,0.742-0.418,1.343-0.934,1.343l0,0c-0.516,0-0.937-0.601-0.937-1.343V1.441
		c0-0.74,0.421-1.34,0.937-1.34l0,0c0.516,0,0.934,0.601,0.934,1.34V22.882z"/>
	<path class="st1" d="M469.397,22.882c0,0.742-0.418,1.343-0.934,1.343l0,0c-0.516,0-0.936-0.601-0.936-1.343V1.441
		c0-0.74,0.419-1.34,0.936-1.34l0,0c0.516,0,0.934,0.601,0.934,1.34V22.882z"/>
</g>
<g>
	<path class="st1" d="M489.926,22.882c0,0.742-0.418,1.343-0.934,1.343l0,0c-0.516,0-0.937-0.601-0.937-1.343V1.441
		c0-0.74,0.421-1.34,0.937-1.34l0,0c0.516,0,0.934,0.601,0.934,1.34V22.882z"/>
	<path class="st1" d="M493.355,22.882c0,0.742-0.418,1.343-0.934,1.343l0,0c-0.516,0-0.936-0.601-0.936-1.343V1.441
		c0-0.74,0.419-1.34,0.936-1.34l0,0c0.516,0,0.934,0.601,0.934,1.34V22.882z"/>
</g>
<g>
	<path class="st1" d="M513.884,22.882c0,0.742-0.418,1.343-0.934,1.343l0,0c-0.516,0-0.937-0.601-0.937-1.343V1.441
		c0-0.74,0.421-1.34,0.937-1.34l0,0c0.516,0,0.934,0.601,0.934,1.34V22.882z"/>
	<path class="st1" d="M517.314,22.882c0,0.742-0.418,1.343-0.934,1.343l0,0c-0.516,0-0.936-0.601-0.936-1.343V1.441
		c0-0.74,0.419-1.34,0.936-1.34l0,0c0.516,0,0.934,0.601,0.934,1.34V22.882z"/>
</g>
<g>
	<path class="st1" d="M627.926,22.882c0,0.742-0.418,1.343-0.934,1.343l0,0c-0.516,0-0.937-0.601-0.937-1.343V1.441
		c0-0.74,0.421-1.34,0.937-1.34l0,0c0.516,0,0.934,0.601,0.934,1.34V22.882z"/>
	<path class="st1" d="M631.355,22.882c0,0.742-0.418,1.343-0.934,1.343l0,0c-0.516,0-0.936-0.601-0.936-1.343V1.441
		c0-0.74,0.419-1.34,0.936-1.34l0,0c0.516,0,0.934,0.601,0.934,1.34V22.882z"/>
</g>
<g>
	<path class="st1" d="M651.884,22.882c0,0.742-0.418,1.343-0.934,1.343l0,0c-0.516,0-0.937-0.601-0.937-1.343V1.441
		c0-0.74,0.421-1.34,0.937-1.34l0,0c0.516,0,0.934,0.601,0.934,1.34V22.882z"/>
	<path class="st1" d="M655.314,22.882c0,0.742-0.418,1.343-0.934,1.343l0,0c-0.516,0-0.936-0.601-0.936-1.343V1.441
		c0-0.74,0.419-1.34,0.936-1.34l0,0c0.516,0,0.934,0.601,0.934,1.34V22.882z"/>
</g>
</svg>
