<svg xmlns="http://www.w3.org/2000/svg" width="398" height="243" viewBox="0 0 398 243">
  <title>آپادانا</title>
  <path d="M618,290h16V245c0-5,6-10,12-10v36h24v27h21c8-1,14-5,18-11s5-11,5-16V255H661c0-12,0-24,0-36H646c-21,0-28,16-28,28s0,29,0,43m66-7V271h14C698,277,695,283,685,283Z" transform="translate(-508 -211)" style="fill: #1a1a18;fill-rule: evenodd"/>
  <path d="M721,294c7,2,26-2,32-4v5c10,0,17,0,26-3,23-8,28-29,28-45V211H790v34c0,13-1,22-11,28l-13,5c4-5,8-14,8-21H761c-4,9-8,18-24,21V211H721c0,28,0,55,0,83" transform="translate(-508 -211)" style="fill: #1a1a18;fill-rule: evenodd"/>
  <path d="M851,275c3-5,6-13,6-18H842c-1,7-6,13-14,18V211H812c0,28,0,56,0,84,11,1,23-5,30-10v9c7,0,18-6,24-10v10l11-3c17-6,27-21,27-34H889a26,26,0,0,1-4,9c-3,5-7,7-11,9s6-12,6-18H865c-1,5-8,17-14,18" transform="translate(-508 -211)" style="fill: #1a1a18;fill-rule: evenodd"/>
  <path d="M758,224a13,13,0,1,1-13,13,13,13,0,0,1,13-13" transform="translate(-508 -211)" style="fill: #1a1a18;fill-rule: evenodd"/>
  <path d="M784,299c4,11,9,15,16,15h47c-5-11-8-14-19-15H784" transform="translate(-508 -211)" style="fill: #1a1a18;fill-rule: evenodd"/>
  <path d="M809,387V318h15v54c0,8-5,13-15,15" transform="translate(-508 -211)" style="fill: #1a1a18;fill-rule: evenodd"/>
  <path d="M749,299h16v68q20-5,24-21h15q-6,40-55,38V299" transform="translate(-508 -211)" style="fill: #1a1a18;fill-rule: evenodd"/>
  <path d="M718,339H699v15h16q11,0,12,13H699v16h44V366q-2-24-25-27" transform="translate(-508 -211)" style="fill: #1a1a18;fill-rule: evenodd"/>
  <path d="M678,387V318h15v54c0,8-5,13-15,15" transform="translate(-508 -211)" style="fill: #1a1a18;fill-rule: evenodd"/>
  <path d="M618,299h16v68q20-5,24-21h15q-6,40-55,38V299" transform="translate(-508 -211)" style="fill: #1a1a18;fill-rule: evenodd"/>
  <path d="M784,386a11,11,0,1,1-11,11,11,11,0,0,1,11-11" transform="translate(-508 -211)" style="fill: #1a1a18;fill-rule: evenodd"/>
  <path d="M761,386a11,11,0,1,1-11,11,11,11,0,0,1,11-11" transform="translate(-508 -211)" style="fill: #1a1a18;fill-rule: evenodd"/>
  <path d="M773,408a11,11,0,1,1-11,11,11,11,0,0,1,11-11" transform="translate(-508 -211)" style="fill: #1a1a18;fill-rule: evenodd"/>
  <path d="M655,312a14,14,0,1,1-14,14,14,14,0,0,1,14-14" transform="translate(-508 -211)" style="fill: #1a1a18;fill-rule: evenodd"/>
  <path d="M723,407l2-4v-5h-2l-2,2-3,3-2,4-2,4v6h2l2-2,2-3,2-4m12-13-8,17h0l-2,4q0,1,1,1l3-3,4-7,2,2a40,40,0,0,1-6,10,9,9,0,0,1-7,3q-4,0-4-4l-5,3h-5q-2-1-2-5a22,22,0,0,1,3-9l5-8,5-5,4-2h3l2,2h7Zm-26,14,2,2a40,40,0,0,1-6,10,9,9,0,0,1-7,3h-3a4,4,0,0,1-1-3,15,15,0,0,1,2-5l5-8,3-4q1-2,0-2l-2,2-4,4-4,6-4,7-2,5h-7l13-28h6l-3,7,6-5,5-2h2v2a5,5,0,0,1,0,2v3l-5,8-3,5v2h0l4-3Zm-34-1,2-4v-5h-2l-2,2-3,3-2,4-2,4v6h2l2-2,2-3Zm12-13-8,17h0l-2,4q0,1,1,1l3-3,4-7,2,2a40,40,0,0,1-6,10,9,9,0,0,1-7,3q-4,0-4-4l-5,3h-5q-2-1-2-5a22,22,0,0,1,3-9l5-8,5-5,4-2h3l2,2h7Zm-15-21h-2l-3,4-4,7-5,10,6-8,5-7,3-5Q673,374,673,374Zm-23,23h-2l-2,2-3,3-2,4-2,4v3a9,9,0,0,0,0,3h2l2-2,2-3,2-4,3-7a7,7,0,0,0,0-2Zm-16,12,5-8,5-5,4-2h3l2,2,7-13,6-9,5-5h4q2,1,1,4a26,26,0,0,1-3,8l-7,11-11,14-2,6v4a6,6,0,0,0,0,2h2l2-2,3-3,2-4,2,2q-4,8-8,10t-7,2l-2-2a7,7,0,0,1-1-4l-3,3-3,2h-6q-2-1-2-5A22,22,0,0,1,634,408Zm-11-1,2-4v-5h-2l-2,2-3,3-2,4-2,4v6h2l2-2,2-3Zm12-13-8,17h0l-2,4q0,1,1,1l3-3,4-7,2,2a40,40,0,0,1-6,10,9,9,0,0,1-7,3q-4,0-4-4l-5,3h-5q-2-1-2-5a22,22,0,0,1,3-9l5-8,5-5,4-2h3l2,2h7Zm-30,0v2a10,10,0,0,1,0,3v4l-2,5-4,6-5,4,8-4a19,19,0,0,0,5-7l2,2-4,6-5,4-6,3H586l2-3h3l2-2,2-4,2-4,2-4v-6h-2l-3,3-3,4-2,4h0l-12,25h-7l19-40h6l4-2Z" transform="translate(-508 -211)" style="fill: #1a1a18"/>
  <path d="M573,383l8-14a68,68,0,0,1,10-13,32,32,0,0,0-9,8l-7,11-6,12-5,10h2l3-7,3-7m-59,33a14,14,0,0,0-1,5,9,9,0,0,0,1,4l3,3h10l6-4,5-6,5-7,4-7,4-6C538,399,518,401,513,416Zm56-53a16,16,0,0,0-8-6H550l-5,3-4,4-2,4a17,17,0,0,0,0,5,11,11,0,0,0,1,4l3,3h4l4-2v-3a11,11,0,0,0,0-3h4a4,4,0,0,1,2,4,9,9,0,0,1-2,6l-5,4h-6l-6-2-4-4-2-5a21,21,0,0,1,0-5,30,30,0,0,1,1-5,21,21,0,0,1,4-8l6-6,8-3h9l7,2,6,4,6-2,6-2,6-2h5v4a22,22,0,0,0-7,7l-6,10-4,11-4,9-2,5-2,6h13l2,3-8,2h-9c-15,48,24,43,39,38s63-25,114-15c1-4,4-5,8-4l8,3,3,2,8,8-11-5c-3-1-4,0-5,1s1,3,3,3h11l-11,3h-3l-9-2c-4-1-5-4-5-8h0c-42-5-69,3-101,14-16,5-30,13-47,8s-21-24-14-48h-4l-6,9-8,10-9,8-9,5h-9q-4-1-8-7a15,15,0,0,1-3-6,21,21,0,0,1,0-7,24,24,0,0,1,5-12c9-12,28-13,42-9l8-11,8-11,6-7,6-7Z" transform="translate(-508 -211)" style="fill: #1a1a18"/>
  <path d="M620,292h16V247c0-5,6-10,12-10v36h24v27h21c8-1,14-5,18-11s5-11,5-16V257H663c0-12,0-24,0-36H648c-21,0-28,16-28,28s0,29,0,43m66-7V273h14C700,279,697,285,686,285Z" transform="translate(-508 -211)" style="fill: #f8f0d6;fill-rule: evenodd"/>
  <path d="M723,296c7,2,26-2,32-4v5c10,0,17,0,26-3,23-8,28-29,28-45V213H792v34c0,13-1,22-11,28l-13,5c4-5,8-14,8-21H763c-4,9-8,18-24,21V213H723c0,28,0,55,0,83" transform="translate(-508 -211)" style="fill: #f8f0d6;fill-rule: evenodd"/>
  <path d="M853,277c3-5,6-13,6-18H844c-1,7-6,13-14,18V213H814c0,28,0,56,0,84,11,1,23-5,30-10v9c7,0,18-6,24-10v10l11-3c17-6,27-21,27-34H891a26,26,0,0,1-4,9c-3,5-7,7-11,9s6-12,6-18H867c-1,5-8,17-14,18" transform="translate(-508 -211)" style="fill: #f8f0d6;fill-rule: evenodd"/>
  <path d="M759,226a13,13,0,1,1-13,13,13,13,0,0,1,13-13" transform="translate(-508 -211)" style="fill: #e73e0f;fill-rule: evenodd"/>
  <path d="M786,301c4,11,9,15,16,15h47c-5-11-8-14-19-15H786" transform="translate(-508 -211)" style="fill: #f8f0d6;fill-rule: evenodd"/>
  <path d="M811,389V320h15v54c0,8-5,13-15,15" transform="translate(-508 -211)" style="fill: #f8f0d6;fill-rule: evenodd"/>
  <path d="M751,301h16v68q20-5,24-21h15q-6,40-55,38V301" transform="translate(-508 -211)" style="fill: #f8f0d6;fill-rule: evenodd"/>
  <path d="M720,341H701v15h16q11,0,12,13H701v16h44V368q-2-24-25-27" transform="translate(-508 -211)" style="fill: #f8f0d6;fill-rule: evenodd"/>
  <path d="M680,389V320h15v54c0,8-5,13-15,15" transform="translate(-508 -211)" style="fill: #f8f0d6;fill-rule: evenodd"/>
  <path d="M620,301h16v68q20-5,24-21h15q-6,40-55,38V301" transform="translate(-508 -211)" style="fill: #f8f0d6;fill-rule: evenodd"/>
  <path d="M786,388a11,11,0,1,1-11,11,11,11,0,0,1,11-11" transform="translate(-508 -211)" style="fill: #e73e0f;fill-rule: evenodd"/>
  <path d="M763,388a11,11,0,1,1-11,11,11,11,0,0,1,11-11" transform="translate(-508 -211)" style="fill: #e73e0f;fill-rule: evenodd"/>
  <path d="M775,410a11,11,0,1,1-11,11,11,11,0,0,1,11-11" transform="translate(-508 -211)" style="fill: #e73e0f;fill-rule: evenodd"/>
  <path d="M657,314a14,14,0,1,1-14,14,14,14,0,0,1,14-14" transform="translate(-508 -211)" style="fill: #e73e0f;fill-rule: evenodd"/>
  <path d="M725,409l2-4v-5h-2l-2,2-3,3-2,4-2,4v6h2l2-2,2-3,2-4m12-13-8,17h0l-2,4q0,1,1,1l3-3,4-7,2,2a40,40,0,0,1-6,10,9,9,0,0,1-7,3q-4,0-4-4l-5,3h-5q-2-1-2-5a22,22,0,0,1,3-9l5-8,5-5,4-2h3l2,2h7Zm-26,14,2,2a40,40,0,0,1-6,10,9,9,0,0,1-7,3h-3a4,4,0,0,1-1-3,15,15,0,0,1,2-5l5-8,3-4q1-2,0-2l-2,2-4,4-4,6-4,7-2,5h-7l13-28h6l-3,7,6-5,5-2h2v2a5,5,0,0,1,0,2v3l-5,8-3,5v2h0l4-3Zm-34-1,2-4v-5h-2l-2,2-3,3-2,4-2,4v6h2l2-2,2-3Zm12-13-8,17h0l-2,4q0,1,1,1l3-3,4-7,2,2a40,40,0,0,1-6,10,9,9,0,0,1-7,3q-4,0-4-4l-5,3h-5q-2-1-2-5a22,22,0,0,1,3-9l5-8,5-5,4-2h3l2,2h7Zm-15-21h-2l-3,4-4,7-5,10,6-8,5-7,3-5Q675,376,675,376Zm-23,23h-2l-2,2-3,3-2,4-2,4v3a9,9,0,0,0,0,3h2l2-2,2-3,2-4,3-7a7,7,0,0,0,0-2Zm-16,12,5-8,5-5,4-2h3l2,2,7-13,6-9,5-5h4q2,1,1,4a26,26,0,0,1-3,8l-7,11-11,14-2,6v4a6,6,0,0,0,0,2h2l2-2,3-3,2-4,2,2q-4,8-8,10t-7,2l-2-2a7,7,0,0,1-1-4l-3,3-3,2h-6q-2-1-2-5A22,22,0,0,1,636,410Zm-11-1,2-4v-5h-2l-2,2-3,3-2,4-2,4v6h2l2-2,2-3Zm12-13-8,17h0l-2,4q0,1,1,1l3-3,4-7,2,2a40,40,0,0,1-6,10,9,9,0,0,1-7,3q-4,0-4-4l-5,3h-5q-2-1-2-5a22,22,0,0,1,3-9l5-8,5-5,4-2h3l2,2h7Zm-30,0v2a10,10,0,0,1,0,3v4l-2,5-4,6-5,4,8-4a19,19,0,0,0,5-7l2,2-4,6-5,4-6,3H588l2-3h3l2-2,2-4,2-4,2-4v-6h-2l-3,3-3,4-2,4h0l-12,25h-7l19-40h6l4-2Z" transform="translate(-508 -211)" style="fill: #f8f0d6"/>
  <path d="M575,385l8-14a68,68,0,0,1,10-13,32,32,0,0,0-9,8l-7,11-6,12-5,10h2l3-7,3-7m-59,33a14,14,0,0,0-1,5,9,9,0,0,0,1,4l3,3h10l6-4,5-6,5-7,4-7,4-6C540,401,520,403,515,418Zm56-53a16,16,0,0,0-8-6H552l-5,3-4,4-2,4a17,17,0,0,0,0,5,11,11,0,0,0,1,4l3,3h4l4-2v-3a11,11,0,0,0,0-3h4a4,4,0,0,1,2,4,9,9,0,0,1-2,6l-5,4h-6l-6-2-4-4-2-5a21,21,0,0,1,0-5,30,30,0,0,1,1-5,21,21,0,0,1,4-8l6-6,8-3h9l7,2,6,4,6-2,6-2,6-2h5v4a22,22,0,0,0-7,7l-6,10-4,11-4,9-2,5-2,6h13l2,3-8,2h-9c-15,48,24,43,39,38s63-25,114-15c1-4,4-5,8-4l8,3,3,2,8,8-11-5c-3-1-4,0-5,1s1,3,3,3h11l-11,3h-3l-9-2c-4-1-5-4-5-8h0c-42-5-69,3-101,14-16,5-30,13-47,8s-21-24-14-48h-4l-6,9-8,10-9,8-9,5h-9q-4-1-8-7a15,15,0,0,1-3-6,21,21,0,0,1,0-7,24,24,0,0,1,5-12c9-12,28-13,42-9l8-11,8-11,6-7,6-7Z" transform="translate(-508 -211)" style="fill: #f8f0d6"/>
</svg>
