<svg xmlns="http://www.w3.org/2000/svg" width="1280" height="41" viewBox="0 0 1280 41">
  <title>Paper Blue</title>
  <path d="M8,31H0v9H1280V28s0-10,0-13V7h-38l2,5a4,4,0,0,1,0,2c1,0,1,1,0,1h-3c-1-1-2-1-4-1l-5,2-2,2h0v2h0c1,2,0,3,0,5l-2,2c-3,2-6,2-9,0l-5-2h-7a8,8,0,0,1-6,2,6,6,0,0,1-5-3h-11l-3,2c-4,2-8,0-9-3h-2a8,8,0,0,1-7,1h-1a8,8,0,0,1-8,3c-2,0-4-1-4-3h-12l-3,2c-2,0-5,0-6-2h-13c-3,3-7,2-10-1h-12c-4,2-7,2-10-1s-1-1-1-2a3,3,0,0,1,0-2,21,21,0,0,1,0-5c0-2,0-3-2-3h-8c-1,2-1,4-1,6a11,11,0,0,1,0,6h0a7,7,0,0,1-9,1c-1,0-2-1-2-2a30,30,0,0,1,0-9V18h4a2,2,0,0,0,2-2s0,0,0-1h0a4,4,0,0,0,0-2c-1,0-1,0-1-1a4,4,0,0,0,1-3h-13l4,3a1,1,0,0,1,0,1h-15s-1-1,0-1a2,2,0,0,0,1-2h-11l2,3h-7l-2-2h-11l-5,4h-3l-6-2-5,2h-8a2,2,0,0,1-1,2h-7v3a48,48,0,0,1,0,9,2,2,0,0,1-1,2,8,8,0,0,1-11-1,1,1,0,0,1,0-1c-1-3,0-5,0-8h1l4-2h9l4-4h3l4-2H937v2l-3,3h1c1,0,1,1,1,2a2,2,0,0,0,0,2c1,1,1,3,1,4s0,3,1,4,0,1-1,1-2,3-4,4h-7a3,3,0,0,1-2-3s0,0,0-1h0c0-2,0-4,0-6a4,4,0,0,1,3-4h3c1,0,1-1,1-2h-4c0-1-2-2,0-4h-7a2,2,0,0,1,1,3h-4l-9-2c-1,0-1,0-2-2H847c-1,0-1,0-1-1H827c-1,0,0,0,0-1s0-1-1-1H809l-3,3h-2c-3,1-3,1-4,4a2,2,0,0,0,1,3,3,3,0,0,1,1,3,28,28,0,0,0,0,5c0,1,0,2,0,3a3,3,0,0,1-2,3c-3,2-6,2-9,0a2,2,0,0,1-1-2c-1-1-1-3,0-4a10,10,0,0,0,0-4,2,2,0,0,1,0-2h1c1-1,0-1,0-2s0,0,0-1l7-2h0c2,0,3-1,5-3h6c0-2,0-2,1-2a1,1,0,0,0,1-2h-5l-4,2H789c0,1-1,2-2,3v2c-1,2-1,2-2,2h-7c-1,0-1,0-1-1h0c0-2-1-2-2-2H734V8h-1s0-1,0-1V5H530l-3,3-2,2-2,3h0v5a6,6,0,0,1-1,3v7h-2c-2,0-5,0-6-2H502c-3,3-7,2-10-1H480c-4,2-7,2-10-1s-1-1-1-2a3,3,0,0,1,0-2,21,21,0,0,1,0-5c0-2,0-3-2-3h-8c-1,2-1,4-1,6a11,11,0,0,1,0,6h0a7,7,0,0,1-9,1c-1,0-2-1-2-2a30,30,0,0,1,0-9V17h4a2,2,0,0,0,2-2s0,0,0-1h0a4,4,0,0,0,0-2c-1,0-1,0-1-1a4,4,0,0,0,1-3H442l4,3a1,1,0,0,1,0,1H430s-1-1,0-1a2,2,0,0,0,1-2H420l2,3h-7l-2-2H402l-5,4h-3l-6-2-5,2h-8a2,2,0,0,1-1,2h-7v3a48,48,0,0,1,0,9,2,2,0,0,1-1,2,8,8,0,0,1-11-1,1,1,0,0,1,0-1c-1-3,0-5,0-8h1l4-2h9l4-4h3l4-2H324v2l-3,3h1c1,0,1,1,1,2a2,2,0,0,0,0,2c1,1,1,3,1,4s0,3,1,4,0,1-1,1-2,3-4,4h-7a3,3,0,0,1-2-3s0,0,0-1h0c0-2,0-4,0-6a4,4,0,0,1,3-4h3c1,0,1-1,1-2h-4c0-1-2-2,0-4h-7a2,2,0,0,1,1,3h-4l-9-2c-1,0-1,0-2-2H235c-1,0-1,0-1-1H214c-1,0,0,0,0-1s0-1-1-1H196l-3,3h-2c-3,1-3,1-4,4a2,2,0,0,0,1,3,3,3,0,0,1,1,3,28,28,0,0,0,0,5c0,1,0,2,0,3a3,3,0,0,1-2,3c-3,2-6,2-9,0a2,2,0,0,1-1-2c-1-1-1-3,0-4a10,10,0,0,0,0-4,2,2,0,0,1,0-2h1c1-1,0-1,0-2s0,0,0-1l7-2h0c2,0,3-1,5-3h6c0-2,0-2,1-2a1,1,0,0,0,1-2h-5l-4,2H176c0,1-1,2-2,3v2c-1,2-1,2-2,2h-7c-1,0-1,0-1-1h0c0-2-1-2-2-2H121V7h-1s0-1,0-1V4H0v8H15l2-2h0s0,1,0,1H14c0,1-1,2-1,4l-2,3v2a22,22,0,0,0,1,4,6,6,0,0,1,0,2H10a2,2,0,0,1,0,2Zm1254-7h0c0-2,1-3,2-4h9v2a29,29,0,0,0,1,5,1,1,0,0,1,0,1,3,3,0,0,1-2,3c0,1-2,2-3,2s-6,0-8-3S1262,26,1262,23Zm-22,0a3,3,0,0,1,2-4h8c2,0,2,1,2,3s0,3,1,5,0,2,0,3a3,3,0,0,1-1,2c-1,2-3,2-5,2a4,4,0,0,1-4-2h-1V30a13,13,0,0,1,0-5Zm-203-1c0-3,1-4,4-5h6c1,2,2,4,2,6a6,6,0,0,0,0,3,3,3,0,0,1,0,3,3,3,0,0,1-2,3c-4,2-6,2-9-1h0A25,25,0,0,1,1037,22Zm-23-1a5,5,0,0,1,2-4c1-1,2-2,4-1h4c1,1,2,1,2,2h0a2,2,0,0,0,0,2,4,4,0,0,1,1,2v4a3,3,0,0,1-1,2h0a7,7,0,0,1-7,2c-2,0-4-1-5-4h0A24,24,0,0,0,1014,22Zm-22-1a2,2,0,0,1,2-2h8c1,1,3,3,2,5a10,10,0,0,1,0,6,1,1,0,0,1,0,1c-3,3-6,3-10,1s-2-2-2-3A55,55,0,0,0,992,21ZM957,11l2,2a1,1,0,0,1,0,1h-2l-4-2ZM947,21a4,4,0,0,1,2-4l5-3h3s0,0,0,1a8,8,0,0,1,2,5c0,2,0,3,0,5v2h-1c-3,3-6,3-9,1s-2-1-2-2a9,9,0,0,1,0-5A5,5,0,0,0,947,21Zm-45,3a20,20,0,0,0,0-4c0-2,0-3,2-3h2l3-3h6a0,0,0,0,1,0,1c-2,1-2,3-2,5s0,2,1,3h0c-1,1,0,3-1,5h0a2,2,0,0,1-1,2,8,8,0,0,1-10,0V28A12,12,0,0,1,902,24ZM857,14h2c2,1,4,0,6-1h30l2-2h0s0,1,0,1h-3c0,1-1,2-1,4l-2,3v2a22,22,0,0,0,1,4,6,6,0,0,1,0,2h-1a2,2,0,0,1,0,2l-2,2h-5c-2,0-3-1-4-3s0-4-1-7a4,4,0,0,1,2-4h0a3,3,0,0,0-2-3h-8c0,1,0,2-2,2s0,1,0,1v2h0a23,23,0,0,0,0,6h-1a4,4,0,0,1-3,3c-3,1-6,1-9-1h-1a3,3,0,0,1-1-3,46,46,0,0,0,0-6,3,3,0,0,1,1-3c1-1,1-1,0-2h-1Zm-24,9V19h-1V17h3c2-1,3-3,4-5s0-1,0-2h2c1,0,1,0,1,1a7,7,0,0,0,0,2,7,7,0,0,1,0,3h0v2a1,1,0,0,1-1,1h0a11,11,0,0,0,1,5c0,1,0,1,0,2s-2,3-3,4a8,8,0,0,1-8-1V28c0-1,1-2,0-4A1,1,0,0,1,833,23Zm-22,0a12,12,0,0,0,0-2V19c0-1,1-2,2-2l3-2h6a1,1,0,0,1,1,1c-1,2-1,3,0,5s0,5,0,8h-1a3,3,0,0,1-1,3,8,8,0,0,1-8,1l-2-3A14,14,0,0,1,811,23Zm-37-9h2v2a1,1,0,0,0,0,1h0a7,7,0,0,1,2,6,9,9,0,0,0,0,2c0,1,0,2,0,2a4,4,0,0,1-1,2c-1,2-3,3-5,3a7,7,0,0,1-6-2h-1a16,16,0,0,0,0-6,4,4,0,0,1,0-3c0-2,0-2,2-3l-3-2Zm-25-1h0Zm-5,9a4,4,0,0,1,2-3h12c-1,0-2,1-2,2a20,20,0,0,0,0,6,3,3,0,0,1-1,3,1,1,0,0,1,0,1,8,8,0,0,1-10,1,3,3,0,0,1-1-3h0A35,35,0,0,1,744,21ZM727,10h1l-2-2Zm-5,11h1c0-1,0-1,1-1h0V16h7l2,2,3,2h-1a26,26,0,0,1,1,7v2s0,1,0,1-8,4-11,1h-1C722,26,722,23,722,21Zm-23,3a36,36,0,0,1,1-4h0c0-1-1-1-1-1h10v2c0,1,1,2,0,4a5,5,0,0,0,1,3,4,4,0,0,1-1,3h-1l-6,2h-4c-1,0-1-1,0-2h0C699,27,698,26,699,24Zm-23-2a4,4,0,0,1,2-3h12c-1,0-2,1-2,2a20,20,0,0,0,0,6,3,3,0,0,1-1,3,1,1,0,0,1,0,1,8,8,0,0,1-10,1,3,3,0,0,1-1-3h0A35,35,0,0,1,676,21Zm-22-1h1c0-1,0-1,1-1h0V16h7l2,2,3,2h-1a26,26,0,0,1,1,7v2s0,1,0,1-8,4-11,1h-1C654,26,654,23,654,21Zm-23,3a36,36,0,0,1,1-4h0c0-1-1-1-1-1h10v2c0,1,1,2,0,4a5,5,0,0,0,1,3,4,4,0,0,1-1,3h-1l-6,2h-4c-1,0-1-1,0-2h0C631,27,630,26,631,24ZM589,14h2c2,1,4,0,6-1h30l2-2h0s0,1,0,1h-3c0,1-1,2-1,4l-2,3v2a22,22,0,0,0,1,4,6,6,0,0,1,0,2h-1a2,2,0,0,1,0,2l-2,2h-5c-2,0-3-1-4-3s0-4-1-7a4,4,0,0,1,2-4h0a3,3,0,0,0-2-3h-8c0,1,0,2-2,2s0,1,0,1v2h0a23,23,0,0,0,0,6h-1a4,4,0,0,1-3,3c-3,1-6,1-9-1h-1a3,3,0,0,1-1-3,46,46,0,0,0,0-6,3,3,0,0,1,1-3c1-1,1-1,0-2h-1Zm-24,9V19h-1V17h3c2-1,3-3,4-5s0-1,0-2h2c1,0,1,0,1,1a7,7,0,0,0,0,2,7,7,0,0,1,0,3h0v2a1,1,0,0,1-1,1h0a11,11,0,0,0,1,5c0,1,0,1,0,2s-2,3-3,4a8,8,0,0,1-8-1V28c0-1,1-2,0-4A1,1,0,0,1,566,23Zm-15-8h10a1,1,0,0,1,0,1l-2,2-3,2h3c2,0,2,1,2,2s0,3,0,5,1,3,0,4,0,0,0,1-2,3-4,3h-7c-1-1-2-1-1-3a25,25,0,0,1,1-8C548,18,548,18,551,15ZM528,28h0a25,25,0,0,1,0-6,4,4,0,0,1,3-3h7c1,0,2,1,2,3s0,1,0,2a3,3,0,0,1,0,3c0,1,0,2-1,3s-1,2-3,3h-5c-2-1-3-1-4-3h0ZM424,21c0-3,1-4,4-5h6c1,2,2,4,2,6a6,6,0,0,0,0,3,3,3,0,0,1,0,3,3,3,0,0,1-2,3c-4,2-6,2-9-1h0A25,25,0,0,1,424,21Zm-23-1a5,5,0,0,1,2-4c1-1,2-2,4-1h4c1,1,2,1,2,2h0a2,2,0,0,0,0,2,4,4,0,0,1,1,2v4a3,3,0,0,1-1,2h0a7,7,0,0,1-7,2c-2,0-4-1-5-4h0A24,24,0,0,0,402,21Zm-22-1a2,2,0,0,1,2-2h8c1,1,3,3,2,5a10,10,0,0,1,0,6,1,1,0,0,1,0,1c-3,3-6,3-10,1s-2-2-2-3A55,55,0,0,0,379,20ZM345,10l2,2a1,1,0,0,1,0,1h-2l-4-2ZM334,20a4,4,0,0,1,2-4l5-3h3s0,0,0,1a8,8,0,0,1,2,5c0,2,0,3,0,5v2h-1c-3,3-6,3-9,1s-2-1-2-2a9,9,0,0,1,0-5A5,5,0,0,0,334,20Zm-45,3a20,20,0,0,0,0-4c0-2,0-3,2-3h2l3-3h6a0,0,0,0,1,0,1c-2,1-2,3-2,5s0,2,1,3h0c-1,1,0,3-1,5h0a2,2,0,0,1-1,2,8,8,0,0,1-10,0V27A12,12,0,0,1,289,23ZM244,13h2c2,1,4,0,6-1h30l2-2h0s0,1,0,1h-3c0,1-1,2-1,4l-2,3v2a22,22,0,0,0,1,4,6,6,0,0,1,0,2h-1a2,2,0,0,1,0,2l-2,2h-5c-2,0-3-1-4-3s0-4-1-7a4,4,0,0,1,2-4h0a3,3,0,0,0-2-3h-8c0,1,0,2-2,2s0,1,0,1v2h0a23,23,0,0,0,0,6h-1a4,4,0,0,1-3,3c-3,1-6,1-9-1h-1a3,3,0,0,1-1-3,45,45,0,0,0,0-6,3,3,0,0,1,1-3c1-1,1-1,0-2h-1Zm-24,9V18h-1V16h3c2-1,3-3,4-5s0-1,0-2h2c1,0,1,0,1,1a7,7,0,0,0,0,2,7,7,0,0,1,0,3h0v2a1,1,0,0,1-1,1h0a11,11,0,0,0,1,5c0,1,0,1,0,2s-2,3-3,4a8,8,0,0,1-8-1V27c0-1,1-2,0-4A1,1,0,0,1,221,22Zm-22,0a12,12,0,0,0,0-2V18c0-1,1-2,2-2l3-2h6a1,1,0,0,1,1,1c-1,2-1,3,0,5s0,5,0,8h-1a3,3,0,0,1-1,3,8,8,0,0,1-8,1l-2-3A14,14,0,0,1,199,22Zm-37-9h2v2a1,1,0,0,0,0,1h0a7,7,0,0,1,2,6,9,9,0,0,0,0,2c0,1,0,2,0,2a4,4,0,0,1-1,2c-1,2-3,3-5,3a7,7,0,0,1-6-2h-1a16,16,0,0,0,0-6,4,4,0,0,1,0-3c0-2,0-2,2-3l-3-2Zm-25-1h0Zm-5,9a4,4,0,0,1,2-3h12c-1,0-2,1-2,2a20,20,0,0,0,0,6,3,3,0,0,1-1,3,1,1,0,0,1,0,1,8,8,0,0,1-10,1,3,3,0,0,1-1-3h0A35,35,0,0,1,131,20ZM114,9h1l-2-2Zm-5,11h1c0-1,0-1,1-1h0V15h7l2,2,3,2h-1a26,26,0,0,1,1,7v2s0,1,0,1-8,4-11,1h-1C109,25,109,22,109,20ZM86,23a36,36,0,0,1,1-4h0c0-1-1-1-1-1H97v2c0,1,1,2,0,4a5,5,0,0,0,1,3,4,4,0,0,1-1,3H97l-6,2H87c-1,0-1-1,0-2h0C86,26,86,25,86,23ZM63,20a4,4,0,0,1,2-3H77c-1,0-2,1-2,2a20,20,0,0,0,0,6,3,3,0,0,1-1,3,1,1,0,0,1,0,1,8,8,0,0,1-10,1,3,3,0,0,1-1-3h0A35,35,0,0,1,63,20ZM41,20h1c0-1,0-1,1-1h0V15h7l2,2,3,2H52a26,26,0,0,1,1,7v2s0,1,0,1-8,4-11,1H41C41,25,41,22,41,20ZM18,23a36,36,0,0,1,1-4h0c0-1-1-1-1-1H29v2c0,1,1,2,0,4a5,5,0,0,0,1,3,4,4,0,0,1-1,3H29l-6,2H19c-1,0-1-1,0-2h0C18,26,18,25,18,23Z" style="fill: #383838;fill-rule: evenodd;opacity: 0.28"/>
  <path d="M979,16h0Z" style="fill: #b8dbaa;fill-rule: evenodd"/>
  <path d="M979,16s0,0,0,0h0Z" style="fill: #b8dbaa;fill-rule: evenodd"/>
  <path d="M8,33H0v9H1280V30s0-10,0-13V9h-38l2,5a4,4,0,0,1,0,2c1,0,1,1,0,1h-3c-1-1-2-1-4-1l-5,2-2,2h0v2h0c1,2,0,3,0,5l-2,2c-3,2-6,2-9,0l-5-2h-7a8,8,0,0,1-6,2,6,6,0,0,1-5-3h-11l-3,2c-4,2-8,0-9-3h-2a8,8,0,0,1-7,1h-1a8,8,0,0,1-8,3c-2,0-4-1-4-3h-12l-3,2c-2,0-5,0-6-2h-13c-3,3-7,2-10-1h-12c-4,2-7,2-10-1s-1-1-1-2a3,3,0,0,1,0-2,21,21,0,0,1,0-5c0-2,0-3-2-3h-8c-1,2-1,4-1,6a11,11,0,0,1,0,6h0a7,7,0,0,1-9,1c-1,0-2-1-2-2a30,30,0,0,1,0-9V20h4a2,2,0,0,0,2-2s0,0,0-1h0a4,4,0,0,0,0-2c-1,0-1,0-1-1a4,4,0,0,0,1-3h-13l4,3a1,1,0,0,1,0,1h-15s-1-1,0-1a2,2,0,0,0,1-2h-11l2,3h-7l-2-2h-11l-5,4h-3l-6-2-5,2h-8a2,2,0,0,1-1,2h-7v3a48,48,0,0,1,0,9,2,2,0,0,1-1,2,8,8,0,0,1-11-1,1,1,0,0,1,0-1c-1-3,0-5,0-8h1l4-2h9l4-4h3l4-2H937v2l-3,3h1c1,0,1,1,1,2a2,2,0,0,0,0,2c1,1,1,3,1,4s0,3,1,4,0,1-1,1-2,3-4,4h-7a3,3,0,0,1-2-3s0,0,0-1h0c0-2,0-4,0-6a4,4,0,0,1,3-4h3c1,0,1-1,1-2h-4c0-1-2-2,0-4h-7a2,2,0,0,1,1,3h-4l-9-2c-1,0-1,0-2-2H847c-1,0-1,0-1-1H827c-1,0,0,0,0-1s0-1-1-1H809l-3,3h-2c-3,1-3,1-4,4a2,2,0,0,0,1,3,3,3,0,0,1,1,3,28,28,0,0,0,0,5c0,1,0,2,0,3a3,3,0,0,1-2,3c-3,2-6,2-9,0a2,2,0,0,1-1-2c-1-1-1-3,0-4a10,10,0,0,0,0-4,2,2,0,0,1,0-2h1c1-1,0-1,0-2s0,0,0-1l7-2h0c2,0,3-1,5-3h6c0-2,0-2,1-2a1,1,0,0,0,1-2h-5l-4,2H789c0,1-1,2-2,3v2c-1,2-1,2-2,2h-7c-1,0-1,0-1-1h0c0-2-1-2-2-2H734v2h-1s0-1,0-1V7H530l-3,3-2,2-2,3h0v5a6,6,0,0,1-1,3v7h-2c-2,0-5,0-6-2H502c-3,3-7,2-10-1H480c-4,2-7,2-10-1s-1-1-1-2a3,3,0,0,1,0-2,21,21,0,0,1,0-5c0-2,0-3-2-3h-8c-1,2-1,4-1,6a11,11,0,0,1,0,6h0a7,7,0,0,1-9,1c-1,0-2-1-2-2a30,30,0,0,1,0-9V19h4a2,2,0,0,0,2-2s0,0,0-1h0a4,4,0,0,0,0-2c-1,0-1,0-1-1a4,4,0,0,0,1-3H442l4,3a1,1,0,0,1,0,1H430s-1-1,0-1a2,2,0,0,0,1-2H420l2,3h-7l-2-2H402l-5,4h-3l-6-2-5,2h-8a2,2,0,0,1-1,2h-7v3a48,48,0,0,1,0,9,2,2,0,0,1-1,2,8,8,0,0,1-11-1,1,1,0,0,1,0-1c-1-3,0-5,0-8h1l4-2h9l4-4h3l4-2H324v2l-3,3h1c1,0,1,1,1,2a2,2,0,0,0,0,2c1,1,1,3,1,4s0,3,1,4,0,1-1,1-2,3-4,4h-7a3,3,0,0,1-2-3s0,0,0-1h0c0-2,0-4,0-6a4,4,0,0,1,3-4h3c1,0,1-1,1-2h-4c0-1-2-2,0-4h-7a2,2,0,0,1,1,3h-4l-9-2c-1,0-1,0-2-2H235c-1,0-1,0-1-1H214c-1,0,0,0,0-1s0-1-1-1H196l-3,3h-2c-3,1-3,1-4,4a2,2,0,0,0,1,3,3,3,0,0,1,1,3,28,28,0,0,0,0,5c0,1,0,2,0,3a3,3,0,0,1-2,3c-3,2-6,2-9,0a2,2,0,0,1-1-2c-1-1-1-3,0-4a10,10,0,0,0,0-4,2,2,0,0,1,0-2h1c1-1,0-1,0-2s0,0,0-1l7-2h0c2,0,3-1,5-3h6c0-2,0-2,1-2a1,1,0,0,0,1-2h-5l-4,2H176c0,1-1,2-2,3v2c-1,2-1,2-2,2h-7c-1,0-1,0-1-1h0c0-2-1-2-2-2H121V9h-1s0-1,0-1V6H0v8H15l2-2h0s0,1,0,1H14c0,1-1,2-1,4l-2,3v2a22,22,0,0,0,1,4,6,6,0,0,1,0,2H10a2,2,0,0,1,0,2Zm1254-7h0c0-2,1-3,2-4h9v2a29,29,0,0,0,1,5,1,1,0,0,1,0,1,3,3,0,0,1-2,3c0,1-2,2-3,2s-6,0-8-3S1262,28,1262,25Zm-22,0a3,3,0,0,1,2-4h8c2,0,2,1,2,3s0,3,1,5,0,2,0,3a3,3,0,0,1-1,2c-1,2-3,2-5,2a4,4,0,0,1-4-2h-1V32a13,13,0,0,1,0-5Zm-203-1c0-3,1-4,4-5h6c1,2,2,4,2,6a6,6,0,0,0,0,3,3,3,0,0,1,0,3,3,3,0,0,1-2,3c-4,2-6,2-9-1h0A25,25,0,0,1,1037,24Zm-23-1a5,5,0,0,1,2-4c1-1,2-2,4-1h4c1,1,2,1,2,2h0a2,2,0,0,0,0,2,4,4,0,0,1,1,2v4a3,3,0,0,1-1,2h0a7,7,0,0,1-7,2c-2,0-4-1-5-4h0A24,24,0,0,0,1014,24Zm-22-1a2,2,0,0,1,2-2h8c1,1,3,3,2,5a10,10,0,0,1,0,6,1,1,0,0,1,0,1c-3,3-6,3-10,1s-2-2-2-3A55,55,0,0,0,992,23ZM957,13l2,2a1,1,0,0,1,0,1h-2l-4-2ZM947,23a4,4,0,0,1,2-4l5-3h3s0,0,0,1a8,8,0,0,1,2,5c0,2,0,3,0,5v2h-1c-3,3-6,3-9,1s-2-1-2-2a9,9,0,0,1,0-5A5,5,0,0,0,947,23Zm-45,3a20,20,0,0,0,0-4c0-2,0-3,2-3h2l3-3h6a0,0,0,0,1,0,1c-2,1-2,3-2,5s0,2,1,3h0c-1,1,0,3-1,5h0a2,2,0,0,1-1,2,8,8,0,0,1-10,0V30A12,12,0,0,1,902,26ZM857,16h2c2,1,4,0,6-1h30l2-2h0s0,1,0,1h-3c0,1-1,2-1,4l-2,3v2a22,22,0,0,0,1,4,6,6,0,0,1,0,2h-1a2,2,0,0,1,0,2l-2,2h-5c-2,0-3-1-4-3s0-4-1-7a4,4,0,0,1,2-4h0a3,3,0,0,0-2-3h-8c0,1,0,2-2,2s0,1,0,1v2h0a23,23,0,0,0,0,6h-1a4,4,0,0,1-3,3c-3,1-6,1-9-1h-1a3,3,0,0,1-1-3,46,46,0,0,0,0-6,3,3,0,0,1,1-3c1-1,1-1,0-2h-1Zm-24,9V21h-1V19h3c2-1,3-3,4-5s0-1,0-2h2c1,0,1,0,1,1a7,7,0,0,0,0,2,7,7,0,0,1,0,3h0v2a1,1,0,0,1-1,1h0a11,11,0,0,0,1,5c0,1,0,1,0,2s-2,3-3,4a8,8,0,0,1-8-1V30c0-1,1-2,0-4A1,1,0,0,1,833,25Zm-22,0a12,12,0,0,0,0-2V21c0-1,1-2,2-2l3-2h6a1,1,0,0,1,1,1c-1,2-1,3,0,5s0,5,0,8h-1a3,3,0,0,1-1,3,8,8,0,0,1-8,1l-2-3A14,14,0,0,1,811,25Zm-37-9h2v2a1,1,0,0,0,0,1h0a7,7,0,0,1,2,6,9,9,0,0,0,0,2c0,1,0,2,0,2a4,4,0,0,1-1,2c-1,2-3,3-5,3a7,7,0,0,1-6-2h-1a16,16,0,0,0,0-6,4,4,0,0,1,0-3c0-2,0-2,2-3l-3-2Zm-25-1h0Zm-5,9a4,4,0,0,1,2-3h12c-1,0-2,1-2,2a20,20,0,0,0,0,6,3,3,0,0,1-1,3,1,1,0,0,1,0,1,8,8,0,0,1-10,1,3,3,0,0,1-1-3h0A35,35,0,0,1,744,23ZM727,12h1l-2-2Zm-5,11h1c0-1,0-1,1-1h0V18h7l2,2,3,2h-1a26,26,0,0,1,1,7v2s0,1,0,1-8,4-11,1h-1C722,28,722,25,722,23Zm-23,3a36,36,0,0,1,1-4h0c0-1-1-1-1-1h10v2c0,1,1,2,0,4a5,5,0,0,0,1,3,4,4,0,0,1-1,3h-1l-6,2h-4c-1,0-1-1,0-2h0C699,29,698,28,699,26Zm-23-2a4,4,0,0,1,2-3h12c-1,0-2,1-2,2a20,20,0,0,0,0,6,3,3,0,0,1-1,3,1,1,0,0,1,0,1,8,8,0,0,1-10,1,3,3,0,0,1-1-3h0A35,35,0,0,1,676,23Zm-22-1h1c0-1,0-1,1-1h0V18h7l2,2,3,2h-1a26,26,0,0,1,1,7v2s0,1,0,1-8,4-11,1h-1C654,28,654,25,654,23Zm-23,3a36,36,0,0,1,1-4h0c0-1-1-1-1-1h10v2c0,1,1,2,0,4a5,5,0,0,0,1,3,4,4,0,0,1-1,3h-1l-6,2h-4c-1,0-1-1,0-2h0C631,29,630,28,631,26ZM589,16h2c2,1,4,0,6-1h30l2-2h0s0,1,0,1h-3c0,1-1,2-1,4l-2,3v2a22,22,0,0,0,1,4,6,6,0,0,1,0,2h-1a2,2,0,0,1,0,2l-2,2h-5c-2,0-3-1-4-3s0-4-1-7a4,4,0,0,1,2-4h0a3,3,0,0,0-2-3h-8c0,1,0,2-2,2s0,1,0,1v2h0a23,23,0,0,0,0,6h-1a4,4,0,0,1-3,3c-3,1-6,1-9-1h-1a3,3,0,0,1-1-3,46,46,0,0,0,0-6,3,3,0,0,1,1-3c1-1,1-1,0-2h-1Zm-24,9V21h-1V19h3c2-1,3-3,4-5s0-1,0-2h2c1,0,1,0,1,1a7,7,0,0,0,0,2,7,7,0,0,1,0,3h0v2a1,1,0,0,1-1,1h0a11,11,0,0,0,1,5c0,1,0,1,0,2s-2,3-3,4a8,8,0,0,1-8-1V30c0-1,1-2,0-4A1,1,0,0,1,566,25Zm-15-8h10a1,1,0,0,1,0,1l-2,2-3,2h3c2,0,2,1,2,2s0,3,0,5,1,3,0,4,0,0,0,1-2,3-4,3h-7c-1-1-2-1-1-3a25,25,0,0,1,1-8C548,20,548,20,551,17ZM528,30h0a25,25,0,0,1,0-6,4,4,0,0,1,3-3h7c1,0,2,1,2,3s0,1,0,2a3,3,0,0,1,0,3c0,1,0,2-1,3s-1,2-3,3h-5c-2-1-3-1-4-3h0ZM424,23c0-3,1-4,4-5h6c1,2,2,4,2,6a6,6,0,0,0,0,3,3,3,0,0,1,0,3,3,3,0,0,1-2,3c-4,2-6,2-9-1h0A25,25,0,0,1,424,23Zm-23-1a5,5,0,0,1,2-4c1-1,2-2,4-1h4c1,1,2,1,2,2h0a2,2,0,0,0,0,2,4,4,0,0,1,1,2v4a3,3,0,0,1-1,2h0a7,7,0,0,1-7,2c-2,0-4-1-5-4h0A24,24,0,0,0,402,23Zm-22-1a2,2,0,0,1,2-2h8c1,1,3,3,2,5a10,10,0,0,1,0,6,1,1,0,0,1,0,1c-3,3-6,3-10,1s-2-2-2-3A55,55,0,0,0,379,22ZM345,12l2,2a1,1,0,0,1,0,1h-2l-4-2ZM334,22a4,4,0,0,1,2-4l5-3h3s0,0,0,1a8,8,0,0,1,2,5c0,2,0,3,0,5v2h-1c-3,3-6,3-9,1s-2-1-2-2a9,9,0,0,1,0-5A5,5,0,0,0,334,22Zm-45,3a20,20,0,0,0,0-4c0-2,0-3,2-3h2l3-3h6a0,0,0,0,1,0,1c-2,1-2,3-2,5s0,2,1,3h0c-1,1,0,3-1,5h0a2,2,0,0,1-1,2,8,8,0,0,1-10,0V29A12,12,0,0,1,289,25ZM244,15h2c2,1,4,0,6-1h30l2-2h0s0,1,0,1h-3c0,1-1,2-1,4l-2,3v2a22,22,0,0,0,1,4,6,6,0,0,1,0,2h-1a2,2,0,0,1,0,2l-2,2h-5c-2,0-3-1-4-3s0-4-1-7a4,4,0,0,1,2-4h0a3,3,0,0,0-2-3h-8c0,1,0,2-2,2s0,1,0,1v2h0a23,23,0,0,0,0,6h-1a4,4,0,0,1-3,3c-3,1-6,1-9-1h-1a3,3,0,0,1-1-3,45,45,0,0,0,0-6,3,3,0,0,1,1-3c1-1,1-1,0-2h-1Zm-24,9V20h-1V18h3c2-1,3-3,4-5s0-1,0-2h2c1,0,1,0,1,1a7,7,0,0,0,0,2,7,7,0,0,1,0,3h0v2a1,1,0,0,1-1,1h0a11,11,0,0,0,1,5c0,1,0,1,0,2s-2,3-3,4a8,8,0,0,1-8-1V29c0-1,1-2,0-4A1,1,0,0,1,221,24Zm-22,0a12,12,0,0,0,0-2V20c0-1,1-2,2-2l3-2h6a1,1,0,0,1,1,1c-1,2-1,3,0,5s0,5,0,8h-1a3,3,0,0,1-1,3,8,8,0,0,1-8,1l-2-3A14,14,0,0,1,199,24Zm-37-9h2v2a1,1,0,0,0,0,1h0a7,7,0,0,1,2,6,9,9,0,0,0,0,2c0,1,0,2,0,2a4,4,0,0,1-1,2c-1,2-3,3-5,3a7,7,0,0,1-6-2h-1a16,16,0,0,0,0-6,4,4,0,0,1,0-3c0-2,0-2,2-3l-3-2Zm-25-1h0Zm-5,9a4,4,0,0,1,2-3h12c-1,0-2,1-2,2a20,20,0,0,0,0,6,3,3,0,0,1-1,3,1,1,0,0,1,0,1,8,8,0,0,1-10,1,3,3,0,0,1-1-3h0A35,35,0,0,1,131,22ZM114,11h1l-2-2Zm-5,11h1c0-1,0-1,1-1h0V17h7l2,2,3,2h-1a26,26,0,0,1,1,7v2s0,1,0,1-8,4-11,1h-1C109,27,109,24,109,22ZM86,25a36,36,0,0,1,1-4h0c0-1-1-1-1-1H97v2c0,1,1,2,0,4a5,5,0,0,0,1,3,4,4,0,0,1-1,3H97l-6,2H87c-1,0-1-1,0-2h0C86,28,86,27,86,25ZM63,22a4,4,0,0,1,2-3H77c-1,0-2,1-2,2a20,20,0,0,0,0,6,3,3,0,0,1-1,3,1,1,0,0,1,0,1,8,8,0,0,1-10,1,3,3,0,0,1-1-3h0A35,35,0,0,1,63,22ZM41,22h1c0-1,0-1,1-1h0V17h7l2,2,3,2H52a26,26,0,0,1,1,7v2s0,1,0,1-8,4-11,1H41C41,27,41,24,41,22ZM18,25a36,36,0,0,1,1-4h0c0-1-1-1-1-1H29v2c0,1,1,2,0,4a5,5,0,0,0,1,3,4,4,0,0,1-1,3H29l-6,2H19c-1,0-1-1,0-2h0C18,28,18,27,18,25Z" style="fill: #b4ccef;fill-rule: evenodd"/>
</svg>
