<svg xmlns="http://www.w3.org/2000/svg" width="1280" height="48" viewBox="0 0 1280 48">
  <title>Paper01-01</title>
  <path d="M1272,15h8V7H0V18S0,28,0,31v8H39l-2-5a4,4,0,0,1,0-2c-1,0-1-1,0-1h3c1,1,2,1,4,1l5-2,2-2h0V22h0c-1-2,0-3,0-5l2-2c3-2,6-2,9,0l5,2h7a8,8,0,0,1,6-2,6,6,0,0,1,5,3H97l3-2c4-2,8,0,9,3h2a8,8,0,0,1,7-1h1a8,8,0,0,1,8-3c2,0,4,1,4,3h12l3-2c2,0,5,0,6,2h13c3-3,7-2,10,1h12c4-2,7-2,10,1s1,1,1,2a3,3,0,0,1,0,2,21,21,0,0,1,0,5c0,2,0,3,2,3h8c1-2,1-4,1-6a11,11,0,0,1,0-6h0a7,7,0,0,1,9-1c1,0,2,1,2,2a30,30,0,0,1,0,9v2h-4a2,2,0,0,0-2,2s0,0,0,1h0a4,4,0,0,0,0,2c1,0,1,0,1,1a4,4,0,0,0-1,3h13l-4-3a1,1,0,0,1,0-1h15s1,1,0,1a2,2,0,0,0-1,2h11l-2-3h7l2,2h11l5-4h3l6,2,5-2h8a2,2,0,0,1,1-2h7V27a48,48,0,0,1,0-9,2,2,0,0,1,1-2,8,8,0,0,1,11,1,1,1,0,0,1,0,1c1,3,0,5,0,8h-1l-4,2h-9l-4,4h-3l-4,2h57V35l3-3h-1c-1,0-1-1-1-2a2,2,0,0,0,0-2c-1-1-1-3-1-4s0-3-1-4,0-1,1-1,2-3,4-4h7a3,3,0,0,1,2,3s0,0,0,1h0c0,2,0,4,0,6a4,4,0,0,1-3,4h-3c-1,0-1,1-1,2h4c0,1,2,2,0,4h7a2,2,0,0,1-1-3h4l9,2c1,0,1,0,2,2h60c1,0,1,0,1,1h20c1,0,0,0,0,1s0,1,1,1h17l3-3h2c3-1,3-1,4-4a2,2,0,0,0-1-3,3,3,0,0,1-1-3,28,28,0,0,0,0-5c0-1,0-2,0-3a3,3,0,0,1,2-3c3-2,6-2,9,0a2,2,0,0,1,1,2c1,1,1,3,0,4a10,10,0,0,0,0,4,2,2,0,0,1,0,2h-1c-1,1,0,1,0,2s0,0,0,1l-7,2h0c-2,0-3,1-5,3h-6c0,2,0,2-1,2a1,1,0,0,0-1,2h5l4-2h11c0-1,1-2,2-3V35c1-2,1-2,2-2h7c1,0,1,0,1,1h0c0,2,1,2,2,2h40V37h1s0,1,0,1v2H750l3-3,2-2,2-3h0V25a6,6,0,0,1,1-3V15h2c2,0,5,0,6,2h13c3-3,7-2,10,1h12c4-2,7-2,10,1s1,1,1,2a3,3,0,0,1,0,2,21,21,0,0,1,0,5c0,2,0,3,2,3h8c1-2,1-4,1-6a11,11,0,0,1,0-6h0a7,7,0,0,1,9-1c1,0,2,1,2,2a30,30,0,0,1,0,9v2h-4a2,2,0,0,0-2,2s0,0,0,1h0a4,4,0,0,0,0,2c1,0,1,0,1,1a4,4,0,0,0-1,3h13l-4-3a1,1,0,0,1,0-1h15s1,1,0,1a2,2,0,0,0-1,2h11l-2-3h7l2,2h11l5-4h3l6,2,5-2h8a2,2,0,0,1,1-2h7V28a48,48,0,0,1,0-9,2,2,0,0,1,1-2,8,8,0,0,1,11,1,1,1,0,0,1,0,1c1,3,0,5,0,8h-1l-4,2h-9l-4,4h-3l-4,2h57V36l3-3h-1c-1,0-1-1-1-2a2,2,0,0,0,0-2c-1-1-1-3-1-4s0-3-1-4,0-1,1-1,2-3,4-4h7a3,3,0,0,1,2,3s0,0,0,1h0c0,2,0,4,0,6a4,4,0,0,1-3,4h-3c-1,0-1,1-1,2h4c0,1,2,2,0,4h7a2,2,0,0,1-1-3h4l9,2c1,0,1,0,2,2h60c1,0,1,0,1,1h20c1,0,0,0,0,1s0,1,1,1h17l3-3h2c3-1,3-1,4-4a2,2,0,0,0-1-3,3,3,0,0,1-1-3,28,28,0,0,0,0-5c0-1,0-2,0-3a3,3,0,0,1,2-3c3-2,6-2,9,0a2,2,0,0,1,1,2c1,1,1,3,0,4a10,10,0,0,0,0,4,2,2,0,0,1,0,2h-1c-1,1,0,1,0,2s0,0,0,1l-7,2h0c-2,0-3,1-5,3h-6c0,2,0,2-1,2a1,1,0,0,0-1,2h5l4-2h11c0-1,1-2,2-3V36c1-2,1-2,2-2h7c1,0,1,0,1,1h0c0,2,1,2,2,2h40V38h1s0,1,0,1v2h120V32h-15l-2,2h0s0-1,0-1h3c0-1,1-2,1-4l2-3V26a22,22,0,0,0-1-4,6,6,0,0,1,0-2h1a2,2,0,0,1,0-2ZM18,22h0c0,2-1,3-2,4H7V24a29,29,0,0,0-1-5,1,1,0,0,1,0-1,3,3,0,0,1,2-3c0-1,2-2,3-2s6,0,8,3S18,20,18,22Zm22,0a3,3,0,0,1-2,4H31c-2,0-2-1-2-3s0-3-1-5,0-2,0-3a3,3,0,0,1,1-2c1-2,3-2,5-2a4,4,0,0,1,4,2h1v2a13,13,0,0,1,0,5Zm203,1c0,3-1,4-4,5h-6c-1-2-2-4-2-6a6,6,0,0,0,0-3,3,3,0,0,1,0-3,3,3,0,0,1,2-3c4-2,6-2,9,1h0A25,25,0,0,1,243,24Zm23,1a5,5,0,0,1-2,4c-1,1-2,2-4,1h-4c-1-1-2-1-2-2h0a2,2,0,0,0,0-2,4,4,0,0,1-1-2V21a3,3,0,0,1,1-2h0a7,7,0,0,1,7-2c2,0,4,1,5,4h0A24,24,0,0,0,266,24Zm22,1a2,2,0,0,1-2,2h-8c-1-1-3-3-2-5a10,10,0,0,1,0-6,1,1,0,0,1,0-1c3-3,6-3,10-1s2,2,2,3A55,55,0,0,0,288,25Zm35,10-2-2a1,1,0,0,1,0-1h2l4,2Zm11-10a4,4,0,0,1-2,4l-5,3h-3s0,0,0-1a8,8,0,0,1-2-5c0-2,0-3,0-5V18h1c3-3,6-3,9-1s2,1,2,2a9,9,0,0,1,0,5A5,5,0,0,0,333,25Zm45-3a20,20,0,0,0,0,4c0,2,0,3-2,3h-2l-3,3h-6a0,0,0,0,1,0-1c2-1,2-3,2-5s0-2-1-3h0c1-1,0-3,1-5h0a2,2,0,0,1,1-2,8,8,0,0,1,10,0v2A12,12,0,0,1,379,22Zm45,10h-2c-2-1-4,0-6,1H385l-2,2h0s0-1,0-1h3c0-1,1-2,1-4l2-3V25a22,22,0,0,0-1-4,6,6,0,0,1,0-2h1a2,2,0,0,1,0-2l2-2h5c2,0,3,1,4,3s0,4,1,7a4,4,0,0,1-2,4h0a3,3,0,0,0,2,3h8c0-1,0-2,2-2s0-1,0-1V26h0a23,23,0,0,0,0-6h1a4,4,0,0,1,3-3c3-1,6-1,9,1h1a3,3,0,0,1,1,3,46,46,0,0,0,0,6,3,3,0,0,1-1,3c-1,1-1,1,0,2h1Zm24-9v4h1v2h-3c-2,1-3,3-4,5s0,1,0,2h-2c-1,0-1,0-1-1a7,7,0,0,0,0-2,7,7,0,0,1,0-3h0V27a1,1,0,0,1,1-1h0a11,11,0,0,0-1-5c0-1,0-1,0-2s2-3,3-4a8,8,0,0,1,8,1v2c0,1-1,2,0,4A1,1,0,0,1,447,23Zm22,0a12,12,0,0,0,0,2v2c0,1-1,2-2,2l-3,2h-6a1,1,0,0,1-1-1c1-2,1-3,0-5s0-5,0-8h1a3,3,0,0,1,1-3,8,8,0,0,1,8-1l2,3A14,14,0,0,1,469,23Zm37,9h-2V30a1,1,0,0,0,0-1h0a7,7,0,0,1-2-6,9,9,0,0,0,0-2c0-1,0-2,0-2a4,4,0,0,1,1-2c1-2,3-3,5-3a7,7,0,0,1,6,2h1a16,16,0,0,0,0,6,4,4,0,0,1,0,3c0,2,0,2-2,3l3,2Zm25,1h0Zm5-9a4,4,0,0,1-2,3H522c1,0,2-1,2-2a20,20,0,0,0,0-6,3,3,0,0,1,1-3,1,1,0,0,1,0-1,8,8,0,0,1,10-1,3,3,0,0,1,1,3h0A35,35,0,0,1,536,24Zm17,12h-1l2,2Zm5-11h-1c0,1,0,1-1,1h0v3h-7l-2-2-3-2h1a26,26,0,0,1-1-7V17s0-1,0-1,8-4,11-1h1C559,20,559,23,558,25Zm23-3a36,36,0,0,1-1,4h0c0,1,1,1,1,1H571V26c0-1-1-2,0-4a5,5,0,0,0-1-3,4,4,0,0,1,1-3h1l6-2h4c1,0,1,1,0,2h0C581,19,582,20,581,22Zm23,2a4,4,0,0,1-2,3H591c1,0,2-1,2-2a20,20,0,0,0,0-6,3,3,0,0,1,1-3,1,1,0,0,1,0-1,8,8,0,0,1,10-1,3,3,0,0,1,1,3h0A35,35,0,0,1,604,24Zm22,1h-1c0,1,0,1-1,1h0v3h-7l-2-2-3-2h1a26,26,0,0,1-1-7V17s0-1,0-1,8-4,11-1h1C627,20,627,23,626,25Zm23-3a36,36,0,0,1-1,4h0c0,1,1,1,1,1H639V26c0-1-1-2,0-4a5,5,0,0,0-1-3,4,4,0,0,1,1-3h1l6-2h4c1,0,1,1,0,2h0C649,19,650,20,649,22Zm41,10h-2c-2-1-4,0-6,1H653l-2,2h0s0-1,0-1h3c0-1,1-2,1-4l2-3V25a22,22,0,0,0-1-4,6,6,0,0,1,0-2h1a2,2,0,0,1,0-2l2-2h5c2,0,3,1,4,3s0,4,1,7a4,4,0,0,1-2,4h0a3,3,0,0,0,2,3h8c0-1,0-2,2-2s0-1,0-1V26h0a23,23,0,0,0,0-6h1a4,4,0,0,1,3-3c3-1,6-1,9,1h1a3,3,0,0,1,1,3,46,46,0,0,0,0,6,3,3,0,0,1-1,3c-1,1-1,1,0,2h1Zm24-9v4h1v2h-3c-2,1-3,3-4,5s0,1,0,2h-2c-1,0-1,0-1-1a7,7,0,0,0,0-2,7,7,0,0,1,0-3h0V27a1,1,0,0,1,1-1h0a11,11,0,0,0-1-5c0-1,0-1,0-2s2-3,3-4a8,8,0,0,1,8,1v2c0,1-1,2,0,4A1,1,0,0,1,714,23Zm15,8H719a1,1,0,0,1,0-1l2-2,3-2h-3c-2,0-2-1-2-2s0-3,0-5-1-3,0-4,0,0,0-1,2-3,4-3h7c1,1,2,1,1,3a25,25,0,0,1-1,8C732,28,732,28,729,31Zm24-13h0a25,25,0,0,1,0,6,4,4,0,0,1-3,3h-7c-1,0-2-1-2-3s0-1,0-2a3,3,0,0,1,0-3c0-1,0-2,1-3s1-2,3-3h5c2,1,3,1,4,3h0Zm103,7c0,3-1,4-4,5h-6c-1-2-2-4-2-6a6,6,0,0,0,0-3,3,3,0,0,1,0-3,3,3,0,0,1,2-3c4-2,6-2,9,1h0A25,25,0,0,1,856,25Zm23,1a5,5,0,0,1-2,4c-1,1-2,2-4,1h-4c-1-1-2-1-2-2h0a2,2,0,0,0,0-2,4,4,0,0,1-1-2V22a3,3,0,0,1,1-2h0a7,7,0,0,1,7-2c2,0,4,1,5,4h0A24,24,0,0,0,879,25Zm22,1a2,2,0,0,1-2,2h-8c-1-1-3-3-2-5a10,10,0,0,1,0-6,1,1,0,0,1,0-1c3-3,6-3,10-1s2,2,2,3A55,55,0,0,0,901,26Zm35,10-2-2a1,1,0,0,1,0-1h2l4,2Zm11-10a4,4,0,0,1-2,4l-5,3h-3s0,0,0-1a8,8,0,0,1-2-5c0-2,0-3,0-5V19h1c3-3,6-3,9-1s2,1,2,2a9,9,0,0,1,0,5A5,5,0,0,0,946,26Zm45-3a20,20,0,0,0,0,4c0,2,0,3-2,3h-2l-3,3h-6a0,0,0,0,1,0-1c2-1,2-3,2-5s0-2-1-3h0c1-1,0-3,1-5h0a2,2,0,0,1,1-2,8,8,0,0,1,10,0v2A12,12,0,0,1,991,23Zm45,10h-2c-2-1-4,0-6,1H998l-2,2h0s0-1,0-1h3c0-1,1-2,1-4l2-3V26a22,22,0,0,0-1-4,6,6,0,0,1,0-2h1a2,2,0,0,1,0-2l2-2h5c2,0,3,1,4,3s0,4,1,7a4,4,0,0,1-2,4h0a3,3,0,0,0,2,3h8c0-1,0-2,2-2s0-1,0-1V27h0a23,23,0,0,0,0-6h1a4,4,0,0,1,3-3c3-1,6-1,9,1h1a3,3,0,0,1,1,3,45,45,0,0,0,0,6,3,3,0,0,1-1,3c-1,1-1,1,0,2h1Zm24-9v4h1v2h-3c-2,1-3,3-4,5s0,1,0,2h-2c-1,0-1,0-1-1a7,7,0,0,0,0-2,7,7,0,0,1,0-3h0V28a1,1,0,0,1,1-1h0a11,11,0,0,0-1-5c0-1,0-1,0-2s2-3,3-4a8,8,0,0,1,8,1v2c0,1-1,2,0,4A1,1,0,0,1,1060,24Zm22,0a12,12,0,0,0,0,2v2c0,1-1,2-2,2l-3,2h-6a1,1,0,0,1-1-1c1-2,1-3,0-5s0-5,0-8h1a3,3,0,0,1,1-3,8,8,0,0,1,8-1l2,3A14,14,0,0,1,1082,24Zm37,9h-2V31a1,1,0,0,0,0-1h0a7,7,0,0,1-2-6,9,9,0,0,0,0-2c0-1,0-2,0-2a4,4,0,0,1,1-2c1-2,3-3,5-3a7,7,0,0,1,6,2h1a16,16,0,0,0,0,6,4,4,0,0,1,0,3c0,2,0,2-2,3l3,2Zm25,1h0Zm5-9a4,4,0,0,1-2,3h-12c1,0,2-1,2-2a20,20,0,0,0,0-6,3,3,0,0,1,1-3,1,1,0,0,1,0-1,8,8,0,0,1,10-1,3,3,0,0,1,1,3h0A35,35,0,0,1,1149,25Zm17,12h-1l2,2Zm5-11h-1c0,1,0,1-1,1h0v3h-7l-2-2-3-2h1a26,26,0,0,1-1-7V18s0-1,0-1,8-4,11-1h1C1171,21,1171,24,1171,26Zm23-3a36,36,0,0,1-1,4h0c0,1,1,1,1,1h-10V27c0-1-1-2,0-4a5,5,0,0,0-1-3,4,4,0,0,1,1-3h1l6-2h4c1,0,1,1,0,2h0C1194,20,1194,21,1194,23Zm23,2a4,4,0,0,1-2,3h-12c1,0,2-1,2-2a20,20,0,0,0,0-6,3,3,0,0,1,1-3,1,1,0,0,1,0-1,8,8,0,0,1,10-1,3,3,0,0,1,1,3h0A35,35,0,0,1,1217,25Zm22,1h-1c0,1,0,1-1,1h0v3h-7l-2-2-3-2h1a26,26,0,0,1-1-7V18s0-1,0-1,8-4,11-1h1C1239,21,1239,24,1239,26Zm23-3a36,36,0,0,1-1,4h0c0,1,1,1,1,1h-10V27c0-1-1-2,0-4a5,5,0,0,0-1-3,4,4,0,0,1,1-3h1l6-2h4c1,0,1,1,0,2h0C1262,20,1263,21,1262,23Z" style="fill: #383838;fill-rule: evenodd;opacity: 0.28"/>
  <path d="M301,30h0Z" style="fill: #b8dbaa;fill-rule: evenodd"/>
  <path d="M301,30s0,0,0,0h0Z" style="fill: #b8dbaa;fill-rule: evenodd"/>
  <path d="M1272,13h8V5H0V16S0,26,0,29v8H39l-2-5a4,4,0,0,1,0-2c-1,0-1-1,0-1h3c1,1,2,1,4,1l5-2,2-2h0V20h0c-1-2,0-3,0-5l2-2c3-2,6-2,9,0l5,2h7a8,8,0,0,1,6-2,6,6,0,0,1,5,3H97l3-2c4-2,8,0,9,3h2a8,8,0,0,1,7-1h1a8,8,0,0,1,8-3c2,0,4,1,4,3h12l3-2c2,0,5,0,6,2h13c3-3,7-2,10,1h12c4-2,7-2,10,1s1,1,1,2a3,3,0,0,1,0,2,21,21,0,0,1,0,5c0,2,0,3,2,3h8c1-2,1-4,1-6a11,11,0,0,1,0-6h0a7,7,0,0,1,9-1c1,0,2,1,2,2a30,30,0,0,1,0,9v2h-4a2,2,0,0,0-2,2s0,0,0,1h0a4,4,0,0,0,0,2c1,0,1,0,1,1a4,4,0,0,0-1,3h13l-4-3a1,1,0,0,1,0-1h15s1,1,0,1a2,2,0,0,0-1,2h11l-2-3h7l2,2h11l5-4h3l6,2,5-2h8a2,2,0,0,1,1-2h7V25a48,48,0,0,1,0-9,2,2,0,0,1,1-2,8,8,0,0,1,11,1,1,1,0,0,1,0,1c1,3,0,5,0,8h-1l-4,2h-9l-4,4h-3l-4,2h57V33l3-3h-1c-1,0-1-1-1-2a2,2,0,0,0,0-2c-1-1-1-3-1-4s0-3-1-4,0-1,1-1,2-3,4-4h7a3,3,0,0,1,2,3s0,0,0,1h0c0,2,0,4,0,6a4,4,0,0,1-3,4h-3c-1,0-1,1-1,2h4c0,1,2,2,0,4h7a2,2,0,0,1-1-3h4l9,2c1,0,1,0,2,2h60c1,0,1,0,1,1h20c1,0,0,0,0,1s0,1,1,1h17l3-3h2c3-1,3-1,4-4a2,2,0,0,0-1-3,3,3,0,0,1-1-3,28,28,0,0,0,0-5c0-1,0-2,0-3a3,3,0,0,1,2-3c3-2,6-2,9,0a2,2,0,0,1,1,2c1,1,1,3,0,4a10,10,0,0,0,0,4,2,2,0,0,1,0,2h-1c-1,1,0,1,0,2s0,0,0,1l-7,2h0c-2,0-3,1-5,3h-6c0,2,0,2-1,2a1,1,0,0,0-1,2h5l4-2h11c0-1,1-2,2-3V33c1-2,1-2,2-2h7c1,0,1,0,1,1h0c0,2,1,2,2,2h40V35h1s0,1,0,1v2H750l3-3,2-2,2-3h0V23a6,6,0,0,1,1-3V13h2c2,0,5,0,6,2h13c3-3,7-2,10,1h12c4-2,7-2,10,1s1,1,1,2a3,3,0,0,1,0,2,21,21,0,0,1,0,5c0,2,0,3,2,3h8c1-2,1-4,1-6a11,11,0,0,1,0-6h0a7,7,0,0,1,9-1c1,0,2,1,2,2a30,30,0,0,1,0,9v2h-4a2,2,0,0,0-2,2s0,0,0,1h0a4,4,0,0,0,0,2c1,0,1,0,1,1a4,4,0,0,0-1,3h13l-4-3a1,1,0,0,1,0-1h15s1,1,0,1a2,2,0,0,0-1,2h11l-2-3h7l2,2h11l5-4h3l6,2,5-2h8a2,2,0,0,1,1-2h7V26a48,48,0,0,1,0-9,2,2,0,0,1,1-2,8,8,0,0,1,11,1,1,1,0,0,1,0,1c1,3,0,5,0,8h-1l-4,2h-9l-4,4h-3l-4,2h57V34l3-3h-1c-1,0-1-1-1-2a2,2,0,0,0,0-2c-1-1-1-3-1-4s0-3-1-4,0-1,1-1,2-3,4-4h7a3,3,0,0,1,2,3s0,0,0,1h0c0,2,0,4,0,6a4,4,0,0,1-3,4h-3c-1,0-1,1-1,2h4c0,1,2,2,0,4h7a2,2,0,0,1-1-3h4l9,2c1,0,1,0,2,2h60c1,0,1,0,1,1h20c1,0,0,0,0,1s0,1,1,1h17l3-3h2c3-1,3-1,4-4a2,2,0,0,0-1-3,3,3,0,0,1-1-3,28,28,0,0,0,0-5c0-1,0-2,0-3a3,3,0,0,1,2-3c3-2,6-2,9,0a2,2,0,0,1,1,2c1,1,1,3,0,4a10,10,0,0,0,0,4,2,2,0,0,1,0,2h-1c-1,1,0,1,0,2s0,0,0,1l-7,2h0c-2,0-3,1-5,3h-6c0,2,0,2-1,2a1,1,0,0,0-1,2h5l4-2h11c0-1,1-2,2-3V34c1-2,1-2,2-2h7c1,0,1,0,1,1h0c0,2,1,2,2,2h40V36h1s0,1,0,1v2h120V30h-15l-2,2h0s0-1,0-1h3c0-1,1-2,1-4l2-3V24a22,22,0,0,0-1-4,6,6,0,0,1,0-2h1a2,2,0,0,1,0-2ZM18,20h0c0,2-1,3-2,4H7V22a29,29,0,0,0-1-5,1,1,0,0,1,0-1,3,3,0,0,1,2-3c0-1,2-2,3-2s6,0,8,3S18,18,18,20Zm22,0a3,3,0,0,1-2,4H31c-2,0-2-1-2-3s0-3-1-5,0-2,0-3a3,3,0,0,1,1-2c1-2,3-2,5-2a4,4,0,0,1,4,2h1v2a13,13,0,0,1,0,5Zm203,1c0,3-1,4-4,5h-6c-1-2-2-4-2-6a6,6,0,0,0,0-3,3,3,0,0,1,0-3,3,3,0,0,1,2-3c4-2,6-2,9,1h0A25,25,0,0,1,243,22Zm23,1a5,5,0,0,1-2,4c-1,1-2,2-4,1h-4c-1-1-2-1-2-2h0a2,2,0,0,0,0-2,4,4,0,0,1-1-2V19a3,3,0,0,1,1-2h0a7,7,0,0,1,7-2c2,0,4,1,5,4h0A24,24,0,0,0,266,22Zm22,1a2,2,0,0,1-2,2h-8c-1-1-3-3-2-5a10,10,0,0,1,0-6,1,1,0,0,1,0-1c3-3,6-3,10-1s2,2,2,3A55,55,0,0,0,288,23Zm35,10-2-2a1,1,0,0,1,0-1h2l4,2Zm11-10a4,4,0,0,1-2,4l-5,3h-3s0,0,0-1a8,8,0,0,1-2-5c0-2,0-3,0-5V16h1c3-3,6-3,9-1s2,1,2,2a9,9,0,0,1,0,5A5,5,0,0,0,333,23Zm45-3a20,20,0,0,0,0,4c0,2,0,3-2,3h-2l-3,3h-6a0,0,0,0,1,0-1c2-1,2-3,2-5s0-2-1-3h0c1-1,0-3,1-5h0a2,2,0,0,1,1-2,8,8,0,0,1,10,0v2A12,12,0,0,1,379,20Zm45,10h-2c-2-1-4,0-6,1H385l-2,2h0s0-1,0-1h3c0-1,1-2,1-4l2-3V23a22,22,0,0,0-1-4,6,6,0,0,1,0-2h1a2,2,0,0,1,0-2l2-2h5c2,0,3,1,4,3s0,4,1,7a4,4,0,0,1-2,4h0a3,3,0,0,0,2,3h8c0-1,0-2,2-2s0-1,0-1V24h0a23,23,0,0,0,0-6h1a4,4,0,0,1,3-3c3-1,6-1,9,1h1a3,3,0,0,1,1,3,46,46,0,0,0,0,6,3,3,0,0,1-1,3c-1,1-1,1,0,2h1Zm24-9v4h1v2h-3c-2,1-3,3-4,5s0,1,0,2h-2c-1,0-1,0-1-1a7,7,0,0,0,0-2,7,7,0,0,1,0-3h0V25a1,1,0,0,1,1-1h0a11,11,0,0,0-1-5c0-1,0-1,0-2s2-3,3-4a8,8,0,0,1,8,1v2c0,1-1,2,0,4A1,1,0,0,1,447,21Zm22,0a12,12,0,0,0,0,2v2c0,1-1,2-2,2l-3,2h-6a1,1,0,0,1-1-1c1-2,1-3,0-5s0-5,0-8h1a3,3,0,0,1,1-3,8,8,0,0,1,8-1l2,3A14,14,0,0,1,469,21Zm37,9h-2V28a1,1,0,0,0,0-1h0a7,7,0,0,1-2-6,9,9,0,0,0,0-2c0-1,0-2,0-2a4,4,0,0,1,1-2c1-2,3-3,5-3a7,7,0,0,1,6,2h1a16,16,0,0,0,0,6,4,4,0,0,1,0,3c0,2,0,2-2,3l3,2Zm25,1h0Zm5-9a4,4,0,0,1-2,3H522c1,0,2-1,2-2a20,20,0,0,0,0-6,3,3,0,0,1,1-3,1,1,0,0,1,0-1,8,8,0,0,1,10-1,3,3,0,0,1,1,3h0A35,35,0,0,1,536,22Zm17,12h-1l2,2Zm5-11h-1c0,1,0,1-1,1h0v3h-7l-2-2-3-2h1a26,26,0,0,1-1-7V15s0-1,0-1,8-4,11-1h1C559,18,559,21,558,23Zm23-3a36,36,0,0,1-1,4h0c0,1,1,1,1,1H571V24c0-1-1-2,0-4a5,5,0,0,0-1-3,4,4,0,0,1,1-3h1l6-2h4c1,0,1,1,0,2h0C581,17,582,18,581,20Zm23,2a4,4,0,0,1-2,3H591c1,0,2-1,2-2a20,20,0,0,0,0-6,3,3,0,0,1,1-3,1,1,0,0,1,0-1,8,8,0,0,1,10-1,3,3,0,0,1,1,3h0A35,35,0,0,1,604,22Zm22,1h-1c0,1,0,1-1,1h0v3h-7l-2-2-3-2h1a26,26,0,0,1-1-7V15s0-1,0-1,8-4,11-1h1C627,18,627,21,626,23Zm23-3a36,36,0,0,1-1,4h0c0,1,1,1,1,1H639V24c0-1-1-2,0-4a5,5,0,0,0-1-3,4,4,0,0,1,1-3h1l6-2h4c1,0,1,1,0,2h0C649,17,650,18,649,20Zm41,10h-2c-2-1-4,0-6,1H653l-2,2h0s0-1,0-1h3c0-1,1-2,1-4l2-3V23a22,22,0,0,0-1-4,6,6,0,0,1,0-2h1a2,2,0,0,1,0-2l2-2h5c2,0,3,1,4,3s0,4,1,7a4,4,0,0,1-2,4h0a3,3,0,0,0,2,3h8c0-1,0-2,2-2s0-1,0-1V24h0a23,23,0,0,0,0-6h1a4,4,0,0,1,3-3c3-1,6-1,9,1h1a3,3,0,0,1,1,3,46,46,0,0,0,0,6,3,3,0,0,1-1,3c-1,1-1,1,0,2h1Zm24-9v4h1v2h-3c-2,1-3,3-4,5s0,1,0,2h-2c-1,0-1,0-1-1a7,7,0,0,0,0-2,7,7,0,0,1,0-3h0V25a1,1,0,0,1,1-1h0a11,11,0,0,0-1-5c0-1,0-1,0-2s2-3,3-4a8,8,0,0,1,8,1v2c0,1-1,2,0,4A1,1,0,0,1,714,21Zm15,8H719a1,1,0,0,1,0-1l2-2,3-2h-3c-2,0-2-1-2-2s0-3,0-5-1-3,0-4,0,0,0-1,2-3,4-3h7c1,1,2,1,1,3a25,25,0,0,1-1,8C732,26,732,26,729,29Zm24-13h0a25,25,0,0,1,0,6,4,4,0,0,1-3,3h-7c-1,0-2-1-2-3s0-1,0-2a3,3,0,0,1,0-3c0-1,0-2,1-3s1-2,3-3h5c2,1,3,1,4,3h0Zm103,7c0,3-1,4-4,5h-6c-1-2-2-4-2-6a6,6,0,0,0,0-3,3,3,0,0,1,0-3,3,3,0,0,1,2-3c4-2,6-2,9,1h0A25,25,0,0,1,856,23Zm23,1a5,5,0,0,1-2,4c-1,1-2,2-4,1h-4c-1-1-2-1-2-2h0a2,2,0,0,0,0-2,4,4,0,0,1-1-2V20a3,3,0,0,1,1-2h0a7,7,0,0,1,7-2c2,0,4,1,5,4h0A24,24,0,0,0,879,23Zm22,1a2,2,0,0,1-2,2h-8c-1-1-3-3-2-5a10,10,0,0,1,0-6,1,1,0,0,1,0-1c3-3,6-3,10-1s2,2,2,3A55,55,0,0,0,901,24Zm35,10-2-2a1,1,0,0,1,0-1h2l4,2Zm11-10a4,4,0,0,1-2,4l-5,3h-3s0,0,0-1a8,8,0,0,1-2-5c0-2,0-3,0-5V17h1c3-3,6-3,9-1s2,1,2,2a9,9,0,0,1,0,5A5,5,0,0,0,946,24Zm45-3a20,20,0,0,0,0,4c0,2,0,3-2,3h-2l-3,3h-6a0,0,0,0,1,0-1c2-1,2-3,2-5s0-2-1-3h0c1-1,0-3,1-5h0a2,2,0,0,1,1-2,8,8,0,0,1,10,0v2A12,12,0,0,1,991,21Zm45,10h-2c-2-1-4,0-6,1H998l-2,2h0s0-1,0-1h3c0-1,1-2,1-4l2-3V24a22,22,0,0,0-1-4,6,6,0,0,1,0-2h1a2,2,0,0,1,0-2l2-2h5c2,0,3,1,4,3s0,4,1,7a4,4,0,0,1-2,4h0a3,3,0,0,0,2,3h8c0-1,0-2,2-2s0-1,0-1V25h0a23,23,0,0,0,0-6h1a4,4,0,0,1,3-3c3-1,6-1,9,1h1a3,3,0,0,1,1,3,45,45,0,0,0,0,6,3,3,0,0,1-1,3c-1,1-1,1,0,2h1Zm24-9v4h1v2h-3c-2,1-3,3-4,5s0,1,0,2h-2c-1,0-1,0-1-1a7,7,0,0,0,0-2,7,7,0,0,1,0-3h0V26a1,1,0,0,1,1-1h0a11,11,0,0,0-1-5c0-1,0-1,0-2s2-3,3-4a8,8,0,0,1,8,1v2c0,1-1,2,0,4A1,1,0,0,1,1060,22Zm22,0a12,12,0,0,0,0,2v2c0,1-1,2-2,2l-3,2h-6a1,1,0,0,1-1-1c1-2,1-3,0-5s0-5,0-8h1a3,3,0,0,1,1-3,8,8,0,0,1,8-1l2,3A14,14,0,0,1,1082,22Zm37,9h-2V29a1,1,0,0,0,0-1h0a7,7,0,0,1-2-6,9,9,0,0,0,0-2c0-1,0-2,0-2a4,4,0,0,1,1-2c1-2,3-3,5-3a7,7,0,0,1,6,2h1a16,16,0,0,0,0,6,4,4,0,0,1,0,3c0,2,0,2-2,3l3,2Zm25,1h0Zm5-9a4,4,0,0,1-2,3h-12c1,0,2-1,2-2a20,20,0,0,0,0-6,3,3,0,0,1,1-3,1,1,0,0,1,0-1,8,8,0,0,1,10-1,3,3,0,0,1,1,3h0A35,35,0,0,1,1149,23Zm17,12h-1l2,2Zm5-11h-1c0,1,0,1-1,1h0v3h-7l-2-2-3-2h1a26,26,0,0,1-1-7V16s0-1,0-1,8-4,11-1h1C1171,19,1171,22,1171,24Zm23-3a36,36,0,0,1-1,4h0c0,1,1,1,1,1h-10V25c0-1-1-2,0-4a5,5,0,0,0-1-3,4,4,0,0,1,1-3h1l6-2h4c1,0,1,1,0,2h0C1194,18,1194,19,1194,21Zm23,2a4,4,0,0,1-2,3h-12c1,0,2-1,2-2a20,20,0,0,0,0-6,3,3,0,0,1,1-3,1,1,0,0,1,0-1,8,8,0,0,1,10-1,3,3,0,0,1,1,3h0A35,35,0,0,1,1217,23Zm22,1h-1c0,1,0,1-1,1h0v3h-7l-2-2-3-2h1a26,26,0,0,1-1-7V16s0-1,0-1,8-4,11-1h1C1239,19,1239,22,1239,24Zm23-3a36,36,0,0,1-1,4h0c0,1,1,1,1,1h-10V25c0-1-1-2,0-4a5,5,0,0,0-1-3,4,4,0,0,1,1-3h1l6-2h4c1,0,1,1,0,2h0C1262,18,1263,19,1262,21Z" style="fill: #b8dcab;fill-rule: evenodd"/>
</svg>
