<?xml version="1.0" encoding="utf-8"?>
<!-- Generator: Adobe Illustrator 21.0.0, SVG Export Plug-In . SVG Version: 6.00 Build 0)  -->
<svg version="1.1" id="Layer_1" xmlns="http://www.w3.org/2000/svg" xmlns:xlink="http://www.w3.org/1999/xlink" x="0px" y="0px"
	 width="1280px" height="40.5px" viewBox="0 0 1280 40.5" style="enable-background:new 0 0 1280 40.5;" xml:space="preserve">
<style type="text/css">
	.st0{opacity:0.28;fill-rule:evenodd;clip-rule:evenodd;fill:#383838;}
	.st1{fill-rule:evenodd;clip-rule:evenodd;fill:#B8DBAA;}
	.st2{fill-rule:evenodd;clip-rule:evenodd;fill:#B4CCEF;}
</style>
<path class="st0" d="M7.908,30.575c-1.592,0.73-3.28,0.786-4.915,0.381c-0.948-0.224-1.887-0.52-2.659-1.063v8.557h1279.504
	l0.038-10.497c0.005,0.026-0.122-10.15-0.083-12.912c-0.008-0.609-0.019-1.201-0.029-1.792c-0.121-1.997-0.222-3.977-0.328-5.974
	c-0.993-0.648-2.097-0.419-3.181-0.4c-3.354,0.087-6.722,0.187-10.079,0.278c-1.596,0.394-3.217,0.271-4.827,0.271
	c-2.17,0.128-4.359,0.586-6.513-0.109c-4.406,0.226-8.808,0.442-13.215,0.651c0.618,1.778,1.215,3.554,1.85,5.331
	c0.278,0.783,0.311,1.538,0.155,2.339c0.799,0.373,0.699,0.934,0.153,1.376c-0.947,0.747-2.161,0.875-2.976-0.032
	c-1.183-1.324-2.284-1.004-3.736-0.612c-1.634,0.439-3.111,1.289-4.774,1.643c-0.881,0.208-1.617,1.103-2.375,1.757
	c-0.4,0.325-0.435,0.852-0.451,1.373c-0.014,0.78-0.059,1.581-0.099,2.369l0.027,1.23c0.702,1.554,0.309,3.121-0.06,4.651
	c-0.215,0.905-0.751,1.606-1.643,1.99c-3.075,2.017-6.131,2.096-9.172-0.069c-1.462-1.378-3.377-1.423-5.191-1.704
	c-1.252-0.177-2.551-0.068-3.828-0.267c-1.325-0.201-2.394,0.74-3.557,1.253c-1.765,1.767-4.01,2.177-6.359,2.106
	c-2.027-0.045-3.619-1.009-4.794-2.674c-2.441,0.051-4.844,0.36-7.326-0.049c-1.188-0.195-2.497,0.515-3.787,0.321
	c-0.959,0.537-1.755,1.289-2.789,1.724c-3.511,1.519-8.156,0.192-9.41-3.263c-0.763,0.151-1.544-0.047-2.297,0.423
	c-2.101,1.298-4.364,1.721-6.772,0.949c-0.28-0.105-0.584-0.126-0.88-0.184c-2.031,2.265-4.584,3.13-7.532,2.544
	c-1.886-0.378-3.684-1.057-4.203-3.256c-1.181-0.102-2.367,0.382-3.538-0.051c-1.262,0.333-2.542,0.314-3.819,0.316
	c-1.277,0.013-2.567-0.026-3.804,0.389c-0.256,0.515-0.597,0.974-1.215,1.098c-0.974,0.735-1.978,1.37-3.227,1.519
	c-2.416,0.311-4.578-0.091-6.181-2.149c-1.13,0.365-1.672-1.248-2.96-0.766c-0.973,0.376-2.113,0.241-3.163,0.448
	c-1.371,0.248-2.71,0.188-4.036-0.21c-1.003,0.105-1.928,0.358-2.751,1.002c-3.457,2.654-7.461,2.091-10.474-0.914
	c-0.488-0.482-1.014-0.559-1.602-0.32c-0.169,0.378-0.451,0.743-0.892,0.622c-1.553-0.464-3.143-0.32-4.721-0.29
	c0.001,0.316-0.023,0.335-0.088,0.015c-0.822-0.636-1.806-0.355-2.719-0.521c-0.67,0.441-1.316,0.88-1.98,1.331
	c-3.547,2.363-6.517,2.165-10.039-0.696c-0.995-0.574-0.665-1.488-0.598-2.322c-0.159-0.839-0.307-1.669,0.143-2.461
	c-0.114-1.654-0.284-3.323-0.009-4.975c0.281-1.685-0.206-2.96-2.011-3.445c-0.274,0.022-0.44-0.09-0.324-0.387
	c-0.109-0.234-0.226-0.487-0.323-0.721c-0.469,0.08-0.92,0.088-1.118-0.464c-1.053-0.449-2.099-0.883-3.154-1.33
	c-0.603,0.292-1.14,0.671-1.261,1.419c-0.17,0.879-0.795,1.274-1.614,1.426c-1.379,1.952-1.157,4.158-0.677,6.2
	c0.454,2.127,0.228,4.073-0.424,6.062c0.106,0.43-0.046,0.768-0.353,1.058c-2.615,2.452-6.298,2.852-9.276,0.879
	c-0.755-0.488-1.922-0.781-1.789-2.071c-0.41-2.851-0.459-5.706-0.047-8.565c0.152-0.993,0.635-1.606,1.472-2.046
	c1.336-0.682,2.691-1.179,4.221-1.253c1.435-0.084,2.401-0.835,2.422-2.424c-0.469-0.189-0.438-0.431-0.065-0.717
	c0.036-0.432,0.066-0.877,0.416-1.222c0.102-0.725,0.195-1.461-0.12-2.161c-0.673-0.103-1.092-0.464-0.74-1.135
	c0.471-0.831,1.048-1.594,0.859-2.61c-1.231,0.39-2.449,0.583-3.8,0.413c-1.574-0.201-3.18,0.008-4.789,0.011
	c-1.087,0.008-2.181-0.075-3.299-0.121c-0.443,0.172-0.928,0.351-1.555,0.568c1.507,0.62,2.612,1.558,3.593,2.644
	c0.268,0.31,0.107,0.906-0.276,0.968c-1.354,0.25-2.731,0.331-3.899,1.291c-0.449,0.369-1.142,0.216-1.715,0.001
	c-1.121-0.389-2.261-0.745-3.392-1.18c-1.293-0.486-2.568-1.019-3.991-1.212c-0.649-0.071-1.31-0.427-1.914-0.751
	c-0.473-0.268-0.721-0.805-0.266-1.239c0.572-0.539,0.709-1.15,0.586-1.885c-0.991,0.018-1.985,0.04-2.987,0.041
	c-0.149,0.609-0.657,0.64-1.136,0.652c-1.986,0.07-3.929,0.16-5.905,0.208c-0.48,0.119-0.995,0.184-1.162,0.777
	c-0.13,0.421,0.001,0.815,0.275,1.109c0.898,0.948,1.793,1.867,2.357,3.16c-0.578,0.685-1.695,0.33-2.296,1.093
	c-0.718,0.93-1.657,0.091-2.504,0.116c-0.913,0.045-1.757-0.041-2.491-0.722c-0.676-0.61-1.272-1.253-1.66-2.069
	c-0.656,0-1.331,0.12-1.965,0c-0.817-0.122-1.702-0.267-2.068-1.216c-0.153-0.249-0.348-0.476-0.472-0.74
	c-0.481-1.002-1.254-1.424-2.377-1.341c-1.46,0.116-2.93,0.159-4.401,0.211c-1.493,1.257-2.991,2.522-4.5,3.785
	c-1.179,0.957-2.008,0.877-3.362-0.075c-1.695-1.187-3.672-1.819-5.669-2.286c-1.679,0.826-3.661,0.896-5.16,2.224
	c-0.592,0.515-1.313-0.264-2.001-0.189c-0.972,0.484-1.946,0.974-2.899,1.483c-0.39,0.2-0.768,0.156-1.094-0.116l-0.158,0.014
	l-0.159,0.014c-0.606,0.078-1.231,0.185-1.852,0.289c0.112,0.94-0.106,1.737-1.012,2.19c-1.016,0.515-1.897,1.344-3.14,1.347
	c-1.16,0.083-2.299-0.27-3.453-0.193c0.005,0.037,0.012,0.08,0.019,0.122c0.096,0.077,0.166,0.17,0.166,0.305
	c0,0-0.003,0.012,0.002,0.021c-0.036,0.002-0.075,0.003-0.111,0.005c0.144,0.791,0.412,1.935,0.679,2.515
	c0.236,2.815,0.541,5.853,0.251,8.695c0.15,0.873-0.269,1.602-0.906,2.157c-2.978,2.548-7.805,2.294-10.503-0.617
	c-0.384-0.412-0.395-0.849-0.267-1.368c-0.74-2.721-0.26-5.398,0.108-8.112c0.074-0.496,0.45-0.844,0.902-1.095
	c0.841-1.242,2.142-1.819,3.577-1.893c2.014-0.122,4.372-0.195,6.16-0.281c-0.022-0.12-0.04-0.23-0.056-0.33
	c-0.473-0.378-1.931-0.143-2.707-0.082c-0.877,0.029-1.834,0.279-2.641-0.263c-0.151-0.099-0.282-0.307-0.278-0.484
	c-0.01-0.121,0.145-0.36,0.277-0.384c1.652-0.339,3.319-0.387,4.995-0.345c1.094,0.029,2.174,0.15,3.227-0.15
	c1.344-1.164,2.692-2.298,3.559-3.889c0.229-0.382,0.667-0.368,1.041-0.124c0.404,0.167,0.813,0.151,1.217-0.07
	c0.129-0.512,0.383-0.937,0.97-0.965c1.683-0.054,3.008-0.895,4.259-1.907c-0.395-0.048-0.788-0.146-1.195-0.141
	c-9.974-0.152-19.967-0.301-29.946-0.403c-6.894-0.075-13.788-0.078-20.685-0.109c-0.27,0.094-0.461,0.015-0.597-0.253
	c-2.395-0.444-4.755,0.173-7.138,0.224c0.133,0.496,0.352,0.941,0.935,0.958c0.966,0.049,1.976-0.076,2.782,0.703
	c-0.13,0.714-1.031,0.426-1.264,0.961c-0.215,0.536-0.425,1.096-0.626,1.628c-0.636,1.464-2.053,1.999-3.238,2.818
	c0.295,0.22,0.597,0.476,0.938,0.678c0.636,0.41,1.06,0.885,0.691,1.683c-0.314,0.686-0.377,1.392,0.112,1.951
	c1.072,1.229,1.039,2.709,1.1,4.174c0.071,1.469-0.068,2.947,0.956,4.228c0.35,0.434-0.052,0.899-0.576,1.091
	c-0.25,2.155-1.923,2.999-3.607,3.561c-2.248,0.754-4.505,0.569-6.687-0.543c-1.283-0.672-1.879-1.59-1.825-3.054
	c-0.48-0.202,0.157-0.416,0.151-0.65l0.004-0.017c-0.007-2.078-0.468-4.126-0.062-6.226c0.386-2.025,1.32-3.12,3.267-3.65
	c1.171-0.305,2.298-0.497,3.473-0.7c1.067-0.192,1.205-0.593,0.662-1.579c-0.19-0.339-0.355-0.703-0.521-1.057
	c-0.034-0.533-0.28-0.954-0.692-1.247c-0.39-0.277-0.792-0.581-1.254-0.732c-0.593-0.203-1.221-0.474-1.086-1.135
	c0.255-1.276-1.652-2.492-0.116-3.772c-0.732-0.45-1.533-0.228-2.301-0.233c-1.478,0.009-2.963-0.006-4.452-0.011
	c-0.389,0.061-0.789,0.121-1.18,0.189c0.295,0.221,0.611,0.462,0.936,0.708c0.841,0.717,1.143,1.635,0.765,2.632
	c-0.088,0.232-0.335,0.533-0.588,0.584c-1.159,0.252-2.361,0.533-3.475-0.133c-2.669-1.592-5.641-1.879-8.597-2.271
	c-1.156-0.156-1.17-0.095-1.643-1.603c-1.886,0.02-3.76,0.089-5.633,0.042c-1.217-0.015-2.392,0.02-3.529,0.438
	c-0.094,0.266-0.132,0.702-0.307,0.772c-0.591,0.201-0.519-0.409-0.702-0.698c-5.482-0.122-10.965-0.276-16.458-0.346
	c-8.178-0.073-16.362-0.064-24.528-0.146c-3.01-0.041-5.985-0.213-8.987-0.318c-0.817,0.186-0.732-0.409-0.764-0.909
	c-0.482,0.053-0.994,0.005-1.445,0.162c-2.677,0.888-5.432,0.931-8.197,0.832c-2.383,0.403-4.778,0.195-7.162,0.181
	c-1.152,0.001-2.158,0.163-2.825,1.229c-0.078,0.106-0.412,0.17-0.554,0.126c-0.548-0.235-0.027-0.46,0.054-0.667
	C827,6.314,826.86,6.07,825.642,6.1c-3.799,0.17-7.581,0.327-11.385,0.529c-1.567,0.077-3.195-0.195-4.738,0.299
	c-0.032,0.195-0.102,0.358-0.202,0.519c0.023,0.29-0.12,0.419-0.408,0.404c-0.052,0.078-0.129,0.125-0.245,0.141
	c-0.638,1.362-1.881,1.978-3.15,2.546c-0.542,0.254-1.143,0.432-1.7,0.614c-3.198,1.038-3.167,1.031-4.081,4.053
	c-0.338,1.044-0.294,2.009,0.584,2.722c0.893,0.748,0.901,1.546,0.802,2.655c-0.152,1.562,0.111,3.171,0.233,4.764
	c0.071,0.991,0.349,1.981-0.241,2.918c-0.046,1.443-0.796,2.417-1.992,3.079c-2.961,1.563-6.186,1.637-8.935-0.492
	c-0.777-0.612-1.171-1.326-0.768-2.328c-0.976-1.339-0.683-2.836-0.43-4.281c0.218-1.472,0.329-2.972-0.132-4.402
	c-0.306-0.87-0.184-1.528,0.411-2.186c0.323-0.355,0.618-0.776,0.951-1.137c0.588-0.689,0.355-1.247-0.219-1.802
	c-0.099-0.08-0.061-0.348-0.057-0.679c2.405-0.06,4.65-0.787,6.73-2.004c0.072-0.052,0.168-0.113,0.283-0.11
	c2.104-0.009,3.455-1.232,4.607-2.818c0.783-1.052,1.866-1.428,3.132-1.445c0.126-0.078,0.268-0.125,0.418-0.143
	c0.295-0.887,1.08-1.094,1.868-1.288c0.005-0.188,0.111-0.34,0.226-0.483c-0.048-1.783,0.009-1.881,1.447-2.302
	c0.515-0.431,0.766-0.942,0.559-1.612c-0.433,0.062-0.857,0.124-1.294,0.193c-1.012,0.847-2.251,0.737-3.431,0.772
	c-0.256,0.024-0.475,0.049-0.718,0.094c-1.392,0.577-2.843,1.031-4.109,1.897l-0.046,0.075c-0.922,1.032-2.152,0.722-3.212,0.539
	c-1.065-0.172-2.121-0.283-3.184-0.227c-1.433,0.286-2.896,0.378-4.262,0.979c-0.168,1.342-1.131,2.286-1.774,3.388
	c-0.287,0.505-0.682,0.966-0.903,1.504c-0.706,1.801-0.675,1.772-2.397,1.847c-1.172,0.053-2.225-0.191-3.096-0.91
	c-1.036-0.874-2.127-1.325-3.535-1.238c-1.065,0.081-1.212-0.229-1.149-1.492c0.021-0.092,0.076-0.212,0.072-0.297
	c0.05-1.556-0.525-2.231-2.069-2.201c-2.377,0.083-4.776,0.227-7.16,0.349c-0.703,0.035-1.401,0.14-1.999-0.386
	c-2.58-0.07-5.168-0.193-7.762-0.198c-5.473-0.028-10.942,0.005-16.427,0.022c-2.171,0.254-4.34,0.27-6.534,0.116
	c-0.315,0.738-0.768,1.373-1.465,1.755c-0.218,0.124-0.59,0.16-0.816,0.061c-0.356-0.18-0.199-0.549,0.058-0.683
	c0.878-0.578,1.22-1.452,1.448-2.407c-1.503,0.352-3.015,0.594-4.593,0.529c-6.243,0.977-12.537,0.599-18.83,0.59
	c-1.765-0.003-3.544,0.137-5.3-0.51c-0.846-0.325-1.992-0.02-2.951,0.211c-1.378,0.348-2.762,0.317-4.152,0.308
	c-5.205-0.03-136.92-0.009-142.117,0.034c-8.343,0.055-16.691,0.119-25.03,0.194c-0.017,0.03-0.03,0.06-0.048,0.09
	c-0.741,1.245-1.601,2.034-2.65,2.778c-0.675,0.837-1.374,1.516-2.184,2.169c-0.372,0.876-0.994,2.228-1.569,3.076
	c-0.001,0.021-0.001,0.034-0.003,0.055l0.07,1.125c0.093,1.503,0.241,2.993,0.278,4.5c0.028,1.134-0.21,2.097-0.629,2.9
	l-0.026,7.219c-0.684,0.423-1.409,0.753-2.25,0.853c-2.416,0.311-4.578-0.091-6.181-2.149c-1.13,0.365-1.672-1.248-2.96-0.766
	c-0.973,0.376-2.113,0.241-3.163,0.448c-1.371,0.248-2.71,0.188-4.036-0.21c-1.003,0.105-1.928,0.358-2.751,1.002
	c-3.457,2.654-7.461,2.091-10.474-0.914c-0.488-0.482-1.014-0.559-1.602-0.32c-0.169,0.378-0.451,0.743-0.892,0.622
	c-1.553-0.464-3.143-0.32-4.721-0.29c0.001,0.316-0.023,0.335-0.088,0.015c-0.822-0.636-1.806-0.355-2.719-0.521
	c-0.669,0.441-1.316,0.88-1.98,1.331c-3.547,2.363-6.517,2.165-10.039-0.696c-0.995-0.574-0.666-1.488-0.598-2.322
	c-0.159-0.839-0.307-1.669,0.143-2.461c-0.114-1.654-0.284-3.323-0.009-4.975c0.281-1.685-0.206-2.96-2.011-3.445
	c-0.274,0.022-0.44-0.09-0.324-0.387c-0.11-0.234-0.227-0.487-0.323-0.721c-0.469,0.08-0.92,0.088-1.118-0.464
	c-1.053-0.449-2.099-0.883-3.154-1.33c-0.603,0.292-1.14,0.671-1.261,1.419c-0.169,0.879-0.794,1.274-1.614,1.426
	c-1.379,1.952-1.157,4.158-0.677,6.2c0.454,2.127,0.228,4.073-0.424,6.062c0.106,0.43-0.046,0.768-0.353,1.058
	c-2.615,2.452-6.298,2.852-9.276,0.879c-0.755-0.488-1.922-0.781-1.789-2.071c-0.409-2.851-0.459-5.706-0.047-8.565
	c0.153-0.993,0.636-1.606,1.472-2.046c1.336-0.682,2.691-1.179,4.221-1.253c1.434-0.084,2.401-0.835,2.422-2.424
	c-0.469-0.189-0.439-0.431-0.065-0.717c0.036-0.432,0.066-0.877,0.416-1.222c0.102-0.725,0.195-1.461-0.12-2.161
	c-0.673-0.103-1.092-0.464-0.74-1.135c0.471-0.831,1.048-1.594,0.859-2.61c-1.231,0.39-2.449,0.583-3.8,0.413
	c-1.574-0.201-3.18,0.008-4.789,0.011c-1.087,0.008-2.181-0.075-3.299-0.121c-0.443,0.172-0.929,0.351-1.555,0.568
	c1.507,0.62,2.612,1.558,3.593,2.644c0.268,0.31,0.107,0.906-0.276,0.968c-1.354,0.25-2.731,0.331-3.899,1.291
	c-0.45,0.369-1.142,0.216-1.715,0.001c-1.121-0.389-2.261-0.745-3.391-1.18c-1.293-0.486-2.568-1.019-3.991-1.212
	c-0.649-0.071-1.31-0.427-1.914-0.751c-0.473-0.268-0.721-0.805-0.266-1.239c0.572-0.539,0.709-1.15,0.586-1.885
	c-0.991,0.018-1.985,0.04-2.987,0.041c-0.149,0.609-0.658,0.64-1.136,0.652c-1.986,0.07-3.929,0.16-5.905,0.208
	c-0.48,0.119-0.995,0.184-1.162,0.777c-0.13,0.421,0.001,0.815,0.275,1.109c0.898,0.948,1.793,1.867,2.357,3.16
	c-0.578,0.685-1.695,0.33-2.296,1.093c-0.718,0.93-1.657,0.091-2.504,0.116c-0.913,0.045-1.757-0.041-2.491-0.722
	c-0.676-0.61-1.272-1.253-1.66-2.069c-0.656,0-1.331,0.12-1.965,0c-0.817-0.122-1.702-0.267-2.068-1.216
	c-0.153-0.249-0.348-0.476-0.472-0.74c-0.481-1.002-1.254-1.424-2.377-1.341c-1.46,0.116-2.93,0.159-4.401,0.211
	c-1.493,1.257-2.991,2.522-4.5,3.785c-1.179,0.957-2.008,0.877-3.362-0.075c-1.695-1.187-3.672-1.819-5.67-2.286
	c-1.679,0.826-3.661,0.896-5.16,2.224c-0.592,0.515-1.313-0.264-2.001-0.189c-0.972,0.484-1.946,0.974-2.899,1.483
	c-0.39,0.2-0.768,0.156-1.094-0.116l-0.158,0.014l-0.159,0.014c-0.606,0.078-1.231,0.185-1.852,0.289
	c0.112,0.94-0.106,1.737-1.012,2.19c-1.016,0.515-1.897,1.344-3.14,1.347c-1.16,0.083-2.299-0.27-3.453-0.193
	c0.005,0.037,0.012,0.08,0.019,0.122c0.096,0.077,0.166,0.17,0.165,0.305c0,0-0.003,0.012,0.002,0.021
	c-0.036,0.002-0.075,0.003-0.111,0.005c0.144,0.791,0.412,1.935,0.679,2.515c0.236,2.815,0.541,5.853,0.251,8.695
	c0.15,0.873-0.269,1.602-0.906,2.157c-2.979,2.548-7.805,2.294-10.503-0.617c-0.384-0.412-0.395-0.849-0.267-1.368
	c-0.74-2.721-0.26-5.398,0.108-8.112c0.074-0.496,0.45-0.844,0.902-1.095c0.841-1.242,2.142-1.819,3.577-1.893
	c2.014-0.122,4.372-0.195,6.16-0.281c-0.022-0.12-0.04-0.23-0.056-0.33c-0.473-0.378-1.931-0.143-2.707-0.082
	c-0.876,0.029-1.834,0.279-2.641-0.263c-0.151-0.099-0.283-0.307-0.278-0.484c-0.01-0.121,0.145-0.36,0.277-0.384
	c1.652-0.339,3.319-0.387,4.995-0.345c1.094,0.029,2.174,0.15,3.227-0.15c1.344-1.164,2.692-2.298,3.559-3.889
	c0.229-0.382,0.667-0.368,1.041-0.124c0.404,0.167,0.813,0.151,1.217-0.07c0.129-0.512,0.383-0.937,0.97-0.965
	c1.683-0.054,3.008-0.895,4.259-1.907c-0.395-0.048-0.788-0.146-1.195-0.141c-9.974-0.152-19.967-0.301-29.946-0.403
	c-6.894-0.075-13.788-0.078-20.685-0.109c-0.27,0.094-0.461,0.015-0.597-0.253c-2.395-0.444-4.755,0.173-7.138,0.224
	c0.133,0.496,0.352,0.941,0.935,0.958c0.966,0.049,1.976-0.076,2.782,0.703c-0.13,0.714-1.031,0.426-1.264,0.961
	c-0.215,0.536-0.425,1.096-0.626,1.628c-0.637,1.464-2.053,1.999-3.238,2.818c0.296,0.22,0.597,0.476,0.938,0.678
	c0.636,0.41,1.06,0.885,0.691,1.683c-0.314,0.686-0.377,1.392,0.112,1.951c1.072,1.229,1.039,2.709,1.1,4.174
	c0.071,1.469-0.068,2.947,0.956,4.228c0.35,0.434-0.052,0.899-0.576,1.091c-0.25,2.155-1.923,2.999-3.607,3.561
	c-2.248,0.754-4.505,0.569-6.687-0.543c-1.283-0.672-1.879-1.59-1.825-3.054c-0.48-0.202,0.157-0.416,0.151-0.65l0.004-0.017
	c-0.007-2.078-0.468-4.126-0.062-6.226c0.385-2.025,1.32-3.12,3.267-3.65c1.171-0.305,2.298-0.497,3.473-0.7
	c1.067-0.192,1.206-0.593,0.662-1.579c-0.19-0.339-0.355-0.703-0.52-1.057c-0.034-0.533-0.28-0.954-0.692-1.247
	c-0.389-0.277-0.792-0.581-1.254-0.732c-0.593-0.203-1.221-0.474-1.086-1.135c0.255-1.276-1.652-2.492-0.116-3.772
	c-0.732-0.45-1.533-0.228-2.301-0.233c-1.478,0.009-2.962-0.006-4.452-0.011c-0.389,0.061-0.789,0.121-1.18,0.189
	c0.295,0.221,0.611,0.462,0.936,0.708c0.841,0.717,1.143,1.635,0.765,2.632c-0.088,0.232-0.336,0.533-0.588,0.584
	c-1.159,0.252-2.361,0.533-3.475-0.133c-2.669-1.592-5.641-1.879-8.597-2.271c-1.156-0.156-1.17-0.095-1.643-1.603
	c-1.886,0.02-3.76,0.089-5.633,0.042c-1.217-0.015-2.392,0.02-3.529,0.438c-0.094,0.266-0.132,0.702-0.307,0.772
	c-0.591,0.201-0.519-0.409-0.702-0.698c-5.482-0.122-10.964-0.276-16.458-0.346c-8.178-0.073-16.362-0.064-24.528-0.146
	c-3.01-0.041-5.985-0.213-8.987-0.318c-0.817,0.186-0.732-0.409-0.764-0.909c-0.482,0.053-0.995,0.005-1.445,0.162
	c-2.677,0.888-5.432,0.931-8.197,0.832c-2.383,0.403-4.778,0.195-7.162,0.181c-1.152,0.001-2.158,0.163-2.825,1.229
	c-0.078,0.106-0.412,0.17-0.554,0.126c-0.549-0.235-0.027-0.46,0.054-0.667c0.426-1.165,0.286-1.409-0.932-1.378
	c-3.799,0.17-7.581,0.327-11.385,0.529c-1.567,0.077-3.195-0.195-4.738,0.299c-0.032,0.195-0.103,0.358-0.202,0.519
	c0.022,0.29-0.12,0.419-0.408,0.404c-0.052,0.078-0.129,0.125-0.245,0.141c-0.638,1.362-1.881,1.978-3.15,2.546
	c-0.542,0.254-1.143,0.432-1.7,0.614c-3.198,1.038-3.167,1.031-4.081,4.053c-0.338,1.044-0.294,2.009,0.584,2.722
	c0.893,0.748,0.901,1.546,0.802,2.655c-0.152,1.562,0.111,3.171,0.233,4.764c0.071,0.991,0.349,1.981-0.24,2.918
	c-0.046,1.443-0.796,2.417-1.992,3.079c-2.961,1.563-6.186,1.637-8.935-0.492c-0.777-0.612-1.171-1.326-0.768-2.328
	c-0.976-1.339-0.683-2.836-0.43-4.281c0.218-1.472,0.329-2.972-0.132-4.402c-0.306-0.87-0.184-1.528,0.411-2.186
	c0.323-0.355,0.618-0.776,0.951-1.137c0.588-0.689,0.355-1.247-0.219-1.802c-0.099-0.08-0.061-0.348-0.057-0.679
	c2.405-0.06,4.65-0.787,6.73-2.004c0.072-0.052,0.168-0.113,0.283-0.11c2.104-0.009,3.455-1.232,4.607-2.818
	c0.783-1.052,1.866-1.428,3.132-1.445c0.126-0.078,0.268-0.125,0.418-0.143c0.295-0.887,1.08-1.094,1.868-1.288
	c0.005-0.188,0.111-0.34,0.226-0.483c-0.048-1.783,0.009-1.881,1.447-2.302c0.515-0.431,0.766-0.942,0.559-1.612
	c-0.433,0.062-0.857,0.124-1.294,0.193c-1.012,0.847-2.25,0.737-3.431,0.772c-0.256,0.024-0.475,0.049-0.718,0.094
	c-1.392,0.577-2.843,1.031-4.109,1.897l-0.046,0.075c-0.921,1.032-2.151,0.722-3.212,0.539c-1.065-0.172-2.121-0.283-3.184-0.227
	c-1.433,0.286-2.896,0.378-4.262,0.979c-0.168,1.342-1.131,2.286-1.774,3.388c-0.287,0.505-0.682,0.966-0.903,1.504
	c-0.707,1.801-0.675,1.772-2.397,1.847c-1.172,0.053-2.225-0.191-3.096-0.91c-1.036-0.874-2.128-1.325-3.535-1.238
	c-1.065,0.081-1.211-0.229-1.149-1.492c0.021-0.092,0.076-0.212,0.072-0.297c0.05-1.556-0.525-2.231-2.069-2.201
	c-2.377,0.083-4.776,0.227-7.16,0.349c-0.703,0.035-1.401,0.14-1.999-0.386c-2.58-0.07-5.168-0.193-7.762-0.198
	c-5.473-0.028-10.942,0.005-16.427,0.022c-2.171,0.254-4.34,0.27-6.534,0.116c-0.314,0.738-0.767,1.373-1.465,1.755
	c-0.218,0.124-0.59,0.16-0.816,0.061c-0.356-0.18-0.199-0.549,0.057-0.683c0.878-0.578,1.22-1.452,1.448-2.407
	c-1.504,0.352-3.015,0.594-4.593,0.529c-6.243,0.977-12.537,0.599-18.83,0.59c-1.765-0.003-3.544,0.137-5.3-0.51
	c-0.845-0.325-1.992-0.02-2.951,0.211c-1.378,0.348-2.762,0.317-4.152,0.308C81.946,5.495,38.461,5.495,0.333,5.505v7.842
	c0.75,0.484,1.587,0.599,2.501,0.52c1.485-0.103,3.794-0.209,5.248-0.718c1.588-0.551,3.926-0.942,5.756-1.345
	c0.005-0.146,0.009-0.292-0.007-0.445c0,0,0,0,0.01,0.002c0.016-0.017,0.016-0.017,0.02-0.03c0.367-0.103,0.68-0.289,0.973-0.505
	c0.27-0.931,0.637-1.609,1.588-2.043c0.248-0.111,0.254-0.222,0.362-0.096c0.361,0.387,0.012,0.75-0.308,0.906
	c-0.611,0.307-1.09,0.826-1.642,1.232c-0.047,0.16-0.091,0.326-0.134,0.501l0.807,0.014c-0.005,0.02-0.005,0.02,0,0.033
	c-0.459,0.149-1.034,0.29-1.667,0.429c-0.048,1.354-0.957,2.418-1.487,3.552c-0.477,0.995-1.47,1.736-2.254,2.585
	c0.202,0.561,0.463,1.115,0.515,1.697c0.147,1.387,0.238,2.771,0.647,4.128c0.186,0.638,0.149,1.374,0.101,2.071
	c-0.023,0.53-0.361,0.918-0.932,0.999c0.328,0.562,0.214,1.113-0.092,1.658C9.77,29.498,8.904,30.113,7.908,30.575z M1261.83,23.406
	c-0.017-0.391,0.297-0.809,0.227-1.169c-0.358-1.888,1.215-2.823,1.977-4.169c0.22-0.394,0.736-0.377,1.096-0.22
	c0.788,0.323,1.49,0.17,2.305-0.004c1.793-0.361,3.527,0.224,5.201,0.862c0.322,0.107,0.607,0.517,0.757,0.85
	c0.28,0.641,0.56,1.315,0.634,1.999c0.21,1.669,0.284,3.366,0.79,5.005c0.145,0.467,0.088,1.004-0.354,1.367
	c0.235,1.457-0.286,2.495-1.636,3.11c-0.432,1.392-1.879,1.581-2.859,1.755c-3.094,0.523-5.952-0.066-7.845-2.944
	C1261.017,27.748,1261.913,25.542,1261.83,23.406z M1239.902,23.037c-0.228-1.621,0.152-2.951,1.69-3.783
	c1.204-0.67,2.269-1.464,3.871-1.016c1.203,0.321,2.563,0.071,3.841,0.112c1.935,0.073,2.393,0.563,2.492,2.524
	c0.086,1.583-0.06,3.145,0.715,4.658c0.455,0.903-0.256,1.921-0.4,2.891c0.043,1.005-0.233,1.866-1.106,2.44
	c-1.283,2.065-3.401,2.058-5.445,2.143c-1.563,0.063-3.066-0.201-4.06-1.631c-0.194-0.018-0.388-0.026-0.577-0.068
	c-0.748-0.226-1.104-0.759-1.208-1.515c-0.212-1.692-0.079-3.326,0.36-4.978C1240.017,24.223,1239.989,23.627,1239.902,23.037z
	 M1037.19,22.301c0.031-2.805,1.092-3.932,3.929-4.791c0.583-0.18,1.125-0.399,1.694-0.553c0.398-0.125,0.774-0.208,0.987-0.583
	c0.251-0.419,0.27-0.979,0.856-1.14c0.824-0.193,1.552,0.23,2.281,0.488c0.257,0.083,0.538,0.364,0.599,0.598
	c0.554,1.979,1.909,3.713,1.684,5.939c-0.091,0.851,0.081,1.807,0.391,2.613c0.42,1.1,0.15,1.938-0.438,2.782
	c0.133,1.47-0.501,2.404-1.781,3.1c-3.65,1.998-6.435,1.729-9.361-0.596c-0.23-0.172-0.306-0.498-0.449-0.766
	C1036.946,27.071,1037.142,24.651,1037.19,22.301z M1014.292,21.651c-0.256-1.707,0.614-2.993,1.649-3.993
	c1.004-0.979,2.267-1.97,4.022-1.296c0.787,0.295,1.563-0.044,1.876-1.014c0.124-0.359,0.414-0.674,0.663-0.988
	c0.439-0.528,0.821-1.091,1.719-0.713c1.175,0.506,1.56,0.914,1.535,1.93c-0.016,0.312-0.008,0.623-0.14,0.867
	c-0.439,0.818-0.342,1.567,0.26,2.219c0.655,0.708,0.781,1.57,0.824,2.472c0.099,1.296,0.233,2.611,0.482,3.856
	c0.193,0.886-0.112,1.557-0.527,2.239l-0.088,0.051c-0.037,0.467-0.089,0.957-0.114,1.438c-0.028,0.184,0.012,0.44-0.103,0.578
	c-1.927,2.122-4.319,3.077-7.168,2.496c-2.177-0.45-4.216-1.214-5.009-3.63c-0.05-0.18-0.033-0.39-0.068-0.57
	C1014.295,25.607,1014.594,23.608,1014.292,21.651z M991.979,20.647c-0.029-1.326,0.667-2.181,2.087-2.497
	c1.042-0.231,2.046-0.78,3.174-0.762c0.731,0.014,1.306-0.275,1.93-0.659c1.014-0.633,1.932-0.49,2.609,0.391
	c1.111,1.479,2.579,2.836,2.15,4.988c0.721,2.046,0.322,4.057-0.204,6.057c0.16,0.502,0.2,1.056-0.184,1.393
	c-3.036,2.815-6.383,3.08-9.634,1.216c-1.208-0.685-2.334-1.615-2.187-3.284C991.945,25.202,992.035,22.931,991.979,20.647z
	 M957.408,10.611c0.83,0.499,1.589,1.149,2.367,1.737c0.095,0.094,0.105,0.411,0.023,0.524c-0.074,0.128-0.34,0.246-0.486,0.197
	c-0.462-0.141-0.947-0.287-1.352-0.557c-1.314-0.781-2.586-1.649-4.206-2.281C955.255,9.635,956.377,9.993,957.408,10.611z
	 M946.742,20.928c-0.215-1.703,0.646-2.895,1.913-3.764c1.726-1.137,3.677-1.958,5.298-3.286c0.401-0.333,0.968-0.283,1.434-0.158
	c0.666,0.198,1.321,0.451,1.968,0.71c0.329,0.156,0.841,0.173,0.833,0.695c-0.016,0.632-0.75,0.542-1.014,0.909
	c-0.015,0.187-0.094,0.431,0,0.537c1.25,1.529,1.754,3.27,1.714,5.236c-0.043,1.573,0.084,3.178,0.129,4.753
	c0.008,0.607-0.059,1.199-0.4,1.718c-0.037,0.241-0.042,0.483-0.06,0.724c0.032,0.364-0.151,0.538-0.474,0.574
	c-2.919,2.59-6.091,2.771-9.441,0.99c-0.884-0.472-1.726-1.063-1.596-2.307c-0.509-1.721-0.864-3.429-0.32-5.26
	C946.925,22.355,946.84,21.61,946.742,20.928z M901.626,24.114c0.208-1.132,0.014-2.39,0.01-3.569c-0.006-2,0.367-2.583,2.275-3.359
	c0.737-0.319,1.493-0.583,2.241-0.844c1.277-0.49,2.029-1.572,2.928-2.521c0.341-0.343,0.732-0.935,1.201-0.784
	c1.546,0.512,3.186-0.004,4.751,0.43c0.181,0.038,0.35,0.138,0.539,0.227c0.346,0.208,0.287,0.609,0.053,0.725
	c-2.128,0.93-2.383,2.668-2.094,4.659c0.138,1.163-0.122,2.437,0.927,3.338c0.125,0.111,0.192,0.447,0.111,0.547
	c-1.096,1.414-0.322,3.122-0.82,4.635c-0.037,0.182-0.196,0.337-0.303,0.518c0.178,0.88-0.28,1.543-0.908,2.069
	c-2.822,2.316-7.584,2.125-10.2-0.381c-0.421-0.401-0.794-0.869-0.782-1.542C901.354,26.873,901.324,25.533,901.626,24.114z
	 M856.854,13.916c0.157,0.034,0.317,0.066,0.489,0.1c0.016,0.029,0.018-0.597,0.043-0.596c0,0,0.017,0.004,0.028,0.002
	c0.149,0.003,0.265,0.754,0.415,1.25c0.355,0.001,0.702,0.006,1.029,0.104c2.155,0.694,4.126-0.019,5.999-0.91
	c0.734-0.355,1.43-0.622,2.226-0.673c0.797-0.046,1.595-0.096,2.32-0.469c0.64-0.346,1.333-0.394,2.03-0.21
	c0.373,0.089,0.877,0.267,1.154,0.11c1.582-0.838,3.117,0.098,4.701,0.071c0.997-0.04,1.928,0.488,2.655,1.185
	c0.877,0.839,1.896,1.03,3.03,0.931c1.485-0.103,3.794-0.209,5.248-0.718c1.588-0.551,3.926-0.942,5.756-1.345
	c0.005-0.146,0.009-0.292-0.007-0.445c0,0,0,0,0.01,0.002c0.016-0.017,0.016-0.017,0.02-0.03c0.367-0.103,0.68-0.289,0.973-0.505
	c0.27-0.931,0.637-1.609,1.588-2.043c0.248-0.111,0.254-0.222,0.362-0.096c0.361,0.387,0.012,0.75-0.308,0.906
	c-0.611,0.307-1.09,0.826-1.642,1.232c-0.046,0.16-0.091,0.326-0.134,0.501l0.807,0.014c-0.005,0.02-0.005,0.02,0,0.033
	c-0.459,0.149-1.034,0.29-1.667,0.429c-0.048,1.354-0.957,2.418-1.487,3.552c-0.477,0.995-1.47,1.736-2.254,2.585
	c0.202,0.561,0.463,1.115,0.515,1.697c0.148,1.387,0.238,2.771,0.648,4.128c0.185,0.638,0.149,1.374,0.101,2.071
	c-0.023,0.53-0.361,0.918-0.932,0.999c0.328,0.562,0.214,1.113-0.092,1.658c-0.567,1.004-1.432,1.619-2.429,2.081
	c-1.592,0.73-3.28,0.786-4.915,0.381c-1.63-0.386-3.251-0.957-3.999-2.699c-0.261-2.253-0.071-4.489-0.609-6.75
	c-0.344-1.516,0.337-3.106,1.866-4.059c-0.077-0.284-0.19-0.565-0.2-0.864c-0.082-1.525-0.911-2.645-2.337-2.768
	c-0.986-0.054-1.963-0.237-2.856-0.671c-1.423-0.676-2.964,0.006-4.421-0.404c-0.45-0.105-0.651,0.334-0.851,0.672
	c-0.489,0.78-0.344,1.996-1.61,2.332c-0.338,0.091-0.341,0.619-0.19,1.045c0.248,0.745,0.471,1.51,0.705,2.275
	c0.131,0.377,0.343,0.755,0.328,1.12c-0.094,1.886,0.023,3.73,0.38,5.577c0.088,0.381-0.356,0.876-0.548,1.329
	c-0.191,1.664-1.231,2.639-2.684,3.281c-3.07,1.368-5.971,1.293-8.638-0.96c-0.389-0.343-0.594-0.768-0.637-1.278
	c-0.631-0.795-0.976-1.527-0.779-2.679c0.361-2.014,0.409-4.103,0.493-6.148c0.03-1.182,0.317-2.042,1.369-2.747
	c0.937-0.647,0.85-1.453,0.074-2.465c-0.058-0.073-0.11-0.208-0.159-0.369c-0.143-0.001-0.287-0.001-0.432-0.006
	c0.004-0.012-0.003-0.061-0.003-0.061c-0.018-0.015-0.034-0.089-0.071-0.105C857.127,14.255,856.986,14.069,856.854,13.916
	c-0.563-0.123-1.041-0.286-1.481-0.785C856.259,13.376,856.526,13.535,856.854,13.916z M833.259,22.993
	c0.39-1.189,0.771-2.407,1.154-3.595c-0.432-0.134-0.681-0.438-0.529-0.88c0.234-0.651,0.579-1.263,1.244-1.603
	c0.912-0.428,1.768-0.951,2.69-1.27c2.382-0.849,3.263-3.009,4.296-4.996c0.262-0.484-0.131-1.308-0.205-1.979
	c0.555-0.546,1.309-0.43,1.982-0.506c1.252-0.131,1.334,0.001,1.182,1.497c-0.073,0.684-0.15,1.405-0.024,2.058
	c0.193,1.058,0.542,2.064,0.241,3.177c-0.113,0.391,0.239,0.922,0.409,1.386c0.268,0.74,0.614,1.458,0.82,2.218
	c0.174,0.61,0.046,1.182-0.675,1.432c0.113,0.392,0.348,0.779,0.302,1.139c-0.232,1.826-0.033,3.549,0.62,5.258
	c0.228,0.606-0.139,1.13-0.41,1.654c-0.193,2.086-1.829,2.933-3.386,3.746c-2.485,1.262-6.306,0.576-8.24-1.375
	c-0.666-0.649-1.105-1.375-1.152-2.315c0.017-1.223,0.647-2.469-0.288-3.646C832.981,23.999,833.099,23.472,833.259,22.993z
	 M811.24,22.897c0.117-0.688,0.112-1.387,0.103-2.096c-0.001-0.69,0.081-1.348,0.324-2.033c0.346-0.969,0.657-1.728,1.886-1.948
	c1.246-0.234,2.485-0.73,3.314-1.854c0.561-0.739,1.416-0.698,2.213-0.74c1.362-0.107,2.772,0.137,4.132-0.465
	c0.594-0.26,1.229,0.471,0.893,1.072c-0.903,1.672-1.311,3.296-0.338,5.056c-0.253,2.6,0.34,5.148,0.429,7.718
	c0.013,0.231-0.303,0.47-0.52,0.691c0.075,1.192-0.46,2.062-1.453,2.732c-2.698,1.862-5.576,1.937-8.495,0.64
	c-1.108-0.496-1.875-1.443-2.348-2.602C810.797,27.034,810.919,24.972,811.24,22.897z M774.582,13.826
	c0.417-0.061,0.795-0.547,1.237-0.77c0.115-0.082,0.403,0.019,0.52,0.128c0.116,0.103,0.223,0.37,0.173,0.504
	c-0.199,0.681-0.441,1.315-0.695,1.973c-0.128,0.388-0.17,0.761,0.205,1.075c0.073,0.07,0.172,0.111,0.22,0.186
	c1.377,1.605,2.393,3.316,2.198,5.581c-0.093,0.759,0.335,1.563,0.458,2.316c0.158,0.783,0.394,1.593-0.226,2.292
	c-0.066,0.802-0.018,1.614-0.593,2.286c-0.585,2.461-2.681,2.931-4.691,3.265c-2.361,0.397-4.424-0.54-6.159-2.155
	c-0.345,0-0.537-0.15-0.582-0.511c-0.055-0.21-0.131-0.403-0.189-0.626c-0.129-0.251-0.447-0.557-0.363-0.749
	c0.535-1.906,0.332-3.844,0.165-5.796c-0.079-0.885-0.017-1.718,0.439-2.521c0.272-1.925,0.272-1.925,1.892-2.8
	c-0.56-0.959-1.306-1.648-2.58-1.707C769.066,15.721,771.696,14.208,774.582,13.826z M749.414,12.6
	c0.165-0.405,0.09-0.993,0.776-1.004c0.074,0.002,0.164,0.058,0.213,0.128c0.061,0.051,0.093,0.141,0.18,0.296
	c-0.183,0.282-0.324,0.623-0.556,0.924c-0.102,0.101-0.349,0.19-0.474,0.138C749.315,13.042,749.335,12.819,749.414,12.6z
	 M743.949,21.433c0.199-1.288,0.927-2.153,2.044-2.755c0.874-0.47,1.749-0.974,2.634-1.449c0.544-0.296,1.27-0.513,1.732-0.203
	c1.289,0.841,2.633,0.446,3.977,0.428c1.064-0.014,2.127,0.342,3.413,0.559c-1.276,0.299-1.585,0.907-1.593,2.071
	c-0.045,2.011-0.118,3.991,0.414,5.925c0.294,1.083,0.054,1.973-0.573,2.808c0.21,0.481,0.284,0.969-0.07,1.412
	c-2.346,2.927-7.157,3.593-10.273,1.478c-1.127-0.761-1.612-1.738-1.249-3.069c-0.123-0.146-0.302-0.293-0.362-0.462
	C743.764,27.2,743.791,22.336,743.949,21.433z M727.128,9.812c0.664,0.23,1.295,0.419,2.013,0.131
	c0.423-0.184,1.045-0.456,1.237,0.151c0.097,0.391-0.139,0.968-0.381,1.385c-0.526,0.978-1.365,1.177-2.19,0.47
	c-0.773-0.671-1.726-1.217-2.176-2.198C726.264,9.226,726.692,9.668,727.128,9.812z M721.877,20.741
	c0.013-0.424,0.477-0.827,0.756-1.259c-0.163-0.892-0.16-0.904,0.795-0.803c0.098-0.176,0.222-0.303,0.403-0.427
	c-0.687-0.699-1.237-1.478-1.491-2.653c1.755-0.369,3.356-0.763,4.975-1.002c0.804-0.125,1.574-0.213,2.299-0.553
	c0.234-0.092,0.768-0.03,0.803,0.083c0.248,0.657-0.366,0.493-0.68,0.611c-0.259,0.108-0.622,0.064-0.795,0.571
	c0.616,0.615,1.429,1.11,2.269,1.578c1.052,0.552,1.98,1.349,2.612,2.365c0.247,0.388-0.122,0.68-0.575,0.764
	c0.612,2.283,0.986,5.924,0.809,7.306c-0.072,0.723-0.364,1.337-0.692,1.952c-0.03,0.376,0.065,0.85-0.127,1.128
	c-2.078,2.939-7.968,3.65-10.779,0.549c-0.335-0.386-0.451-0.857-0.446-1.35c-0.137-0.375-0.434-0.751-0.44-1.11
	C721.635,25.899,721.703,23.333,721.877,20.741z M698.9,23.867c0.334-1.399,0.29-2.91,0.808-4.309
	c0.107-0.261,0.131-0.584,0.103-0.841c-0.083-0.53-1.175-0.784-0.557-1.432c0.614-0.635,1.444-1.047,2.408-0.879
	c0.045-0.175,0.075-0.39,0.182-0.503c0.194-0.175,0.459-0.266,0.685-0.377c0.072,0.158,0.189,0.329,0.23,0.504
	c0.041,0.26,0.045,0.542,0.077,0.819c0.432,0.068,0.883,0.126,1.31,0.192c0.17-0.76,0.658-0.895,1.305-0.695
	c0.471,0.152,0.805,0.534,0.991,0.981c1.014-0.228,1.922-0.025,2.854,0.408c0.766,0.38,1.301,0.844,1.409,1.729
	c0.131,1.249,0.701,2.429,0.352,3.78c-0.29,1.136,0.086,2.314,0.604,3.406c0.162,1.113-0.158,2.115-0.835,3.02
	c-0.058,0.527-0.169,1.027-0.682,1.322c-0.033,0.295-0.236,0.467-0.545,0.487c-1.61,1.406-3.497,1.771-5.579,1.569
	c-0.856-0.082-1.499-0.43-1.972-1.117c-0.945,0.074-1.697-0.402-2.352-0.906c-0.612-0.492-1.099-1.142-0.44-1.972
	c-0.052-0.201-0.082-0.391-0.09-0.595C699.109,26.931,698.485,25.513,698.9,23.867z M675.888,21.433
	c0.199-1.288,0.927-2.153,2.044-2.755c0.874-0.47,1.749-0.974,2.634-1.449c0.544-0.296,1.27-0.513,1.732-0.203
	c1.289,0.841,2.633,0.446,3.977,0.428c1.064-0.014,2.127,0.342,3.413,0.559c-1.276,0.299-1.585,0.907-1.593,2.071
	c-0.045,2.011-0.118,3.991,0.414,5.925c0.294,1.083,0.054,1.973-0.573,2.808c0.21,0.481,0.284,0.969-0.07,1.412
	c-2.346,2.927-7.157,3.593-10.273,1.478c-1.127-0.761-1.612-1.738-1.249-3.069c-0.123-0.146-0.302-0.293-0.362-0.462
	C675.703,27.2,675.73,22.336,675.888,21.433z M653.816,20.741c0.013-0.424,0.477-0.827,0.756-1.259
	c-0.163-0.892-0.16-0.904,0.795-0.803c0.098-0.176,0.222-0.303,0.403-0.427c-0.687-0.699-1.237-1.478-1.491-2.653
	c1.755-0.369,3.356-0.763,4.975-1.002c0.804-0.125,1.574-0.213,2.299-0.553c0.234-0.092,0.768-0.03,0.803,0.083
	c0.248,0.657-0.366,0.493-0.68,0.611c-0.259,0.108-0.622,0.064-0.795,0.571c0.616,0.615,1.429,1.11,2.269,1.578
	c1.052,0.552,1.981,1.349,2.612,2.365c0.247,0.388-0.122,0.68-0.575,0.764c0.612,2.283,0.986,5.924,0.809,7.306
	c-0.072,0.723-0.364,1.337-0.692,1.952c-0.03,0.376,0.066,0.85-0.127,1.128c-2.078,2.939-7.968,3.65-10.779,0.549
	c-0.335-0.386-0.451-0.857-0.446-1.35c-0.137-0.375-0.434-0.751-0.44-1.11C653.575,25.899,653.642,23.333,653.816,20.741z
	 M630.839,23.867c0.334-1.399,0.29-2.91,0.808-4.309c0.107-0.261,0.131-0.584,0.103-0.841c-0.083-0.53-1.175-0.784-0.557-1.432
	c0.614-0.635,1.444-1.047,2.408-0.879c0.045-0.175,0.075-0.39,0.182-0.503c0.194-0.175,0.459-0.266,0.685-0.377
	c0.072,0.158,0.189,0.329,0.23,0.504c0.041,0.26,0.045,0.542,0.077,0.819c0.432,0.068,0.883,0.126,1.31,0.192
	c0.17-0.76,0.658-0.895,1.305-0.695c0.471,0.152,0.805,0.534,0.991,0.981c1.014-0.228,1.922-0.025,2.854,0.408
	c0.766,0.38,1.301,0.844,1.409,1.729c0.131,1.249,0.701,2.429,0.352,3.78c-0.29,1.136,0.086,2.314,0.604,3.406
	c0.162,1.113-0.158,2.115-0.835,3.02c-0.058,0.527-0.169,1.027-0.682,1.322c-0.033,0.295-0.236,0.467-0.545,0.487
	c-1.61,1.406-3.497,1.771-5.579,1.569c-0.856-0.082-1.499-0.43-1.972-1.117c-0.945,0.074-1.697-0.402-2.352-0.906
	c-0.612-0.492-1.099-1.142-0.44-1.972c-0.052-0.201-0.082-0.391-0.09-0.595C631.048,26.931,630.424,25.513,630.839,23.867z
	 M589.444,13.969c0.157,0.034,0.317,0.066,0.489,0.1c0.016,0.029,0.018-0.597,0.043-0.596c0,0,0.017,0.004,0.028,0.002
	c0.149,0.003,0.265,0.754,0.415,1.25c0.355,0.001,0.702,0.006,1.029,0.104c2.155,0.694,4.126-0.019,5.999-0.91
	c0.734-0.355,1.43-0.622,2.226-0.673c0.797-0.046,1.595-0.096,2.32-0.469c0.64-0.346,1.333-0.394,2.03-0.21
	c0.373,0.089,0.877,0.267,1.154,0.11c1.582-0.838,3.117,0.098,4.701,0.071c0.997-0.04,1.928,0.488,2.655,1.185
	c0.877,0.839,1.896,1.03,3.03,0.931c1.485-0.103,3.794-0.209,5.248-0.718c1.588-0.551,3.926-0.942,5.756-1.345
	c0.005-0.146,0.009-0.292-0.007-0.445c0,0,0,0,0.01,0.002c0.016-0.017,0.016-0.017,0.02-0.03c0.367-0.103,0.68-0.289,0.973-0.505
	c0.27-0.931,0.637-1.609,1.588-2.043c0.248-0.111,0.254-0.222,0.362-0.096c0.361,0.387,0.012,0.75-0.308,0.906
	c-0.611,0.307-1.09,0.826-1.642,1.232c-0.046,0.16-0.091,0.326-0.134,0.501l0.807,0.014c-0.005,0.02-0.005,0.02,0,0.033
	c-0.459,0.149-1.034,0.29-1.667,0.429c-0.048,1.354-0.957,2.418-1.487,3.552c-0.477,0.995-1.47,1.736-2.254,2.585
	c0.202,0.561,0.463,1.115,0.515,1.697c0.148,1.387,0.238,2.771,0.648,4.128c0.185,0.638,0.149,1.374,0.101,2.071
	c-0.023,0.53-0.361,0.918-0.932,0.999c0.328,0.562,0.214,1.113-0.093,1.658c-0.567,1.004-1.432,1.619-2.429,2.081
	c-1.592,0.73-3.28,0.786-4.915,0.381c-1.63-0.386-3.251-0.957-3.999-2.699c-0.261-2.253-0.071-4.489-0.609-6.75
	c-0.344-1.516,0.337-3.106,1.866-4.059c-0.077-0.284-0.19-0.565-0.2-0.864c-0.082-1.525-0.911-2.645-2.337-2.768
	c-0.986-0.054-1.963-0.237-2.855-0.671c-1.423-0.676-2.964,0.006-4.421-0.404c-0.45-0.105-0.651,0.334-0.851,0.672
	c-0.489,0.78-0.344,1.996-1.61,2.332c-0.338,0.091-0.341,0.619-0.19,1.045c0.248,0.745,0.471,1.51,0.705,2.275
	c0.131,0.377,0.343,0.755,0.328,1.12c-0.094,1.886,0.023,3.73,0.38,5.577c0.088,0.381-0.356,0.876-0.548,1.329
	c-0.191,1.664-1.231,2.639-2.684,3.281c-3.07,1.368-5.971,1.293-8.638-0.96c-0.389-0.343-0.594-0.768-0.637-1.278
	c-0.631-0.795-0.976-1.527-0.779-2.679c0.361-2.014,0.409-4.103,0.493-6.148c0.03-1.182,0.317-2.042,1.369-2.747
	c0.937-0.647,0.85-1.453,0.075-2.465c-0.058-0.073-0.11-0.208-0.159-0.369c-0.143-0.001-0.287-0.001-0.432-0.006
	c0.004-0.012-0.003-0.061-0.003-0.061c-0.018-0.015-0.034-0.089-0.071-0.105C589.717,14.308,589.576,14.122,589.444,13.969
	c-0.563-0.123-1.041-0.286-1.481-0.785C588.849,13.429,589.116,13.588,589.444,13.969z M565.85,23.046
	c0.39-1.189,0.771-2.407,1.154-3.595c-0.432-0.134-0.681-0.438-0.529-0.88c0.234-0.651,0.579-1.263,1.244-1.603
	c0.912-0.428,1.768-0.951,2.69-1.27c2.382-0.849,3.263-3.009,4.296-4.996c0.262-0.484-0.131-1.308-0.205-1.979
	c0.556-0.546,1.309-0.43,1.982-0.506c1.252-0.131,1.334,0.001,1.182,1.497c-0.073,0.684-0.15,1.405-0.024,2.058
	c0.193,1.058,0.542,2.064,0.241,3.177c-0.113,0.391,0.239,0.922,0.409,1.386c0.268,0.74,0.614,1.458,0.82,2.218
	c0.174,0.61,0.046,1.182-0.675,1.432c0.113,0.392,0.348,0.779,0.302,1.139c-0.232,1.826-0.033,3.549,0.62,5.258
	c0.228,0.606-0.14,1.13-0.41,1.654c-0.193,2.086-1.829,2.933-3.386,3.746c-2.485,1.262-6.306,0.576-8.24-1.375
	c-0.666-0.649-1.105-1.375-1.152-2.315c0.017-1.223,0.647-2.469-0.288-3.646C565.571,24.052,565.689,23.525,565.85,23.046z
	 M551.207,15.287c1.08-0.785,2.236-0.83,3.38-0.759c1.907,0.123,3.727,0.056,5.519-0.681c0.272-0.125,0.617-0.076,0.74,0.208
	c0.09,0.233,0.069,0.596-0.059,0.823c-0.369,0.715-0.958,1.22-1.736,1.512c-0.996,0.378-2.13,0.548-2.833,1.503
	c1.129,0.366,2.301,0.4,3.469,0.445c1.522,0.092,2.079,0.692,2.219,2.198c0.176,1.555,0.097,3.114,0.165,4.676
	c0.078,1.433,0.541,2.881,0.251,4.361c-0.016,0.187,0.062,0.468-0.034,0.559c-1.247,1.205-2.427,2.547-4.343,2.65
	c-1.423,0.344-2.858,0.225-4.278,0.105c-0.91-0.389-1.862-0.671-2.661-1.204c-0.97-0.645-1.891-1.459-1.414-2.873
	c-0.398-2.839,0.174-5.604,0.702-8.364C548.482,17.869,548.113,17.518,551.207,15.287z M527.569,28.308l0.012-0.039
	c-0.041-1.967-0.35-3.916,0.072-5.892c0.313-1.536,1.085-2.315,2.569-2.866c2.378-0.862,4.631-0.86,6.938-0.001
	c1.293,0.478,2.281,1.177,2.224,2.774c-0.03,0.583,0.019,1.189,0.032,1.774c0.375,0.875,0.724,1.719,0.256,2.745
	c-0.478,1.018,0.15,2.293-0.627,3.288c-0.08,1.611-1.413,2.004-2.522,2.601c-1.563,0.831-3.33,1.066-4.852,0.495
	c-1.568-0.605-3.46-1.144-4.046-3.143c-0.156-0.093-0.195-0.22-0.153-0.368c-0.213-0.055-0.426-0.098-0.638-0.133v-0.886
	c-0.313,0.055-0.623,0.129-0.93,0.233c-0.096,0.192-0.21,0.369-0.339,0.531c-0.167-0.006-0.335-0.011-0.502-0.013
	c-0.038-0.383-0.078-0.795-0.119-1.198C525.803,28.365,526.673,28.476,527.569,28.308z M424.46,21.301
	c0.031-2.805,1.092-3.932,3.929-4.791c0.583-0.18,1.125-0.399,1.694-0.553c0.398-0.125,0.774-0.208,0.987-0.583
	c0.251-0.419,0.27-0.979,0.857-1.14c0.824-0.193,1.552,0.23,2.281,0.488c0.257,0.083,0.538,0.364,0.599,0.598
	c0.554,1.979,1.909,3.713,1.684,5.939c-0.091,0.851,0.081,1.807,0.391,2.613c0.42,1.1,0.15,1.938-0.438,2.782
	c0.133,1.47-0.501,2.404-1.781,3.1c-3.65,1.998-6.435,1.729-9.361-0.596c-0.229-0.172-0.306-0.498-0.449-0.766
	C424.216,26.071,424.412,23.651,424.46,21.301z M401.562,20.651c-0.256-1.707,0.614-2.993,1.649-3.993
	c1.004-0.979,2.267-1.97,4.022-1.296c0.787,0.295,1.563-0.044,1.876-1.014c0.124-0.359,0.414-0.674,0.663-0.988
	c0.439-0.528,0.821-1.091,1.719-0.713c1.175,0.506,1.56,0.914,1.535,1.93c-0.016,0.312-0.008,0.623-0.14,0.867
	c-0.439,0.818-0.342,1.567,0.26,2.219c0.655,0.708,0.781,1.57,0.824,2.472c0.099,1.296,0.233,2.611,0.482,3.856
	c0.193,0.886-0.112,1.557-0.527,2.239l-0.088,0.051c-0.037,0.467-0.089,0.957-0.114,1.438c-0.028,0.184,0.012,0.44-0.103,0.578
	c-1.927,2.122-4.319,3.077-7.168,2.496c-2.177-0.45-4.215-1.214-5.009-3.63c-0.05-0.18-0.033-0.39-0.068-0.57
	C401.565,24.607,401.864,22.608,401.562,20.651z M379.248,19.647c-0.029-1.326,0.667-2.181,2.087-2.497
	c1.042-0.231,2.046-0.78,3.174-0.762c0.731,0.014,1.306-0.275,1.93-0.659c1.014-0.633,1.932-0.49,2.609,0.391
	c1.111,1.479,2.579,2.836,2.15,4.988c0.721,2.046,0.322,4.057-0.204,6.057c0.16,0.502,0.2,1.056-0.184,1.393
	c-3.036,2.815-6.383,3.08-9.634,1.216c-1.208-0.685-2.334-1.615-2.186-3.284C379.215,24.202,379.305,21.931,379.248,19.647z
	 M344.678,9.611c0.83,0.499,1.589,1.149,2.367,1.737c0.095,0.094,0.105,0.411,0.023,0.524c-0.074,0.128-0.34,0.246-0.486,0.197
	c-0.462-0.141-0.947-0.287-1.352-0.557c-1.314-0.781-2.586-1.649-4.206-2.281C342.525,8.635,343.647,8.993,344.678,9.611z
	 M334.012,19.928c-0.215-1.703,0.646-2.895,1.913-3.764c1.726-1.137,3.677-1.958,5.298-3.286c0.401-0.333,0.968-0.283,1.433-0.158
	c0.666,0.198,1.321,0.451,1.968,0.71c0.328,0.156,0.841,0.173,0.833,0.695c-0.016,0.632-0.75,0.542-1.014,0.909
	c-0.015,0.187-0.094,0.431,0,0.537c1.25,1.529,1.754,3.27,1.714,5.236c-0.042,1.573,0.084,3.178,0.129,4.753
	c0.008,0.607-0.059,1.199-0.4,1.718c-0.037,0.241-0.042,0.483-0.06,0.724c0.032,0.364-0.151,0.538-0.474,0.574
	c-2.919,2.59-6.091,2.771-9.441,0.99c-0.884-0.472-1.726-1.063-1.596-2.307c-0.509-1.721-0.864-3.429-0.32-5.26
	C334.195,21.355,334.11,20.61,334.012,19.928z M288.896,23.114c0.208-1.132,0.014-2.39,0.01-3.569c-0.006-2,0.367-2.583,2.275-3.359
	c0.738-0.319,1.493-0.583,2.241-0.844c1.277-0.49,2.03-1.572,2.929-2.521c0.341-0.343,0.732-0.935,1.201-0.784
	c1.546,0.512,3.186-0.004,4.75,0.43c0.181,0.038,0.35,0.138,0.539,0.227c0.346,0.208,0.287,0.609,0.053,0.725
	c-2.128,0.93-2.383,2.668-2.094,4.659c0.138,1.163-0.122,2.437,0.927,3.338c0.125,0.111,0.192,0.447,0.111,0.547
	c-1.096,1.414-0.322,3.122-0.82,4.635c-0.036,0.182-0.196,0.337-0.303,0.518c0.178,0.88-0.28,1.543-0.908,2.069
	c-2.822,2.316-7.584,2.125-10.2-0.381c-0.421-0.401-0.794-0.869-0.782-1.542C288.624,25.873,288.594,24.533,288.896,23.114z
	 M244.124,12.916c0.157,0.034,0.317,0.066,0.489,0.1c0.016,0.029,0.019-0.597,0.043-0.596c0,0,0.016,0.004,0.028,0.002
	c0.149,0.003,0.266,0.754,0.415,1.25c0.355,0.001,0.702,0.006,1.029,0.104c2.155,0.694,4.126-0.019,5.999-0.91
	c0.734-0.355,1.429-0.622,2.226-0.673c0.797-0.046,1.595-0.096,2.321-0.469c0.64-0.346,1.333-0.394,2.03-0.21
	c0.374,0.089,0.877,0.267,1.154,0.11c1.582-0.838,3.117,0.098,4.701,0.071c0.997-0.04,1.928,0.488,2.655,1.185
	c0.877,0.839,1.896,1.03,3.03,0.931c1.485-0.103,3.794-0.209,5.248-0.718c1.588-0.551,3.926-0.942,5.756-1.345
	c0.005-0.146,0.009-0.292-0.007-0.445c0,0,0,0,0.01,0.002c0.016-0.017,0.016-0.017,0.02-0.03c0.367-0.103,0.68-0.289,0.973-0.505
	c0.27-0.931,0.637-1.609,1.588-2.043c0.248-0.111,0.254-0.222,0.362-0.096c0.361,0.387,0.012,0.75-0.308,0.906
	c-0.611,0.307-1.089,0.826-1.642,1.232c-0.046,0.16-0.091,0.326-0.134,0.501l0.807,0.014c-0.005,0.02-0.005,0.02,0,0.033
	c-0.459,0.149-1.034,0.29-1.667,0.429c-0.048,1.354-0.957,2.418-1.487,3.552c-0.477,0.995-1.47,1.736-2.255,2.585
	c0.202,0.561,0.463,1.115,0.515,1.697c0.147,1.387,0.238,2.771,0.647,4.128c0.186,0.638,0.149,1.374,0.101,2.071
	c-0.023,0.53-0.361,0.918-0.932,0.999c0.328,0.562,0.214,1.113-0.093,1.658c-0.567,1.004-1.432,1.619-2.429,2.081
	c-1.592,0.73-3.28,0.786-4.915,0.381c-1.63-0.386-3.251-0.957-3.999-2.699c-0.261-2.253-0.071-4.489-0.609-6.75
	c-0.345-1.516,0.337-3.106,1.865-4.059c-0.077-0.284-0.19-0.565-0.2-0.864c-0.082-1.525-0.911-2.645-2.337-2.768
	c-0.986-0.054-1.963-0.237-2.855-0.671c-1.423-0.676-2.964,0.006-4.421-0.404c-0.45-0.105-0.652,0.334-0.851,0.672
	c-0.489,0.78-0.344,1.996-1.61,2.332c-0.339,0.091-0.341,0.619-0.19,1.045c0.248,0.745,0.47,1.51,0.705,2.275
	c0.131,0.377,0.343,0.755,0.328,1.12c-0.094,1.886,0.023,3.73,0.38,5.577c0.088,0.381-0.356,0.876-0.548,1.329
	c-0.191,1.664-1.231,2.639-2.684,3.281c-3.07,1.368-5.971,1.293-8.637-0.96c-0.389-0.343-0.594-0.768-0.637-1.278
	c-0.631-0.795-0.976-1.527-0.779-2.679c0.361-2.014,0.409-4.103,0.493-6.148c0.03-1.182,0.317-2.042,1.369-2.747
	c0.937-0.647,0.85-1.453,0.074-2.465c-0.058-0.073-0.11-0.208-0.159-0.369c-0.143-0.001-0.287-0.001-0.432-0.006
	c0.004-0.012-0.003-0.061-0.003-0.061c-0.018-0.015-0.034-0.089-0.071-0.105C244.397,13.255,244.256,13.069,244.124,12.916
	c-0.563-0.123-1.041-0.286-1.481-0.785C243.529,12.376,243.796,12.535,244.124,12.916z M220.529,21.993
	c0.39-1.189,0.771-2.407,1.153-3.595c-0.432-0.134-0.681-0.438-0.529-0.88c0.234-0.651,0.579-1.263,1.244-1.603
	c0.912-0.428,1.768-0.951,2.69-1.27c2.382-0.849,3.263-3.009,4.295-4.996c0.262-0.484-0.131-1.308-0.204-1.979
	c0.555-0.546,1.309-0.43,1.982-0.506c1.252-0.131,1.334,0.001,1.182,1.497c-0.073,0.684-0.15,1.405-0.024,2.058
	c0.193,1.058,0.542,2.064,0.241,3.177c-0.113,0.391,0.239,0.922,0.408,1.386c0.268,0.74,0.614,1.458,0.821,2.218
	c0.174,0.61,0.046,1.182-0.675,1.432c0.113,0.392,0.348,0.779,0.302,1.139c-0.233,1.826-0.034,3.549,0.62,5.258
	c0.228,0.606-0.14,1.13-0.41,1.654c-0.193,2.086-1.829,2.933-3.386,3.746c-2.485,1.262-6.306,0.576-8.24-1.375
	c-0.665-0.649-1.105-1.375-1.152-2.315c0.017-1.223,0.647-2.469-0.288-3.646C220.251,22.999,220.369,22.472,220.529,21.993z
	 M198.51,21.897c0.117-0.688,0.112-1.387,0.103-2.096c-0.001-0.69,0.081-1.348,0.324-2.033c0.346-0.969,0.657-1.728,1.886-1.948
	c1.246-0.234,2.485-0.73,3.314-1.854c0.561-0.739,1.416-0.698,2.214-0.74c1.362-0.107,2.772,0.137,4.132-0.465
	c0.594-0.26,1.229,0.471,0.893,1.072c-0.903,1.672-1.311,3.296-0.338,5.056c-0.253,2.6,0.34,5.148,0.429,7.718
	c0.013,0.231-0.303,0.47-0.52,0.691c0.075,1.192-0.46,2.062-1.453,2.732c-2.698,1.862-5.576,1.937-8.496,0.64
	c-1.108-0.496-1.875-1.443-2.348-2.602C198.066,26.034,198.189,23.972,198.51,21.897z M161.852,12.826
	c0.417-0.061,0.795-0.547,1.237-0.77c0.116-0.082,0.403,0.019,0.52,0.128c0.116,0.103,0.223,0.37,0.173,0.504
	c-0.199,0.681-0.441,1.315-0.695,1.973c-0.128,0.388-0.17,0.761,0.205,1.075c0.073,0.07,0.172,0.111,0.219,0.186
	c1.377,1.605,2.394,3.316,2.198,5.581c-0.093,0.759,0.335,1.563,0.458,2.316c0.158,0.783,0.395,1.593-0.226,2.292
	c-0.066,0.802-0.018,1.614-0.594,2.286c-0.585,2.461-2.681,2.931-4.691,3.265c-2.361,0.397-4.425-0.54-6.159-2.155
	c-0.345,0-0.537-0.15-0.582-0.511c-0.055-0.21-0.131-0.403-0.189-0.626c-0.129-0.251-0.447-0.557-0.363-0.749
	c0.535-1.906,0.331-3.844,0.165-5.796c-0.079-0.885-0.017-1.718,0.439-2.521c0.272-1.925,0.272-1.925,1.892-2.8
	c-0.56-0.959-1.306-1.648-2.58-1.707C156.336,14.721,158.966,13.208,161.852,12.826z M136.684,11.6
	c0.166-0.405,0.09-0.993,0.776-1.004c0.074,0.002,0.164,0.058,0.213,0.128c0.061,0.051,0.093,0.141,0.18,0.296
	c-0.183,0.282-0.324,0.623-0.556,0.924c-0.102,0.101-0.349,0.19-0.474,0.138C136.585,12.042,136.605,11.819,136.684,11.6z
	 M131.219,20.433c0.199-1.288,0.927-2.153,2.044-2.755c0.874-0.47,1.749-0.974,2.634-1.449c0.544-0.296,1.27-0.513,1.732-0.203
	c1.289,0.841,2.634,0.446,3.977,0.428c1.064-0.014,2.127,0.342,3.413,0.559c-1.276,0.299-1.585,0.907-1.593,2.071
	c-0.045,2.011-0.118,3.991,0.415,5.925c0.294,1.083,0.054,1.973-0.573,2.808c0.21,0.481,0.284,0.969-0.07,1.412
	c-2.346,2.927-7.157,3.593-10.273,1.478c-1.126-0.761-1.612-1.738-1.249-3.069c-0.123-0.146-0.302-0.293-0.362-0.462
	C131.034,26.2,131.061,21.336,131.219,20.433z M114.398,8.812c0.664,0.23,1.295,0.419,2.013,0.131
	c0.423-0.184,1.045-0.456,1.237,0.151c0.097,0.391-0.139,0.968-0.381,1.385c-0.526,0.978-1.365,1.177-2.19,0.47
	c-0.773-0.671-1.726-1.217-2.176-2.198C113.534,8.226,113.962,8.668,114.398,8.812z M109.147,19.741
	c0.013-0.424,0.477-0.827,0.756-1.259c-0.163-0.892-0.16-0.904,0.795-0.803c0.098-0.176,0.222-0.303,0.403-0.427
	c-0.687-0.699-1.237-1.478-1.491-2.653c1.755-0.369,3.356-0.763,4.975-1.002c0.804-0.125,1.574-0.213,2.299-0.553
	c0.234-0.092,0.768-0.03,0.802,0.083c0.248,0.657-0.366,0.493-0.679,0.611c-0.259,0.108-0.622,0.064-0.795,0.571
	c0.616,0.615,1.429,1.11,2.269,1.578c1.052,0.552,1.981,1.349,2.612,2.365c0.247,0.388-0.122,0.68-0.575,0.764
	c0.612,2.283,0.986,5.924,0.809,7.306c-0.072,0.723-0.364,1.337-0.692,1.952c-0.03,0.376,0.066,0.85-0.127,1.128
	c-2.078,2.939-7.968,3.65-10.778,0.549c-0.335-0.386-0.45-0.857-0.446-1.35c-0.137-0.375-0.434-0.751-0.44-1.11
	C108.905,24.899,108.973,22.333,109.147,19.741z M86.169,22.867c0.334-1.399,0.291-2.91,0.808-4.309
	c0.107-0.261,0.131-0.584,0.103-0.841c-0.083-0.53-1.175-0.784-0.557-1.432c0.614-0.635,1.444-1.047,2.408-0.879
	c0.045-0.175,0.075-0.39,0.183-0.503c0.194-0.175,0.459-0.266,0.685-0.377c0.072,0.158,0.189,0.329,0.23,0.504
	c0.041,0.26,0.045,0.542,0.076,0.819c0.432,0.068,0.883,0.126,1.31,0.192c0.17-0.76,0.658-0.895,1.305-0.695
	c0.471,0.152,0.805,0.534,0.991,0.981c1.014-0.228,1.922-0.025,2.854,0.408c0.766,0.38,1.301,0.844,1.409,1.729
	c0.131,1.249,0.701,2.429,0.352,3.78c-0.29,1.136,0.086,2.314,0.604,3.406c0.162,1.113-0.158,2.115-0.835,3.02
	c-0.059,0.527-0.17,1.027-0.682,1.322c-0.033,0.295-0.236,0.467-0.545,0.487c-1.61,1.406-3.497,1.771-5.579,1.569
	c-0.855-0.082-1.499-0.43-1.972-1.117c-0.944,0.074-1.697-0.402-2.352-0.906c-0.612-0.492-1.099-1.142-0.441-1.972
	c-0.052-0.201-0.082-0.391-0.09-0.595C86.379,25.931,85.755,24.513,86.169,22.867z M63.158,20.433
	c0.199-1.288,0.927-2.153,2.045-2.755c0.874-0.47,1.749-0.974,2.634-1.449c0.544-0.296,1.27-0.513,1.732-0.203
	c1.289,0.841,2.634,0.446,3.977,0.428c1.064-0.014,2.127,0.342,3.413,0.559c-1.276,0.299-1.585,0.907-1.593,2.071
	c-0.045,2.011-0.118,3.991,0.414,5.925c0.294,1.083,0.054,1.973-0.572,2.808c0.21,0.481,0.284,0.969-0.07,1.412
	c-2.346,2.927-7.157,3.593-10.273,1.478c-1.126-0.761-1.612-1.738-1.249-3.069c-0.123-0.146-0.302-0.293-0.362-0.462
	C62.973,26.2,63,21.336,63.158,20.433z M41.086,19.741c0.013-0.424,0.477-0.827,0.756-1.259c-0.162-0.892-0.16-0.904,0.796-0.803
	c0.098-0.176,0.222-0.303,0.403-0.427c-0.687-0.699-1.237-1.478-1.49-2.653c1.755-0.369,3.356-0.763,4.975-1.002
	c0.804-0.125,1.574-0.213,2.299-0.553c0.234-0.092,0.768-0.03,0.803,0.083c0.248,0.657-0.366,0.493-0.68,0.611
	c-0.259,0.108-0.622,0.064-0.795,0.571c0.616,0.615,1.429,1.11,2.269,1.578c1.052,0.552,1.981,1.349,2.612,2.365
	c0.247,0.388-0.122,0.68-0.575,0.764c0.612,2.283,0.986,5.924,0.809,7.306c-0.072,0.723-0.364,1.337-0.692,1.952
	c-0.03,0.376,0.065,0.85-0.127,1.128c-2.078,2.939-7.968,3.65-10.779,0.549c-0.335-0.386-0.451-0.857-0.446-1.35
	c-0.137-0.375-0.434-0.751-0.44-1.11C40.845,24.899,40.912,22.333,41.086,19.741z M18.109,22.867
	c0.334-1.399,0.291-2.91,0.808-4.309c0.107-0.261,0.13-0.584,0.103-0.841c-0.083-0.53-1.175-0.784-0.557-1.432
	c0.614-0.635,1.444-1.047,2.408-0.879c0.045-0.175,0.075-0.39,0.182-0.503c0.194-0.175,0.459-0.266,0.685-0.377
	c0.072,0.158,0.189,0.329,0.23,0.504c0.041,0.26,0.045,0.542,0.077,0.819c0.432,0.068,0.883,0.126,1.31,0.192
	c0.17-0.76,0.658-0.895,1.306-0.695c0.471,0.152,0.805,0.534,0.991,0.981c1.014-0.228,1.922-0.025,2.854,0.408
	c0.766,0.38,1.301,0.844,1.408,1.729c0.131,1.249,0.702,2.429,0.352,3.78c-0.29,1.136,0.086,2.314,0.604,3.406
	c0.162,1.113-0.158,2.115-0.835,3.02c-0.058,0.527-0.17,1.027-0.682,1.322c-0.033,0.295-0.236,0.467-0.545,0.487
	c-1.61,1.406-3.497,1.771-5.579,1.569c-0.856-0.082-1.499-0.43-1.972-1.117c-0.944,0.074-1.697-0.402-2.352-0.906
	c-0.612-0.492-1.099-1.142-0.441-1.972c-0.052-0.201-0.082-0.391-0.09-0.595C18.318,25.931,17.694,24.513,18.109,22.867z"/>
<path class="st1" d="M979.059,16.065c0.009-0.001,0.017,0.001,0.026,0c-0.007-0.05-0.012-0.093-0.017-0.134
	C979.062,16.007,979.058,16.073,979.059,16.065z"/>
<path class="st1" d="M979.064,15.674c-0.019,0-0.016,0.098,0.003,0.257c0.008-0.116,0.02-0.262,0.028-0.26
	C979.083,15.668,979.064,15.674,979.064,15.674z"/>
<path class="st2" d="M7.908,32.575c-1.592,0.73-3.28,0.786-4.915,0.381c-0.948-0.224-1.887-0.52-2.659-1.063v8.557h1279.504
	l0.038-10.497c0.005,0.026-0.122-10.15-0.083-12.912c-0.008-0.609-0.019-1.201-0.029-1.792c-0.121-1.997-0.222-3.977-0.328-5.974
	c-0.993-0.648-2.097-0.419-3.181-0.4c-3.354,0.087-6.722,0.187-10.079,0.278c-1.596,0.394-3.217,0.271-4.827,0.271
	c-2.17,0.128-4.359,0.586-6.513-0.109c-4.406,0.226-8.808,0.442-13.215,0.651c0.618,1.778,1.215,3.554,1.85,5.331
	c0.278,0.783,0.311,1.538,0.155,2.339c0.799,0.373,0.699,0.934,0.153,1.376c-0.947,0.747-2.161,0.875-2.976-0.032
	c-1.183-1.324-2.284-1.004-3.736-0.612c-1.634,0.439-3.111,1.289-4.774,1.643c-0.881,0.208-1.617,1.103-2.375,1.757
	c-0.4,0.325-0.435,0.852-0.451,1.373c-0.014,0.78-0.059,1.581-0.099,2.369l0.027,1.23c0.702,1.554,0.309,3.121-0.06,4.651
	c-0.215,0.905-0.751,1.606-1.643,1.99c-3.075,2.017-6.131,2.096-9.172-0.069c-1.462-1.378-3.377-1.423-5.191-1.704
	c-1.252-0.177-2.551-0.068-3.828-0.267c-1.325-0.201-2.394,0.74-3.557,1.253c-1.765,1.767-4.01,2.177-6.359,2.106
	c-2.027-0.045-3.619-1.009-4.794-2.674c-2.441,0.051-4.844,0.36-7.326-0.049c-1.188-0.195-2.497,0.515-3.787,0.321
	c-0.959,0.537-1.755,1.289-2.789,1.724c-3.511,1.519-8.156,0.192-9.41-3.263c-0.763,0.151-1.544-0.047-2.297,0.423
	c-2.101,1.298-4.364,1.721-6.772,0.949c-0.28-0.105-0.584-0.126-0.88-0.184c-2.031,2.265-4.584,3.13-7.532,2.544
	c-1.886-0.378-3.684-1.057-4.203-3.256c-1.181-0.102-2.367,0.382-3.538-0.051c-1.262,0.333-2.542,0.314-3.819,0.316
	c-1.277,0.013-2.567-0.026-3.804,0.389c-0.256,0.515-0.597,0.974-1.215,1.098c-0.974,0.735-1.978,1.37-3.227,1.519
	c-2.416,0.311-4.578-0.091-6.181-2.149c-1.13,0.365-1.672-1.248-2.96-0.766c-0.973,0.376-2.113,0.241-3.163,0.448
	c-1.371,0.248-2.71,0.188-4.036-0.21c-1.003,0.105-1.928,0.358-2.751,1.002c-3.457,2.654-7.461,2.091-10.474-0.914
	c-0.488-0.482-1.014-0.559-1.602-0.32c-0.169,0.378-0.451,0.743-0.892,0.622c-1.553-0.464-3.143-0.32-4.721-0.29
	c0.001,0.316-0.023,0.335-0.088,0.015c-0.822-0.636-1.806-0.355-2.719-0.521c-0.67,0.441-1.316,0.88-1.98,1.331
	c-3.547,2.363-6.517,2.165-10.039-0.696c-0.995-0.574-0.665-1.488-0.598-2.322c-0.159-0.839-0.307-1.669,0.143-2.461
	c-0.114-1.654-0.284-3.323-0.009-4.975c0.281-1.685-0.206-2.96-2.011-3.445c-0.274,0.022-0.44-0.09-0.324-0.387
	c-0.109-0.234-0.226-0.487-0.323-0.721c-0.469,0.08-0.92,0.088-1.118-0.464c-1.053-0.449-2.099-0.883-3.154-1.33
	c-0.603,0.292-1.14,0.671-1.261,1.419c-0.17,0.879-0.795,1.274-1.614,1.426c-1.379,1.952-1.157,4.158-0.677,6.2
	c0.454,2.127,0.228,4.073-0.424,6.062c0.106,0.43-0.046,0.768-0.353,1.058c-2.615,2.452-6.298,2.852-9.276,0.879
	c-0.755-0.488-1.922-0.781-1.789-2.071c-0.41-2.851-0.459-5.706-0.047-8.565c0.152-0.993,0.635-1.606,1.472-2.046
	c1.336-0.682,2.691-1.179,4.221-1.253c1.435-0.084,2.401-0.835,2.422-2.424c-0.469-0.189-0.438-0.431-0.065-0.717
	c0.036-0.432,0.066-0.877,0.416-1.222c0.102-0.725,0.195-1.461-0.12-2.161c-0.673-0.103-1.092-0.464-0.74-1.135
	c0.471-0.831,1.048-1.594,0.859-2.61c-1.231,0.39-2.449,0.583-3.8,0.413c-1.574-0.201-3.18,0.008-4.789,0.011
	c-1.087,0.008-2.181-0.075-3.299-0.121c-0.443,0.172-0.928,0.351-1.555,0.568c1.507,0.62,2.612,1.558,3.593,2.644
	c0.268,0.31,0.107,0.906-0.276,0.968c-1.354,0.25-2.731,0.331-3.899,1.291c-0.449,0.369-1.142,0.216-1.715,0.001
	c-1.121-0.389-2.261-0.745-3.392-1.18c-1.293-0.486-2.568-1.019-3.991-1.212c-0.649-0.071-1.31-0.427-1.914-0.751
	c-0.473-0.268-0.721-0.805-0.266-1.239c0.572-0.539,0.709-1.15,0.586-1.885c-0.991,0.018-1.985,0.04-2.987,0.041
	c-0.149,0.609-0.657,0.64-1.136,0.652c-1.986,0.07-3.929,0.16-5.905,0.208c-0.48,0.119-0.995,0.184-1.162,0.777
	c-0.13,0.421,0.001,0.815,0.275,1.109c0.898,0.948,1.793,1.867,2.357,3.16c-0.578,0.685-1.695,0.33-2.296,1.093
	c-0.718,0.93-1.657,0.091-2.504,0.116c-0.913,0.045-1.757-0.041-2.491-0.722c-0.676-0.61-1.272-1.253-1.66-2.069
	c-0.656,0-1.331,0.12-1.965,0c-0.817-0.122-1.702-0.267-2.068-1.216c-0.153-0.249-0.348-0.476-0.472-0.74
	c-0.481-1.002-1.254-1.424-2.377-1.341c-1.46,0.116-2.93,0.159-4.401,0.211c-1.493,1.257-2.991,2.522-4.5,3.785
	c-1.179,0.957-2.008,0.877-3.362-0.075c-1.695-1.187-3.672-1.819-5.669-2.286c-1.679,0.826-3.661,0.896-5.16,2.224
	c-0.592,0.515-1.313-0.264-2.001-0.189c-0.972,0.484-1.946,0.974-2.899,1.483c-0.39,0.2-0.768,0.156-1.094-0.116l-0.158,0.014
	l-0.159,0.014c-0.606,0.078-1.231,0.185-1.852,0.289c0.112,0.94-0.106,1.737-1.012,2.19c-1.016,0.515-1.897,1.344-3.14,1.347
	c-1.16,0.083-2.299-0.27-3.453-0.193c0.005,0.037,0.012,0.08,0.019,0.122c0.096,0.077,0.166,0.17,0.166,0.305
	c0,0-0.003,0.012,0.002,0.021c-0.036,0.002-0.075,0.003-0.111,0.005c0.144,0.791,0.412,1.935,0.679,2.515
	c0.236,2.815,0.541,5.853,0.251,8.695c0.15,0.873-0.269,1.602-0.906,2.157c-2.978,2.548-7.805,2.294-10.503-0.617
	c-0.384-0.412-0.395-0.849-0.267-1.368c-0.74-2.721-0.26-5.398,0.108-8.112c0.074-0.496,0.45-0.844,0.902-1.095
	c0.841-1.242,2.142-1.819,3.577-1.893c2.014-0.122,4.372-0.195,6.16-0.281c-0.022-0.12-0.04-0.23-0.056-0.33
	c-0.473-0.378-1.931-0.143-2.707-0.082c-0.877,0.029-1.834,0.279-2.641-0.263c-0.151-0.099-0.282-0.307-0.278-0.484
	c-0.01-0.121,0.145-0.36,0.277-0.384c1.652-0.339,3.319-0.387,4.995-0.345c1.094,0.029,2.174,0.15,3.227-0.15
	c1.344-1.164,2.692-2.298,3.559-3.889c0.229-0.382,0.667-0.368,1.041-0.124c0.404,0.167,0.813,0.151,1.217-0.07
	c0.129-0.512,0.383-0.937,0.97-0.965c1.683-0.054,3.008-0.895,4.259-1.907c-0.395-0.048-0.788-0.146-1.195-0.141
	c-9.974-0.152-19.967-0.301-29.946-0.403c-6.894-0.075-13.788-0.078-20.685-0.109c-0.27,0.094-0.461,0.015-0.597-0.253
	c-2.395-0.444-4.755,0.173-7.138,0.224c0.133,0.496,0.352,0.941,0.935,0.958c0.966,0.049,1.976-0.076,2.782,0.703
	c-0.13,0.714-1.031,0.426-1.264,0.961c-0.215,0.536-0.425,1.096-0.626,1.628c-0.636,1.464-2.053,1.999-3.238,2.818
	c0.295,0.22,0.597,0.476,0.938,0.678c0.636,0.41,1.06,0.885,0.691,1.683c-0.314,0.686-0.377,1.392,0.112,1.951
	c1.072,1.229,1.039,2.709,1.1,4.174c0.071,1.469-0.068,2.947,0.956,4.228c0.35,0.434-0.052,0.899-0.576,1.091
	c-0.25,2.155-1.923,2.999-3.607,3.561c-2.248,0.754-4.505,0.569-6.687-0.543c-1.283-0.672-1.879-1.59-1.825-3.054
	c-0.48-0.202,0.157-0.416,0.151-0.65l0.004-0.017c-0.007-2.078-0.468-4.126-0.062-6.226c0.386-2.025,1.32-3.12,3.267-3.65
	c1.171-0.305,2.298-0.497,3.473-0.7c1.067-0.192,1.205-0.593,0.662-1.579c-0.19-0.339-0.355-0.703-0.521-1.057
	c-0.034-0.533-0.28-0.954-0.692-1.247c-0.39-0.277-0.792-0.581-1.254-0.732c-0.593-0.203-1.221-0.474-1.086-1.135
	c0.255-1.276-1.652-2.492-0.116-3.772c-0.732-0.45-1.533-0.228-2.301-0.233c-1.478,0.009-2.963-0.006-4.452-0.011
	c-0.389,0.061-0.789,0.121-1.18,0.189c0.295,0.221,0.611,0.462,0.936,0.708c0.841,0.717,1.143,1.635,0.765,2.632
	c-0.088,0.232-0.335,0.533-0.588,0.584c-1.159,0.252-2.361,0.533-3.475-0.133c-2.669-1.592-5.641-1.879-8.597-2.271
	c-1.156-0.156-1.17-0.095-1.643-1.603c-1.886,0.02-3.76,0.089-5.633,0.042c-1.217-0.015-2.392,0.02-3.529,0.438
	c-0.094,0.266-0.132,0.702-0.307,0.772c-0.591,0.201-0.519-0.409-0.702-0.698c-5.482-0.122-10.965-0.276-16.458-0.346
	c-8.178-0.073-16.362-0.064-24.528-0.146c-3.01-0.041-5.985-0.213-8.987-0.318c-0.817,0.186-0.732-0.409-0.764-0.909
	c-0.482,0.053-0.994,0.005-1.445,0.162c-2.677,0.888-5.432,0.931-8.197,0.832c-2.383,0.403-4.778,0.195-7.162,0.181
	c-1.152,0.001-2.158,0.163-2.825,1.229c-0.078,0.106-0.412,0.17-0.554,0.126c-0.548-0.235-0.027-0.46,0.054-0.667
	C827,8.314,826.86,8.07,825.642,8.1c-3.799,0.17-7.581,0.327-11.385,0.529c-1.567,0.077-3.195-0.195-4.738,0.299
	c-0.032,0.195-0.102,0.358-0.202,0.519c0.023,0.29-0.12,0.419-0.408,0.404c-0.052,0.078-0.129,0.125-0.245,0.141
	c-0.638,1.362-1.881,1.978-3.15,2.546c-0.542,0.254-1.143,0.432-1.7,0.614c-3.198,1.038-3.167,1.031-4.081,4.053
	c-0.338,1.044-0.294,2.009,0.584,2.722c0.893,0.748,0.901,1.546,0.802,2.655c-0.152,1.562,0.111,3.171,0.233,4.764
	c0.071,0.991,0.349,1.981-0.241,2.918c-0.046,1.443-0.796,2.417-1.992,3.079c-2.961,1.563-6.186,1.637-8.935-0.492
	c-0.777-0.612-1.171-1.326-0.768-2.328c-0.976-1.339-0.683-2.836-0.43-4.281c0.218-1.472,0.329-2.972-0.132-4.402
	c-0.306-0.87-0.184-1.528,0.411-2.186c0.323-0.355,0.618-0.776,0.951-1.137c0.588-0.689,0.355-1.247-0.219-1.802
	c-0.099-0.08-0.061-0.348-0.057-0.679c2.405-0.06,4.65-0.787,6.73-2.004c0.072-0.052,0.168-0.113,0.283-0.11
	c2.104-0.009,3.455-1.232,4.607-2.818c0.783-1.052,1.866-1.428,3.132-1.445c0.126-0.078,0.268-0.125,0.418-0.143
	c0.295-0.887,1.08-1.094,1.868-1.288c0.005-0.188,0.111-0.34,0.226-0.483c-0.048-1.783,0.009-1.881,1.447-2.302
	c0.515-0.431,0.766-0.942,0.559-1.612c-0.433,0.062-0.857,0.124-1.294,0.193c-1.012,0.847-2.251,0.737-3.431,0.772
	c-0.256,0.024-0.475,0.049-0.718,0.094c-1.392,0.577-2.843,1.031-4.109,1.897l-0.046,0.075c-0.922,1.032-2.152,0.722-3.212,0.539
	c-1.065-0.172-2.121-0.283-3.184-0.227c-1.433,0.286-2.896,0.378-4.262,0.979c-0.168,1.342-1.131,2.286-1.774,3.388
	c-0.287,0.505-0.682,0.966-0.903,1.504c-0.706,1.801-0.675,1.772-2.397,1.847c-1.172,0.053-2.225-0.191-3.096-0.91
	c-1.036-0.874-2.127-1.325-3.535-1.238c-1.065,0.081-1.212-0.229-1.149-1.492c0.021-0.092,0.076-0.212,0.072-0.297
	c0.05-1.556-0.525-2.231-2.069-2.201c-2.377,0.083-4.776,0.227-7.16,0.349c-0.703,0.035-1.401,0.14-1.999-0.386
	c-2.58-0.07-5.168-0.193-7.762-0.198c-5.473-0.028-10.942,0.005-16.427,0.022c-2.171,0.254-4.34,0.27-6.534,0.116
	c-0.315,0.738-0.768,1.373-1.465,1.755c-0.218,0.124-0.59,0.16-0.816,0.061c-0.356-0.18-0.199-0.549,0.058-0.683
	c0.878-0.578,1.22-1.452,1.448-2.407c-1.503,0.352-3.015,0.594-4.593,0.529c-6.243,0.977-12.537,0.599-18.83,0.59
	c-1.765-0.003-3.544,0.137-5.3-0.51c-0.846-0.325-1.992-0.02-2.951,0.211c-1.378,0.348-2.762,0.317-4.152,0.308
	c-5.205-0.03-136.92-0.009-142.117,0.034c-8.343,0.055-16.691,0.119-25.03,0.194c-0.017,0.03-0.03,0.06-0.048,0.09
	c-0.741,1.245-1.601,2.034-2.65,2.778c-0.675,0.837-1.374,1.516-2.184,2.169c-0.372,0.876-0.994,2.228-1.569,3.076
	c-0.001,0.021-0.001,0.034-0.003,0.055l0.07,1.125c0.093,1.503,0.241,2.993,0.278,4.5c0.028,1.134-0.21,2.097-0.629,2.9
	l-0.026,7.219c-0.684,0.423-1.409,0.753-2.25,0.853c-2.416,0.311-4.578-0.091-6.181-2.149c-1.13,0.365-1.672-1.248-2.96-0.766
	c-0.973,0.376-2.113,0.241-3.163,0.448c-1.371,0.248-2.71,0.188-4.036-0.21c-1.003,0.105-1.928,0.358-2.751,1.002
	c-3.457,2.654-7.461,2.091-10.474-0.914c-0.488-0.482-1.014-0.559-1.602-0.32c-0.169,0.378-0.451,0.743-0.892,0.622
	c-1.553-0.464-3.143-0.32-4.721-0.29c0.001,0.316-0.023,0.335-0.088,0.015c-0.822-0.636-1.806-0.355-2.719-0.521
	c-0.669,0.441-1.316,0.88-1.98,1.331c-3.547,2.363-6.517,2.165-10.039-0.696c-0.995-0.574-0.666-1.488-0.598-2.322
	c-0.159-0.839-0.307-1.669,0.143-2.461c-0.114-1.654-0.284-3.323-0.009-4.975c0.281-1.685-0.206-2.96-2.011-3.445
	c-0.274,0.022-0.44-0.09-0.324-0.387c-0.11-0.234-0.227-0.487-0.323-0.721c-0.469,0.08-0.92,0.088-1.118-0.464
	c-1.053-0.449-2.099-0.883-3.154-1.33c-0.603,0.292-1.14,0.671-1.261,1.419c-0.169,0.879-0.794,1.274-1.614,1.426
	c-1.379,1.952-1.157,4.158-0.677,6.2c0.454,2.127,0.228,4.073-0.424,6.062c0.106,0.43-0.046,0.768-0.353,1.058
	c-2.615,2.452-6.298,2.852-9.276,0.879c-0.755-0.488-1.922-0.781-1.789-2.071c-0.409-2.851-0.459-5.706-0.047-8.565
	c0.153-0.993,0.636-1.606,1.472-2.046c1.336-0.682,2.691-1.179,4.221-1.253c1.434-0.084,2.401-0.835,2.422-2.424
	c-0.469-0.189-0.439-0.431-0.065-0.717c0.036-0.432,0.066-0.877,0.416-1.222c0.102-0.725,0.195-1.461-0.12-2.161
	c-0.673-0.103-1.092-0.464-0.74-1.135c0.471-0.831,1.048-1.594,0.859-2.61c-1.231,0.39-2.449,0.583-3.8,0.413
	c-1.574-0.201-3.18,0.008-4.789,0.011c-1.087,0.008-2.181-0.075-3.299-0.121c-0.443,0.172-0.929,0.351-1.555,0.568
	c1.507,0.62,2.612,1.558,3.593,2.644c0.268,0.31,0.107,0.906-0.276,0.968c-1.354,0.25-2.731,0.331-3.899,1.291
	c-0.45,0.369-1.142,0.216-1.715,0.001c-1.121-0.389-2.261-0.745-3.391-1.18c-1.293-0.486-2.568-1.019-3.991-1.212
	c-0.649-0.071-1.31-0.427-1.914-0.751c-0.473-0.268-0.721-0.805-0.266-1.239c0.572-0.539,0.709-1.15,0.586-1.885
	c-0.991,0.018-1.985,0.04-2.987,0.041c-0.149,0.609-0.658,0.64-1.136,0.652c-1.986,0.07-3.929,0.16-5.905,0.208
	c-0.48,0.119-0.995,0.184-1.162,0.777c-0.13,0.421,0.001,0.815,0.275,1.109c0.898,0.948,1.793,1.867,2.357,3.16
	c-0.578,0.685-1.695,0.33-2.296,1.093c-0.718,0.93-1.657,0.091-2.504,0.116c-0.913,0.045-1.757-0.041-2.491-0.722
	c-0.676-0.61-1.272-1.253-1.66-2.069c-0.656,0-1.331,0.12-1.965,0c-0.817-0.122-1.702-0.267-2.068-1.216
	c-0.153-0.249-0.348-0.476-0.472-0.74c-0.481-1.002-1.254-1.424-2.377-1.341c-1.46,0.116-2.93,0.159-4.401,0.211
	c-1.493,1.257-2.991,2.522-4.5,3.785c-1.179,0.957-2.008,0.877-3.362-0.075c-1.695-1.187-3.672-1.819-5.67-2.286
	c-1.679,0.826-3.661,0.896-5.16,2.224c-0.592,0.515-1.313-0.264-2.001-0.189c-0.972,0.484-1.946,0.974-2.899,1.483
	c-0.39,0.2-0.768,0.156-1.094-0.116l-0.158,0.014l-0.159,0.014c-0.606,0.078-1.231,0.185-1.852,0.289
	c0.112,0.94-0.106,1.737-1.012,2.19c-1.016,0.515-1.897,1.344-3.14,1.347c-1.16,0.083-2.299-0.27-3.453-0.193
	c0.005,0.037,0.012,0.08,0.019,0.122c0.096,0.077,0.166,0.17,0.165,0.305c0,0-0.003,0.012,0.002,0.021
	c-0.036,0.002-0.075,0.003-0.111,0.005c0.144,0.791,0.412,1.935,0.679,2.515c0.236,2.815,0.541,5.853,0.251,8.695
	c0.15,0.873-0.269,1.602-0.906,2.157c-2.979,2.548-7.805,2.294-10.503-0.617c-0.384-0.412-0.395-0.849-0.267-1.368
	c-0.74-2.721-0.26-5.398,0.108-8.112c0.074-0.496,0.45-0.844,0.902-1.095c0.841-1.242,2.142-1.819,3.577-1.893
	c2.014-0.122,4.372-0.195,6.16-0.281c-0.022-0.12-0.04-0.23-0.056-0.33c-0.473-0.378-1.931-0.143-2.707-0.082
	c-0.876,0.029-1.834,0.279-2.641-0.263c-0.151-0.099-0.283-0.307-0.278-0.484c-0.01-0.121,0.145-0.36,0.277-0.384
	c1.652-0.339,3.319-0.387,4.995-0.345c1.094,0.029,2.174,0.15,3.227-0.15c1.344-1.164,2.692-2.298,3.559-3.889
	c0.229-0.382,0.667-0.368,1.041-0.124c0.404,0.167,0.813,0.151,1.217-0.07c0.129-0.512,0.383-0.937,0.97-0.965
	c1.683-0.054,3.008-0.895,4.259-1.907c-0.395-0.048-0.788-0.146-1.195-0.141c-9.974-0.152-19.967-0.301-29.946-0.403
	c-6.894-0.075-13.788-0.078-20.685-0.109c-0.27,0.094-0.461,0.015-0.597-0.253c-2.395-0.444-4.755,0.173-7.138,0.224
	c0.133,0.496,0.352,0.941,0.935,0.958c0.966,0.049,1.976-0.076,2.782,0.703c-0.13,0.714-1.031,0.426-1.264,0.961
	c-0.215,0.536-0.425,1.096-0.626,1.628c-0.637,1.464-2.053,1.999-3.238,2.818c0.296,0.22,0.597,0.476,0.938,0.678
	c0.636,0.41,1.06,0.885,0.691,1.683c-0.314,0.686-0.377,1.392,0.112,1.951c1.072,1.229,1.039,2.709,1.1,4.174
	c0.071,1.469-0.068,2.947,0.956,4.228c0.35,0.434-0.052,0.899-0.576,1.091c-0.25,2.155-1.923,2.999-3.607,3.561
	c-2.248,0.754-4.505,0.569-6.687-0.543c-1.283-0.672-1.879-1.59-1.825-3.054c-0.48-0.202,0.157-0.416,0.151-0.65l0.004-0.017
	c-0.007-2.078-0.468-4.126-0.062-6.226c0.385-2.025,1.32-3.12,3.267-3.65c1.171-0.305,2.298-0.497,3.473-0.7
	c1.067-0.192,1.206-0.593,0.662-1.579c-0.19-0.339-0.355-0.703-0.52-1.057c-0.034-0.533-0.28-0.954-0.692-1.247
	c-0.389-0.277-0.792-0.581-1.254-0.732c-0.593-0.203-1.221-0.474-1.086-1.135c0.255-1.276-1.652-2.492-0.116-3.772
	c-0.732-0.45-1.533-0.228-2.301-0.233c-1.478,0.009-2.962-0.006-4.452-0.011c-0.389,0.061-0.789,0.121-1.18,0.189
	c0.295,0.221,0.611,0.462,0.936,0.708c0.841,0.717,1.143,1.635,0.765,2.632c-0.088,0.232-0.336,0.533-0.588,0.584
	c-1.159,0.252-2.361,0.533-3.475-0.133c-2.669-1.592-5.641-1.879-8.597-2.271c-1.156-0.156-1.17-0.095-1.643-1.603
	c-1.886,0.02-3.76,0.089-5.633,0.042c-1.217-0.015-2.392,0.02-3.529,0.438c-0.094,0.266-0.132,0.702-0.307,0.772
	c-0.591,0.201-0.519-0.409-0.702-0.698c-5.482-0.122-10.964-0.276-16.458-0.346c-8.178-0.073-16.362-0.064-24.528-0.146
	c-3.01-0.041-5.985-0.213-8.987-0.318c-0.817,0.186-0.732-0.409-0.764-0.909c-0.482,0.053-0.995,0.005-1.445,0.162
	c-2.677,0.888-5.432,0.931-8.197,0.832c-2.383,0.403-4.778,0.195-7.162,0.181c-1.152,0.001-2.158,0.163-2.825,1.229
	c-0.078,0.106-0.412,0.17-0.554,0.126c-0.549-0.235-0.027-0.46,0.054-0.667c0.426-1.165,0.286-1.409-0.932-1.378
	c-3.799,0.17-7.581,0.327-11.385,0.529c-1.567,0.077-3.195-0.195-4.738,0.299c-0.032,0.195-0.103,0.358-0.202,0.519
	c0.022,0.29-0.12,0.419-0.408,0.404c-0.052,0.078-0.129,0.125-0.245,0.141c-0.638,1.362-1.881,1.978-3.15,2.546
	c-0.542,0.254-1.143,0.432-1.7,0.614c-3.198,1.038-3.167,1.031-4.081,4.053c-0.338,1.044-0.294,2.009,0.584,2.722
	c0.893,0.748,0.901,1.546,0.802,2.655c-0.152,1.562,0.111,3.171,0.233,4.764c0.071,0.991,0.349,1.981-0.24,2.918
	c-0.046,1.443-0.796,2.417-1.992,3.079c-2.961,1.563-6.186,1.637-8.935-0.492c-0.777-0.612-1.171-1.326-0.768-2.328
	c-0.976-1.339-0.683-2.836-0.43-4.281c0.218-1.472,0.329-2.972-0.132-4.402c-0.306-0.87-0.184-1.528,0.411-2.186
	c0.323-0.355,0.618-0.776,0.951-1.137c0.588-0.689,0.355-1.247-0.219-1.802c-0.099-0.08-0.061-0.348-0.057-0.679
	c2.405-0.06,4.65-0.787,6.73-2.004c0.072-0.052,0.168-0.113,0.283-0.11c2.104-0.009,3.455-1.232,4.607-2.818
	c0.783-1.052,1.866-1.428,3.132-1.445c0.126-0.078,0.268-0.125,0.418-0.143c0.295-0.887,1.08-1.094,1.868-1.288
	c0.005-0.188,0.111-0.34,0.226-0.483c-0.048-1.783,0.009-1.881,1.447-2.302c0.515-0.431,0.766-0.942,0.559-1.612
	c-0.433,0.062-0.857,0.124-1.294,0.193c-1.012,0.847-2.25,0.737-3.431,0.772c-0.256,0.024-0.475,0.049-0.718,0.094
	c-1.392,0.577-2.843,1.031-4.109,1.897l-0.046,0.075c-0.921,1.032-2.151,0.722-3.212,0.539c-1.065-0.172-2.121-0.283-3.184-0.227
	c-1.433,0.286-2.896,0.378-4.262,0.979c-0.168,1.342-1.131,2.286-1.774,3.388c-0.287,0.505-0.682,0.966-0.903,1.504
	c-0.707,1.801-0.675,1.772-2.397,1.847c-1.172,0.053-2.225-0.191-3.096-0.91c-1.036-0.874-2.128-1.325-3.535-1.238
	c-1.065,0.081-1.211-0.229-1.149-1.492c0.021-0.092,0.076-0.212,0.072-0.297c0.05-1.556-0.525-2.231-2.069-2.201
	c-2.377,0.083-4.776,0.227-7.16,0.349c-0.703,0.035-1.401,0.14-1.999-0.386c-2.58-0.07-5.168-0.193-7.762-0.198
	c-5.473-0.028-10.942,0.005-16.427,0.022c-2.171,0.254-4.34,0.27-6.534,0.116c-0.314,0.738-0.767,1.373-1.465,1.755
	c-0.218,0.124-0.59,0.16-0.816,0.061c-0.356-0.18-0.199-0.549,0.057-0.683c0.878-0.578,1.22-1.452,1.448-2.407
	c-1.504,0.352-3.015,0.594-4.593,0.529c-6.243,0.977-12.537,0.599-18.83,0.59c-1.765-0.003-3.544,0.137-5.3-0.51
	c-0.845-0.325-1.992-0.02-2.951,0.211c-1.378,0.348-2.762,0.317-4.152,0.308C81.946,7.495,38.461,7.495,0.333,7.505v7.842
	c0.75,0.484,1.587,0.599,2.501,0.52c1.485-0.103,3.794-0.209,5.248-0.718c1.588-0.551,3.926-0.942,5.756-1.345
	c0.005-0.146,0.009-0.292-0.007-0.445c0,0,0,0,0.01,0.002c0.016-0.017,0.016-0.017,0.02-0.03c0.367-0.103,0.68-0.289,0.973-0.505
	c0.27-0.931,0.637-1.609,1.588-2.043c0.248-0.111,0.254-0.222,0.362-0.096c0.361,0.387,0.012,0.75-0.308,0.906
	c-0.611,0.307-1.09,0.826-1.642,1.232c-0.047,0.16-0.091,0.326-0.134,0.501l0.807,0.014c-0.005,0.02-0.005,0.02,0,0.033
	c-0.459,0.149-1.034,0.29-1.667,0.429c-0.048,1.354-0.957,2.418-1.487,3.552c-0.477,0.995-1.47,1.736-2.254,2.585
	c0.202,0.561,0.463,1.115,0.515,1.697c0.147,1.387,0.238,2.771,0.647,4.128c0.186,0.638,0.149,1.374,0.101,2.071
	c-0.023,0.53-0.361,0.918-0.932,0.999c0.328,0.562,0.214,1.113-0.092,1.658C9.77,31.498,8.904,32.113,7.908,32.575z M1261.83,25.406
	c-0.017-0.391,0.297-0.809,0.227-1.169c-0.358-1.888,1.215-2.823,1.977-4.169c0.22-0.394,0.736-0.377,1.096-0.22
	c0.788,0.323,1.49,0.17,2.305-0.004c1.793-0.361,3.527,0.224,5.201,0.862c0.322,0.107,0.607,0.517,0.757,0.85
	c0.28,0.641,0.56,1.315,0.634,1.999c0.21,1.669,0.284,3.366,0.79,5.005c0.145,0.467,0.088,1.004-0.354,1.367
	c0.235,1.457-0.286,2.495-1.636,3.11c-0.432,1.392-1.879,1.581-2.859,1.755c-3.094,0.523-5.952-0.066-7.845-2.944
	C1261.017,29.748,1261.913,27.542,1261.83,25.406z M1239.902,25.037c-0.228-1.621,0.152-2.951,1.69-3.783
	c1.204-0.67,2.269-1.464,3.871-1.016c1.203,0.321,2.563,0.071,3.841,0.112c1.935,0.073,2.393,0.563,2.492,2.524
	c0.086,1.583-0.06,3.145,0.715,4.658c0.455,0.903-0.256,1.921-0.4,2.891c0.043,1.005-0.233,1.866-1.106,2.44
	c-1.283,2.065-3.401,2.058-5.445,2.143c-1.563,0.063-3.066-0.201-4.06-1.631c-0.194-0.018-0.388-0.026-0.577-0.068
	c-0.748-0.226-1.104-0.759-1.208-1.515c-0.212-1.692-0.079-3.326,0.36-4.978C1240.017,26.223,1239.989,25.627,1239.902,25.037z
	 M1037.19,24.301c0.031-2.805,1.092-3.932,3.929-4.791c0.583-0.18,1.125-0.399,1.694-0.553c0.398-0.125,0.774-0.208,0.987-0.583
	c0.251-0.419,0.27-0.979,0.856-1.14c0.824-0.193,1.552,0.23,2.281,0.488c0.257,0.083,0.538,0.364,0.599,0.598
	c0.554,1.979,1.909,3.713,1.684,5.939c-0.091,0.851,0.081,1.807,0.391,2.613c0.42,1.1,0.15,1.938-0.438,2.782
	c0.133,1.47-0.501,2.404-1.781,3.1c-3.65,1.998-6.435,1.729-9.361-0.596c-0.23-0.172-0.306-0.498-0.449-0.766
	C1036.946,29.071,1037.142,26.651,1037.19,24.301z M1014.292,23.651c-0.256-1.707,0.614-2.993,1.649-3.993
	c1.004-0.979,2.267-1.97,4.022-1.296c0.787,0.295,1.563-0.044,1.876-1.014c0.124-0.359,0.414-0.674,0.663-0.988
	c0.439-0.528,0.821-1.091,1.719-0.713c1.175,0.506,1.56,0.914,1.535,1.93c-0.016,0.312-0.008,0.623-0.14,0.867
	c-0.439,0.818-0.342,1.567,0.26,2.219c0.655,0.708,0.781,1.57,0.824,2.472c0.099,1.296,0.233,2.611,0.482,3.856
	c0.193,0.886-0.112,1.557-0.527,2.239l-0.088,0.051c-0.037,0.467-0.089,0.957-0.114,1.438c-0.028,0.184,0.012,0.44-0.103,0.578
	c-1.927,2.122-4.319,3.077-7.168,2.496c-2.177-0.45-4.216-1.214-5.009-3.63c-0.05-0.18-0.033-0.39-0.068-0.57
	C1014.295,27.607,1014.594,25.608,1014.292,23.651z M991.979,22.647c-0.029-1.326,0.667-2.181,2.087-2.497
	c1.042-0.231,2.046-0.78,3.174-0.762c0.731,0.014,1.306-0.275,1.93-0.659c1.014-0.633,1.932-0.49,2.609,0.391
	c1.111,1.479,2.579,2.836,2.15,4.988c0.721,2.046,0.322,4.057-0.204,6.057c0.16,0.502,0.2,1.056-0.184,1.393
	c-3.036,2.815-6.383,3.08-9.634,1.216c-1.208-0.685-2.334-1.615-2.187-3.284C991.945,27.202,992.035,24.931,991.979,22.647z
	 M957.408,12.611c0.83,0.499,1.589,1.149,2.367,1.737c0.095,0.094,0.105,0.411,0.023,0.524c-0.074,0.128-0.34,0.246-0.486,0.197
	c-0.462-0.141-0.947-0.287-1.352-0.557c-1.314-0.781-2.586-1.649-4.206-2.281C955.255,11.635,956.377,11.993,957.408,12.611z
	 M946.742,22.928c-0.215-1.703,0.646-2.895,1.913-3.764c1.726-1.137,3.677-1.958,5.298-3.286c0.401-0.333,0.968-0.283,1.434-0.158
	c0.666,0.198,1.321,0.451,1.968,0.71c0.329,0.156,0.841,0.173,0.833,0.695c-0.016,0.632-0.75,0.542-1.014,0.909
	c-0.015,0.187-0.094,0.431,0,0.537c1.25,1.529,1.754,3.27,1.714,5.236c-0.043,1.573,0.084,3.178,0.129,4.753
	c0.008,0.607-0.059,1.199-0.4,1.718c-0.037,0.241-0.042,0.483-0.06,0.724c0.032,0.364-0.151,0.538-0.474,0.574
	c-2.919,2.59-6.091,2.771-9.441,0.99c-0.884-0.472-1.726-1.063-1.596-2.307c-0.509-1.721-0.864-3.429-0.32-5.26
	C946.925,24.355,946.84,23.61,946.742,22.928z M901.626,26.114c0.208-1.132,0.014-2.39,0.01-3.569c-0.006-2,0.367-2.583,2.275-3.359
	c0.737-0.319,1.493-0.583,2.241-0.844c1.277-0.49,2.029-1.572,2.928-2.521c0.341-0.343,0.732-0.935,1.201-0.784
	c1.546,0.512,3.186-0.004,4.751,0.43c0.181,0.038,0.35,0.138,0.539,0.227c0.346,0.208,0.287,0.609,0.053,0.725
	c-2.128,0.93-2.383,2.668-2.094,4.659c0.138,1.163-0.122,2.437,0.927,3.338c0.125,0.111,0.192,0.447,0.111,0.547
	c-1.096,1.414-0.322,3.122-0.82,4.635c-0.037,0.182-0.196,0.337-0.303,0.518c0.178,0.88-0.28,1.543-0.908,2.069
	c-2.822,2.316-7.584,2.125-10.2-0.381c-0.421-0.401-0.794-0.869-0.782-1.542C901.354,28.873,901.324,27.533,901.626,26.114z
	 M856.854,15.916c0.157,0.034,0.317,0.066,0.489,0.1c0.016,0.029,0.018-0.597,0.043-0.596c0,0,0.017,0.004,0.028,0.002
	c0.149,0.003,0.265,0.754,0.415,1.25c0.355,0.001,0.702,0.006,1.029,0.104c2.155,0.694,4.126-0.019,5.999-0.91
	c0.734-0.355,1.43-0.622,2.226-0.673c0.797-0.046,1.595-0.096,2.32-0.469c0.64-0.346,1.333-0.394,2.03-0.21
	c0.373,0.089,0.877,0.267,1.154,0.11c1.582-0.838,3.117,0.098,4.701,0.071c0.997-0.04,1.928,0.488,2.655,1.185
	c0.877,0.839,1.896,1.03,3.03,0.931c1.485-0.103,3.794-0.209,5.248-0.718c1.588-0.551,3.926-0.942,5.756-1.345
	c0.005-0.146,0.009-0.292-0.007-0.445c0,0,0,0,0.01,0.002c0.016-0.017,0.016-0.017,0.02-0.03c0.367-0.103,0.68-0.289,0.973-0.505
	c0.27-0.931,0.637-1.609,1.588-2.043c0.248-0.111,0.254-0.222,0.362-0.096c0.361,0.387,0.012,0.75-0.308,0.906
	c-0.611,0.307-1.09,0.826-1.642,1.232c-0.046,0.16-0.091,0.326-0.134,0.501l0.807,0.014c-0.005,0.02-0.005,0.02,0,0.033
	c-0.459,0.149-1.034,0.29-1.667,0.429c-0.048,1.354-0.957,2.418-1.487,3.552c-0.477,0.995-1.47,1.736-2.254,2.585
	c0.202,0.561,0.463,1.115,0.515,1.697c0.148,1.387,0.238,2.771,0.648,4.128c0.185,0.638,0.149,1.374,0.101,2.071
	c-0.023,0.53-0.361,0.918-0.932,0.999c0.328,0.562,0.214,1.113-0.092,1.658c-0.567,1.004-1.432,1.619-2.429,2.081
	c-1.592,0.73-3.28,0.786-4.915,0.381c-1.63-0.386-3.251-0.957-3.999-2.699c-0.261-2.253-0.071-4.489-0.609-6.75
	c-0.344-1.516,0.337-3.106,1.866-4.059c-0.077-0.284-0.19-0.565-0.2-0.864c-0.082-1.525-0.911-2.645-2.337-2.768
	c-0.986-0.054-1.963-0.237-2.856-0.671c-1.423-0.676-2.964,0.006-4.421-0.404c-0.45-0.105-0.651,0.334-0.851,0.672
	c-0.489,0.78-0.344,1.996-1.61,2.332c-0.338,0.091-0.341,0.619-0.19,1.045c0.248,0.745,0.471,1.51,0.705,2.275
	c0.131,0.377,0.343,0.755,0.328,1.12c-0.094,1.886,0.023,3.73,0.38,5.577c0.088,0.381-0.356,0.876-0.548,1.329
	c-0.191,1.664-1.231,2.639-2.684,3.281c-3.07,1.368-5.971,1.293-8.638-0.96c-0.389-0.343-0.594-0.768-0.637-1.278
	c-0.631-0.795-0.976-1.527-0.779-2.679c0.361-2.014,0.409-4.103,0.493-6.148c0.03-1.182,0.317-2.042,1.369-2.747
	c0.937-0.647,0.85-1.453,0.074-2.465c-0.058-0.073-0.11-0.208-0.159-0.369c-0.143-0.001-0.287-0.001-0.432-0.006
	c0.004-0.012-0.003-0.061-0.003-0.061c-0.018-0.015-0.034-0.089-0.071-0.105C857.127,16.255,856.986,16.069,856.854,15.916
	c-0.563-0.123-1.041-0.286-1.481-0.785C856.259,15.376,856.526,15.535,856.854,15.916z M833.259,24.993
	c0.39-1.189,0.771-2.407,1.154-3.595c-0.432-0.134-0.681-0.438-0.529-0.88c0.234-0.651,0.579-1.263,1.244-1.603
	c0.912-0.428,1.768-0.951,2.69-1.27c2.382-0.849,3.263-3.009,4.296-4.996c0.262-0.484-0.131-1.308-0.205-1.979
	c0.555-0.546,1.309-0.43,1.982-0.506c1.252-0.131,1.334,0.001,1.182,1.497c-0.073,0.684-0.15,1.405-0.024,2.058
	c0.193,1.058,0.542,2.064,0.241,3.177c-0.113,0.391,0.239,0.922,0.409,1.386c0.268,0.74,0.614,1.458,0.82,2.218
	c0.174,0.61,0.046,1.182-0.675,1.432c0.113,0.392,0.348,0.779,0.302,1.139c-0.232,1.826-0.033,3.549,0.62,5.258
	c0.228,0.606-0.139,1.13-0.41,1.654c-0.193,2.086-1.829,2.933-3.386,3.746c-2.485,1.262-6.306,0.576-8.24-1.375
	c-0.666-0.649-1.105-1.375-1.152-2.315c0.017-1.223,0.647-2.469-0.288-3.646C832.981,25.999,833.099,25.472,833.259,24.993z
	 M811.24,24.897c0.117-0.688,0.112-1.387,0.103-2.096c-0.001-0.69,0.081-1.348,0.324-2.033c0.346-0.969,0.657-1.728,1.886-1.948
	c1.246-0.234,2.485-0.73,3.314-1.854c0.561-0.739,1.416-0.698,2.213-0.74c1.362-0.107,2.772,0.137,4.132-0.465
	c0.594-0.26,1.229,0.471,0.893,1.072c-0.903,1.672-1.311,3.296-0.338,5.056c-0.253,2.6,0.34,5.148,0.429,7.718
	c0.013,0.231-0.303,0.47-0.52,0.691c0.075,1.192-0.46,2.062-1.453,2.732c-2.698,1.862-5.576,1.937-8.495,0.64
	c-1.108-0.496-1.875-1.443-2.348-2.602C810.797,29.034,810.919,26.972,811.24,24.897z M774.582,15.826
	c0.417-0.061,0.795-0.547,1.237-0.77c0.115-0.082,0.403,0.019,0.52,0.128c0.116,0.103,0.223,0.37,0.173,0.504
	c-0.199,0.681-0.441,1.315-0.695,1.973c-0.128,0.388-0.17,0.761,0.205,1.075c0.073,0.07,0.172,0.111,0.22,0.186
	c1.377,1.605,2.393,3.316,2.198,5.581c-0.093,0.759,0.335,1.563,0.458,2.316c0.158,0.783,0.394,1.593-0.226,2.292
	c-0.066,0.802-0.018,1.614-0.593,2.286c-0.585,2.461-2.681,2.931-4.691,3.265c-2.361,0.397-4.424-0.54-6.159-2.155
	c-0.345,0-0.537-0.15-0.582-0.511c-0.055-0.21-0.131-0.403-0.189-0.626c-0.129-0.251-0.447-0.557-0.363-0.749
	c0.535-1.906,0.332-3.844,0.165-5.796c-0.079-0.885-0.017-1.718,0.439-2.521c0.272-1.925,0.272-1.925,1.892-2.8
	c-0.56-0.959-1.306-1.648-2.58-1.707C769.066,17.721,771.696,16.208,774.582,15.826z M749.414,14.6
	c0.165-0.405,0.09-0.993,0.776-1.004c0.074,0.002,0.164,0.058,0.213,0.128c0.061,0.051,0.093,0.141,0.18,0.296
	c-0.183,0.282-0.324,0.623-0.556,0.924c-0.102,0.101-0.349,0.19-0.474,0.138C749.315,15.042,749.335,14.819,749.414,14.6z
	 M743.949,23.433c0.199-1.288,0.927-2.153,2.044-2.755c0.874-0.47,1.749-0.974,2.634-1.449c0.544-0.296,1.27-0.513,1.732-0.203
	c1.289,0.841,2.633,0.446,3.977,0.428c1.064-0.014,2.127,0.342,3.413,0.559c-1.276,0.299-1.585,0.907-1.593,2.071
	c-0.045,2.011-0.118,3.991,0.414,5.925c0.294,1.083,0.054,1.973-0.573,2.808c0.21,0.481,0.284,0.969-0.07,1.412
	c-2.346,2.927-7.157,3.593-10.273,1.478c-1.127-0.761-1.612-1.738-1.249-3.069c-0.123-0.146-0.302-0.293-0.362-0.462
	C743.764,29.2,743.791,24.336,743.949,23.433z M727.128,11.812c0.664,0.23,1.295,0.419,2.013,0.131
	c0.423-0.184,1.045-0.456,1.237,0.151c0.097,0.391-0.139,0.968-0.381,1.385c-0.526,0.978-1.365,1.177-2.19,0.47
	c-0.773-0.671-1.726-1.217-2.176-2.198C726.264,11.226,726.692,11.668,727.128,11.812z M721.877,22.741
	c0.013-0.424,0.477-0.827,0.756-1.259c-0.163-0.892-0.16-0.904,0.795-0.803c0.098-0.176,0.222-0.303,0.403-0.427
	c-0.687-0.699-1.237-1.478-1.491-2.653c1.755-0.369,3.356-0.763,4.975-1.002c0.804-0.125,1.574-0.213,2.299-0.553
	c0.234-0.092,0.768-0.03,0.803,0.083c0.248,0.657-0.366,0.493-0.68,0.611c-0.259,0.108-0.622,0.064-0.795,0.571
	c0.616,0.615,1.429,1.11,2.269,1.578c1.052,0.552,1.98,1.349,2.612,2.365c0.247,0.388-0.122,0.68-0.575,0.764
	c0.612,2.283,0.986,5.924,0.809,7.306c-0.072,0.723-0.364,1.337-0.692,1.952c-0.03,0.376,0.065,0.85-0.127,1.128
	c-2.078,2.939-7.968,3.65-10.779,0.549c-0.335-0.386-0.451-0.857-0.446-1.35c-0.137-0.375-0.434-0.751-0.44-1.11
	C721.635,27.899,721.703,25.333,721.877,22.741z M698.9,25.867c0.334-1.399,0.29-2.91,0.808-4.309
	c0.107-0.261,0.131-0.584,0.103-0.841c-0.083-0.53-1.175-0.784-0.557-1.432c0.614-0.635,1.444-1.047,2.408-0.879
	c0.045-0.175,0.075-0.39,0.182-0.503c0.194-0.175,0.459-0.266,0.685-0.377c0.072,0.158,0.189,0.329,0.23,0.504
	c0.041,0.26,0.045,0.542,0.077,0.819c0.432,0.068,0.883,0.126,1.31,0.192c0.17-0.76,0.658-0.895,1.305-0.695
	c0.471,0.152,0.805,0.534,0.991,0.981c1.014-0.228,1.922-0.025,2.854,0.408c0.766,0.38,1.301,0.844,1.409,1.729
	c0.131,1.249,0.701,2.429,0.352,3.78c-0.29,1.136,0.086,2.314,0.604,3.406c0.162,1.113-0.158,2.115-0.835,3.02
	c-0.058,0.527-0.169,1.027-0.682,1.322c-0.033,0.295-0.236,0.467-0.545,0.487c-1.61,1.406-3.497,1.771-5.579,1.569
	c-0.856-0.082-1.499-0.43-1.972-1.117c-0.945,0.074-1.697-0.402-2.352-0.906c-0.612-0.492-1.099-1.142-0.44-1.972
	c-0.052-0.201-0.082-0.391-0.09-0.595C699.109,28.931,698.485,27.513,698.9,25.867z M675.888,23.433
	c0.199-1.288,0.927-2.153,2.044-2.755c0.874-0.47,1.749-0.974,2.634-1.449c0.544-0.296,1.27-0.513,1.732-0.203
	c1.289,0.841,2.633,0.446,3.977,0.428c1.064-0.014,2.127,0.342,3.413,0.559c-1.276,0.299-1.585,0.907-1.593,2.071
	c-0.045,2.011-0.118,3.991,0.414,5.925c0.294,1.083,0.054,1.973-0.573,2.808c0.21,0.481,0.284,0.969-0.07,1.412
	c-2.346,2.927-7.157,3.593-10.273,1.478c-1.127-0.761-1.612-1.738-1.249-3.069c-0.123-0.146-0.302-0.293-0.362-0.462
	C675.703,29.2,675.73,24.336,675.888,23.433z M653.816,22.741c0.013-0.424,0.477-0.827,0.756-1.259
	c-0.163-0.892-0.16-0.904,0.795-0.803c0.098-0.176,0.222-0.303,0.403-0.427c-0.687-0.699-1.237-1.478-1.491-2.653
	c1.755-0.369,3.356-0.763,4.975-1.002c0.804-0.125,1.574-0.213,2.299-0.553c0.234-0.092,0.768-0.03,0.803,0.083
	c0.248,0.657-0.366,0.493-0.68,0.611c-0.259,0.108-0.622,0.064-0.795,0.571c0.616,0.615,1.429,1.11,2.269,1.578
	c1.052,0.552,1.981,1.349,2.612,2.365c0.247,0.388-0.122,0.68-0.575,0.764c0.612,2.283,0.986,5.924,0.809,7.306
	c-0.072,0.723-0.364,1.337-0.692,1.952c-0.03,0.376,0.066,0.85-0.127,1.128c-2.078,2.939-7.968,3.65-10.779,0.549
	c-0.335-0.386-0.451-0.857-0.446-1.35c-0.137-0.375-0.434-0.751-0.44-1.11C653.575,27.899,653.642,25.333,653.816,22.741z
	 M630.839,25.867c0.334-1.399,0.29-2.91,0.808-4.309c0.107-0.261,0.131-0.584,0.103-0.841c-0.083-0.53-1.175-0.784-0.557-1.432
	c0.614-0.635,1.444-1.047,2.408-0.879c0.045-0.175,0.075-0.39,0.182-0.503c0.194-0.175,0.459-0.266,0.685-0.377
	c0.072,0.158,0.189,0.329,0.23,0.504c0.041,0.26,0.045,0.542,0.077,0.819c0.432,0.068,0.883,0.126,1.31,0.192
	c0.17-0.76,0.658-0.895,1.305-0.695c0.471,0.152,0.805,0.534,0.991,0.981c1.014-0.228,1.922-0.025,2.854,0.408
	c0.766,0.38,1.301,0.844,1.409,1.729c0.131,1.249,0.701,2.429,0.352,3.78c-0.29,1.136,0.086,2.314,0.604,3.406
	c0.162,1.113-0.158,2.115-0.835,3.02c-0.058,0.527-0.169,1.027-0.682,1.322c-0.033,0.295-0.236,0.467-0.545,0.487
	c-1.61,1.406-3.497,1.771-5.579,1.569c-0.856-0.082-1.499-0.43-1.972-1.117c-0.945,0.074-1.697-0.402-2.352-0.906
	c-0.612-0.492-1.099-1.142-0.44-1.972c-0.052-0.201-0.082-0.391-0.09-0.595C631.048,28.931,630.424,27.513,630.839,25.867z
	 M589.444,15.969c0.157,0.034,0.317,0.066,0.489,0.1c0.016,0.029,0.018-0.597,0.043-0.596c0,0,0.017,0.004,0.028,0.002
	c0.149,0.003,0.265,0.754,0.415,1.25c0.355,0.001,0.702,0.006,1.029,0.104c2.155,0.694,4.126-0.019,5.999-0.91
	c0.734-0.355,1.43-0.622,2.226-0.673c0.797-0.046,1.595-0.096,2.32-0.469c0.64-0.346,1.333-0.394,2.03-0.21
	c0.373,0.089,0.877,0.267,1.154,0.11c1.582-0.838,3.117,0.098,4.701,0.071c0.997-0.04,1.928,0.488,2.655,1.185
	c0.877,0.839,1.896,1.03,3.03,0.931c1.485-0.103,3.794-0.209,5.248-0.718c1.588-0.551,3.926-0.942,5.756-1.345
	c0.005-0.146,0.009-0.292-0.007-0.445c0,0,0,0,0.01,0.002c0.016-0.017,0.016-0.017,0.02-0.03c0.367-0.103,0.68-0.289,0.973-0.505
	c0.27-0.931,0.637-1.609,1.588-2.043c0.248-0.111,0.254-0.222,0.362-0.096c0.361,0.387,0.012,0.75-0.308,0.906
	c-0.611,0.307-1.09,0.826-1.642,1.232c-0.046,0.16-0.091,0.326-0.134,0.501l0.807,0.014c-0.005,0.02-0.005,0.02,0,0.033
	c-0.459,0.149-1.034,0.29-1.667,0.429c-0.048,1.354-0.957,2.418-1.487,3.552c-0.477,0.995-1.47,1.736-2.254,2.585
	c0.202,0.561,0.463,1.115,0.515,1.697c0.148,1.387,0.238,2.771,0.648,4.128c0.185,0.638,0.149,1.374,0.101,2.071
	c-0.023,0.53-0.361,0.918-0.932,0.999c0.328,0.562,0.214,1.113-0.093,1.658c-0.567,1.004-1.432,1.619-2.429,2.081
	c-1.592,0.73-3.28,0.786-4.915,0.381c-1.63-0.386-3.251-0.957-3.999-2.699c-0.261-2.253-0.071-4.489-0.609-6.75
	c-0.344-1.516,0.337-3.106,1.866-4.059c-0.077-0.284-0.19-0.565-0.2-0.864c-0.082-1.525-0.911-2.645-2.337-2.768
	c-0.986-0.054-1.963-0.237-2.855-0.671c-1.423-0.676-2.964,0.006-4.421-0.404c-0.45-0.105-0.651,0.334-0.851,0.672
	c-0.489,0.78-0.344,1.996-1.61,2.332c-0.338,0.091-0.341,0.619-0.19,1.045c0.248,0.745,0.471,1.51,0.705,2.275
	c0.131,0.377,0.343,0.755,0.328,1.12c-0.094,1.886,0.023,3.73,0.38,5.577c0.088,0.381-0.356,0.876-0.548,1.329
	c-0.191,1.664-1.231,2.639-2.684,3.281c-3.07,1.368-5.971,1.293-8.638-0.96c-0.389-0.343-0.594-0.768-0.637-1.278
	c-0.631-0.795-0.976-1.527-0.779-2.679c0.361-2.014,0.409-4.103,0.493-6.148c0.03-1.182,0.317-2.042,1.369-2.747
	c0.937-0.647,0.85-1.453,0.075-2.465c-0.058-0.073-0.11-0.208-0.159-0.369c-0.143-0.001-0.287-0.001-0.432-0.006
	c0.004-0.012-0.003-0.061-0.003-0.061c-0.018-0.015-0.034-0.089-0.071-0.105C589.717,16.308,589.576,16.122,589.444,15.969
	c-0.563-0.123-1.041-0.286-1.481-0.785C588.849,15.429,589.116,15.588,589.444,15.969z M565.85,25.046
	c0.39-1.189,0.771-2.407,1.154-3.595c-0.432-0.134-0.681-0.438-0.529-0.88c0.234-0.651,0.579-1.263,1.244-1.603
	c0.912-0.428,1.768-0.951,2.69-1.27c2.382-0.849,3.263-3.009,4.296-4.996c0.262-0.484-0.131-1.308-0.205-1.979
	c0.556-0.546,1.309-0.43,1.982-0.506c1.252-0.131,1.334,0.001,1.182,1.497c-0.073,0.684-0.15,1.405-0.024,2.058
	c0.193,1.058,0.542,2.064,0.241,3.177c-0.113,0.391,0.239,0.922,0.409,1.386c0.268,0.74,0.614,1.458,0.82,2.218
	c0.174,0.61,0.046,1.182-0.675,1.432c0.113,0.392,0.348,0.779,0.302,1.139c-0.232,1.826-0.033,3.549,0.62,5.258
	c0.228,0.606-0.14,1.13-0.41,1.654c-0.193,2.086-1.829,2.933-3.386,3.746c-2.485,1.262-6.306,0.576-8.24-1.375
	c-0.666-0.649-1.105-1.375-1.152-2.315c0.017-1.223,0.647-2.469-0.288-3.646C565.571,26.052,565.689,25.525,565.85,25.046z
	 M551.207,17.287c1.08-0.785,2.236-0.83,3.38-0.759c1.907,0.123,3.727,0.056,5.519-0.681c0.272-0.125,0.617-0.076,0.74,0.208
	c0.09,0.233,0.069,0.596-0.059,0.823c-0.369,0.715-0.958,1.22-1.736,1.512c-0.996,0.378-2.13,0.548-2.833,1.503
	c1.129,0.366,2.301,0.4,3.469,0.445c1.522,0.092,2.079,0.692,2.219,2.198c0.176,1.555,0.097,3.114,0.165,4.676
	c0.078,1.433,0.541,2.881,0.251,4.361c-0.016,0.187,0.062,0.468-0.034,0.559c-1.247,1.205-2.427,2.547-4.343,2.65
	c-1.423,0.344-2.858,0.225-4.278,0.105c-0.91-0.389-1.862-0.671-2.661-1.204c-0.97-0.645-1.891-1.459-1.414-2.873
	c-0.398-2.839,0.174-5.604,0.702-8.364C548.482,19.869,548.113,19.518,551.207,17.287z M527.569,30.308l0.012-0.039
	c-0.041-1.967-0.35-3.916,0.072-5.892c0.313-1.536,1.085-2.315,2.569-2.866c2.378-0.862,4.631-0.86,6.938-0.001
	c1.293,0.478,2.281,1.177,2.224,2.774c-0.03,0.583,0.019,1.189,0.032,1.774c0.375,0.875,0.724,1.719,0.256,2.745
	c-0.478,1.018,0.15,2.293-0.627,3.288c-0.08,1.611-1.413,2.004-2.522,2.601c-1.563,0.831-3.33,1.066-4.852,0.495
	c-1.568-0.605-3.46-1.144-4.046-3.143c-0.156-0.093-0.195-0.22-0.153-0.368c-0.213-0.055-0.426-0.098-0.638-0.133v-0.886
	c-0.313,0.055-0.623,0.129-0.93,0.233c-0.096,0.192-0.21,0.369-0.339,0.531c-0.167-0.006-0.335-0.011-0.502-0.013
	c-0.038-0.383-0.078-0.795-0.119-1.198C525.803,30.365,526.673,30.476,527.569,30.308z M424.46,23.301
	c0.031-2.805,1.092-3.932,3.929-4.791c0.583-0.18,1.125-0.399,1.694-0.553c0.398-0.125,0.774-0.208,0.987-0.583
	c0.251-0.419,0.27-0.979,0.857-1.14c0.824-0.193,1.552,0.23,2.281,0.488c0.257,0.083,0.538,0.364,0.599,0.598
	c0.554,1.979,1.909,3.713,1.684,5.939c-0.091,0.851,0.081,1.807,0.391,2.613c0.42,1.1,0.15,1.938-0.438,2.782
	c0.133,1.47-0.501,2.404-1.781,3.1c-3.65,1.998-6.435,1.729-9.361-0.596c-0.229-0.172-0.306-0.498-0.449-0.766
	C424.216,28.071,424.412,25.651,424.46,23.301z M401.562,22.651c-0.256-1.707,0.614-2.993,1.649-3.993
	c1.004-0.979,2.267-1.97,4.022-1.296c0.787,0.295,1.563-0.044,1.876-1.014c0.124-0.359,0.414-0.674,0.663-0.988
	c0.439-0.528,0.821-1.091,1.719-0.713c1.175,0.506,1.56,0.914,1.535,1.93c-0.016,0.312-0.008,0.623-0.14,0.867
	c-0.439,0.818-0.342,1.567,0.26,2.219c0.655,0.708,0.781,1.57,0.824,2.472c0.099,1.296,0.233,2.611,0.482,3.856
	c0.193,0.886-0.112,1.557-0.527,2.239l-0.088,0.051c-0.037,0.467-0.089,0.957-0.114,1.438c-0.028,0.184,0.012,0.44-0.103,0.578
	c-1.927,2.122-4.319,3.077-7.168,2.496c-2.177-0.45-4.215-1.214-5.009-3.63c-0.05-0.18-0.033-0.39-0.068-0.57
	C401.565,26.607,401.864,24.608,401.562,22.651z M379.248,21.647c-0.029-1.326,0.667-2.181,2.087-2.497
	c1.042-0.231,2.046-0.78,3.174-0.762c0.731,0.014,1.306-0.275,1.93-0.659c1.014-0.633,1.932-0.49,2.609,0.391
	c1.111,1.479,2.579,2.836,2.15,4.988c0.721,2.046,0.322,4.057-0.204,6.057c0.16,0.502,0.2,1.056-0.184,1.393
	c-3.036,2.815-6.383,3.08-9.634,1.216c-1.208-0.685-2.334-1.615-2.186-3.284C379.215,26.202,379.305,23.931,379.248,21.647z
	 M344.678,11.611c0.83,0.499,1.589,1.149,2.367,1.737c0.095,0.094,0.105,0.411,0.023,0.524c-0.074,0.128-0.34,0.246-0.486,0.197
	c-0.462-0.141-0.947-0.287-1.352-0.557c-1.314-0.781-2.586-1.649-4.206-2.281C342.525,10.635,343.647,10.993,344.678,11.611z
	 M334.012,21.928c-0.215-1.703,0.646-2.895,1.913-3.764c1.726-1.137,3.677-1.958,5.298-3.286c0.401-0.333,0.968-0.283,1.433-0.158
	c0.666,0.198,1.321,0.451,1.968,0.71c0.328,0.156,0.841,0.173,0.833,0.695c-0.016,0.632-0.75,0.542-1.014,0.909
	c-0.015,0.187-0.094,0.431,0,0.537c1.25,1.529,1.754,3.27,1.714,5.236c-0.042,1.573,0.084,3.178,0.129,4.753
	c0.008,0.607-0.059,1.199-0.4,1.718c-0.037,0.241-0.042,0.483-0.06,0.724c0.032,0.364-0.151,0.538-0.474,0.574
	c-2.919,2.59-6.091,2.771-9.441,0.99c-0.884-0.472-1.726-1.063-1.596-2.307c-0.509-1.721-0.864-3.429-0.32-5.26
	C334.195,23.355,334.11,22.61,334.012,21.928z M288.896,25.114c0.208-1.132,0.014-2.39,0.01-3.569c-0.006-2,0.367-2.583,2.275-3.359
	c0.738-0.319,1.493-0.583,2.241-0.844c1.277-0.49,2.03-1.572,2.929-2.521c0.341-0.343,0.732-0.935,1.201-0.784
	c1.546,0.512,3.186-0.004,4.75,0.43c0.181,0.038,0.35,0.138,0.539,0.227c0.346,0.208,0.287,0.609,0.053,0.725
	c-2.128,0.93-2.383,2.668-2.094,4.659c0.138,1.163-0.122,2.437,0.927,3.338c0.125,0.111,0.192,0.447,0.111,0.547
	c-1.096,1.414-0.322,3.122-0.82,4.635c-0.036,0.182-0.196,0.337-0.303,0.518c0.178,0.88-0.28,1.543-0.908,2.069
	c-2.822,2.316-7.584,2.125-10.2-0.381c-0.421-0.401-0.794-0.869-0.782-1.542C288.624,27.873,288.594,26.533,288.896,25.114z
	 M244.124,14.916c0.157,0.034,0.317,0.066,0.489,0.1c0.016,0.029,0.019-0.597,0.043-0.596c0,0,0.016,0.004,0.028,0.002
	c0.149,0.003,0.266,0.754,0.415,1.25c0.355,0.001,0.702,0.006,1.029,0.104c2.155,0.694,4.126-0.019,5.999-0.91
	c0.734-0.355,1.429-0.622,2.226-0.673c0.797-0.046,1.595-0.096,2.321-0.469c0.64-0.346,1.333-0.394,2.03-0.21
	c0.374,0.089,0.877,0.267,1.154,0.11c1.582-0.838,3.117,0.098,4.701,0.071c0.997-0.04,1.928,0.488,2.655,1.185
	c0.877,0.839,1.896,1.03,3.03,0.931c1.485-0.103,3.794-0.209,5.248-0.718c1.588-0.551,3.926-0.942,5.756-1.345
	c0.005-0.146,0.009-0.292-0.007-0.445c0,0,0,0,0.01,0.002c0.016-0.017,0.016-0.017,0.02-0.03c0.367-0.103,0.68-0.289,0.973-0.505
	c0.27-0.931,0.637-1.609,1.588-2.043c0.248-0.111,0.254-0.222,0.362-0.096c0.361,0.387,0.012,0.75-0.308,0.906
	c-0.611,0.307-1.089,0.826-1.642,1.232c-0.046,0.16-0.091,0.326-0.134,0.501l0.807,0.014c-0.005,0.02-0.005,0.02,0,0.033
	c-0.459,0.149-1.034,0.29-1.667,0.429c-0.048,1.354-0.957,2.418-1.487,3.552c-0.477,0.995-1.47,1.736-2.255,2.585
	c0.202,0.561,0.463,1.115,0.515,1.697c0.147,1.387,0.238,2.771,0.647,4.128c0.186,0.638,0.149,1.374,0.101,2.071
	c-0.023,0.53-0.361,0.918-0.932,0.999c0.328,0.562,0.214,1.113-0.093,1.658c-0.567,1.004-1.432,1.619-2.429,2.081
	c-1.592,0.73-3.28,0.786-4.915,0.381c-1.63-0.386-3.251-0.957-3.999-2.699c-0.261-2.253-0.071-4.489-0.609-6.75
	c-0.345-1.516,0.337-3.106,1.865-4.059c-0.077-0.284-0.19-0.565-0.2-0.864c-0.082-1.525-0.911-2.645-2.337-2.768
	c-0.986-0.054-1.963-0.237-2.855-0.671c-1.423-0.676-2.964,0.006-4.421-0.404c-0.45-0.105-0.652,0.334-0.851,0.672
	c-0.489,0.78-0.344,1.996-1.61,2.332c-0.339,0.091-0.341,0.619-0.19,1.045c0.248,0.745,0.47,1.51,0.705,2.275
	c0.131,0.377,0.343,0.755,0.328,1.12c-0.094,1.886,0.023,3.73,0.38,5.577c0.088,0.381-0.356,0.876-0.548,1.329
	c-0.191,1.664-1.231,2.639-2.684,3.281c-3.07,1.368-5.971,1.293-8.637-0.96c-0.389-0.343-0.594-0.768-0.637-1.278
	c-0.631-0.795-0.976-1.527-0.779-2.679c0.361-2.014,0.409-4.103,0.493-6.148c0.03-1.182,0.317-2.042,1.369-2.747
	c0.937-0.647,0.85-1.453,0.074-2.465c-0.058-0.073-0.11-0.208-0.159-0.369c-0.143-0.001-0.287-0.001-0.432-0.006
	c0.004-0.012-0.003-0.061-0.003-0.061c-0.018-0.015-0.034-0.089-0.071-0.105C244.397,15.255,244.256,15.069,244.124,14.916
	c-0.563-0.123-1.041-0.286-1.481-0.785C243.529,14.376,243.796,14.535,244.124,14.916z M220.529,23.993
	c0.39-1.189,0.771-2.407,1.153-3.595c-0.432-0.134-0.681-0.438-0.529-0.88c0.234-0.651,0.579-1.263,1.244-1.603
	c0.912-0.428,1.768-0.951,2.69-1.27c2.382-0.849,3.263-3.009,4.295-4.996c0.262-0.484-0.131-1.308-0.204-1.979
	c0.555-0.546,1.309-0.43,1.982-0.506c1.252-0.131,1.334,0.001,1.182,1.497c-0.073,0.684-0.15,1.405-0.024,2.058
	c0.193,1.058,0.542,2.064,0.241,3.177c-0.113,0.391,0.239,0.922,0.408,1.386c0.268,0.74,0.614,1.458,0.821,2.218
	c0.174,0.61,0.046,1.182-0.675,1.432c0.113,0.392,0.348,0.779,0.302,1.139c-0.233,1.826-0.034,3.549,0.62,5.258
	c0.228,0.606-0.14,1.13-0.41,1.654c-0.193,2.086-1.829,2.933-3.386,3.746c-2.485,1.262-6.306,0.576-8.24-1.375
	c-0.665-0.649-1.105-1.375-1.152-2.315c0.017-1.223,0.647-2.469-0.288-3.646C220.251,24.999,220.369,24.472,220.529,23.993z
	 M198.51,23.897c0.117-0.688,0.112-1.387,0.103-2.096c-0.001-0.69,0.081-1.348,0.324-2.033c0.346-0.969,0.657-1.728,1.886-1.948
	c1.246-0.234,2.485-0.73,3.314-1.854c0.561-0.739,1.416-0.698,2.214-0.74c1.362-0.107,2.772,0.137,4.132-0.465
	c0.594-0.26,1.229,0.471,0.893,1.072c-0.903,1.672-1.311,3.296-0.338,5.056c-0.253,2.6,0.34,5.148,0.429,7.718
	c0.013,0.231-0.303,0.47-0.52,0.691c0.075,1.192-0.46,2.062-1.453,2.732c-2.698,1.862-5.576,1.937-8.496,0.64
	c-1.108-0.496-1.875-1.443-2.348-2.602C198.066,28.034,198.189,25.972,198.51,23.897z M161.852,14.826
	c0.417-0.061,0.795-0.547,1.237-0.77c0.116-0.082,0.403,0.019,0.52,0.128c0.116,0.103,0.223,0.37,0.173,0.504
	c-0.199,0.681-0.441,1.315-0.695,1.973c-0.128,0.388-0.17,0.761,0.205,1.075c0.073,0.07,0.172,0.111,0.219,0.186
	c1.377,1.605,2.394,3.316,2.198,5.581c-0.093,0.759,0.335,1.563,0.458,2.316c0.158,0.783,0.395,1.593-0.226,2.292
	c-0.066,0.802-0.018,1.614-0.594,2.286c-0.585,2.461-2.681,2.931-4.691,3.265c-2.361,0.397-4.425-0.54-6.159-2.155
	c-0.345,0-0.537-0.15-0.582-0.511c-0.055-0.21-0.131-0.403-0.189-0.626c-0.129-0.251-0.447-0.557-0.363-0.749
	c0.535-1.906,0.331-3.844,0.165-5.796c-0.079-0.885-0.017-1.718,0.439-2.521c0.272-1.925,0.272-1.925,1.892-2.8
	c-0.56-0.959-1.306-1.648-2.58-1.707C156.336,16.721,158.966,15.208,161.852,14.826z M136.684,13.6
	c0.166-0.405,0.09-0.993,0.776-1.004c0.074,0.002,0.164,0.058,0.213,0.128c0.061,0.051,0.093,0.141,0.18,0.296
	c-0.183,0.282-0.324,0.623-0.556,0.924c-0.102,0.101-0.349,0.19-0.474,0.138C136.585,14.042,136.605,13.819,136.684,13.6z
	 M131.219,22.433c0.199-1.288,0.927-2.153,2.044-2.755c0.874-0.47,1.749-0.974,2.634-1.449c0.544-0.296,1.27-0.513,1.732-0.203
	c1.289,0.841,2.634,0.446,3.977,0.428c1.064-0.014,2.127,0.342,3.413,0.559c-1.276,0.299-1.585,0.907-1.593,2.071
	c-0.045,2.011-0.118,3.991,0.415,5.925c0.294,1.083,0.054,1.973-0.573,2.808c0.21,0.481,0.284,0.969-0.07,1.412
	c-2.346,2.927-7.157,3.593-10.273,1.478c-1.126-0.761-1.612-1.738-1.249-3.069c-0.123-0.146-0.302-0.293-0.362-0.462
	C131.034,28.2,131.061,23.336,131.219,22.433z M114.398,10.812c0.664,0.23,1.295,0.419,2.013,0.131
	c0.423-0.184,1.045-0.456,1.237,0.151c0.097,0.391-0.139,0.968-0.381,1.385c-0.526,0.978-1.365,1.177-2.19,0.47
	c-0.773-0.671-1.726-1.217-2.176-2.198C113.534,10.226,113.962,10.668,114.398,10.812z M109.147,21.741
	c0.013-0.424,0.477-0.827,0.756-1.259c-0.163-0.892-0.16-0.904,0.795-0.803c0.098-0.176,0.222-0.303,0.403-0.427
	c-0.687-0.699-1.237-1.478-1.491-2.653c1.755-0.369,3.356-0.763,4.975-1.002c0.804-0.125,1.574-0.213,2.299-0.553
	c0.234-0.092,0.768-0.03,0.802,0.083c0.248,0.657-0.366,0.493-0.679,0.611c-0.259,0.108-0.622,0.064-0.795,0.571
	c0.616,0.615,1.429,1.11,2.269,1.578c1.052,0.552,1.981,1.349,2.612,2.365c0.247,0.388-0.122,0.68-0.575,0.764
	c0.612,2.283,0.986,5.924,0.809,7.306c-0.072,0.723-0.364,1.337-0.692,1.952c-0.03,0.376,0.066,0.85-0.127,1.128
	c-2.078,2.939-7.968,3.65-10.778,0.549c-0.335-0.386-0.45-0.857-0.446-1.35c-0.137-0.375-0.434-0.751-0.44-1.11
	C108.905,26.899,108.973,24.333,109.147,21.741z M86.169,24.867c0.334-1.399,0.291-2.91,0.808-4.309
	c0.107-0.261,0.131-0.584,0.103-0.841c-0.083-0.53-1.175-0.784-0.557-1.432c0.614-0.635,1.444-1.047,2.408-0.879
	c0.045-0.175,0.075-0.39,0.183-0.503c0.194-0.175,0.459-0.266,0.685-0.377c0.072,0.158,0.189,0.329,0.23,0.504
	c0.041,0.26,0.045,0.542,0.076,0.819c0.432,0.068,0.883,0.126,1.31,0.192c0.17-0.76,0.658-0.895,1.305-0.695
	c0.471,0.152,0.805,0.534,0.991,0.981c1.014-0.228,1.922-0.025,2.854,0.408c0.766,0.38,1.301,0.844,1.409,1.729
	c0.131,1.249,0.701,2.429,0.352,3.78c-0.29,1.136,0.086,2.314,0.604,3.406c0.162,1.113-0.158,2.115-0.835,3.02
	c-0.059,0.527-0.17,1.027-0.682,1.322c-0.033,0.295-0.236,0.467-0.545,0.487c-1.61,1.406-3.497,1.771-5.579,1.569
	c-0.855-0.082-1.499-0.43-1.972-1.117c-0.944,0.074-1.697-0.402-2.352-0.906c-0.612-0.492-1.099-1.142-0.441-1.972
	c-0.052-0.201-0.082-0.391-0.09-0.595C86.379,27.931,85.755,26.513,86.169,24.867z M63.158,22.433
	c0.199-1.288,0.927-2.153,2.045-2.755c0.874-0.47,1.749-0.974,2.634-1.449c0.544-0.296,1.27-0.513,1.732-0.203
	c1.289,0.841,2.634,0.446,3.977,0.428c1.064-0.014,2.127,0.342,3.413,0.559c-1.276,0.299-1.585,0.907-1.593,2.071
	c-0.045,2.011-0.118,3.991,0.414,5.925c0.294,1.083,0.054,1.973-0.572,2.808c0.21,0.481,0.284,0.969-0.07,1.412
	c-2.346,2.927-7.157,3.593-10.273,1.478c-1.126-0.761-1.612-1.738-1.249-3.069c-0.123-0.146-0.302-0.293-0.362-0.462
	C62.973,28.2,63,23.336,63.158,22.433z M41.086,21.741c0.013-0.424,0.477-0.827,0.756-1.259c-0.162-0.892-0.16-0.904,0.796-0.803
	c0.098-0.176,0.222-0.303,0.403-0.427c-0.687-0.699-1.237-1.478-1.49-2.653c1.755-0.369,3.356-0.763,4.975-1.002
	c0.804-0.125,1.574-0.213,2.299-0.553c0.234-0.092,0.768-0.03,0.803,0.083c0.248,0.657-0.366,0.493-0.68,0.611
	c-0.259,0.108-0.622,0.064-0.795,0.571c0.616,0.615,1.429,1.11,2.269,1.578c1.052,0.552,1.981,1.349,2.612,2.365
	c0.247,0.388-0.122,0.68-0.575,0.764c0.612,2.283,0.986,5.924,0.809,7.306c-0.072,0.723-0.364,1.337-0.692,1.952
	c-0.03,0.376,0.065,0.85-0.127,1.128c-2.078,2.939-7.968,3.65-10.779,0.549c-0.335-0.386-0.451-0.857-0.446-1.35
	c-0.137-0.375-0.434-0.751-0.44-1.11C40.845,26.899,40.912,24.333,41.086,21.741z M18.109,24.867
	c0.334-1.399,0.291-2.91,0.808-4.309c0.107-0.261,0.13-0.584,0.103-0.841c-0.083-0.53-1.175-0.784-0.557-1.432
	c0.614-0.635,1.444-1.047,2.408-0.879c0.045-0.175,0.075-0.39,0.182-0.503c0.194-0.175,0.459-0.266,0.685-0.377
	c0.072,0.158,0.189,0.329,0.23,0.504c0.041,0.26,0.045,0.542,0.077,0.819c0.432,0.068,0.883,0.126,1.31,0.192
	c0.17-0.76,0.658-0.895,1.306-0.695c0.471,0.152,0.805,0.534,0.991,0.981c1.014-0.228,1.922-0.025,2.854,0.408
	c0.766,0.38,1.301,0.844,1.408,1.729c0.131,1.249,0.702,2.429,0.352,3.78c-0.29,1.136,0.086,2.314,0.604,3.406
	c0.162,1.113-0.158,2.115-0.835,3.02c-0.058,0.527-0.17,1.027-0.682,1.322c-0.033,0.295-0.236,0.467-0.545,0.487
	c-1.61,1.406-3.497,1.771-5.579,1.569c-0.856-0.082-1.499-0.43-1.972-1.117c-0.944,0.074-1.697-0.402-2.352-0.906
	c-0.612-0.492-1.099-1.142-0.441-1.972c-0.052-0.201-0.082-0.391-0.09-0.595C18.318,27.931,17.694,26.513,18.109,24.867z"/>
</svg>
