<svg xmlns="http://www.w3.org/2000/svg" width="1277" height="36" viewBox="0 0 1277 36">
  <title>Paper green</title>
  <path d="M11,31H3v8H1279V7h-39l2,5a4,4,0,0,1,0,2c1,0,1,1,0,1h-7l-5,2-2,2h0v6h0c1,2,0,3,0,5l-2,2a7,7,0,0,1-9,0l-5-2h-7l-6,2a6,6,0,0,1-5-3h-12l-3,2c-4,2-8,0-9-3h-2a8,8,0,0,1-7,1h-1a8,8,0,0,1-8,3c-2,0-4-1-4-3h-12l-3,2c-2,0-5,0-6-2h-13c-3,3-7,2-10-1h-12c-4,2-7,2-10-1s-1-1-1-2a3,3,0,0,1,0-2,21,21,0,0,1,0-5c0-2,0-3-2-3h-8a13,13,0,0,0-1,6,11,11,0,0,1,0,6h0a7,7,0,0,1-9,1,2,2,0,0,1-2-2,30,30,0,0,1,0-9V14h4a2,2,0,0,0,2-2h0a4,4,0,0,0,0-2c-1,0-1,0-1-1a4,4,0,0,0,1-3h-13l4,3a1,1,0,0,1,0,1h-15s-1-1,0-1a2,2,0,0,0,1-2h-11l2,3h-7l-2-2h-11l-5,4h-3l-6-2-5,2h-8a2,2,0,0,1-1,2h-7v6a48,48,0,0,1,0,9,2,2,0,0,1-1,2,8,8,0,0,1-11-1,1,1,0,0,1,0-1c-1-3,0-5,0-8h1l4-2h9l4-4h3l4-2H935l-3,3h1c1,0,1,1,1,2a2,2,0,0,0,0,2c1,1,1,3,1,4s0,3,1,4,0,1-1,1-2,3-4,4h-7a3,3,0,0,1-2-3h0V21a4,4,0,0,1,3-4h3c1,0,1-1,1-2h-4c0-1-2-2,0-4h-7a2,2,0,0,1,1,3h-4l-9-2-2-2H823c-1,0,0,0,0-1H805l-3,3h-2c-3,1-3,1-4,4a2,2,0,0,0,1,3h0a3,3,0,0,1,1,3,28,28,0,0,0,0,5v3a3,3,0,0,1-2,3,7,7,0,0,1-9,0,2,2,0,0,1-1-2,3,3,0,0,1,0-4,10,10,0,0,0,0-4,2,2,0,0,1,0-2h1c1-1,0-1,0-2h0l7-2h0c2,0,3-1,5-3h6c0-2,0-2,1-2h1a1,1,0,0,0,0-2h-5l-4,2H787l-2,3h0c-1,2-1,2-2,2h-8c0-2-1-2-2-2H733V6H531l-3,3-2,2-2,3h0V31h-2c-2,0-5,0-6-2H503c-3,3-7,2-10-1H481c-4,2-7,2-10-1s-1-1-1-2a3,3,0,0,1,0-2,21,21,0,0,1,0-5c0-2,0-3-2-3h-8a13,13,0,0,0-1,6,11,11,0,0,1,0,6h0a7,7,0,0,1-9,1l-2-2a30,30,0,0,1,0-9V15h4a2,2,0,0,0,2-2h0a4,4,0,0,0,0-2h-1a4,4,0,0,0,1-3H441l4,3a1,1,0,0,1,0,1H430s-1-1,0-1a2,2,0,0,0,1-2H420l2,3h-7l-2-2H402l-5,4h-3l-6-2-5,2h-8a2,2,0,0,1-1,2h-7v4a48,48,0,0,1,0,9,2,2,0,0,1-1,2,8,8,0,0,1-11-1,1,1,0,0,1,0-1c-1-3,0-5,0-8h1l4-2h9l4-4h3l4-2H323l-3,3h1c1,0,1,1,1,2a2,2,0,0,0,0,2c1,1,1,3,1,4s0,3,1,4,0,1-1,1l-4,4h-7a3,3,0,0,1-2-3h0V20a4,4,0,0,1,3-4h3c1,0,1-1,1-2h-4c0-1-2-2,0-4h-7a2,2,0,0,1,1,3h-4l-9-2c-1,0-1,0-2-2H232c-1,0-1,0-1-1H212c-1,0,0,0,0-1H194l-3,3h-2c-3,1-3,1-4,4a2,2,0,0,0,1,3h0a3,3,0,0,1,1,3,28,28,0,0,0,0,5v3a3,3,0,0,1-2,3,7,7,0,0,1-9,0,2,2,0,0,1-1-2,3,3,0,0,1,0-4,10,10,0,0,0,0-4,2,2,0,0,1,0-2h1c1-1,0-1,0-2h0l7-2h0c2,0,3-1,5-3h6c0-2,0-2,1-2h1a1,1,0,0,0,0-1h-5l-4,2H176c0,1-1,2-2,3h0l-2,2h-8c0-2-1-2-2-2H121V5H1v9H16l2-2H15c0,1-1,2-1,4l-2,3h0v4a6,6,0,0,1,0,2H12a2,2,0,0,1,0,2Zm1249-7h0a5,5,0,0,1,2-4h9v7a1,1,0,0,1,0,1,3,3,0,0,1-2,3l-3,2c-1,0-6,0-8-3S1261,26,1261,24Zm-22,0a3,3,0,0,1,2-4h7c2,0,2,1,2,3a9,9,0,0,0,1,5c1,2,0,2,0,3v2c-1,2-3,2-5,2a4,4,0,0,1-4-2h-1V31a13,13,0,0,1,0-5Zm-202-1c0-3,1-4,4-5h6c1,2,2,4,2,6a6,6,0,0,0,0,3,3,3,0,0,1,0,3,3,3,0,0,1-2,3c-4,2-6,2-9-1h0a25,25,0,0,1-1-10Zm-23-1a5,5,0,0,1,2-4c1-1,2-2,4-1h4l2,2h0a2,2,0,0,0,0,2v6h0a7,7,0,0,1-7,2c-2,0-4-1-5-4h0A24,24,0,0,0,1014,22Zm-22-1a2,2,0,0,1,2-2h8c1,1,3,3,2,5a10,10,0,0,1,0,6,1,1,0,0,1,0,1c-3,3-6,3-10,1s-2-2-2-3A55,55,0,0,0,992,21ZM957,11l2,2a1,1,0,0,1,0,1h-2l-4-2ZM946,21a4,4,0,0,1,2-4l5-3h3a8,8,0,0,1,2,5v8h-1c-3,3-6,3-9,1s-2-1-2-2a9,9,0,0,1,0-5h0Zm-45,3a20,20,0,0,0,0-4c0-2,0-3,2-3h2l3-3h6c-2,1-2,3-2,5s0,2,1,3h0c-1,1,0,3-1,5h0a2,2,0,0,1-1,2,8,8,0,0,1-10,0V27A12,12,0,0,1,901,24ZM856,14h2c2,1,4,0,6-1h31l2-2h-3c0,1-1,2-1,4l-2,3v6a6,6,0,0,1,0,2h-1a2,2,0,0,1,0,2l-2,2h-5c-2,0-3-1-4-3s0-4-1-7a4,4,0,0,1,2-4h0a3,3,0,0,0-2-3h-8c0,1,0,2-2,2s0,1,0,1v3h0a23,23,0,0,0,0,6h-1a4,4,0,0,1-3,3,10,10,0,0,1-9-1h-1a3,3,0,0,1-1-3,46,46,0,0,0,0-6,3,3,0,0,1,1-3c1-1,1-1,0-2h1Zm-24,9V19h-1V17h3c2-1,3-3,4-5s0-1,0-2h2c1,0,1,0,1,1a7,7,0,0,0,0,2,7,7,0,0,1,0,3h0v3h-1a11,11,0,0,0,1,5v2l-3,4a8,8,0,0,1-8-1V28c0-1,1-2,0-4a2,2,0,0,1,1-2h1Zm-22,0a12,12,0,0,0,0-2V19a2,2,0,0,1,2-2l3-2h7a5,5,0,0,0,0,5c1,2,0,5,0,8h-1a3,3,0,0,1-1,3,8,8,0,0,1-8,1l-2-3a14,14,0,0,1,1-7Zm-37-9h2v2a1,1,0,0,0,0,1h0a7,7,0,0,1,2,6,9,9,0,0,0,0,2v4a5,5,0,0,1-5,3,7,7,0,0,1-6-2h-1a16,16,0,0,0,0-6,4,4,0,0,1,0-3c0-2,0-2,2-3l-3-2Zm-25-1Zm-5,9a4,4,0,0,1,2-3h13a2,2,0,0,0-2,2,20,20,0,0,0,0,6,3,3,0,0,1-1,3,1,1,0,0,1,0,1,8,8,0,0,1-10,1,3,3,0,0,1-1-3h0a35,35,0,0,1,0-7ZM727,10h1l-2-2Zm-5,11h2V17h7l2,2,3,2h-1a26,26,0,0,1,1,7h0s-8,4-11,1h-1c-2-5-2-8-1-10Zm-23,3V20h10c0,1,1,2,0,4a5,5,0,0,0,1,3,4,4,0,0,1-1,3h-1l-6,2h-4c-1,0-1-1,0-2h0c1-3,0-4,1-6Zm-23-2a4,4,0,0,1,2-3h12a2,2,0,0,0-2,2,20,20,0,0,0,0,6,3,3,0,0,1-1,3,1,1,0,0,1,0,1,8,8,0,0,1-10,1,3,3,0,0,1-1-3h0a35,35,0,0,1,1-7Zm-22-1h2V17h7l2,2,3,2h-1a26,26,0,0,1,1,7h0s-8,4-11,1h-1c-2-5-2-8-1-10Zm-23,3V20h10c0,1,1,2,0,4a5,5,0,0,0,1,3,4,4,0,0,1-1,3h-1l-6,2h-4c-1,0-1-1,0-2h0c1-3,0-4,1-6ZM590,14h2c2,1,4,0,6-1h30l2-2h-3c0,1-1,2-1,4l-2,3v6a6,6,0,0,1,0,2h-1a2,2,0,0,1,0,2l-2,2h-5c-2,0-3-1-4-3s0-4-1-7a4,4,0,0,1,2-4h0a3,3,0,0,0-2-3h-8c0,1,0,2-2,2s0,1,0,1v3h0a23,23,0,0,0,0,6h-1a4,4,0,0,1-3,3,10,10,0,0,1-9-1h-1a3,3,0,0,1-1-3,46,46,0,0,0,0-6,3,3,0,0,1,1-3c1-1,1-1,0-2h2Zm-24,9V19h-1V17h3c2-1,3-3,4-5s0-1,0-2h2c1,0,1,0,1,1a7,7,0,0,0,0,2,7,7,0,0,1,0,3h0v3h-1a11,11,0,0,0,1,5v2l-3,4a8,8,0,0,1-8-1V28c0-1,1-2,0-4a2,2,0,0,1,1-2h1Zm-15-8h11a1,1,0,0,1,0,1l-2,2-3,2h3c2,0,2,1,2,2v5c0,2,1,3,0,4s0,0,0,1-2,3-4,3h-7c-1-1-2-1-1-3a25,25,0,0,1,1-8c-2-6-2-6,1-9ZM527,28h0a25,25,0,0,1,0-6,4,4,0,0,1,3-3h7c1,0,2,1,2,3v2a3,3,0,0,1,0,3,4,4,0,0,1-1,3c-1,1-1,2-3,3h-5c-2-1-3-1-4-3h0ZM425,21c0-3,1-4,4-5h6c1,2,2,4,2,6a6,6,0,0,0,0,3,3,3,0,0,1,0,3,3,3,0,0,1-2,3c-4,2-6,2-9-1h0a25,25,0,0,1,0-9Zm-23-1a5,5,0,0,1,2-4c1-1,2-2,4-1h4c1,1,2,1,2,2h0a2,2,0,0,0,0,2v7h0a7,7,0,0,1-7,2c-2,0-4-1-5-4h0V21Zm-22-1a2,2,0,0,1,2-2h8c1,1,3,3,2,5a10,10,0,0,1,0,6,1,1,0,0,1,0,1c-3,3-6,3-10,1s-2-2-2-3a55,55,0,0,0,1-7ZM345,9l2,2a1,1,0,0,1,0,1h-2l-4-2ZM334,19a4,4,0,0,1,2-4l5-3h3a8,8,0,0,1,2,5v9h-1c-3,3-6,3-9,1l-2-2a9,9,0,0,1,0-5h0Zm-45,3a20,20,0,0,0,0-4c0-2,0-3,2-3h2l3-3h6c-2,1-2,3-2,5s0,2,1,3h0c-1,1,0,3-1,5h0a2,2,0,0,1-1,2,8,8,0,0,1-10,0V25l2-2ZM244,12h2c2,1,4,0,6-1h32l2-2h-3c0,1-1,2-1,4l-2,3v7a6,6,0,0,1,0,2h-1a2,2,0,0,1,0,2l-2,2h-5c-2,0-3-1-4-3s0-4-1-7a4,4,0,0,1,2-4h0a3,3,0,0,0-2-3h-8c0,1,0,2-2,2s0,1,0,1v3h0a23,23,0,0,0,0,6h-1a4,4,0,0,1-3,3,10,10,0,0,1-9-1h-1a3,3,0,0,1-1-3,45,45,0,0,0,0-6,3,3,0,0,1,1-3c1-1,1-1,0-2h0Zm-24,9V17h-1V15h3c2-1,3-3,4-5s0-1,0-2h2c1,0,1,0,1,1a7,7,0,0,0,0,2,7,7,0,0,1,0,3h0v4h-1a11,11,0,0,0,1,5v2l-3,4a8,8,0,0,1-8-1V27c0-1,1-2,0-4a2,2,0,0,1,1-2l2,2Zm-22,0a12,12,0,0,0,0-2V17a2,2,0,0,1,2-2l3-2h7a5,5,0,0,0,0,5c1,2,0,5,0,8h-1a3,3,0,0,1-1,3,8,8,0,0,1-8,1l-2-3a14,14,0,0,1,2-6Zm-37-9h2v3a1,1,0,0,0,0,1h0a7,7,0,0,1,2,6,9,9,0,0,0,0,2v4a5,5,0,0,1-5,3,7,7,0,0,1-6-2h-1a16,16,0,0,0,0-6,4,4,0,0,1,0-3c0-2,0-2,2-3l-3-2Zm-25-1Zm-5,9a4,4,0,0,1,2-3h12a2,2,0,0,0-2,2,20,20,0,0,0,0,6,3,3,0,0,1-1,3,1,1,0,0,1,0,1,8,8,0,0,1-10,1,3,3,0,0,1-1-3h0l2-6ZM115,8h1l-2-2Zm-5,11h2V15h7l2,2,3,2h-1a26,26,0,0,1,1,7v2h0s-8,4-11,1h-1V20ZM87,22V18h9v2c0,1,1,2,0,4a5,5,0,0,0,1,3,4,4,0,0,1-1,3H96l-6,2H86c-1,0-1-1,0-2h0c3-3,3-4,3-6ZM64,20a4,4,0,0,1,2-3H78l-2,2a20,20,0,0,0,0,6,3,3,0,0,1-1,3,1,1,0,0,1,0,1,8,8,0,0,1-10,1,3,3,0,0,1-1-3h0l2-6ZM42,19h2V15h7l2,2,3,2H55a26,26,0,0,1,1,7v2h0s-8,4-11,1H44V20ZM19,22V18h9v2c0,1,1,2,0,4a5,5,0,0,0,1,3,4,4,0,0,1-1,3H28l-6,2H18c-1,0-1-1,0-2h0c3-3,2-4,3-6Z" transform="translate(-1 -5)" style="fill: #383838;opacity: 0.2800000011920929;isolation: isolate"/>
  <path d="M981,16Z" transform="translate(-1 -5)" style="fill: #b8dbaa"/>
  <path d="M981,16Z" transform="translate(-1 -5)" style="fill: #b8dbaa"/>
  <path d="M11,33H3v8H1279V9h-39l2,5a4,4,0,0,1,0,2c1,0,1,1,0,1h-7l-5,2-2,2h0v6h0c1,2,0,3,0,5l-2,2a7,7,0,0,1-9,0l-5-2h-7l-6,2a6,6,0,0,1-5-3h-12l-3,2c-4,2-8,0-9-3h-2a8,8,0,0,1-7,1h-1a8,8,0,0,1-8,3c-2,0-4-1-4-3h-12l-3,2c-2,0-5,0-6-2h-13c-3,3-7,2-10-1h-12c-4,2-7,2-10-1s-1-1-1-2a3,3,0,0,1,0-2,21,21,0,0,1,0-5c0-2,0-3-2-3h-8a13,13,0,0,0-1,6,11,11,0,0,1,0,6h0a7,7,0,0,1-9,1,2,2,0,0,1-2-2,30,30,0,0,1,0-9V16h4a2,2,0,0,0,2-2h0a4,4,0,0,0,0-2c-1,0-1,0-1-1a4,4,0,0,0,1-3h-13l4,3a1,1,0,0,1,0,1h-15s-1-1,0-1a2,2,0,0,0,1-2h-11l2,3h-7l-2-2h-11l-5,4h-3l-6-2-5,2h-8a2,2,0,0,1-1,2h-7v6a48,48,0,0,1,0,9,2,2,0,0,1-1,2,8,8,0,0,1-11-1,1,1,0,0,1,0-1c-1-3,0-5,0-8h1l4-2h9l4-4h3l4-2H935l-3,3h1c1,0,1,1,1,2a2,2,0,0,0,0,2c1,1,1,3,1,4s0,3,1,4,0,1-1,1-2,3-4,4h-7a3,3,0,0,1-2-3h0V23a4,4,0,0,1,3-4h3c1,0,1-1,1-2h-4c0-1-2-2,0-4h-7a2,2,0,0,1,1,3h-4l-9-2-2-2H823c-1,0,0,0,0-1H805l-3,3h-2c-3,1-3,1-4,4a2,2,0,0,0,1,3h0a3,3,0,0,1,1,3,28,28,0,0,0,0,5v3a3,3,0,0,1-2,3,7,7,0,0,1-9,0,2,2,0,0,1-1-2,3,3,0,0,1,0-4,10,10,0,0,0,0-4,2,2,0,0,1,0-2h1c1-1,0-1,0-2h0l7-2h0c2,0,3-1,5-3h6c0-2,0-2,1-2h1a1,1,0,0,0,0-2h-5l-4,2H787l-2,3h0c-1,2-1,2-2,2h-8c0-2-1-2-2-2H733V8H531l-3,3-2,2-2,3h0V33h-2c-2,0-5,0-6-2H503c-3,3-7,2-10-1H481c-4,2-7,2-10-1s-1-1-1-2a3,3,0,0,1,0-2,21,21,0,0,1,0-5c0-2,0-3-2-3h-8a13,13,0,0,0-1,6,11,11,0,0,1,0,6h0a7,7,0,0,1-9,1l-2-2a30,30,0,0,1,0-9V17h4a2,2,0,0,0,2-2h0a4,4,0,0,0,0-2h-1a4,4,0,0,0,1-3H441l4,3a1,1,0,0,1,0,1H430s-1-1,0-1a2,2,0,0,0,1-2H420l2,3h-7l-2-2H402l-5,4h-3l-6-2-5,2h-8a2,2,0,0,1-1,2h-7v4a48,48,0,0,1,0,9,2,2,0,0,1-1,2,8,8,0,0,1-11-1,1,1,0,0,1,0-1c-1-3,0-5,0-8h1l4-2h9l4-4h3l4-2H323l-3,3h1c1,0,1,1,1,2a2,2,0,0,0,0,2c1,1,1,3,1,4s0,3,1,4,0,1-1,1l-4,4h-7a3,3,0,0,1-2-3h0V22a4,4,0,0,1,3-4h3c1,0,1-1,1-2h-4c0-1-2-2,0-4h-7a2,2,0,0,1,1,3h-4l-9-2c-1,0-1,0-2-2H232c-1,0-1,0-1-1H212c-1,0,0,0,0-1s0-1-1-1H194l-3,3h-2c-3,1-3,1-4,4a2,2,0,0,0,1,3h0a3,3,0,0,1,1,3,28,28,0,0,0,0,5v3a3,3,0,0,1-2,3,7,7,0,0,1-9,0,2,2,0,0,1-1-2,3,3,0,0,1,0-4,10,10,0,0,0,0-4,2,2,0,0,1,0-2h1c1-1,0-1,0-2h0l7-2h0c2,0,3-1,5-3h6c0-2,0-2,1-2h1a1,1,0,0,0,0-2h-5l-4,2H176c0,1-1,2-2,3h0l-2,2h-8c0-2-1-2-2-2H121V7H1v9H16l2-2H15c0,1-1,2-1,4l-2,3h0v4a6,6,0,0,1,0,2H12a2,2,0,0,1,0,2Zm1249-7h0a5,5,0,0,1,2-4h9v7a1,1,0,0,1,0,1,3,3,0,0,1-2,3l-3,2c-1,0-6,0-8-3S1261,28,1261,26Zm-22,0a3,3,0,0,1,2-4h7c2,0,2,1,2,3a9,9,0,0,0,1,5c1,2,0,2,0,3v2c-1,2-3,2-5,2a4,4,0,0,1-4-2h-1V33a13,13,0,0,1,0-5Zm-202-1c0-3,1-4,4-5h6c1,2,2,4,2,6a6,6,0,0,0,0,3,3,3,0,0,1,0,3,3,3,0,0,1-2,3c-4,2-6,2-9-1h0a25,25,0,0,1-1-10Zm-23-1a5,5,0,0,1,2-4c1-1,2-2,4-1h4l2,2h0a2,2,0,0,0,0,2v6h0a7,7,0,0,1-7,2c-2,0-4-1-5-4h0A24,24,0,0,0,1014,24Zm-22-1a2,2,0,0,1,2-2h8c1,1,3,3,2,5a10,10,0,0,1,0,6,1,1,0,0,1,0,1c-3,3-6,3-10,1s-2-2-2-3A55,55,0,0,0,992,23ZM957,13l2,2a1,1,0,0,1,0,1h-2l-4-2ZM946,23a4,4,0,0,1,2-4l5-3h3a8,8,0,0,1,2,5v8h-1c-3,3-6,3-9,1s-2-1-2-2a9,9,0,0,1,0-5h0Zm-45,3a20,20,0,0,0,0-4c0-2,0-3,2-3h2l3-3h6c-2,1-2,3-2,5s0,2,1,3h0c-1,1,0,3-1,5h0a2,2,0,0,1-1,2,8,8,0,0,1-10,0V29A12,12,0,0,1,901,26ZM856,16h2c2,1,4,0,6-1h31l2-2h-3c0,1-1,2-1,4l-2,3v6a6,6,0,0,1,0,2h-1a2,2,0,0,1,0,2l-2,2h-5c-2,0-3-1-4-3s0-4-1-7a4,4,0,0,1,2-4h0a3,3,0,0,0-2-3h-8c0,1,0,2-2,2s0,1,0,1v3h0a23,23,0,0,0,0,6h-1a4,4,0,0,1-3,3,10,10,0,0,1-9-1h-1a3,3,0,0,1-1-3,46,46,0,0,0,0-6,3,3,0,0,1,1-3c1-1,1-1,0-2h1Zm-24,9V21h-1V19h3c2-1,3-3,4-5s0-1,0-2h3a7,7,0,0,0,0,2,7,7,0,0,1,0,3h0v3h-1a11,11,0,0,0,1,5v2l-3,4a8,8,0,0,1-8-1V30c0-1,1-2,0-4a2,2,0,0,1,1-2h1Zm-22,0a12,12,0,0,0,0-2V21a2,2,0,0,1,2-2l3-2h7a5,5,0,0,0,0,5c1,2,0,5,0,8h-1a3,3,0,0,1-1,3,8,8,0,0,1-8,1l-2-3a14,14,0,0,1,1-7Zm-37-9h2v2a1,1,0,0,0,0,1h0a7,7,0,0,1,2,6,9,9,0,0,0,0,2v4a5,5,0,0,1-5,3,7,7,0,0,1-6-2h-1a16,16,0,0,0,0-6,4,4,0,0,1,0-3c0-2,0-2,2-3l-3-2Zm-25-1Zm-5,9a4,4,0,0,1,2-3h13a2,2,0,0,0-2,2,20,20,0,0,0,0,6,3,3,0,0,1-1,3,1,1,0,0,1,0,1,8,8,0,0,1-10,1,3,3,0,0,1-1-3h0a35,35,0,0,1,0-7ZM727,12h1l-2-2Zm-5,11h2V19h7l2,2,3,2h-1a26,26,0,0,1,1,7h0s-8,4-11,1h-1c-2-5-2-8-1-10Zm-23,3V22h10c0,1,1,2,0,4a5,5,0,0,0,1,3,4,4,0,0,1-1,3h-1l-6,2h-4c-1,0-1-1,0-2h0c1-3,0-4,1-6Zm-23-2a4,4,0,0,1,2-3h12a2,2,0,0,0-2,2,20,20,0,0,0,0,6,3,3,0,0,1-1,3,1,1,0,0,1,0,1,8,8,0,0,1-10,1,3,3,0,0,1-1-3h0a35,35,0,0,1,1-7Zm-22-1h2V19h7l2,2,3,2h-1a26,26,0,0,1,1,7h0s-8,4-11,1h-1c-2-5-2-8-1-10Zm-23,3V22h10c0,1,1,2,0,4a5,5,0,0,0,1,3,4,4,0,0,1-1,3h-1l-6,2h-4c-1,0-1-1,0-2h0c1-3,0-4,1-6ZM590,16h2c2,1,4,0,6-1h30l2-2h-3c0,1-1,2-1,4l-2,3v6a6,6,0,0,1,0,2h-1a2,2,0,0,1,0,2l-2,2h-5c-2,0-3-1-4-3s0-4-1-7a4,4,0,0,1,2-4h0a3,3,0,0,0-2-3h-8c0,1,0,2-2,2s0,1,0,1v3h0a23,23,0,0,0,0,6h-1a4,4,0,0,1-3,3,10,10,0,0,1-9-1h-1a3,3,0,0,1-1-3,46,46,0,0,0,0-6,3,3,0,0,1,1-3c1-1,1-1,0-2h2Zm-24,9V21h-1V19h3c2-1,3-3,4-5s0-1,0-2h3a7,7,0,0,0,0,2,7,7,0,0,1,0,3h0v3h-1a11,11,0,0,0,1,5v2l-3,4a8,8,0,0,1-8-1V30c0-1,1-2,0-4a2,2,0,0,1,1-2h1Zm-15-8h11a1,1,0,0,1,0,1l-2,2-3,2h3c2,0,2,1,2,2v5c0,2,1,3,0,4s0,0,0,1-2,3-4,3h-7c-1-1-2-1-1-3a25,25,0,0,1,1-8c-2-6-2-6,1-9ZM527,30h0a25,25,0,0,1,0-6,4,4,0,0,1,3-3h7c1,0,2,1,2,3v2a3,3,0,0,1,0,3,4,4,0,0,1-1,3c-1,1-1,2-3,3h-5c-2-1-3-1-4-3h0ZM425,23c0-3,1-4,4-5h6c1,2,2,4,2,6a6,6,0,0,0,0,3,3,3,0,0,1,0,3,3,3,0,0,1-2,3c-4,2-6,2-9-1h0a25,25,0,0,1,0-9Zm-23-1a5,5,0,0,1,2-4c1-1,2-2,4-1h4l2,2h0a2,2,0,0,0,0,2v7h0a7,7,0,0,1-7,2c-2,0-4-1-5-4h0V23Zm-22-1a2,2,0,0,1,2-2h8c1,1,3,3,2,5a10,10,0,0,1,0,6,1,1,0,0,1,0,1c-3,3-6,3-10,1s-2-2-2-3a55,55,0,0,0,1-7ZM345,11l2,2a1,1,0,0,1,0,1h-2l-4-2ZM334,21a4,4,0,0,1,2-4l5-3h3a8,8,0,0,1,2,5v9h-1c-3,3-6,3-9,1l-2-2a9,9,0,0,1,0-5h0Zm-45,3a20,20,0,0,0,0-4c0-2,0-3,2-3h2l3-3h6c-2,1-2,3-2,5s0,2,1,3h0c-1,1,0,3-1,5h0a2,2,0,0,1-1,2,8,8,0,0,1-10,0V27l2-2ZM244,14h2c2,1,4,0,6-1h32l2-2h-3c0,1-1,2-1,4l-2,3v7a6,6,0,0,1,0,2h-1a2,2,0,0,1,0,2l-2,2h-5c-2,0-3-1-4-3s0-4-1-7a4,4,0,0,1,2-4h0a3,3,0,0,0-2-3h-8c0,1,0,2-2,2s0,1,0,1v3h0a23,23,0,0,0,0,6h-1a4,4,0,0,1-3,3,10,10,0,0,1-9-1h-1a3,3,0,0,1-1-3,45,45,0,0,0,0-6,3,3,0,0,1,1-3c1-1,1-1,0-2h0Zm-24,9V19h-1V17h3c2-1,3-3,4-5s0-1,0-2h2c1,0,1,0,1,1a7,7,0,0,0,0,2,7,7,0,0,1,0,3h0v4h-1a11,11,0,0,0,1,5v2l-3,4a8,8,0,0,1-8-1V29c0-1,1-2,0-4a2,2,0,0,1,1-2l2,2Zm-22,0a12,12,0,0,0,0-2V19l2-2,3-2h7a5,5,0,0,0,0,5c1,2,0,5,0,8h-1a3,3,0,0,1-1,3,8,8,0,0,1-8,1l-2-3a14,14,0,0,1,2-6Zm-37-9h2v3a1,1,0,0,0,0,1h0a7,7,0,0,1,2,6,9,9,0,0,0,0,2v4a5,5,0,0,1-5,3,7,7,0,0,1-6-2h-1a16,16,0,0,0,0-6,4,4,0,0,1,0-3c0-2,0-2,2-3l-3-2Zm-25-1Zm-5,9a4,4,0,0,1,2-3h12a2,2,0,0,0-2,2,20,20,0,0,0,0,6,3,3,0,0,1-1,3,1,1,0,0,1,0,1,8,8,0,0,1-10,1,3,3,0,0,1-1-3h0l2-6ZM115,10h1l-2-2Zm-5,11h2V17h7l2,2,3,2h-1a26,26,0,0,1,1,7v2h0s-8,4-11,1h-1V22ZM87,24V20h9v2c0,1,1,2,0,4a5,5,0,0,0,1,3,4,4,0,0,1-1,3H96l-6,2H86c-1,0-1-1,0-2h0c3-3,3-4,3-6ZM64,22a4,4,0,0,1,2-3H78l-2,2a20,20,0,0,0,0,6,3,3,0,0,1-1,3,1,1,0,0,1,0,1,8,8,0,0,1-10,1,3,3,0,0,1-1-3h0l2-6ZM42,21h2V17h7l2,2,3,2H55a26,26,0,0,1,1,7v2h0s-8,4-11,1H44V22ZM19,24V20h9v2c0,1,1,2,0,4a5,5,0,0,0,1,3,4,4,0,0,1-1,3H28l-6,2H18c-1,0-1-1,0-2h0c3-3,2-4,3-6Z" transform="translate(-1 -5)" style="fill: #b8dcab"/>
</svg>
