<svg xmlns="http://www.w3.org/2000/svg" width="1278" height="36" viewBox="0 0 1278 36">
  <title>Paper g</title>
  <path d="M10,26H2v8H1278V2h-39l2,5a4,4,0,0,1,0,2c1,0,1,1,0,1h-7l-5,2-2,2h0v6h0c1,2,0,3,0,5l-2,2a7,7,0,0,1-9,0l-5-2h-7l-6,2a6,6,0,0,1-5-3h-12l-3,2c-4,2-8,0-9-3h-2a8,8,0,0,1-7,1h-1a8,8,0,0,1-8,3c-2,0-4-1-4-3h-12l-3,2c-2,0-5,0-6-2h-13c-3,3-7,2-10-1h-12c-4,2-7,2-10-1s-1-1-1-2a3,3,0,0,1,0-2,21,21,0,0,1,0-5c0-2,0-3-2-3h-8a13,13,0,0,0-1,6,11,11,0,0,1,0,6h0a7,7,0,0,1-9,1,2,2,0,0,1-2-2,30,30,0,0,1,0-9V9h4a2,2,0,0,0,2-2h0a4,4,0,0,0,0-2h-1a4,4,0,0,0,1-3h-13l4,3a1,1,0,0,1,0,1h-15s-1-1,0-1a2,2,0,0,0,1-2h-11l2,3h-7l-2-2h-11l-5,4h-3l-6-2-5,2h-8a2,2,0,0,1-1,2h-7v6a48,48,0,0,1,0,9,2,2,0,0,1-1,2,8,8,0,0,1-11-1,1,1,0,0,1,0-1c-1-3,0-5,0-8h1l4-2h9l4-4h3l4-2H934l-3,3h1c1,0,1,1,1,2a2,2,0,0,0,0,2c1,1,1,3,1,4s0,3,1,4,0,1-1,1l-4,4h-7a3,3,0,0,1-2-3h0V16a4,4,0,0,1,3-4h3c1,0,1-1,1-2h-4c0-1-2-2,0-4h-7a2,2,0,0,1,1,3h-4l-9-2-2-2H822c-1,0,0,0,0-1H804l-3,3h-2c-3,1-3,1-4,4a2,2,0,0,0,1,3h0a3,3,0,0,1,1,3,28,28,0,0,0,0,5v3a3,3,0,0,1-2,3,7,7,0,0,1-9,0,2,2,0,0,1-1-2,3,3,0,0,1,0-4,10,10,0,0,0,0-4,2,2,0,0,1,0-2h1c1-1,0-1,0-2h0l7-2h0c2,0,3-1,5-3h6c0-2,0-2,1-2h-4l-4,2H786l-2,3h0l-2,2h-8c0-2-1-2-2-2H732V1H530l-3,3-2,2-2,3h0V26h-2c-2,0-5,0-6-2H502c-3,3-7,2-10-1H480c-4,2-7,2-10-1s-1-1-1-2a3,3,0,0,1,0-2,21,21,0,0,1,0-5c0-2,0-3-2-3h-8a13,13,0,0,0-1,6,11,11,0,0,1,0,6h0a7,7,0,0,1-9,1l-2-2a30,30,0,0,1,0-9V10h4a2,2,0,0,0,2-2h0a4,4,0,0,0,0-2h-1a4,4,0,0,0,1-3H440l4,3a1,1,0,0,1,0,1H429s-1-1,0-1a2,2,0,0,0,1-2H419l2,3h-7l-2-2H401l-5,4h-3l-6-2-5,2h-8a2,2,0,0,1-1,2h-7v4a48,48,0,0,1,0,9,2,2,0,0,1-1,2,8,8,0,0,1-11-1,1,1,0,0,1,0-1c-1-3,0-5,0-8h1l4-2h9l4-4h3l4-2H322l-3,3h1c1,0,1,1,1,2a2,2,0,0,0,0,2c1,1,1,3,1,4s0,3,1,4,0,1-1,1l-4,4h-7a3,3,0,0,1-2-3h0V15a4,4,0,0,1,3-4h3c1,0,1-1,1-2h-4c0-1-2-2,0-4h-7a2,2,0,0,1,1,3h-4l-9-2-2-2H211c-1,0,0,0,0-1H193l-3,3h-2c-3,1-3,1-4,4a2,2,0,0,0,1,3h0a3,3,0,0,1,1,3,28,28,0,0,0,0,5v3a3,3,0,0,1-2,3,7,7,0,0,1-9,0,2,2,0,0,1-1-2,3,3,0,0,1,0-4,10,10,0,0,0,0-4,2,2,0,0,1,0-2h1c1-1,0-1,0-2h0l7-2h0c2,0,3-1,5-3h6c0-2,0-2,1-2h1a1,1,0,0,0,0-1h-5l-4,2H175l-2,3h0l-2,2h-8c0-2-1-2-2-2H120V0H0V9H15l2-2H14c0,1-1,2-1,4l-2,3h0v4a6,6,0,0,1,0,2h0a2,2,0,0,1,0,2Zm1249-7h0a5,5,0,0,1,2-4h9v7a1,1,0,0,1,0,1,3,3,0,0,1-2,3l-3,2c-1,0-6,0-8-3s3-4,3-6Zm-22,0a3,3,0,0,1,2-4h7c2,0,2,1,2,3a9,9,0,0,0,1,5c1,2,0,2,0,3v2c-1,2-3,2-5,2a4,4,0,0,1-4-2h-1V26a13,13,0,0,1,0-5Zm-202-1c0-3,1-4,4-5h6c1,2,2,4,2,6a6,6,0,0,0,0,3,3,3,0,0,1,0,3,3,3,0,0,1-2,3c-4,2-6,2-9-1h0a25,25,0,0,1-1-10Zm-23-1a5,5,0,0,1,2-4c1-1,2-2,4-1h4l2,2h0a2,2,0,0,0,0,2v6h0a7,7,0,0,1-7,2c-2,0-4-1-5-4h0V17Zm-22-1a2,2,0,0,1,2-2h8c1,1,3,3,2,5a10,10,0,0,1,0,6,1,1,0,0,1,0,1c-3,3-6,3-10,1s-2-2-2-3a55,55,0,0,0,1-8ZM956,6l2,2a1,1,0,0,1,0,1h-2l-4-2ZM945,16a4,4,0,0,1,2-4l5-3h3a8,8,0,0,1,2,5v8h-1c-3,3-6,3-9,1l-2-2a9,9,0,0,1,0-5Zm-45,3a20,20,0,0,0,0-4c0-2,0-3,2-3h2l3-3h6c-2,1-2,3-2,5s0,2,1,3h0c-1,1,0,3-1,5h0a2,2,0,0,1-1,2,8,8,0,0,1-10,0V22A12,12,0,0,1,900,19ZM855,9h2c2,1,4,0,6-1h31l2-2h-3c0,1-1,2-1,4l-2,3v6a6,6,0,0,1,0,2h-1a2,2,0,0,1,0,2l-2,2h-5c-2,0-3-1-4-3s0-4-1-7a4,4,0,0,1,2-4h0a3,3,0,0,0-2-3h-8c0,1,0,2-2,2s0,1,0,1v3h0a23,23,0,0,0,0,6h-1a4,4,0,0,1-3,3,10,10,0,0,1-9-1h-1a3,3,0,0,1-1-3,46,46,0,0,0,0-6,3,3,0,0,1,1-3c1-1,1-1,0-2h2Zm-24,9V14h-1V12h3c2-1,3-3,4-5s0-1,0-2h3a7,7,0,0,0,0,2,7,7,0,0,1,0,3h0v3h-1a11,11,0,0,0,1,5v2l-3,4a8,8,0,0,1-8-1h0c0-1,1-2,0-4a2,2,0,0,1,1-2h1Zm-22,0a12,12,0,0,0,0-2V14a2,2,0,0,1,2-2l3-2h7a5,5,0,0,0,0,5c1,2,0,5,0,8h-1a3,3,0,0,1-1,3,8,8,0,0,1-8,1l-2-3a14,14,0,0,1,1-7ZM772,9h2v2a1,1,0,0,0,0,1h0a7,7,0,0,1,2,6,9,9,0,0,0,0,2v4a5,5,0,0,1-5,3,7,7,0,0,1-6-2h-1a16,16,0,0,0,0-6,4,4,0,0,1,0-3c0-2,0-2,2-3l-3-2Zm-30,8a4,4,0,0,1,2-3h13a2,2,0,0,0-2,2,20,20,0,0,0,0,6,3,3,0,0,1-1,3,1,1,0,0,1,0,1,8,8,0,0,1-10,1,3,3,0,0,1-1-3h0a35,35,0,0,1,0-7ZM726,5h1l-2-2Zm-5,11h2V12h7l2,2,3,2h-1a26,26,0,0,1,1,7h0s-8,4-11,1h-1c-2-5-2-8-1-10Zm-23,3V15h10c0,1,1,2,0,4a5,5,0,0,0,1,3,4,4,0,0,1-1,3h-1l-6,2h-4c-1,0-1-1,0-2h0C698,22,697,21,698,19Zm-23-2a4,4,0,0,1,2-3h12a2,2,0,0,0-2,2,20,20,0,0,0,0,6,3,3,0,0,1-1,3,1,1,0,0,1,0,1,8,8,0,0,1-10,1,3,3,0,0,1-1-3h0a35,35,0,0,1,1-7Zm-22-1h2V12h7l2,2,3,2h-1a26,26,0,0,1,1,7h0s-8,4-11,1h-1c-2-5-2-8-1-10Zm-23,3V15h10c0,1,1,2,0,4a5,5,0,0,0,1,3,4,4,0,0,1-1,3h-1l-6,2h-4c-1,0-1-1,0-2h0C630,22,629,21,630,19ZM589,9h2c2,1,4,0,6-1h30l2-2h-3c0,1-1,2-1,4l-2,3v6a6,6,0,0,1,0,2h-1a2,2,0,0,1,0,2l-2,2h-5c-2,0-3-1-4-3s0-4-1-7a4,4,0,0,1,2-4h0a3,3,0,0,0-2-3h-8c0,1,0,2-2,2s0,1,0,1v3h0a23,23,0,0,0,0,6h-1a4,4,0,0,1-3,3,10,10,0,0,1-9-1h-1a3,3,0,0,1-1-3,46,46,0,0,0,0-6,3,3,0,0,1,1-3c1-1,1-1,0-2h3Zm-24,9V14h-1V12h3c2-1,3-3,4-5s0-1,0-2h3a7,7,0,0,0,0,2,7,7,0,0,1,0,3h0v3h-1a11,11,0,0,0,1,5v2l-3,4a8,8,0,0,1-8-1h0c0-1,1-2,0-4a2,2,0,0,1,1-2h1Zm-15-8h11a1,1,0,0,1,0,1l-2,2-3,2h3c2,0,2,1,2,2v5c0,2,1,3,0,4s0,0,0,1-2,3-4,3h-7c-1-1-2-1-1-3a25,25,0,0,1,1-8c-2-6-2-6,1-9ZM526,23h0a25,25,0,0,1,0-6,4,4,0,0,1,3-3h7c1,0,2,1,2,3v2a3,3,0,0,1,0,3,4,4,0,0,1-1,3l-3,3h-5c-2-1-3-1-4-3h0ZM424,16c0-3,1-4,4-5h6c1,2,2,4,2,6a6,6,0,0,0,0,3,3,3,0,0,1,0,3,3,3,0,0,1-2,3c-4,2-6,2-9-1h0a25,25,0,0,1,0-9Zm-23-1a5,5,0,0,1,2-4c1-1,2-2,4-1h4l2,2h0a2,2,0,0,0,0,2v7h0a7,7,0,0,1-7,2c-2,0-4-1-5-4h0V16Zm-22-1a2,2,0,0,1,2-2h8c1,1,3,3,2,5a10,10,0,0,1,0,6,1,1,0,0,1,0,1c-3,3-6,3-10,1s-2-2-2-3a55,55,0,0,0,1-7ZM344,4l2,2a1,1,0,0,1,0,1h-2l-4-2ZM333,14a4,4,0,0,1,2-4l5-3h3a8,8,0,0,1,2,5v9h-1c-3,3-6,3-9,1l-2-2a9,9,0,0,1,0-5h0Zm-45,3a20,20,0,0,0,0-4c0-2,0-3,2-3h2l3-3h6c-2,1-2,3-2,5s0,2,1,3h0c-1,1,0,3-1,5h0a2,2,0,0,1-1,2,8,8,0,0,1-10,0V20l2-2ZM243,7h2c2,1,4,0,6-1h32l2-2h-3c0,1-1,2-1,4l-2,3v7a6,6,0,0,1,0,2h-1a2,2,0,0,1,0,2l-2,2h-5c-2,0-3-1-4-3s0-4-1-7a4,4,0,0,1,2-4h0a3,3,0,0,0-2-3h-8c0,1,0,2-2,2s0,1,0,1v3h0a23,23,0,0,0,0,6h-1a4,4,0,0,1-3,3,10,10,0,0,1-9-1h-1a3,3,0,0,1-1-3,45,45,0,0,0,0-6,3,3,0,0,1,1-3c1-1,1-1,0-2h1Zm-24,9V12h-1V10h3c2-1,3-3,4-5s0-1,0-2h3a7,7,0,0,0,0,2,7,7,0,0,1,0,3h0v4h-1a11,11,0,0,0,1,5v2l-3,4a8,8,0,0,1-8-1h0c0-1,1-2,0-4a2,2,0,0,1,1-2l2,2Zm-22,0a12,12,0,0,0,0-2V12a2,2,0,0,1,2-2l3-2h7a5,5,0,0,0,0,5c1,2,0,5,0,8h-1a3,3,0,0,1-1,3,8,8,0,0,1-8,1l-2-3a14,14,0,0,1,2-6ZM160,7h2v3a1,1,0,0,0,0,1h0a7,7,0,0,1,2,6,9,9,0,0,0,0,2v4a5,5,0,0,1-5,3,7,7,0,0,1-6-2h-1a16,16,0,0,0,0-6,4,4,0,0,1,0-3c0-2,0-2,2-3l-3-2Zm-30,8a4,4,0,0,1,2-3h12a2,2,0,0,0-2,2,20,20,0,0,0,0,6,3,3,0,0,1-1,3,1,1,0,0,1,0,1,8,8,0,0,1-10,1,3,3,0,0,1-1-3h0l2-6ZM114,3h1l-2-2Zm-5,11h2V10h7l2,2,3,2h-1a26,26,0,0,1,1,7v2h0s-8,4-11,1h-1V15ZM86,17V13h9v2c0,1,1,2,0,4a5,5,0,0,0,1,3,4,4,0,0,1-1,3h0l-6,2H85c-1,0-1-1,0-2h0c3-3,3-4,3-6ZM63,15a4,4,0,0,1,2-3H77l-2,2a20,20,0,0,0,0,6,3,3,0,0,1-1,3,1,1,0,0,1,0,1,8,8,0,0,1-10,1,3,3,0,0,1-1-3h0l2-6ZM41,14h2V10h7l2,2,3,2H54a26,26,0,0,1,1,7v2h0s-8,4-11,1H43V15ZM18,17V13h9v2c0,1,1,2,0,4a5,5,0,0,0,1,3,4,4,0,0,1-1,3h0l-6,2H17c-1,0-1-1,0-2h0c3-3,2-4,3-6Z" style="fill: #383838;opacity: 0.2800000011920929;isolation: isolate"/>
  <path d="M980,11" style="fill: #b8dbaa"/>
  <path d="M980,11" style="fill: #b8dbaa"/>
  <path d="M10,28H2v8H1278V4h-39l2,5a4,4,0,0,1,0,2c1,0,1,1,0,1h-7l-5,2-2,2h0v6h0c1,2,0,3,0,5l-2,2a7,7,0,0,1-9,0l-5-2h-7l-6,2a6,6,0,0,1-5-3h-12l-3,2c-4,2-8,0-9-3h-2a8,8,0,0,1-7,1h-1a8,8,0,0,1-8,3c-2,0-4-1-4-3h-12l-3,2c-2,0-5,0-6-2h-13c-3,3-7,2-10-1h-12c-4,2-7,2-10-1s-1-1-1-2a3,3,0,0,1,0-2,21,21,0,0,1,0-5c0-2,0-3-2-3h-8a13,13,0,0,0-1,6,11,11,0,0,1,0,6h0a7,7,0,0,1-9,1,2,2,0,0,1-2-2,30,30,0,0,1,0-9V11h4a2,2,0,0,0,2-2h0a4,4,0,0,0,0-2c-1,0-1,0-1-1a4,4,0,0,0,1-3h-13l4,3a1,1,0,0,1,0,1h-15s-1-1,0-1a2,2,0,0,0,1-2h-11l2,3h-7l-2-2h-11l-5,4h-3l-6-2-5,2h-8a2,2,0,0,1-1,2h-7v6a48,48,0,0,1,0,9,2,2,0,0,1-1,2,8,8,0,0,1-11-1,1,1,0,0,1,0-1c-1-3,0-5,0-8h1l4-2h9l4-4h3l4-2H934l-3,3h1c1,0,1,1,1,2a2,2,0,0,0,0,2c1,1,1,3,1,4s0,3,1,4,0,1-1,1-2,3-4,4h-7a3,3,0,0,1-2-3h0V18a4,4,0,0,1,3-4h3c1,0,1-1,1-2h-4c0-1-2-2,0-4h-7a2,2,0,0,1,1,3h-4l-9-2-2-2H822c-1,0,0,0,0-1H804l-3,3h-2c-3,1-3,1-4,4a2,2,0,0,0,1,3h0a3,3,0,0,1,1,3,28,28,0,0,0,0,5v3a3,3,0,0,1-2,3,7,7,0,0,1-9,0,2,2,0,0,1-1-2,3,3,0,0,1,0-4,10,10,0,0,0,0-4,2,2,0,0,1,0-2h1c1-1,0-1,0-2h0l7-2h0c2,0,3-1,5-3h6c0-2,0-2,1-2h-4l-4,2H786l-2,3h0c-1,2-1,2-2,2h-8c0-2-1-2-2-2H732V3H530l-3,3-2,2-2,3h0V28h-2c-2,0-5,0-6-2H502c-3,3-7,2-10-1H480c-4,2-7,2-10-1s-1-1-1-2a3,3,0,0,1,0-2,21,21,0,0,1,0-5c0-2,0-3-2-3h-8a13,13,0,0,0-1,6,11,11,0,0,1,0,6h0a7,7,0,0,1-9,1l-2-2a30,30,0,0,1,0-9V12h4a2,2,0,0,0,2-2h0a4,4,0,0,0,0-2h-1a4,4,0,0,0,1-3H440l4,3a1,1,0,0,1,0,1H429s-1-1,0-1a2,2,0,0,0,1-2H419l2,3h-7l-2-2H401l-5,4h-3l-6-2-5,2h-8a2,2,0,0,1-1,2h-7v4a48,48,0,0,1,0,9,2,2,0,0,1-1,2,8,8,0,0,1-11-1,1,1,0,0,1,0-1c-1-3,0-5,0-8h1l4-2h9l4-4h3l4-2H322l-3,3h1c1,0,1,1,1,2a2,2,0,0,0,0,2c1,1,1,3,1,4s0,3,1,4,0,1-1,1l-4,4h-7a3,3,0,0,1-2-3h0V17a4,4,0,0,1,3-4h3c1,0,1-1,1-2h-4c0-1-2-2,0-4h-7a2,2,0,0,1,1,3h-4l-9-2c-1,0-1,0-2-2H231c-1,0-1,0-1-1H211c-1,0,0,0,0-1s0-1-1-1H193l-3,3h-2c-3,1-3,1-4,4a2,2,0,0,0,1,3h0a3,3,0,0,1,1,3,28,28,0,0,0,0,5v3a3,3,0,0,1-2,3,7,7,0,0,1-9,0,2,2,0,0,1-1-2,3,3,0,0,1,0-4,10,10,0,0,0,0-4,2,2,0,0,1,0-2h1c1-1,0-1,0-2h0l7-2h0c2,0,3-1,5-3h6c0-2,0-2,1-2h-4l-4,2H175c0,1-1,2-2,3h0l-2,2h-8c0-2-1-2-2-2H120V2H0v9H15l2-2H14c0,1-1,2-1,4l-2,3h0v4a6,6,0,0,1,0,2h0a2,2,0,0,1,0,2Zm1249-7h0a5,5,0,0,1,2-4h9v7a1,1,0,0,1,0,1,3,3,0,0,1-2,3l-3,2c-1,0-6,0-8-3s3-4,3-6Zm-22,0a3,3,0,0,1,2-4h7c2,0,2,1,2,3a9,9,0,0,0,1,5c1,2,0,2,0,3v2c-1,2-3,2-5,2a4,4,0,0,1-4-2h-1V28a13,13,0,0,1,0-5Zm-202-1c0-3,1-4,4-5h6c1,2,2,4,2,6a6,6,0,0,0,0,3,3,3,0,0,1,0,3,3,3,0,0,1-2,3c-4,2-6,2-9-1h0a25,25,0,0,1-1-10Zm-23-1a5,5,0,0,1,2-4c1-1,2-2,4-1h4l2,2h0a2,2,0,0,0,0,2v6h0a7,7,0,0,1-7,2c-2,0-4-1-5-4h0V19Zm-22-1a2,2,0,0,1,2-2h8c1,1,3,3,2,5a10,10,0,0,1,0,6,1,1,0,0,1,0,1c-3,3-6,3-10,1s-2-2-2-3a55,55,0,0,0,1-8ZM956,8l2,2a1,1,0,0,1,0,1h-2l-4-2ZM945,18a4,4,0,0,1,2-4l5-3h3a8,8,0,0,1,2,5v8h-1c-3,3-6,3-9,1s-2-1-2-2a9,9,0,0,1,0-5Zm-45,3a20,20,0,0,0,0-4c0-2,0-3,2-3h2l3-3h6c-2,1-2,3-2,5s0,2,1,3h0c-1,1,0,3-1,5h0a2,2,0,0,1-1,2,8,8,0,0,1-10,0V24A12,12,0,0,1,900,21ZM855,11h2c2,1,4,0,6-1h31l2-2h-3c0,1-1,2-1,4l-2,3v6a6,6,0,0,1,0,2h-1a2,2,0,0,1,0,2l-2,2h-5c-2,0-3-1-4-3s0-4-1-7a4,4,0,0,1,2-4h0a3,3,0,0,0-2-3h-8c0,1,0,2-2,2s0,1,0,1v3h0a23,23,0,0,0,0,6h-1a4,4,0,0,1-3,3,10,10,0,0,1-9-1h-1a3,3,0,0,1-1-3,46,46,0,0,0,0-6,3,3,0,0,1,1-3c1-1,1-1,0-2h2Zm-24,9V16h-1V14h3c2-1,3-3,4-5s0-1,0-2h3a7,7,0,0,0,0,2,7,7,0,0,1,0,3h0v3h-1a11,11,0,0,0,1,5v2l-3,4a8,8,0,0,1-8-1h0c0-1,1-2,0-4a2,2,0,0,1,1-2h1Zm-22,0a12,12,0,0,0,0-2V16a2,2,0,0,1,2-2l3-2h7a5,5,0,0,0,0,5c1,2,0,5,0,8h-1a3,3,0,0,1-1,3,8,8,0,0,1-8,1l-2-3a14,14,0,0,1,1-7Zm-37-9h2v2a1,1,0,0,0,0,1h0a7,7,0,0,1,2,6,9,9,0,0,0,0,2v4a5,5,0,0,1-5,3,7,7,0,0,1-6-2h-1a16,16,0,0,0,0-6,4,4,0,0,1,0-3c0-2,0-2,2-3l-3-2Zm-30,8a4,4,0,0,1,2-3h13a2,2,0,0,0-2,2,20,20,0,0,0,0,6,3,3,0,0,1-1,3,1,1,0,0,1,0,1,8,8,0,0,1-10,1,3,3,0,0,1-1-3h0a35,35,0,0,1,0-7ZM726,7h1l-2-2Zm-5,11h2V14h7l2,2,3,2h-1a26,26,0,0,1,1,7h0s-8,4-11,1h-1c-2-5-2-8-1-10Zm-23,3V17h10c0,1,1,2,0,4a5,5,0,0,0,1,3,4,4,0,0,1-1,3h-1l-6,2h-4c-1,0-1-1,0-2h0C698,24,697,23,698,21Zm-23-2a4,4,0,0,1,2-3h12a2,2,0,0,0-2,2,20,20,0,0,0,0,6,3,3,0,0,1-1,3,1,1,0,0,1,0,1,8,8,0,0,1-10,1,3,3,0,0,1-1-3h0a35,35,0,0,1,1-7Zm-22-1h2V14h7l2,2,3,2h-1a26,26,0,0,1,1,7h0s-8,4-11,1h-1c-2-5-2-8-1-10Zm-23,3V17h10c0,1,1,2,0,4a5,5,0,0,0,1,3,4,4,0,0,1-1,3h-1l-6,2h-4c-1,0-1-1,0-2h0C630,24,629,23,630,21ZM589,11h2c2,1,4,0,6-1h30l2-2h-3c0,1-1,2-1,4l-2,3v6a6,6,0,0,1,0,2h-1a2,2,0,0,1,0,2l-2,2h-5c-2,0-3-1-4-3s0-4-1-7a4,4,0,0,1,2-4h0a3,3,0,0,0-2-3h-8c0,1,0,2-2,2s0,1,0,1v3h0a23,23,0,0,0,0,6h-1a4,4,0,0,1-3,3,10,10,0,0,1-9-1h-1a3,3,0,0,1-1-3,46,46,0,0,0,0-6,3,3,0,0,1,1-3c1-1,1-1,0-2h3Zm-24,9V16h-1V14h3c2-1,3-3,4-5s0-1,0-2h3a7,7,0,0,0,0,2,7,7,0,0,1,0,3h0v3h-1a11,11,0,0,0,1,5v2l-3,4a8,8,0,0,1-8-1h0c0-1,1-2,0-4a2,2,0,0,1,1-2h1Zm-15-8h11a1,1,0,0,1,0,1l-2,2-3,2h3c2,0,2,1,2,2v5c0,2,1,3,0,4s0,0,0,1-2,3-4,3h-7c-1-1-2-1-1-3a25,25,0,0,1,1-8c-2-6-2-6,1-9ZM526,25h0a25,25,0,0,1,0-6,4,4,0,0,1,3-3h7c1,0,2,1,2,3v2a3,3,0,0,1,0,3,4,4,0,0,1-1,3c-1,1-1,2-3,3h-5c-2-1-3-1-4-3h0ZM424,18c0-3,1-4,4-5h6c1,2,2,4,2,6a6,6,0,0,0,0,3,3,3,0,0,1,0,3,3,3,0,0,1-2,3c-4,2-6,2-9-1h0a25,25,0,0,1,0-9Zm-23-1a5,5,0,0,1,2-4c1-1,2-2,4-1h4l2,2h0a2,2,0,0,0,0,2v7h0a7,7,0,0,1-7,2c-2,0-4-1-5-4h0V18Zm-22-1a2,2,0,0,1,2-2h8c1,1,3,3,2,5a10,10,0,0,1,0,6,1,1,0,0,1,0,1c-3,3-6,3-10,1s-2-2-2-3a55,55,0,0,0,1-7ZM344,6l2,2a1,1,0,0,1,0,1h-2l-4-2ZM333,16a4,4,0,0,1,2-4l5-3h3a8,8,0,0,1,2,5v9h-1c-3,3-6,3-9,1l-2-2a9,9,0,0,1,0-5h0Zm-45,3a20,20,0,0,0,0-4c0-2,0-3,2-3h2l3-3h6c-2,1-2,3-2,5s0,2,1,3h0c-1,1,0,3-1,5h0a2,2,0,0,1-1,2,8,8,0,0,1-10,0V22l2-2ZM243,9h2c2,1,4,0,6-1h32l2-2h-3c0,1-1,2-1,4l-2,3v7a6,6,0,0,1,0,2h-1a2,2,0,0,1,0,2l-2,2h-5c-2,0-3-1-4-3s0-4-1-7a4,4,0,0,1,2-4h0a3,3,0,0,0-2-3h-8c0,1,0,2-2,2s0,1,0,1v3h0a23,23,0,0,0,0,6h-1a4,4,0,0,1-3,3,10,10,0,0,1-9-1h-1a3,3,0,0,1-1-3,45,45,0,0,0,0-6,3,3,0,0,1,1-3c1-1,1-1,0-2h1Zm-24,9V14h-1V12h3c2-1,3-3,4-5s0-1,0-2h2c1,0,1,0,1,1a7,7,0,0,0,0,2,7,7,0,0,1,0,3h0v4h-1a11,11,0,0,0,1,5v2l-3,4a8,8,0,0,1-8-1h0c0-1,1-2,0-4a2,2,0,0,1,1-2l2,2Zm-22,0a12,12,0,0,0,0-2V14l2-2,3-2h7a5,5,0,0,0,0,5c1,2,0,5,0,8h-1a3,3,0,0,1-1,3,8,8,0,0,1-8,1l-2-3a14,14,0,0,1,2-6ZM160,9h2v3a1,1,0,0,0,0,1h0a7,7,0,0,1,2,6,9,9,0,0,0,0,2v4a5,5,0,0,1-5,3,7,7,0,0,1-6-2h-1a16,16,0,0,0,0-6,4,4,0,0,1,0-3c0-2,0-2,2-3l-3-2Zm-30,8a4,4,0,0,1,2-3h12a2,2,0,0,0-2,2,20,20,0,0,0,0,6,3,3,0,0,1-1,3,1,1,0,0,1,0,1,8,8,0,0,1-10,1,3,3,0,0,1-1-3h0l2-6ZM114,5h1l-2-2Zm-5,11h2V12h7l2,2,3,2h-1a26,26,0,0,1,1,7v2h0s-8,4-11,1h-1V17ZM86,19V15h9v2c0,1,1,2,0,4a5,5,0,0,0,1,3,4,4,0,0,1-1,3h0l-6,2H85c-1,0-1-1,0-2h0c3-3,3-4,3-6ZM63,17a4,4,0,0,1,2-3H77l-2,2a20,20,0,0,0,0,6,3,3,0,0,1-1,3,1,1,0,0,1,0,1,8,8,0,0,1-10,1,3,3,0,0,1-1-3h0l2-6ZM41,16h2V12h7l2,2,3,2H54a26,26,0,0,1,1,7v2h0s-8,4-11,1H43V17ZM18,19V15h9v2c0,1,1,2,0,4a5,5,0,0,0,1,3,4,4,0,0,1-1,3h0l-6,2H17c-1,0-1-1,0-2h0c3-3,2-4,3-6Z" style="fill: #cba781"/>
</svg>
