<svg xmlns="http://www.w3.org/2000/svg" width="535" height="306" viewBox="0 0 535 306">
  <title>poem</title>
  <path d="M52,236H49l-4,4H40l5-8h3l2,2,4-5h3v2l-2,4Z" transform="translate(-9 -13)" style="fill: #5a5a5c"/>
  <path d="M88,256H87l-2,2H78l-8,6-11,6a65,65,0,0,1-26,5q-13,0-19-3t-6-5a4,4,0,0,1,4-3H32q27,0,44-10l4-2h9v4Z" transform="translate(-9 -13)" style="fill: #5a5a5c"/>
  <path d="M107,237h1q0,3-3,6h-3l-3,2-4,3-4,3-2,2v-4l2-2,6-5,6-5Z" transform="translate(-9 -13)" style="fill: #5a5a5c"/>
  <path d="M116,223v22q-3,10-7,14h-7l4-3q6-5,8-11a65,65,0,0,0,1-7v-6l2-6,2-5h0Z" transform="translate(-9 -13)" style="fill: #5a5a5c"/>
  <path d="M174,209h-4l-4,4h-4l5-7h4l3-4h4l-2,3Zm0-14v4l-2,2h-4l4-7h3Z" transform="translate(-9 -13)" style="fill: #5a5a5c"/>
  <path d="M226,211q-2,5-6,7l-13,11a107,107,0,0,1-24,16,85,85,0,0,1-38,8H130q-12,27-27,40T82,302H78a2,2,0,0,1-1-2,5,5,0,0,1,1-3l2-2q23-2,39-26l4-7,4-8,5-9h16l20-2,19-6a106,106,0,0,0,24-16l10-8,5-3h1Z" transform="translate(-9 -13)" style="fill: #5a5a5c"/>
  <path d="M227,247v4q-5,14-13,14h-1l4-2,4-3,3-3,2-3a4,4,0,0,0,0-2h-3q-3,0-3-2v-5l3-4h2q4,0,4,5v7Z" transform="translate(-9 -13)" style="fill: #5a5a5c"/>
  <path d="M241,209l-3,4-3,2h-5l5-8h4Z" transform="translate(-9 -13)" style="fill: #5a5a5c"/>
  <path d="M245,235h-4l-4,3-4,4q-5,5-9,5l2-4,6-3,3-3,3-3-3-2h-5l-2,2h0l5-5h12Z" transform="translate(-9 -13)" style="fill: #5a5a5c"/>
  <path d="M269,222l-3,4-3,2h-5l5-8h4Z" transform="translate(-9 -13)" style="fill: #5a5a5c"/>
  <path d="M253,265h-2l5-2,4-3,2-3,2-3V238h1s0,0,0,1v16l-2,4-4,5Z" transform="translate(-9 -13)" style="fill: #5a5a5c"/>
  <path d="M280,251q-5,14-13,14h-1l4-2,4-3,3-3,2-3a4,4,0,0,0,0-2h-3q-3,0-3-2a9,9,0,0,1,2-4q3-5,5-5t4,5T280,251Z" transform="translate(-9 -13)" style="fill: #5a5a5c"/>
  <path d="M282,265h-2l5-2,4-3,2-3,2-3V238h1s0,0,0,1v16l-2,4-4,5Z" transform="translate(-9 -13)" style="fill: #5a5a5c"/>
  <path d="M311,247v4q-5,14-13,14h-1l4-2,4-3,3-3,2-3a4,4,0,0,0,0-2h-3q-3,0-3-2v-5l3-4h2q4,0,4,5v7Z" transform="translate(-9 -13)" style="fill: #5a5a5c"/>
  <path d="M318,211l-3,4-3,2h-5l5-8h4Z" transform="translate(-9 -13)" style="fill: #5a5a5c"/>
  <path d="M323,227h0q0,5-4,12l-2,3-3,3-3,2h-3l2-4h3l3-2,2-2V227h1Z" transform="translate(-9 -13)" style="fill: #5a5a5c"/>
  <path d="M341,239h8q3,1,2,5t-6,7h-9q-10,3-15,10t-5,22q-1,16-2,30c0,1,0,2,0,2s0-2-1-5,0-7,0-11,1-19,2-26a48,48,0,0,1,5-14l4-5,4-4,4-3,5-3,2-4Z" transform="translate(-9 -13)" style="fill: #5a5a5c"/>
  <path d="M356,269h-4l-4,4h-5l5-8h3l2,2,4-5h3v2l-2,4Z" transform="translate(-9 -13)" style="fill: #5a5a5c"/>
  <path d="M362,240l-5-2-4-3h-3l-3,2-4,4h-3a33,33,0,0,1,9-10l6-2h6a19,19,0,0,1,1,5A11,11,0,0,1,362,240Z" transform="translate(-9 -13)" style="fill: #5a5a5c"/>
  <path d="M426,189l-3,4-3,2h-5l5-8h4Z" transform="translate(-9 -13)" style="fill: #5a5a5c"/>
  <path d="M435,198q-2,9-5,12l-8,9-12,9a75,75,0,0,1-41,12h-8V229h27l15-4a75,75,0,0,0,19-11l7-7a34,34,0,0,1,4-9h1Z" transform="translate(-9 -13)" style="fill: #5a5a5c"/>
  <path d="M427,172q-6,0-7-9-13,27-32,41a69,69,0,0,1-39,14H338l-9-2q-7-3-7-6h20q32-1,54-20a86,86,0,0,0,24-33q2-6,3-6h0a18,18,0,0,0-1,6,8,8,0,0,0,2,5l4,2a8,8,0,0,1-1,4Z" transform="translate(-9 -13)" style="fill: #5a5a5c"/>
  <path d="M438,165q-6,7-11,7l3-7h3c-2-1-4-2-4-3s1-3,3-6a16,16,0,0,1,8-6q5-2,5,2a13,13,0,0,1-2,7Zm-7-6q0,2,5,4t5-6a2,2,0,0,0-3-2l-5,2Q430,158,430,159Zm52-56q0,2-2,5l-3,4-3,4-7,5-12,9-12,9-7,6-5,5h1q3-6,15-16l24-19,9-8,3-3Zm-6,1-7,7-8,6-7,4h-3l7-7,14-13,3-2h1Z" transform="translate(-9 -13)" style="fill: #5a5a5c"/>
  <path d="M459,167q-3,4-6,4t-2-3,2-6l3-4h0l2-4,3-5a7,7,0,0,1,4,7,17,17,0,0,1-1,6Zm0-5v-2l-2-2q-2,3-2,6a1,1,0,0,0,2,2h3Z" transform="translate(-9 -13)" style="fill: #5a5a5c"/>
  <path d="M480,161l-7,4-3,3-3,3-3,4-3,3-6,6-9,6h0a45,45,0,0,0,13-12l12-15,4-3,3-2a6,6,0,0,1,1,3A8,8,0,0,1,480,161Z" transform="translate(-9 -13)" style="fill: #5a5a5c"/>
  <path d="M494,160v7h-1v-4h-9v-6l7-2q5,0,7,4a2,2,0,0,1,1,2Z" transform="translate(-9 -13)" style="fill: #5a5a5c"/>
  <path d="M502,182h-4l-4,4h-4l5-7h4l3-4h4l-2,3Zm0,5v4l-2,2h-4l4-7h3Z" transform="translate(-9 -13)" style="fill: #5a5a5c"/>
  <path d="M508,147l-2,2h-2q-7,4-10,11v-4a39,39,0,0,1,8-10l-7-3h-8s0,0,0-1l4-4,3-2h16Z" transform="translate(-9 -13)" style="fill: #5a5a5c"/>
  <path d="M526,162q-4,7-7,9l-6,2h-3v-3h3l7-4,4-5v5Z" transform="translate(-9 -13)" style="fill: #5a5a5c"/>
  <path d="M538,186l-3,4-3,2h-5l5-8h4Z" transform="translate(-9 -13)" style="fill: #5a5a5c"/>
  <path d="M541,143h0s0,1,0,2a10,10,0,0,1-1,5l-4,4h-4q-3,2-6,7v-5a19,19,0,0,1,10-9l3-2h1Z" transform="translate(-9 -13)" style="fill: #5a5a5c"/>
  <path d="M54,98H50l-4,4H42l5-8h3l2,2,4-5h3v2l-2,4Z" transform="translate(-9 -13)" style="fill: #5a5a5c"/>
  <path d="M90,118H89l-2,2H80l-8,6-11,6a65,65,0,0,1-26,5q-13,0-19-3t-6-5a4,4,0,0,1,4-3H33q27,0,44-10l4-2h9v4Z" transform="translate(-9 -13)" style="fill: #5a5a5c"/>
  <path d="M109,99h1q0,3-3,6h-3l-3,2-4,3-4,3-2,2v-4l2-2,6-5,6-5Z" transform="translate(-9 -13)" style="fill: #5a5a5c"/>
  <path d="M121,81v22q-3,10-7,14h-7l4-3q6-5,8-11a65,65,0,0,0,1-7V90l2-6,2-5h0Z" transform="translate(-9 -13)" style="fill: #5a5a5c"/>
  <path d="M183,60h-4l-4,4h-4l5-7h4l3-4h4l-2,3Zm0-14v4l-2,2h-4l4-7h3Z" transform="translate(-9 -13)" style="fill: #5a5a5c"/>
  <path d="M235,62q-2,5-6,7L216,80a107,107,0,0,1-24,16,85,85,0,0,1-38,8H139q-12,27-27,40T92,153H87a2,2,0,0,1-1-2,5,5,0,0,1,1-3l2-2q23-2,39-26l4-7,4-8,5-9h16l20-2,19-6a106,106,0,0,0,24-16l10-8,5-3h1Z" transform="translate(-9 -13)" style="fill: #5a5a5c"/>
  <path d="M227,99v4q-5,14-13,14h-1l4-2,4-3,3-3,2-3a4,4,0,0,0,0-2h-3q-3,0-3-2V93l3-4h2q4,0,4,5v7Z" transform="translate(-9 -13)" style="fill: #5a5a5c"/>
  <path d="M243,69l-3,4-3,2h-5l5-8h4Z" transform="translate(-9 -13)" style="fill: #5a5a5c"/>
  <path d="M245,87h-4l-4,3-4,4q-5,5-9,5l2-4,6-3,3-3,3-3-3-2h-5l-2,2h0l5-5h12Z" transform="translate(-9 -13)" style="fill: #5a5a5c"/>
  <path d="M266,77l-3,4-3,2h-5l5-8h4Z" transform="translate(-9 -13)" style="fill: #5a5a5c"/>
  <path d="M245,118h-2l5-2,4-3,2-3,2-3V92h1s0,0,0,1v16l-2,4-4,5Z" transform="translate(-9 -13)" style="fill: #5a5a5c"/>
  <path d="M273,105q-5,14-13,14h-1l4-2,4-3,3-3,2-3a4,4,0,0,0,0-2h-3q-3,0-3-2a9,9,0,0,1,2-4q3-5,5-5t4,5T273,105Z" transform="translate(-9 -13)" style="fill: #5a5a5c"/>
  <path d="M291,105l-7,4-3,3-3,3-3,4-3,3-6,6-9,6h0a45,45,0,0,0,13-12l12-15,4-3,3-2a6,6,0,0,1,1,3A8,8,0,0,1,291,105Z" transform="translate(-9 -13)" style="fill: #5a5a5c"/>
  <path d="M303,66l-3,4-3,2h-5l5-8h4Z" transform="translate(-9 -13)" style="fill: #5a5a5c"/>
  <path d="M301,100l-3,2-6,3V99h2a5,5,0,0,1,1-4l5-7,3-2h3a7,7,0,0,1-1,3v3a4,4,0,0,1,0,2Zm2-7V92h-5q0,2,2,2h4Z" transform="translate(-9 -13)" style="fill: #5a5a5c"/>
  <path d="M316,66a118,118,0,0,1-2,20,21,21,0,0,1-5,9q-4,5-8,5l2-4,5-2,3-4a53,53,0,0,0,1-6V77l2-7,2-5Z" transform="translate(-9 -13)" style="fill: #5a5a5c"/>
  <path d="M337,94v12l-4,5-5,4-5,3h-5l-3-2,3-2,10-4,8-6v-4a7,7,0,0,0,0-2V96a6,6,0,0,0-5-3h-4V91a8,8,0,0,1,6-3h4v4Z" transform="translate(-9 -13)" style="fill: #5a5a5c"/>
  <path d="M382,78q-1,5-2,5l-5,3-6,5-7,9-7,9-10,11-9,9q-21,19-44,19H278q-6-2-6-4h12l24-3a77,77,0,0,0,29-15q9-7,23-25l11-13,9-7h3Z" transform="translate(-9 -13)" style="fill: #5a5a5c"/>
  <path d="M375,111q-5,14-13,14h-1l4-2,4-3,3-3,2-3a4,4,0,0,0,0-2h-3q-3,0-3-2a9,9,0,0,1,2-4q3-5,5-5t4,5T375,111Z" transform="translate(-9 -13)" style="fill: #5a5a5c"/>
  <path d="M377,124h-2l5-2,4-3,2-3,2-3V98h1s0,0,0,1v16l-2,4-4,5Z" transform="translate(-9 -13)" style="fill: #5a5a5c"/>
  <path d="M399,18l-3,4-3,2h-5l5-8h4Z" transform="translate(-9 -13)" style="fill: #5a5a5c"/>
  <path d="M407,48h-7l-7,3-8,4-8,4-8,6-7,7-6,7-4,8a24,24,0,0,0-2,8,27,27,0,0,0,1,7l2,5,3,4,4,4h-1l-4-3-3-4-2-6a31,31,0,0,1-1-7,40,40,0,0,1,2-14,46,46,0,0,1,6-12l9-10,11-8,9-5,8-4,7-3,6-2v5a12,12,0,0,1,0,3Z" transform="translate(-9 -13)" style="fill: #5a5a5c"/>
  <path d="M423,31h3l2,3,2,3h0l-4,4h-6l-3,2-2,3-2,2h-6V38h3v2h2l4-2Z" transform="translate(-9 -13)" style="fill: #5a5a5c"/>
  <path d="M436,53h-4l-4,4h-4l5-7h4l3-4h4l-2,3Zm0,5v4l-2,2h-4l4-7h3Z" transform="translate(-9 -13)" style="fill: #5a5a5c"/>
  <path d="M442,15l-2,4-2,3-3,2-3,2-6,5h-3l5-6h-4q0-2,4-6t11-4h4Zm-3,2H426c-1,1-1,1,0,1h4Z" transform="translate(-9 -13)" style="fill: #5a5a5c"/>
  <path d="M469,46l-3,4-3,2h-5l5-8h4Z" transform="translate(-9 -13)" style="fill: #5a5a5c"/>
  <path d="M487,49h-1v2a57,57,0,0,1-4,14,52,52,0,0,1-7,12q-9,10-19,10T442,73a37,37,0,0,1,1-7l2-7q3-7,4-7c1,0,1,0,0,2l-2,6a23,23,0,0,0-1,7,11,11,0,0,0,3,7q3,3,8,3t22-12a22,22,0,0,0,3-8V47c0-2,0-3,1-4h4v5Z" transform="translate(-9 -13)" style="fill: #5a5a5c"/>
  <path d="M487,34q1-2,3,0h12l-2,3-2,2h-1l-2,3-2,3a10,10,0,0,1-6,4V43q5,0,8-5h-6q-3,0-3-2V34Z" transform="translate(-9 -13)" style="fill: #5a5a5c"/>
  <path d="M521,23q-6,9-15,9l-4-2h-4a16,16,0,0,0-8,5h-3l3-3,4-3,8-5h4l3,2,3-3,3-3,4-3,4-2q3,0,3,3T521,23Zm0-3h0q0-2-3-2t-9,7h1A13,13,0,0,0,521,21Z" transform="translate(-9 -13)" style="fill: #5a5a5c"/>
  <path d="M507,69h-2l5-2,4-3,2-3,2-3V43h1s0,0,0,1V59l-2,4-4,5Z" transform="translate(-9 -13)" style="fill: #5a5a5c"/>
  <path d="M544,45V57l-4,5-5,4-5,3h-5l-3-2,3-2,10-4,8-6V51a7,7,0,0,0,0-2V46a6,6,0,0,0-5-3h-4V42a8,8,0,0,1,6-3h4v4Z" transform="translate(-9 -13)" style="fill: #5a5a5c"/>
</svg>
