<svg xmlns="http://www.w3.org/2000/svg" width="534.9" height="306.1" viewBox="0 0 534.9 306.1">
  <title>Untitled-1</title>
  <g>
    <path d="M50,231.7a4.5,4.5,0,0,0-1.9-1.5,6.2,6.2,0,0,0-2.9-.8l-5.2,7.5,1.7.3,1.4.6,1,.5.5.2q1.4,0,4-4.1l1.3.5,1.2.6.9.5.4.2q.8,0,2.7-2.3a10.4,10.4,0,0,0,2.3-3.7,3.4,3.4,0,0,0-1.2-2.2,3.6,3.6,0,0,0-2.7-1.2Z" transform="translate(-9 -13)" fill="#5a5a5c"/>
    <path d="M78.5,258.1l.3.2.7.5,1.4,1a2.8,2.8,0,0,0,3.6-.1l2.5-2.3,1.4-1.4h0l2.3-2.3,3.6-3,3.8-3,3.1-2.2.8-.4,1-.4a3.9,3.9,0,0,0,1.5-1q2.9-3,2.9-5.6c0-.5-.2-.8-.5-.8h-.3l-4.6,3.3-5.7,4.6-5.7,4.8L88.4,252h0a8.2,8.2,0,0,1-5.1,1.4,5.6,5.6,0,0,1-1.9-.3l-1.6-.3q-.6,0-4.2,2.4-17.4,10.3-44.2,10.3a72.7,72.7,0,0,1-9.9-.8l-5.1-.6H12.8A3.8,3.8,0,0,0,9,266.5q0,2.5,6,5.5t19.1,3a65.2,65.2,0,0,0,25.5-5.3,73.4,73.4,0,0,0,10.9-5.5,44.4,44.4,0,0,0,7.8-6.1Z" transform="translate(-9 -13)" fill="#5a5a5c"/>
    <path d="M116.3,222.2a21.4,21.4,0,0,0-2.1,4.8,30.4,30.4,0,0,0-1.8,6.3,12.7,12.7,0,0,0-.2,2.2c0,1.1-.1,2.5-.2,4.3a64.7,64.7,0,0,1-.6,7.3q-1.1,6-7.5,11-3.6,2.8-3.6,3.1c0,.1.6.2,1.7.2a9.6,9.6,0,0,0,3.1-.6,6.2,6.2,0,0,0,2.2-1.2q4.1-4.2,6.7-13.9a36.7,36.7,0,0,0,.9-4.5q.4-2.7.7-6.4t.6-7.3q.3-2.8.5-4a4.3,4.3,0,0,0,.1-1.2C116.5,222.1,116.4,222,116.3,222.2Z" transform="translate(-9 -13)" fill="#5a5a5c"/>
    <path d="M169.3,200.4q.8,0,2.3-1.9a14.1,14.1,0,0,0,1.3-1.9l.9-1.7q.3-.6-1.2-1.9a5,5,0,0,0-3-1.2l-4.3,7.1a6.9,6.9,0,0,1,2.7.8Z" transform="translate(-9 -13)" fill="#5a5a5c"/>
    <path d="M165.2,210.1l1.4.7q1.3,0,3.6-3.8a9.1,9.1,0,0,1,2.3,1l1.2.7q.7,0,2.5-2.1a9.7,9.7,0,0,0,2.1-3.4,2,2,0,0,0-.3-1l-.8-1-1.1-.8a2.8,2.8,0,0,0-1.3-.3l-3.3,4.3a3.9,3.9,0,0,0-1.7-1.4,5.5,5.5,0,0,0-2.6-.7l-4.7,6.9A6,6,0,0,1,165.2,210.1Z" transform="translate(-9 -13)" fill="#5a5a5c"/>
    <path d="M220.8,217.9q3.1-1.5,5.6-6.9l.5-1.6h-.1l-.8.3a30,30,0,0,0-4.8,3.2q-3.6,2.7-9.6,7.8a106,106,0,0,1-24.2,15.6,84.7,84.7,0,0,1-18.5,6,102.3,102.3,0,0,1-20.3,2,62.4,62.4,0,0,1-10.2-.7l-3-.5-.8-.2a3.1,3.1,0,0,0-1.9.8q-1.6,1.4-5.1,8.8-2.1,4.6-4.2,8.4a70.3,70.3,0,0,1-4.2,6.8q-16.5,23.9-39.3,26.3a3.6,3.6,0,0,0-2.5,1.7,5.3,5.3,0,0,0-1.1,3.2,2.4,2.4,0,0,0,1.4,2.5,11.9,11.9,0,0,0,4.7.8q10,0,21.1-9.7,14.7-13,26.8-40.1c.1-.4.4-.6.7-.6l.7.2,1.5.5a23.6,23.6,0,0,0,4.5,1.2,48.4,48.4,0,0,0,8.2.6,85.1,85.1,0,0,0,37.6-8.4,107.4,107.4,0,0,0,24-16.5Q219.6,218.5,220.8,217.9Z" transform="translate(-9 -13)" fill="#5a5a5c"/>
    <path d="M235.5,205.3l-5,8.3,1.7.4,1.5.5,1.1.5.5.2q1,0,2.7-2.3a18.4,18.4,0,0,0,2.6-4.2q.3-.7-1.5-2.1A5.9,5.9,0,0,0,235.5,205.3Z" transform="translate(-9 -13)" fill="#5a5a5c"/>
    <path d="M245.5,234.6a7,7,0,0,0,1-2.8c0-.5-.3-.7-.8-.7l-1,.2-1,.2a9.4,9.4,0,0,1-3.5-1.4,15,15,0,0,0-2.8-1.2,3.9,3.9,0,0,0-3,.3,16.4,16.4,0,0,0-5.2,4.9,1.3,1.3,0,0,0-.3.6c0,.2.1.2.5-.1l2.1-1.5a3.7,3.7,0,0,1,2.5-.9,5.2,5.2,0,0,1,3,.9l2.7,1.9-3.3,3-3.4,3a16.1,16.1,0,0,1-4.7,2.8h0a18.7,18.7,0,0,0,.3-3.1q0-4.5-3.6-4.5a3.6,3.6,0,0,0-2.5,1.4,27.1,27.1,0,0,0-2.9,3.8,12.5,12.5,0,0,0-1.3,2.7,7.1,7.1,0,0,0-.4,2.1q0,2.2,3.3,2.2h2.1a1.5,1.5,0,0,1,.9,1.1,3.6,3.6,0,0,1-.1,1.5,9.3,9.3,0,0,1-1.6,3.1,19.7,19.7,0,0,1-2.8,3,25.2,25.2,0,0,1-3.6,2.5,14.9,14.9,0,0,1-3.8,1.6,12.1,12.1,0,0,1-3.1.4H205c-.4,0-.7.2-.7.5s.3.7.8,1.1a8.7,8.7,0,0,0,2.1.9l2.8.6,3.1.2q8,0,13.1-13.6l.7-1.8.5-1.5a20.6,20.6,0,0,0,6.6-4.2l3.8-3.5,3.8-3.4a5,5,0,0,1,1.4-1l1.3-.4A1.8,1.8,0,0,0,245.5,234.6Z" transform="translate(-9 -13)" fill="#5a5a5c"/>
    <path d="M263.7,218.6l-5,8.3,1.7.4,1.5.5,1.1.5.5.2q1,0,2.7-2.3a18.4,18.4,0,0,0,2.6-4.2q.3-.7-1.5-2.1A5.9,5.9,0,0,0,263.7,218.6Z" transform="translate(-9 -13)" fill="#5a5a5c"/>
    <path d="M313.1,207.7l-5,8.3,1.7.4,1.5.5,1.1.5.5.2q1,0,2.7-2.3a18.4,18.4,0,0,0,2.6-4.2q.3-.7-1.5-2.1A5.9,5.9,0,0,0,313.1,207.7Z" transform="translate(-9 -13)" fill="#5a5a5c"/>
    <path d="M311.5,247.6a12.4,12.4,0,0,0,3-1.9,17,17,0,0,0,2.5-2.7,22.8,22.8,0,0,0,2-3.1q3.6-6.5,3.6-11.7a4.3,4.3,0,0,0,0-.6,3.5,3.5,0,0,1,0-.6v-.8a1.2,1.2,0,0,0-.1-.5c-.1-.1-.2-.1-.3,0l-.5.8-1,1.9-1.1,1.9a9.9,9.9,0,0,0-1.4,3.6v2.8a5.3,5.3,0,0,1-.7,2.6,9.1,9.1,0,0,1-1.9,2.3,10.3,10.3,0,0,1-2.5,1.7l-1.2.5h0a18.7,18.7,0,0,0,.3-3.1q0-4.5-3.6-4.5a3.6,3.6,0,0,0-2.5,1.4,27.1,27.1,0,0,0-2.9,3.8,12.5,12.5,0,0,0-1.3,2.7,7.1,7.1,0,0,0-.4,2.1q0,2.2,3.3,2.2h2.1a1.5,1.5,0,0,1,.9,1.1,3.6,3.6,0,0,1-.1,1.5A9.3,9.3,0,0,1,306,254a19.7,19.7,0,0,1-2.8,3,25.2,25.2,0,0,1-3.6,2.5,14.9,14.9,0,0,1-3.8,1.6,12.1,12.1,0,0,1-3.1.4h-3.3a14.4,14.4,0,0,0,2.5-3.5,25.6,25.6,0,0,0,1.6-3.6,44.9,44.9,0,0,0,1.3-4.4q.6-2.2,1-4.4t.6-3.7a34.7,34.7,0,0,0,.3-3.6c0-1-.1-1.4-.3-1.4s-.4.4-.7,1.5-.6,2.2-.9,3.5-.6,2.3-1,3.5a36.7,36.7,0,0,1-1.4,3.7,36.2,36.2,0,0,1-1.8,3.5,28.5,28.5,0,0,1-2.1,3.1,15.5,15.5,0,0,1-4,3.5,13.5,13.5,0,0,1-5,1.9l-3,.3h-2.5q3.4-3.4,6-10.3t2.5-9.8q0-4.5-3.6-4.5t-5.3,4.8A9.2,9.2,0,0,0,272,246q0,2.2,3.3,2.2h2.1a1.5,1.5,0,0,1,.9,1.1,3.6,3.6,0,0,1-.1,1.5,9.3,9.3,0,0,1-1.6,3.1,19.7,19.7,0,0,1-2.8,3,25.2,25.2,0,0,1-3.6,2.5,14.9,14.9,0,0,1-3.8,1.6,12.1,12.1,0,0,1-3.1.4H260a14.4,14.4,0,0,0,2.5-3.5,25.6,25.6,0,0,0,1.6-3.6,44.9,44.9,0,0,0,1.3-4.4q.6-2.2,1-4.4t.6-3.7a34.7,34.7,0,0,0,.3-3.6c0-1-.1-1.4-.3-1.4s-.4.4-.7,1.5-.6,2.2-.9,3.5-.6,2.3-1,3.5a36.7,36.7,0,0,1-1.4,3.7,36.2,36.2,0,0,1-1.8,3.5,28.5,28.5,0,0,1-2.1,3.1,15.5,15.5,0,0,1-4,3.5,13.5,13.5,0,0,1-5,1.9l-3,.3h-2.8c-.2,0-.3.2-.3.4s.2.6.7.9a7.7,7.7,0,0,0,1.9.9l2.7.7,3.1.3a9.7,9.7,0,0,0,5.9-1.9l.3-.2.5.4a8.7,8.7,0,0,0,2.1.9l2.8.6,3.1.2a9.6,9.6,0,0,0,6.5-2.7,1.6,1.6,0,0,0,.7.8,7.7,7.7,0,0,0,1.9.9l2.7.7,3.1.3a9.7,9.7,0,0,0,5.9-1.9l.3-.2.5.4a8.7,8.7,0,0,0,2.1.9l2.8.6,3.1.2q8,0,13.1-13.6l.7-1.8.5-1.4Z" transform="translate(-9 -13)" fill="#5a5a5c"/>
    <path d="M356.6,260l-3.6,4.7a4.5,4.5,0,0,0-1.9-1.5,6.1,6.1,0,0,0-2.9-.8l-5.2,7.5,1.7.3,1.4.6,1,.5.5.2q1.4,0,4-4.1l1.3.5,1.2.6.9.5.4.2q.8,0,2.7-2.3a10.4,10.4,0,0,0,2.3-3.7,3.4,3.4,0,0,0-1.2-2.2A3.6,3.6,0,0,0,356.6,260Z" transform="translate(-9 -13)" fill="#5a5a5c"/>
    <path d="M419.9,195.1l.5.2q1,0,2.7-2.3a18.4,18.4,0,0,0,2.6-4.2q.3-.7-1.5-2.1a5.9,5.9,0,0,0-3.6-1.4l-5,8.3,1.7.4,1.5.5Z" transform="translate(-9 -13)" fill="#5a5a5c"/>
    <path d="M433.6,197.4a34.1,34.1,0,0,0-4.3,8.9q-.4,1.5-6.6,6.7a75.4,75.4,0,0,1-33.6,15.5,85.7,85.7,0,0,1-15.7,1.4l-5.9-.2a47.3,47.3,0,0,1-5.7-.8l-3.1-.9a9.7,9.7,0,0,0-2.9-.5,11.5,11.5,0,0,0-6.2,2.2,33.2,33.2,0,0,0-9.2,9.6l-2.7,4.4c-.8,1.4-1.4,2.6-1.9,3.7l-4.9,2.7a40.3,40.3,0,0,0-4.3,2.9,31.1,31.1,0,0,0-3.9,4,44.8,44.8,0,0,0-3.9,5.5,47.6,47.6,0,0,0-5.4,14.3q-2.1,10-2.1,25.9,0,5.6.4,11t.6,5.4c.2,0,.4-.6.4-1.9q.6-13.9,1.6-30t5.4-22.4q4.5-6.4,14.7-9.6l2.5-.5,2.1-.5,2.2-.6,2.6-.7q3.9-1.2,6.1-7.2,1.5-3.4-1.9-4.9a15.2,15.2,0,0,0-4.9-1.3h0a38.2,38.2,0,0,1,3.7-3.5,10.3,10.3,0,0,1,3-1.8,2.2,2.2,0,0,1,1.6,0,4.6,4.6,0,0,1,1.4,1.1,20.9,20.9,0,0,0,4,3,13.3,13.3,0,0,0,4.9,1.5l4.3.5h3.5a74.9,74.9,0,0,0,40.7-12.1,88.1,88.1,0,0,0,11.7-8.8,52.8,52.8,0,0,0,8.2-9.2q2.5-3.8,4.6-12.5a1.6,1.6,0,0,0,.1-.6v-.4q0-.4-.1-.4C434.5,196.3,434.1,196.6,433.6,197.4Z" transform="translate(-9 -13)" fill="#5a5a5c"/>
    <path d="M474,116.4a30,30,0,0,0,3.4-3.6,47.2,47.2,0,0,0,2.9-4q2.4-3.5,2.2-5.1c0-.5-.1-.7-.2-.7l-2.9,3.1a79.9,79.9,0,0,1-9.1,8.5l-23.9,18.6q-11.7,9.7-14.8,16.1l-.6,1.3-.2.7c0,.1.1.2.1.2s2.1-1.7,5.5-5q2.4-2.4,7.1-6.2l11.8-9.3,12.2-9.3Z" transform="translate(-9 -13)" fill="#5a5a5c"/>
    <path d="M462,117.8a82.4,82.4,0,0,0,7.9-6.1,55.8,55.8,0,0,0,6.5-6.8,2.3,2.3,0,0,0,.8-1.6.8.8,0,0,0-.8-.9q-1.2.1-2.9,1.9a94.8,94.8,0,0,1-13.7,12.5q-7.5,5.5-7.4,6.6t2.9-1.3Z" transform="translate(-9 -13)" fill="#5a5a5c"/>
    <path d="M439.1,149.4a15.9,15.9,0,0,0-7.9,5.8q-3.2,4.2-3.1,6.1c.1,1.2,1.4,2.2,3.8,2.9a5,5,0,0,1-2.8.9,5.7,5.7,0,0,1-4.3-1.6,7.7,7.7,0,0,1-2.2-5.5,18.3,18.3,0,0,1,1-6.5,5.5,5.5,0,0,0,.2-1,4.7,4.7,0,0,0,0-.8c0-.3-.1-.5-.2-.5s-1.6,1.9-3.1,5.6a85.6,85.6,0,0,1-23.9,33.2q-22,18.9-54.2,20.2h-4.7l-5.4-.2L328,208h-2.2q-2.7.1-3.4,1.4a1.9,1.9,0,0,0-.2.9q.1,3.2,6.8,5.7a42.2,42.2,0,0,0,8.8,2.1,63.5,63.5,0,0,0,10.9.4,68.6,68.6,0,0,0,38.9-14.2q19.1-14.3,32.2-41.3.4,9.7,6.8,9.5h0q5.6-.2,11.2-7.1a34.3,34.3,0,0,0,4.7-6.8,12.5,12.5,0,0,0,1.7-7.3Q444,147.8,439.1,149.4Zm-4,13.4q-4.6-1.3-4.7-3.5t2.5-3.2a9.1,9.1,0,0,1,5.1-1.7,2.3,2.3,0,0,1,2.6,2.4Q440.6,159,435.1,162.8Z" transform="translate(-9 -13)" fill="#5a5a5c"/>
    <path d="M450.5,168.7q0,2.9,2.4,2.9t6.3-4.2a19.5,19.5,0,0,0,3.3-5.6,17.3,17.3,0,0,0,1.4-6.4,7.4,7.4,0,0,0-4.2-6.9q-.6-.3-3.1,4.9a15.5,15.5,0,0,0-1.5,4.5v.3a19.7,19.7,0,0,0-2.7,4.3Q450.5,166.6,450.5,168.7Zm5.2-10.1a6.5,6.5,0,0,1,2.5,1.9,3.4,3.4,0,0,1,1.1,2.3,2.8,2.8,0,0,1-1.4,2.1,5.4,5.4,0,0,1-2.9,1,1.4,1.4,0,0,1-1.6-1.6Q453.4,162.1,455.8,158.7Z" transform="translate(-9 -13)" fill="#5a5a5c"/>
    <path d="M505.2,174.5l-1.1-.8a2.8,2.8,0,0,0-1.3-.3l-3.3,4.3a3.9,3.9,0,0,0-1.7-1.4,5.6,5.6,0,0,0-2.6-.7l-4.7,6.9,1.6.2,1.3.5.9.5.5.2q1.2,0,3.6-3.8a9.2,9.2,0,0,1,2.3,1l1.2.7c.5,0,1.3-.7,2.5-2.1a9.5,9.5,0,0,0,2.1-3.4,2,2,0,0,0-.3-1A4,4,0,0,0,505.2,174.5Z" transform="translate(-9 -13)" fill="#5a5a5c"/>
    <path d="M500.5,184.7a5,5,0,0,0-3-1.2l-4.2,7.1a7.5,7.5,0,0,1,2.7.9l1.4.7q.8,0,2.3-2a14.3,14.3,0,0,0,1.3-1.9l.9-1.7C502,186.2,501.5,185.6,500.5,184.7Z" transform="translate(-9 -13)" fill="#5a5a5c"/>
    <path d="M509,141.9l-1.3.2-1.3.2a11.8,11.8,0,0,1-2.7-1l-3.4-1.4a9.4,9.4,0,0,0-2.9-.7,7.2,7.2,0,0,0-2.9.5,12.2,12.2,0,0,0-3.4,2.2q-3.5,3.1-4.2,4.5c-.2.5-.2.7,0,.7l.9-.4,1.5-1.1,1.7-1.2,1.8-1a5.1,5.1,0,0,1,2-.4q1.9,0,6.6,2.8a39.2,39.2,0,0,0-7.6,10h0q-1.9-4-6.7-4a14.6,14.6,0,0,0-7.2,2.3,18.9,18.9,0,0,0-3.2,2.1,39.9,39.9,0,0,0-3.7,3.4q-3.8,4-11.9,15.4a44.5,44.5,0,0,1-13.4,12.1l-1.7,1.1a2.1,2.1,0,0,0-.6.7c-.1.2-.1.3.1.4h.5l1.8-.5a35.7,35.7,0,0,0,8.9-5.5,37.2,37.2,0,0,0,5.7-6.1l2.6-3.1,3-3.6,2.5-3.5a14.9,14.9,0,0,1,2.5-2.6,32.3,32.3,0,0,1,7-4,9.9,9.9,0,0,1,3.6-.8l1.9.2,1.9.7a6.6,6.6,0,0,1,1.6,1.2,3.8,3.8,0,0,1,1,1.5l.2,2.7c.1.9.4,1.4.8,1.4s.7-.6,1-1.9l1-3.3.8-2.3h0q2.4-6.6,9.5-11l.9-.3,1.5-.4a3.8,3.8,0,0,0,2.2-1.5q2-2.9,2-4C509.9,142.2,509.6,141.9,509,141.9Z" transform="translate(-9 -13)" fill="#5a5a5c"/>
    <path d="M536.8,183.8a6,6,0,0,0-3.6-1.4l-5,8.3,1.7.4,1.5.5,1.1.5.6.2q1,0,2.7-2.3a15.8,15.8,0,0,0,2.6-4.1Q538.5,185.2,536.8,183.8Z" transform="translate(-9 -13)" fill="#5a5a5c"/>
    <path d="M540.8,142.6l-.3.5a11.8,11.8,0,0,1-.6,2,7,7,0,0,1-.7,1.3,7.4,7.4,0,0,1-3,1.9,19.2,19.2,0,0,0-9.8,9.3h0a19.1,19.1,0,0,1-3.6,5.3,24.8,24.8,0,0,1-7.3,3.7l-1.5.8-1.5,1.2a3.8,3.8,0,0,0-1.4,2.5,1.3,1.3,0,0,0,.3,1,3.1,3.1,0,0,0,2.4.7,10.3,10.3,0,0,0,5.6-1.6q3.6-2.1,7.1-8.8h0q2.9-5.2,5.7-6.8l1.9-.9,1.8-.9a13.4,13.4,0,0,0,4-4.3,10.1,10.1,0,0,0,1.3-5.1C541.1,143.2,541,142.6,540.8,142.6Z" transform="translate(-9 -13)" fill="#5a5a5c"/>
    <path d="M44.9,99.5l1,.5.5.2q1.4,0,4-4.1l1.3.5,1.2.6.9.5.4.2q.8,0,2.7-2.3a10.4,10.4,0,0,0,2.3-3.7,3.4,3.4,0,0,0-1.2-2.2,3.6,3.6,0,0,0-2.7-1.2l-3.6,4.7a4.5,4.5,0,0,0-1.9-1.5,6.2,6.2,0,0,0-2.9-.8l-5.2,7.5,1.7.3Z" transform="translate(-9 -13)" fill="#5a5a5c"/>
    <path d="M16.9,133.7q6.1,3.1,19.1,3a65.2,65.2,0,0,0,25.5-5.3,73.4,73.4,0,0,0,10.9-5.5,44.4,44.4,0,0,0,7.8-6.1h.1l.3.2.7.5,1.4,1a2.8,2.8,0,0,0,3.6-.1l2.5-2.3,1.4-1.4h0l2.3-2.3,3.6-3,3.8-3,3.1-2.2.8-.4,1-.4a3.9,3.9,0,0,0,1.5-1q2.9-3,2.9-5.6c0-.5-.2-.8-.5-.8h-.3l-4.6,3.3L98.2,107l-5.7,4.8-2.3,1.8h0a8.2,8.2,0,0,1-5.1,1.4,5.6,5.6,0,0,1-1.9-.3l-1.6-.3q-.6,0-4.2,2.4-17.4,10.3-44.2,10.3a72.7,72.7,0,0,1-9.9-.8l-5.1-.6H14.6a3.8,3.8,0,0,0-3.8,2.6Q10.8,130.8,16.9,133.7Z" transform="translate(-9 -13)" fill="#5a5a5c"/>
    <path d="M104.4,118.3c0,.1.6.2,1.7.2a9.6,9.6,0,0,0,3.1-.6,6.2,6.2,0,0,0,2.2-1.2q4.1-4.2,6.7-13.9a36.7,36.7,0,0,0,.9-4.5q.4-2.7.7-6.4t.6-7.3q.3-2.8.5-4a4.3,4.3,0,0,0,.1-1.2c0-.2-.1-.2-.3-.1a21.4,21.4,0,0,0-2.1,4.8,30.4,30.4,0,0,0-1.8,6.3,12.7,12.7,0,0,0-.2,2.2c0,1.1-.1,2.5-.2,4.3a64.7,64.7,0,0,1-.6,7.3q-1.1,6-7.5,11Q104.4,118,104.4,118.3Z" transform="translate(-9 -13)" fill="#5a5a5c"/>
    <path d="M175.7,62q1.3,0,3.6-3.8a9.2,9.2,0,0,1,2.3,1l1.2.7q.7,0,2.5-2.1a9.7,9.7,0,0,0,2.1-3.4,2,2,0,0,0-.3-1l-.8-1-1.1-.8a2.8,2.8,0,0,0-1.3-.3l-3.3,4.3a3.9,3.9,0,0,0-1.7-1.4,5.5,5.5,0,0,0-2.6-.7l-4.7,6.9a6,6,0,0,1,2.9.9Z" transform="translate(-9 -13)" fill="#5a5a5c"/>
    <path d="M178.4,51.6q.8,0,2.3-1.9a14.1,14.1,0,0,0,1.3-1.9l.9-1.7q.3-.6-1.2-1.9a5,5,0,0,0-3-1.2l-4.3,7.1a6.9,6.9,0,0,1,2.7.8Z" transform="translate(-9 -13)" fill="#5a5a5c"/>
    <path d="M89,145a3.6,3.6,0,0,0-2.5,1.7,5.3,5.3,0,0,0-1.1,3.2,2.4,2.4,0,0,0,1.4,2.5,11.9,11.9,0,0,0,4.7.8q10,0,21.1-9.7,14.7-13,26.8-40.1c.1-.4.4-.6.7-.6l.7.2,1.5.5a23.6,23.6,0,0,0,4.5,1.2,48.4,48.4,0,0,0,8.2.6,85.1,85.1,0,0,0,37.6-8.4,107.4,107.4,0,0,0,24-16.5Q228.7,69.6,229.9,69q3.1-1.5,5.6-6.9l.5-1.6h-.1l-.8.3a30,30,0,0,0-4.8,3.2q-3.6,2.7-9.6,7.8a106,106,0,0,1-24.2,15.6,84.7,84.7,0,0,1-18.5,6,102.3,102.3,0,0,1-20.3,2,62.4,62.4,0,0,1-10.2-.7l-3-.5-.8-.2a3.1,3.1,0,0,0-1.9.8q-1.6,1.4-5.1,8.8-2.1,4.6-4.2,8.4a70.3,70.3,0,0,1-4.2,6.8Q111.8,142.6,89,145Z" transform="translate(-9 -13)" fill="#5a5a5c"/>
    <path d="M234.5,73.8l1.5.5,1.1.5.5.2q1,0,2.7-2.3a18.4,18.4,0,0,0,2.6-4.2q.3-.7-1.5-2.1a5.9,5.9,0,0,0-3.6-1.4l-5,8.3Z" transform="translate(-9 -13)" fill="#5a5a5c"/>
    <path d="M237.1,80.9a3.9,3.9,0,0,0-3,.3,16.4,16.4,0,0,0-5.2,4.9,1.3,1.3,0,0,0-.3.6c0,.2.1.2.5-.1l2.1-1.5a3.7,3.7,0,0,1,2.5-.9,5.2,5.2,0,0,1,3,.9l2.7,1.9-3.3,3-3.4,3a16.1,16.1,0,0,1-4.7,2.8h0a18.7,18.7,0,0,0,.3-3.1q0-4.5-3.6-4.5a3.6,3.6,0,0,0-2.5,1.4,27.1,27.1,0,0,0-2.9,3.8,12.5,12.5,0,0,0-1.3,2.7,7.1,7.1,0,0,0-.4,2.1q0,2.2,3.3,2.2h2.1a1.5,1.5,0,0,1,.9,1.1,3.6,3.6,0,0,1-.1,1.5,9.3,9.3,0,0,1-1.6,3.1,19.7,19.7,0,0,1-2.8,3,25.2,25.2,0,0,1-3.6,2.5,14.9,14.9,0,0,1-3.8,1.6,12.1,12.1,0,0,1-3.1.4h-4.4c-.4,0-.7.2-.7.5s.3.7.8,1.1a8.7,8.7,0,0,0,2.1.9l2.8.6,3.1.2q8,0,13.1-13.6l.7-1.8.5-1.5a20.6,20.6,0,0,0,6.6-4.2l3.8-3.5,3.8-3.4a5,5,0,0,1,1.4-1l1.3-.4a1.8,1.8,0,0,0,1.1-.9,7,7,0,0,0,1-2.8c0-.5-.3-.7-.8-.7l-1,.2-1,.2a9.4,9.4,0,0,1-3.5-1.4A15,15,0,0,0,237.1,80.9Z" transform="translate(-9 -13)" fill="#5a5a5c"/>
    <path d="M258.9,82.3l1.1.5.5.2q1,0,2.7-2.3a18.4,18.4,0,0,0,2.6-4.2q.3-.7-1.5-2.1a5.9,5.9,0,0,0-3.6-1.4l-5,8.3,1.7.4Z" transform="translate(-9 -13)" fill="#5a5a5c"/>
    <path d="M240.1,115.1h-2.8c-.2,0-.3.2-.3.4s.2.6.7.9a7.7,7.7,0,0,0,1.9.9l2.7.7,3.1.3a9.7,9.7,0,0,0,5.9-1.9l.3-.2.5.4a8.7,8.7,0,0,0,2.1.9l2.8.6,3.1.2q8,0,13.1-13.6,2.5-6.2,2.5-9.8t-3.6-4.5q-2.3,0-5.3,4.8a9.2,9.2,0,0,0-1.7,4.5q0,2.2,3.3,2.2h2.1a1.5,1.5,0,0,1,.9,1.1,3.6,3.6,0,0,1-.1,1.5,9.3,9.3,0,0,1-1.6,3.1,19.7,19.7,0,0,1-2.8,3,25.2,25.2,0,0,1-3.6,2.5,14.9,14.9,0,0,1-3.8,1.6,12.1,12.1,0,0,1-3.1.4h-3.3a14.4,14.4,0,0,0,2.5-3.5A25.6,25.6,0,0,0,257,108a44.9,44.9,0,0,0,1.3-4.4q.6-2.2,1-4.4t.6-3.7a34.7,34.7,0,0,0,.3-3.6c0-1-.1-1.4-.3-1.4s-.4.4-.7,1.5-.6,2.2-.9,3.5-.6,2.3-1,3.5a36.7,36.7,0,0,1-1.4,3.7,36.2,36.2,0,0,1-1.8,3.5,28.5,28.5,0,0,1-2.1,3.1,15.5,15.5,0,0,1-4,3.5,13.5,13.5,0,0,1-5,1.9Z" transform="translate(-9 -13)" fill="#5a5a5c"/>
    <path d="M259.2,131.8l-1.7,1.1a2.1,2.1,0,0,0-.6.7c-.1.2-.1.3.1.4h.5l1.8-.5a35.7,35.7,0,0,0,8.9-5.5,37.2,37.2,0,0,0,5.7-6.1l2.6-3.1,3-3.6,2.5-3.5a14.9,14.9,0,0,1,2.5-2.6,32.3,32.3,0,0,1,7-4,54.3,54.3,0,0,0,6-3,15.4,15.4,0,0,0,3.2-2.4h0q4.2,0,8.3-4.8a20.7,20.7,0,0,0,4.5-9,118.3,118.3,0,0,0,2.3-20.4c0-.4,0-.6-.1-.6s-1.1,1.6-2.2,4.8a34.3,34.3,0,0,0-1.9,6.8q-.3,3.1-.5,6.1a52.8,52.8,0,0,1-.7,6.1,8.1,8.1,0,0,1-2.6,4.3q-2.5,2.5-4.8,2.5h0a12.8,12.8,0,0,0,1.4-2.5,7.5,7.5,0,0,0,.5-2.8,7.9,7.9,0,0,0-.1-1.4,4.4,4.4,0,0,0-.5-1.4,3.5,3.5,0,0,0-.9-1.1,2.2,2.2,0,0,0-1.4-.4,4.2,4.2,0,0,0-3.2,1.6,41.7,41.7,0,0,0-4.6,6.9,4.8,4.8,0,0,0-.8,3.5l-1.9,1a18.9,18.9,0,0,0-3.2,2.1,39.9,39.9,0,0,0-3.7,3.4q-3.8,4-11.9,15.4A44.5,44.5,0,0,1,259.2,131.8Zm37.3-39a4,4,0,0,1,.9-1l1.2-.7,1.2-.3a2.4,2.4,0,0,1,1.7.7,2.3,2.3,0,0,1,.8,1.8,2.2,2.2,0,0,1-.7,1.5,3.2,3.2,0,0,1-1.4.9h-2.3q-1.7-.2-1.7-1.7A2.2,2.2,0,0,1,296.5,92.8Z" transform="translate(-9 -13)" fill="#5a5a5c"/>
    <path d="M296.2,71.7l1.1.5.5.2q1,0,2.7-2.3a18.4,18.4,0,0,0,2.6-4.2q.3-.7-1.5-2.1a5.9,5.9,0,0,0-3.6-1.4l-5,8.3,1.7.4Z" transform="translate(-9 -13)" fill="#5a5a5c"/>
    <path d="M332.9,102.6a14.6,14.6,0,0,1-1.4,2,25.6,25.6,0,0,1-7.5,6,51.1,51.1,0,0,1-9.8,3.9q-2.5.8-2.5,1.6t2.9,1.9a8,8,0,0,0,5.1,0,18.4,18.4,0,0,0,5.4-2.7,31.5,31.5,0,0,0,4.9-4.4,34.8,34.8,0,0,0,3.9-5.1,17.5,17.5,0,0,0,1.3-2.5,31.4,31.4,0,0,0,1.2-3,28.1,28.1,0,0,0,.8-3.1,14.8,14.8,0,0,0,.3-2.9,6.7,6.7,0,0,0-.4-2.3,6.3,6.3,0,0,0-1.2-2,6.4,6.4,0,0,0-1.8-1.4,4.9,4.9,0,0,0-2.3-.5,7.8,7.8,0,0,0-6,3.1c-.9.9-1.3,1.6-1.3,2.1s.1.3.4.2H326l1.2-.2h.9a5.8,5.8,0,0,1,5.3,2.7,5,5,0,0,1,.7,2.2,6.7,6.7,0,0,1-.2,2.3A8.6,8.6,0,0,1,332.9,102.6Z" transform="translate(-9 -13)" fill="#5a5a5c"/>
    <path d="M336,121.4a77.1,77.1,0,0,1-29.2,15.2,103.8,103.8,0,0,1-23.7,3.2q-10.6.3-11.2,1.2a2,2,0,0,0-.3,1.1q0,2.5,6.1,4.4a41.2,41.2,0,0,0,6.6,1.4,53.6,53.6,0,0,0,7.4.5q23.6,0,44.5-19,4.3-3.9,8.9-8.9c2.7-2.9,5.6-6.2,8.6-9.7l.8.8a30.5,30.5,0,0,0,4.1,3.5l1.7,1.1,1,.5q.3.1-.1-.4l-1.5-1.5a45.3,45.3,0,0,1-3.7-3.5l-1.4-1.7h0l7.3-8.9,7.3-9a37.2,37.2,0,0,1,6.1-5.5,14.8,14.8,0,0,1,5.2-2.7q1-.2,1.9-5a3.9,3.9,0,0,0,.1-.9c0-1-.4-1.4-1.2-1.4a3.6,3.6,0,0,0-1.9.8,53.6,53.6,0,0,0-8.7,7.3q-5,4.9-11.4,12.6l-7.3,8.5a22.9,22.9,0,0,1-1-3.1,27.5,27.5,0,0,1-.7-6.7,24,24,0,0,1,1.5-8.4,39.4,39.4,0,0,1,4.2-8.1,54.1,54.1,0,0,1,6-7.5,86.9,86.9,0,0,1,7.2-6.7,84.6,84.6,0,0,1,7.7-5.7q3.9-2.6,7.5-4.5l7.7-4a45.5,45.5,0,0,1,7.4-3l2.1-.7,1.4-.3a2.9,2.9,0,0,1,1.8.8,2.8,2.8,0,0,0,2.2.8h0a17.2,17.2,0,0,0,3.3-.3,7.7,7.7,0,0,0,2.5-1,11.1,11.1,0,0,0,2.2-1.8l2.3-2.7a5.6,5.6,0,0,1,2.6-1.9,4.9,4.9,0,0,1,3.2.7,7.3,7.3,0,0,0,2.1.8l.5-.2,3.6-4a1.2,1.2,0,0,0,.3-.9q0-1-2.2-3t-1.8-2.7h0q.6-1.3,6.4-4.9l3.2-2.1a24.9,24.9,0,0,0,3-2.4,17.6,17.6,0,0,0,2.4-2.9,10.8,10.8,0,0,0,1.5-3.6,5,5,0,0,0,.3-1.4c0-.7-.6-1-1.7-1l-2.4.2q-7.3.8-10.6,4t-3.8,6a1.3,1.3,0,0,0,.4,1l1.1.7,1.3.4,1.3.2a17.2,17.2,0,0,0-5,5.8h0a28.1,28.1,0,0,1-5.8,7.7q-2.3,2.3-4.3,2.3a1.6,1.6,0,0,1-1.6-.8,16.5,16.5,0,0,1-.7-1.9,1.6,1.6,0,0,0-1.6-1l-1.8.3h0l-5.9,1.9-6.9,2.7q-3.7,1.6-8,3.8T377,51.4a93.2,93.2,0,0,0-11,8,58.5,58.5,0,0,0-9.2,9.7,45.8,45.8,0,0,0-6.3,11.7,39.6,39.6,0,0,0-2.3,13.8,30.8,30.8,0,0,0,.8,7.2,23,23,0,0,0,1.8,5A146.7,146.7,0,0,1,336,121.4Zm91.3-98.1a3.5,3.5,0,0,1-1.2-1.2c-.3-.5-.2-.9.3-1.4a7.6,7.6,0,0,1,1.9-1.5l2.5-1.2,2.6-.8,2.5-.3q2.5,0,2.5.8t-8.4,6.3l-1.4-.2Z" transform="translate(-9 -13)" fill="#5a5a5c"/>
    <path d="M371.4,113.7a19.7,19.7,0,0,1-2.8,3,25.2,25.2,0,0,1-3.6,2.5,14.9,14.9,0,0,1-3.8,1.6,12.1,12.1,0,0,1-3.1.4h-4.4c-.4,0-.7.2-.7.5s.3.7.8,1.1a8.7,8.7,0,0,0,2.1.9l2.8.6,3.1.2a9.6,9.6,0,0,0,6.5-2.7,1.6,1.6,0,0,0,.7.8,7.7,7.7,0,0,0,1.9.9l2.7.7,3.1.3a9.7,9.7,0,0,0,5.9-1.9,14,14,0,0,0,4.1-4.9,25.6,25.6,0,0,0,1.6-3.6,44.9,44.9,0,0,0,1.3-4.4q.6-2.2,1-4.4t.6-3.7a34.7,34.7,0,0,0,.3-3.6c0-1-.1-1.4-.3-1.4s-.4.4-.7,1.5-.6,2.2-.9,3.5-.6,2.3-1,3.5a36.7,36.7,0,0,1-1.4,3.7,36.2,36.2,0,0,1-1.8,3.5,28.5,28.5,0,0,1-2.1,3.1,15.5,15.5,0,0,1-4,3.5,13.5,13.5,0,0,1-5,1.9l-3,.3h-2.5q3.4-3.4,6-10.3t2.5-9.8q0-4.5-3.6-4.5t-5.3,4.8a9.2,9.2,0,0,0-1.7,4.5q0,2.2,3.3,2.2h2.1a1.5,1.5,0,0,1,.9,1.1,3.6,3.6,0,0,1-.1,1.5A9.3,9.3,0,0,1,371.4,113.7Z" transform="translate(-9 -13)" fill="#5a5a5c"/>
    <path d="M392.1,23.7l1.1.5.5.2q1,0,2.7-2.3A18.4,18.4,0,0,0,399,18q.3-.7-1.5-2.1a5.9,5.9,0,0,0-3.6-1.4l-5,8.3,1.7.4Z" transform="translate(-9 -13)" fill="#5a5a5c"/>
    <path d="M431.6,63.4q.8,0,2.3-2a14.3,14.3,0,0,0,1.3-1.9l.9-1.7c.2-.3-.3-.9-1.3-1.8a5,5,0,0,0-3-1.2l-4.2,7.1a7.5,7.5,0,0,1,2.7.9Z" transform="translate(-9 -13)" fill="#5a5a5c"/>
    <path d="M428.9,55.3q1.2,0,3.6-3.8a9.2,9.2,0,0,1,2.3,1l1.2.7c.5,0,1.3-.7,2.5-2.1a9.5,9.5,0,0,0,2.1-3.4,2,2,0,0,0-.3-1,4,4,0,0,0-.8-1l-1.1-.8a2.8,2.8,0,0,0-1.3-.3L433.7,49a3.9,3.9,0,0,0-1.7-1.4,5.6,5.6,0,0,0-2.6-.7l-4.7,6.9,1.6.2,1.3.5.9.5Z" transform="translate(-9 -13)" fill="#5a5a5c"/>
    <path d="M461.8,52.1l1.1.5.5.2q1,0,2.7-2.3a18.4,18.4,0,0,0,2.6-4.2q.3-.7-1.5-2.1a5.9,5.9,0,0,0-3.6-1.4l-5,8.3,1.7.4Z" transform="translate(-9 -13)" fill="#5a5a5c"/>
    <path d="M454.1,87.7q10.5,0,19.1-10.3a52.1,52.1,0,0,0,7.3-11.6,57.1,57.1,0,0,0,4.4-14.2,4.6,4.6,0,0,1,.6-2.1h.4l.7-.2a10.3,10.3,0,0,0,6-3.9l2.4-3.1,2.1-3,1.2-1,1.6-1.5c1.2-1.2,1.9-2.3,1.9-3.2s-1-1.2-3-.8l-5,.8-3.7.3a15.8,15.8,0,0,1,8-5.1,2.1,2.1,0,0,1,2,.3l1.7,1.5a6.4,6.4,0,0,0,4.5,1.9q9.3,0,15.2-9,2.5-3.8,2.5-6.7t-2.8-3.2a6.4,6.4,0,0,0-4.2,1.6,30.1,30.1,0,0,0-3.5,3.5l-2.6,3.1L508.4,25a5,5,0,0,1-2.7-1.5,2.4,2.4,0,0,0-1.8-.9,7.3,7.3,0,0,0-2.1.4,29.1,29.1,0,0,0-8.4,4.6,32.7,32.7,0,0,0-3.7,3.1,19.3,19.3,0,0,0-2.6,3.1h0l-.9,1.9a4.1,4.1,0,0,0-.4,1.6q-.1,1.6,2.9,1.6l5.9-.6q-3.4,4.6-8,4.6a3.5,3.5,0,0,0-2.9.7c-.6.6-1,1.9-1,3.8s-.2,3.7-.4,5.4-.4,3.2-.7,4.5a22.3,22.3,0,0,1-3.3,7.9q-8,12.3-21.6,12.3-5.7-.3-8.4-3.4a10.9,10.9,0,0,1-2.9-7.1,23,23,0,0,1,1.1-7.2q1.1-3.3,2-5.7t-.1-1.9-3.7,7.4a44,44,0,0,0-2,6.8A36.6,36.6,0,0,0,442,73Q442.5,87.2,454.1,87.7Zm64.6-69q2.7,0,2.7,1.5a1,1,0,0,1-.2.6,13.2,13.2,0,0,1-10.2,4.5h-1.3Q515.2,18.7,518.7,18.7Z" transform="translate(-9 -13)" fill="#5a5a5c"/>
    <path d="M521.2,42.6q-.4,1.5-.9,3.5c-.3,1.1-.6,2.3-1,3.5a36.7,36.7,0,0,1-1.4,3.7,36.2,36.2,0,0,1-1.8,3.5,28.5,28.5,0,0,1-2.1,3.1,15.5,15.5,0,0,1-4,3.5,13.5,13.5,0,0,1-5,1.9l-3,.3h-2.8c-.2,0-.3.2-.3.4s.2.6.7.9a7.7,7.7,0,0,0,1.9.9l2.7.7,3.1.3a9.7,9.7,0,0,0,5.9-1.9,14,14,0,0,0,4.1-4.9,25.6,25.6,0,0,0,1.6-3.6,44.9,44.9,0,0,0,1.3-4.4q.6-2.2,1-4.4t.6-3.7a34.7,34.7,0,0,0,.3-3.6c0-1-.1-1.4-.3-1.4S521.5,41.6,521.2,42.6Z" transform="translate(-9 -13)" fill="#5a5a5c"/>
    <path d="M543.5,42.7a6.3,6.3,0,0,0-1.2-2,6.4,6.4,0,0,0-1.8-1.4,4.9,4.9,0,0,0-2.3-.5,7.8,7.8,0,0,0-6,3.1c-.9.9-1.3,1.6-1.3,2.1s.1.3.4.2h1.1l1.2-.2h.9a5.8,5.8,0,0,1,5.3,2.7,5,5,0,0,1,.7,2.2,6.7,6.7,0,0,1-.2,2.3,8.6,8.6,0,0,1-1,2.3,14.6,14.6,0,0,1-1.4,2,25.6,25.6,0,0,1-7.5,6,51.1,51.1,0,0,1-9.8,3.9q-2.5.8-2.5,1.6t2.9,1.9a8,8,0,0,0,5.1,0,18.4,18.4,0,0,0,5.4-2.7,31.5,31.5,0,0,0,4.9-4.4,34.8,34.8,0,0,0,3.9-5.1,17.5,17.5,0,0,0,1.3-2.5,31.4,31.4,0,0,0,1.2-3,28.1,28.1,0,0,0,.8-3.1,14.8,14.8,0,0,0,.3-2.9A6.7,6.7,0,0,0,543.5,42.7Z" transform="translate(-9 -13)" fill="#5a5a5c"/>
  </g>
</svg>
