<svg xmlns="http://www.w3.org/2000/svg" width="85" height="65" viewBox="43 38 85 65">
  <path fill="#E6E6E5" d="M114.33 41.99c.81 0 1.46.66 1.46 1.48v44.9c0 .82-.65 1.48-1.46 1.48H48.44c-.8 0-1.46-.66-1.46-1.48v-44.9c0-.82.65-1.48 1.46-1.48h65.89m0-3.99H48.44c-3 0-5.44 2.45-5.44 5.47v44.9c0 3.02 2.44 5.47 5.44 5.47h65.89c3.01 0 5.44-2.45 5.44-5.47v-44.9c0-3.02-2.43-5.47-5.44-5.47z"/>
  <path fill="#FFEE7A" d="M128 100.25c0 1.52-1.22 2.75-2.73 2.75H102.4c-1.51 0-2.73-1.23-2.73-2.75V61.81c0-1.52 1.23-2.75 2.73-2.75h22.87c1.51 0 2.73 1.23 2.73 2.75v38.44z"/>
  <path fill="#E6E6E5" d="M69.5 99.34h25.59V103H69.5v-3.66z"/>
</svg>
