<svg xmlns="http://www.w3.org/2000/svg" width="68" height="69" viewBox="50 35 68 69">
  <circle cx="103.5" cy="89.5" r="14.5" fill="#FFEE7A"/>
  <path fill="#E6E6E5" d="M64.5 79C70.29 79 75 83.71 75 89.5S70.29 100 64.5 100 54 95.29 54 89.5 58.71 79 64.5 79m0-4C56.49 75 50 81.49 50 89.5S56.49 104 64.5 104 79 97.51 79 89.5 72.51 75 64.5 75z"/>
  <path fill="#E6E6E5" d="M64.5 39C70.29 39 75 43.71 75 49.5S70.29 60 64.5 60 54 55.29 54 49.5 58.71 39 64.5 39m0-4C56.49 35 50 41.49 50 49.5S56.49 64 64.5 64 79 57.51 79 49.5 72.51 35 64.5 35z"/>
  <path fill="#E6E6E5" d="M103.5 39c5.79 0 10.5 4.71 10.5 10.5S109.29 60 103.5 60 93 55.29 93 49.5 97.71 39 103.5 39m0-4C95.49 35 89 41.49 89 49.5S95.49 64 103.5 64 118 57.51 118 49.5 111.51 35 103.5 35z"/>
</svg>
