<svg xmlns="http://www.w3.org/2000/svg" width="70" height="75.111" viewBox="49.5 32.28 70 75.111">
  <path fill="#E6E6E5" d="M84.5 100.14c-18.56 0-33.65-15.22-33.65-33.93s15.1-33.93 33.65-33.93c18.56 0 33.65 15.22 33.65 33.93 0 18.7-15.09 33.93-33.65 33.93zm0-63.61c-16.22 0-29.42 13.31-29.42 29.67s13.2 29.67 29.42 29.67c16.22 0 29.42-13.31 29.42-29.67s-13.2-29.67-29.42-29.67z"/>
  <path fill="#FFEF7B" d="M84.58 107.39c-14.29 0-27.74-7.7-35.08-20.08l15.98-9.63c4.06 6.85 11.2 10.94 19.1 10.94 7.83 0 14.94-4.03 19.01-10.79l15.91 9.74c-7.47 12.41-20.53 19.82-34.92 19.82z"/>
</svg>
